%TF.GenerationSoftware,KiCad,Pcbnew,10.0.6*%
%TF.CreationDate,2026-09-26T12:28:07-05:00*%
%TF.ProjectId,puck-revA,7075636b-2d72-4657-9641-2e6b69636164,rev?*%
%TF.SameCoordinates,Original*%
%TF.FileFunction,Legend,Top*%
%TF.FilePolarity,Positive*%
%FSLAX46Y46*%
G04 Gerber Fmt 4.6, Leading zero omitted, Abs format (unit mm)*
G04 Created by KiCad (PCBNEW 10.0.6) date 2026-09-26 12:28:07*
%MOMM*%
%LPD*%
G01*
G04 APERTURE LIST*
%ADD10C,0.120000*%
%ADD11C,0.150000*%
G04 APERTURE END LIST*
D10*
X95151771Y-78715907D02*
X95345647Y-79333825D01*
X95345647Y-79333825D02*
X95404804Y-79395116D01*
X95404804Y-79395116D02*
X95452556Y-79420060D01*
X95452556Y-79420060D02*
X95536657Y-79433599D01*
X95536657Y-79433599D02*
X95682050Y-79387981D01*
X95682050Y-79387981D02*
X95743341Y-79328824D01*
X95743341Y-79328824D02*
X95768285Y-79281072D01*
X95768285Y-79281072D02*
X95781824Y-79196971D01*
X95781824Y-79196971D02*
X95587948Y-78579053D01*
X96086148Y-79021635D02*
X96449629Y-78907590D01*
X96081879Y-79262532D02*
X96096822Y-78419391D01*
X96096822Y-78419391D02*
X96590752Y-79102870D01*
X97281366Y-78886185D02*
X96912885Y-78602535D01*
X96845189Y-79023039D02*
X96605695Y-78259728D01*
X96605695Y-78259728D02*
X96896480Y-78168492D01*
X96896480Y-78168492D02*
X96980581Y-78182032D01*
X96980581Y-78182032D02*
X97028333Y-78206975D01*
X97028333Y-78206975D02*
X97087490Y-78268267D01*
X97087490Y-78268267D02*
X97121704Y-78377311D01*
X97121704Y-78377311D02*
X97108164Y-78461412D01*
X97108164Y-78461412D02*
X97083221Y-78509165D01*
X97083221Y-78509165D02*
X97021929Y-78568322D01*
X97021929Y-78568322D02*
X96731144Y-78659557D01*
X97259961Y-78054448D02*
X97696138Y-77917594D01*
X97717543Y-78749331D02*
X97478050Y-77986021D01*
X79241535Y-91578624D02*
X79443836Y-91404885D01*
X79803555Y-91648329D02*
X79514552Y-91896527D01*
X79514552Y-91896527D02*
X78993336Y-91289621D01*
X78993336Y-91289621D02*
X79282339Y-91041423D01*
X79484641Y-90867684D02*
X80410460Y-91127112D01*
X79889244Y-90520207D02*
X80005857Y-91474590D01*
X80641663Y-90928554D02*
X80120447Y-90321648D01*
X80120447Y-90321648D02*
X80351649Y-90123090D01*
X80351649Y-90123090D02*
X80434269Y-90102351D01*
X80434269Y-90102351D02*
X80487989Y-90106431D01*
X80487989Y-90106431D02*
X80566529Y-90139412D01*
X80566529Y-90139412D02*
X80640988Y-90226112D01*
X80640988Y-90226112D02*
X80661728Y-90308733D01*
X80661728Y-90308733D02*
X80657647Y-90362453D01*
X80657647Y-90362453D02*
X80624666Y-90440993D01*
X80624666Y-90440993D02*
X80393464Y-90639551D01*
X86447824Y-112860642D02*
X86598322Y-112420658D01*
X86178319Y-112491391D02*
X86824508Y-112019757D01*
X86824508Y-112019757D02*
X87004179Y-112265924D01*
X87004179Y-112265924D02*
X87018325Y-112349925D01*
X87018325Y-112349925D02*
X87010013Y-112403155D01*
X87010013Y-112403155D02*
X86970930Y-112478843D01*
X86970930Y-112478843D02*
X86878617Y-112546219D01*
X86878617Y-112546219D02*
X86794617Y-112560366D01*
X86794617Y-112560366D02*
X86741387Y-112552054D01*
X86741387Y-112552054D02*
X86665698Y-112512971D01*
X86665698Y-112512971D02*
X86486028Y-112266803D01*
X86658266Y-113084351D02*
X86694871Y-113199123D01*
X86694871Y-113199123D02*
X86807165Y-113352977D01*
X86807165Y-113352977D02*
X86882853Y-113392060D01*
X86882853Y-113392060D02*
X86936083Y-113400372D01*
X86936083Y-113400372D02*
X87020084Y-113386226D01*
X87020084Y-113386226D02*
X87081626Y-113341308D01*
X87081626Y-113341308D02*
X87120709Y-113265620D01*
X87120709Y-113265620D02*
X87129021Y-113212390D01*
X87129021Y-113212390D02*
X87114874Y-113128389D01*
X87114874Y-113128389D02*
X87055810Y-112982847D01*
X87055810Y-112982847D02*
X87041663Y-112898846D01*
X87041663Y-112898846D02*
X87049975Y-112845617D01*
X87049975Y-112845617D02*
X87089059Y-112769928D01*
X87089059Y-112769928D02*
X87150600Y-112725010D01*
X87150600Y-112725010D02*
X87234601Y-112710864D01*
X87234601Y-112710864D02*
X87287831Y-112719176D01*
X87287831Y-112719176D02*
X87363519Y-112758259D01*
X87363519Y-112758259D02*
X87475813Y-112912114D01*
X87475813Y-112912114D02*
X87512419Y-113026885D01*
X87677942Y-113189052D02*
X87947448Y-113558303D01*
X87166506Y-113845312D02*
X87812695Y-113373678D01*
D11*
X80943097Y-101085706D02*
X80981208Y-100971425D01*
X80981208Y-100971425D02*
X81019309Y-100933335D01*
X81019309Y-100933335D02*
X81095505Y-100895251D01*
X81095505Y-100895251D02*
X81209790Y-100895266D01*
X81209790Y-100895266D02*
X81285976Y-100933372D01*
X81285976Y-100933372D02*
X81324066Y-100971473D01*
X81324066Y-100971473D02*
X81362150Y-101047668D01*
X81362150Y-101047668D02*
X81362108Y-101352430D01*
X81362108Y-101352430D02*
X80562108Y-101352320D01*
X80562108Y-101352320D02*
X80562145Y-101085653D01*
X80562145Y-101085653D02*
X80600251Y-101009468D01*
X80600251Y-101009468D02*
X80638351Y-100971378D01*
X80638351Y-100971378D02*
X80714547Y-100933293D01*
X80714547Y-100933293D02*
X80790737Y-100933304D01*
X80790737Y-100933304D02*
X80866923Y-100971410D01*
X80866923Y-100971410D02*
X80905013Y-101009510D01*
X80905013Y-101009510D02*
X80943097Y-101085706D01*
X80943097Y-101085706D02*
X80943061Y-101352372D01*
X80562240Y-100399939D02*
X80562261Y-100247558D01*
X80562261Y-100247558D02*
X80600366Y-100171373D01*
X80600366Y-100171373D02*
X80676567Y-100095193D01*
X80676567Y-100095193D02*
X80828954Y-100057119D01*
X80828954Y-100057119D02*
X81095620Y-100057155D01*
X81095620Y-100057155D02*
X81247996Y-100095272D01*
X81247996Y-100095272D02*
X81324176Y-100171473D01*
X81324176Y-100171473D02*
X81362261Y-100247668D01*
X81362261Y-100247668D02*
X81362240Y-100400049D01*
X81362240Y-100400049D02*
X81324134Y-100476235D01*
X81324134Y-100476235D02*
X81247933Y-100552415D01*
X81247933Y-100552415D02*
X81095547Y-100590489D01*
X81095547Y-100590489D02*
X80828880Y-100590452D01*
X80828880Y-100590452D02*
X80676504Y-100552336D01*
X80676504Y-100552336D02*
X80600324Y-100476135D01*
X80600324Y-100476135D02*
X80562240Y-100399939D01*
X80562355Y-99561844D02*
X80562376Y-99409463D01*
X80562376Y-99409463D02*
X80600482Y-99333278D01*
X80600482Y-99333278D02*
X80676683Y-99257098D01*
X80676683Y-99257098D02*
X80829069Y-99219024D01*
X80829069Y-99219024D02*
X81095736Y-99219060D01*
X81095736Y-99219060D02*
X81248111Y-99257177D01*
X81248111Y-99257177D02*
X81324291Y-99333378D01*
X81324291Y-99333378D02*
X81362376Y-99409573D01*
X81362376Y-99409573D02*
X81362355Y-99561954D01*
X81362355Y-99561954D02*
X81324249Y-99638140D01*
X81324249Y-99638140D02*
X81248048Y-99714320D01*
X81248048Y-99714320D02*
X81095662Y-99752394D01*
X81095662Y-99752394D02*
X80828996Y-99752357D01*
X80828996Y-99752357D02*
X80676620Y-99714241D01*
X80676620Y-99714241D02*
X80600440Y-99638040D01*
X80600440Y-99638040D02*
X80562355Y-99561844D01*
X80562434Y-98990416D02*
X80562497Y-98533273D01*
X81362465Y-98761955D02*
X80562465Y-98761844D01*
X81603207Y-103404522D02*
X80987488Y-103605273D01*
X80987488Y-103605273D02*
X80926860Y-103665110D01*
X80926860Y-103665110D02*
X80902450Y-103713138D01*
X80902450Y-103713138D02*
X80889849Y-103797384D01*
X80889849Y-103797384D02*
X80937085Y-103942259D01*
X80937085Y-103942259D02*
X80996922Y-104002887D01*
X80996922Y-104002887D02*
X81044949Y-104027297D01*
X81044949Y-104027297D02*
X81129196Y-104039898D01*
X81129196Y-104039898D02*
X81744914Y-103839146D01*
X81126820Y-104401293D02*
X81126028Y-104521758D01*
X81126028Y-104521758D02*
X81185073Y-104702852D01*
X81185073Y-104702852D02*
X81244909Y-104763481D01*
X81244909Y-104763481D02*
X81292937Y-104787890D01*
X81292937Y-104787890D02*
X81377183Y-104800491D01*
X81377183Y-104800491D02*
X81449621Y-104776873D01*
X81449621Y-104776873D02*
X81510249Y-104717037D01*
X81510249Y-104717037D02*
X81534659Y-104669009D01*
X81534659Y-104669009D02*
X81547260Y-104584763D01*
X81547260Y-104584763D02*
X81536243Y-104428079D01*
X81536243Y-104428079D02*
X81548844Y-104343832D01*
X81548844Y-104343832D02*
X81573254Y-104295805D01*
X81573254Y-104295805D02*
X81633882Y-104235968D01*
X81633882Y-104235968D02*
X81706319Y-104212350D01*
X81706319Y-104212350D02*
X81790566Y-104224951D01*
X81790566Y-104224951D02*
X81838594Y-104249361D01*
X81838594Y-104249361D02*
X81898430Y-104309989D01*
X81898430Y-104309989D02*
X81957475Y-104491083D01*
X81957475Y-104491083D02*
X81956683Y-104611548D01*
X81480296Y-105608320D02*
X81759821Y-105236700D01*
X81338589Y-105173696D02*
X82099182Y-104925708D01*
X82099182Y-104925708D02*
X82193654Y-105215458D01*
X82193654Y-105215458D02*
X82181053Y-105299704D01*
X82181053Y-105299704D02*
X82156643Y-105347732D01*
X82156643Y-105347732D02*
X82096014Y-105407569D01*
X82096014Y-105407569D02*
X81987358Y-105442995D01*
X81987358Y-105442995D02*
X81903112Y-105430394D01*
X81903112Y-105430394D02*
X81855084Y-105405985D01*
X81855084Y-105405985D02*
X81795248Y-105345356D01*
X81795248Y-105345356D02*
X81700776Y-105055606D01*
X98720041Y-121147725D02*
X98720041Y-120147725D01*
X98720041Y-120147725D02*
X98958136Y-120147725D01*
X98958136Y-120147725D02*
X99100993Y-120195344D01*
X99100993Y-120195344D02*
X99196231Y-120290582D01*
X99196231Y-120290582D02*
X99243850Y-120385820D01*
X99243850Y-120385820D02*
X99291469Y-120576296D01*
X99291469Y-120576296D02*
X99291469Y-120719153D01*
X99291469Y-120719153D02*
X99243850Y-120909629D01*
X99243850Y-120909629D02*
X99196231Y-121004867D01*
X99196231Y-121004867D02*
X99100993Y-121100106D01*
X99100993Y-121100106D02*
X98958136Y-121147725D01*
X98958136Y-121147725D02*
X98720041Y-121147725D01*
X99672422Y-120242963D02*
X99720041Y-120195344D01*
X99720041Y-120195344D02*
X99815279Y-120147725D01*
X99815279Y-120147725D02*
X100053374Y-120147725D01*
X100053374Y-120147725D02*
X100148612Y-120195344D01*
X100148612Y-120195344D02*
X100196231Y-120242963D01*
X100196231Y-120242963D02*
X100243850Y-120338201D01*
X100243850Y-120338201D02*
X100243850Y-120433439D01*
X100243850Y-120433439D02*
X100196231Y-120576296D01*
X100196231Y-120576296D02*
X99624803Y-121147725D01*
X99624803Y-121147725D02*
X100243850Y-121147725D01*
X99803768Y-79761912D02*
X99803768Y-78761912D01*
X99803768Y-78761912D02*
X100041863Y-78761912D01*
X100041863Y-78761912D02*
X100184720Y-78809531D01*
X100184720Y-78809531D02*
X100279958Y-78904769D01*
X100279958Y-78904769D02*
X100327577Y-79000007D01*
X100327577Y-79000007D02*
X100375196Y-79190483D01*
X100375196Y-79190483D02*
X100375196Y-79333340D01*
X100375196Y-79333340D02*
X100327577Y-79523816D01*
X100327577Y-79523816D02*
X100279958Y-79619054D01*
X100279958Y-79619054D02*
X100184720Y-79714293D01*
X100184720Y-79714293D02*
X100041863Y-79761912D01*
X100041863Y-79761912D02*
X99803768Y-79761912D01*
X101279958Y-78761912D02*
X100803768Y-78761912D01*
X100803768Y-78761912D02*
X100756149Y-79238102D01*
X100756149Y-79238102D02*
X100803768Y-79190483D01*
X100803768Y-79190483D02*
X100899006Y-79142864D01*
X100899006Y-79142864D02*
X101137101Y-79142864D01*
X101137101Y-79142864D02*
X101232339Y-79190483D01*
X101232339Y-79190483D02*
X101279958Y-79238102D01*
X101279958Y-79238102D02*
X101327577Y-79333340D01*
X101327577Y-79333340D02*
X101327577Y-79571435D01*
X101327577Y-79571435D02*
X101279958Y-79666673D01*
X101279958Y-79666673D02*
X101232339Y-79714293D01*
X101232339Y-79714293D02*
X101137101Y-79761912D01*
X101137101Y-79761912D02*
X100899006Y-79761912D01*
X100899006Y-79761912D02*
X100803768Y-79714293D01*
X100803768Y-79714293D02*
X100756149Y-79666673D01*
%TO.C,Q1*%
D10*
X102940000Y-87240000D02*
X103940000Y-87240000D01*
X102940000Y-88760000D02*
X102940000Y-87240000D01*
X102990000Y-88760000D02*
X102940000Y-88760000D01*
X104890000Y-88760000D02*
X104110000Y-88760000D01*
X105060000Y-87240000D02*
X106060000Y-87240000D01*
X106060000Y-87240000D02*
X106060000Y-88760000D01*
X106060000Y-88760000D02*
X106010000Y-88760000D01*
X104120000Y-89300000D02*
X104450000Y-89060000D01*
X104450000Y-89540000D01*
X104120000Y-89300000D01*
G36*
X104450000Y-89540000D02*
G01*
X104120000Y-89300000D01*
X104450000Y-89060000D01*
X104450000Y-89540000D01*
G37*
%TO.C,C102*%
X88490000Y-106640580D02*
X88490000Y-106359420D01*
X89510000Y-106640580D02*
X89510000Y-106359420D01*
%TO.C,R10*%
X100762742Y-88477500D02*
X101237258Y-88477500D01*
X100762742Y-89522500D02*
X101237258Y-89522500D01*
%TO.C,SW1*%
X76250303Y-97796686D02*
X76249697Y-102196686D01*
X77749697Y-102196893D02*
X77849697Y-102196907D01*
X77750303Y-97796893D02*
X77850303Y-97796907D01*
X79349697Y-102197114D02*
X79349841Y-101147114D01*
X79350159Y-98847114D02*
X79350303Y-97797114D01*
%TO.C,C103*%
X100359420Y-86490000D02*
X100640580Y-86490000D01*
X100359420Y-87510000D02*
X100640580Y-87510000D01*
%TO.C,R11*%
X110477500Y-94237258D02*
X110477500Y-93762742D01*
X111522500Y-94237258D02*
X111522500Y-93762742D01*
%TO.C,J2*%
X88840336Y-79647419D02*
X89092426Y-80450875D01*
X89282777Y-81057560D02*
X89534867Y-81861018D01*
X92413582Y-78526287D02*
X88840336Y-79647419D01*
X92413582Y-78526287D02*
X92561258Y-78996956D01*
X92960439Y-80269219D02*
X93108114Y-80739887D01*
X93108114Y-80739887D02*
X89534867Y-81861018D01*
X93186434Y-78283800D02*
X93959286Y-78041313D01*
X93959286Y-78041313D02*
X94306552Y-79148113D01*
%TO.C,C7*%
X95864681Y-87558517D02*
X95598839Y-87650054D01*
X96196761Y-88522946D02*
X95930919Y-88614483D01*
%TO.C,R9*%
X116262742Y-115477500D02*
X116737258Y-115477500D01*
X116262742Y-116522500D02*
X116737258Y-116522500D01*
%TO.C,C10*%
X95240000Y-84140580D02*
X95240000Y-83859420D01*
X96260000Y-84140580D02*
X96260000Y-83859420D01*
%TO.C,J3*%
X79788946Y-87356122D02*
X80337576Y-87994948D01*
X80751843Y-88477321D02*
X81300473Y-89116147D01*
X84556945Y-83261319D02*
X79788946Y-87356122D01*
X84556945Y-83261319D02*
X84878335Y-83635546D01*
X85171437Y-82733587D02*
X85785928Y-82205856D01*
X85747082Y-84647117D02*
X86068472Y-85021344D01*
X85785928Y-82205856D02*
X86541691Y-83085869D01*
X86068472Y-85021344D02*
X81300473Y-89116147D01*
%TO.C,R18*%
X107762742Y-114977500D02*
X108237258Y-114977500D01*
X107762742Y-116022500D02*
X108237258Y-116022500D01*
%TO.C,D3*%
X83924141Y-111573211D02*
X81538347Y-107179126D01*
X86434657Y-105089593D02*
X85932432Y-104793332D01*
X88581871Y-109044270D02*
X86434657Y-105089593D01*
%TO.C,R7*%
X89120000Y-98653641D02*
X89120000Y-98346359D01*
X89880000Y-98653641D02*
X89880000Y-98346359D01*
%TO.C,R16*%
X110477500Y-101737258D02*
X110477500Y-101262742D01*
X111522500Y-101737258D02*
X111522500Y-101262742D01*
%TO.C,D2*%
X97625045Y-114292728D02*
X97117364Y-114579537D01*
X101984765Y-119708708D02*
X96986479Y-119577824D01*
X102123503Y-114410524D02*
X97625045Y-114292728D01*
%TO.C,C104*%
X117490000Y-88640580D02*
X117490000Y-88359420D01*
X118510000Y-88640580D02*
X118510000Y-88359420D01*
%TO.C,U3*%
X108440000Y-85090000D02*
X108490000Y-85090000D01*
X108440000Y-86910000D02*
X108440000Y-85090000D01*
X108490000Y-86910000D02*
X108440000Y-86910000D01*
X109610000Y-85090000D02*
X110390000Y-85090000D01*
X111510000Y-85090000D02*
X111560000Y-85090000D01*
X111560000Y-85090000D02*
X111560000Y-86910000D01*
X111560000Y-86910000D02*
X111510000Y-86910000D01*
X108490000Y-87450000D02*
X108160000Y-87690000D01*
X108160000Y-87210000D01*
X108490000Y-87450000D01*
G36*
X108490000Y-87450000D02*
G01*
X108160000Y-87690000D01*
X108160000Y-87210000D01*
X108490000Y-87450000D01*
G37*
%TO.C,C101*%
X117490000Y-111640580D02*
X117490000Y-111359420D01*
X118510000Y-111640580D02*
X118510000Y-111359420D01*
%TO.C,SW3*%
X78246464Y-104768162D02*
X78170404Y-104792960D01*
X79616596Y-108970440D02*
X79540536Y-108995238D01*
X79691591Y-104296985D02*
X80032574Y-105342801D01*
X80720740Y-107453447D02*
X81061723Y-108499263D01*
%TO.C,U6*%
X119540000Y-109910000D02*
X119540000Y-109560000D01*
X121460000Y-108090000D02*
X121460000Y-108440000D01*
X121460000Y-109560000D02*
X121460000Y-109910000D01*
X119450000Y-108430000D02*
X119310000Y-108240000D01*
X119590000Y-108240000D01*
X119450000Y-108430000D01*
G36*
X119450000Y-108430000D02*
G01*
X119310000Y-108240000D01*
X119590000Y-108240000D01*
X119450000Y-108430000D01*
G37*
%TO.C,R6*%
X111024732Y-104937440D02*
X111210140Y-104500646D01*
X111986660Y-105345754D02*
X112172068Y-104908960D01*
%TO.C,D6*%
X111095532Y-90562751D02*
X113379454Y-94440082D01*
X113379454Y-94440082D02*
X113891712Y-94718635D01*
X115662166Y-87872797D02*
X118199858Y-92180943D01*
%TO.C,U4*%
X119440000Y-91590000D02*
X119490000Y-91590000D01*
X119440000Y-93410000D02*
X119440000Y-91590000D01*
X119490000Y-93410000D02*
X119440000Y-93410000D01*
X122510000Y-91590000D02*
X122560000Y-91590000D01*
X122560000Y-91590000D02*
X122560000Y-93410000D01*
X122560000Y-93410000D02*
X122510000Y-93410000D01*
X119490000Y-93950000D02*
X119160000Y-94190000D01*
X119160000Y-93710000D01*
X119490000Y-93950000D01*
G36*
X119490000Y-93950000D02*
G01*
X119160000Y-94190000D01*
X119160000Y-93710000D01*
X119490000Y-93950000D01*
G37*
%TO.C,Q2*%
X107240000Y-110940000D02*
X108760000Y-110940000D01*
X107240000Y-110990000D02*
X107240000Y-110940000D01*
X107240000Y-112890000D02*
X107240000Y-112110000D01*
X107240000Y-114060000D02*
X107240000Y-114010000D01*
X108760000Y-110940000D02*
X108760000Y-111940000D01*
X108760000Y-113060000D02*
X108760000Y-114060000D01*
X108760000Y-114060000D02*
X107240000Y-114060000D01*
X106700000Y-112120000D02*
X106940000Y-112450000D01*
X106460000Y-112450000D01*
X106700000Y-112120000D01*
G36*
X106940000Y-112450000D02*
G01*
X106460000Y-112450000D01*
X106700000Y-112120000D01*
X106940000Y-112450000D01*
G37*
%TO.C,R8*%
X117762742Y-113477500D02*
X118237258Y-113477500D01*
X117762742Y-114522500D02*
X118237258Y-114522500D01*
%TO.C,U2*%
X104865000Y-83110000D02*
X104865000Y-80890000D01*
X107135000Y-81304432D02*
X107135000Y-83110000D01*
X107140000Y-81010000D02*
X107330000Y-80870000D01*
X107330000Y-81150000D01*
X107140000Y-81010000D01*
G36*
X107330000Y-81150000D02*
G01*
X107140000Y-81010000D01*
X107330000Y-80870000D01*
X107330000Y-81150000D01*
G37*
%TO.C,R3*%
X87570866Y-98455126D02*
X87521262Y-98927042D01*
X88610138Y-98564358D02*
X88560534Y-99036274D01*
%TO.C,U7*%
X91440000Y-83090000D02*
X91490000Y-83090000D01*
X91440000Y-84910000D02*
X91440000Y-83090000D01*
X91490000Y-84910000D02*
X91440000Y-84910000D01*
X94510000Y-83090000D02*
X94560000Y-83090000D01*
X94560000Y-83090000D02*
X94560000Y-84910000D01*
X94560000Y-84910000D02*
X94510000Y-84910000D01*
X91490000Y-85450000D02*
X91160000Y-85690000D01*
X91160000Y-85210000D01*
X91490000Y-85450000D01*
G36*
X91490000Y-85450000D02*
G01*
X91160000Y-85690000D01*
X91160000Y-85210000D01*
X91490000Y-85450000D01*
G37*
%TO.C,C3*%
X87987072Y-94748123D02*
X87877214Y-95006932D01*
X88925986Y-95146668D02*
X88816128Y-95405477D01*
%TO.C,C13*%
X114140580Y-100240000D02*
X113859420Y-100240000D01*
X114140580Y-101260000D02*
X113859420Y-101260000D01*
%TO.C,R5*%
X103707759Y-111496710D02*
X104156422Y-111342223D01*
X104047978Y-112484777D02*
X104496641Y-112330290D01*
%TO.C,C12*%
X106740000Y-86140580D02*
X106740000Y-85859420D01*
X107760000Y-86140580D02*
X107760000Y-85859420D01*
%TO.C,R14*%
X111477500Y-82237258D02*
X111477500Y-81762742D01*
X112522500Y-82237258D02*
X112522500Y-81762742D01*
%TO.C,D1*%
X111190388Y-109203134D02*
X111184931Y-109786204D01*
X113541632Y-105366253D02*
X111190388Y-109203134D01*
X118060625Y-108135496D02*
X115448132Y-112398697D01*
%TO.C,D4*%
X81939374Y-91864503D02*
X84551867Y-87601302D01*
X86458367Y-94633746D02*
X88809611Y-90796865D01*
X88809611Y-90796865D02*
X88815068Y-90213795D01*
%TO.C,R15*%
X110477500Y-98237258D02*
X110477500Y-97762742D01*
X111522500Y-98237258D02*
X111522500Y-97762742D01*
%TO.C,U5*%
X85511800Y-118274089D02*
X87105563Y-119432026D01*
X87031452Y-116658832D02*
X88406781Y-117658067D01*
X86684334Y-116456078D02*
X86457809Y-116291498D01*
X86848914Y-116229553D01*
X86684334Y-116456078D01*
G36*
X86684334Y-116456078D02*
G01*
X86457809Y-116291498D01*
X86848914Y-116229553D01*
X86684334Y-116456078D01*
G37*
%TO.C,SW2*%
X79519213Y-112224571D02*
X82113203Y-115778613D01*
X80730818Y-111340256D02*
X80811592Y-111281302D01*
X82642217Y-111245111D02*
X82023197Y-110396987D01*
X83324808Y-114894298D02*
X83405582Y-114835344D01*
X84617187Y-113951029D02*
X83998167Y-113102905D01*
%TO.C,C9*%
X105761252Y-78265000D02*
X105238748Y-78265000D01*
X105761252Y-79735000D02*
X105238748Y-79735000D01*
%TO.C,R13*%
X111762742Y-112977500D02*
X112237258Y-112977500D01*
X111762742Y-114022500D02*
X112237258Y-114022500D01*
%TO.C,C11*%
X89740000Y-84140580D02*
X89740000Y-83859420D01*
X90760000Y-84140580D02*
X90760000Y-83859420D01*
%TO.C,C8*%
X120359420Y-106240000D02*
X120640580Y-106240000D01*
X120359420Y-107260000D02*
X120640580Y-107260000D01*
%TO.C,J1*%
X121230000Y-95330000D02*
X119530000Y-95330000D01*
X121230000Y-104670000D02*
X119530000Y-104670000D01*
%TO.C,R12*%
X87977500Y-86237258D02*
X87977500Y-85762742D01*
X89022500Y-86237258D02*
X89022500Y-85762742D01*
%TO.C,U8*%
X113090000Y-96440000D02*
X114910000Y-96440000D01*
X113090000Y-96490000D02*
X113090000Y-96440000D01*
X113090000Y-99560000D02*
X113090000Y-99510000D01*
X114910000Y-96440000D02*
X114910000Y-96490000D01*
X114910000Y-99510000D02*
X114910000Y-99560000D01*
X114910000Y-99560000D02*
X113090000Y-99560000D01*
X115450000Y-99510000D02*
X115690000Y-99840000D01*
X115210000Y-99840000D01*
X115450000Y-99510000D01*
G36*
X115690000Y-99840000D02*
G01*
X115210000Y-99840000D01*
X115450000Y-99510000D01*
X115690000Y-99840000D01*
G37*
%TO.C,U1*%
X90800000Y-90200000D02*
X109200000Y-90200000D01*
X90800000Y-108800000D02*
X90800000Y-109800000D01*
X90800000Y-109800000D02*
X92300000Y-109800000D01*
X109200000Y-90200000D02*
X109200000Y-90900000D01*
X109200000Y-109800000D02*
X107700000Y-109800000D01*
X109200000Y-109800000D02*
X109200000Y-108800000D01*
X90800000Y-90950000D02*
X90300000Y-90950000D01*
X90800000Y-90450000D01*
X90800000Y-90950000D01*
G36*
X90800000Y-90950000D02*
G01*
X90300000Y-90950000D01*
X90800000Y-90450000D01*
X90800000Y-90950000D01*
G37*
%TO.C,C1*%
X91738748Y-86765000D02*
X92261252Y-86765000D01*
X91738748Y-88235000D02*
X92261252Y-88235000D01*
%TO.C,R4*%
X108262742Y-88477500D02*
X108737258Y-88477500D01*
X108262742Y-89522500D02*
X108737258Y-89522500D01*
%TO.C,C2*%
X108988748Y-78265000D02*
X109511252Y-78265000D01*
X108988748Y-79735000D02*
X109511252Y-79735000D01*
%TO.C,R17*%
X113262742Y-101977500D02*
X113737258Y-101977500D01*
X113262742Y-103022500D02*
X113737258Y-103022500D01*
%TO.C,D5*%
X97876496Y-85589475D02*
X102374954Y-85707271D01*
X98015234Y-80291291D02*
X103013520Y-80422175D01*
X102374954Y-85707271D02*
X102882635Y-85420462D01*
%TD*%
M02*
