M48
; DRILL file KiCad 10.0.6 date 2026-09-26T16:36:25
; FORMAT={-:-/ absolute / metric / decimal}
; #@! TF.CreationDate,2026-09-26T16:36:25-05:00
; #@! TF.GenerationSoftware,Kicad,Pcbnew,10.0.6
; #@! TF.FileFunction,Plated,1,4,PTH
FMAT,2
METRIC
; #@! TA.AperFunction,Plated,PTH,ViaDrill
T1C0.200
; #@! TA.AperFunction,Plated,PTH,ComponentDrill
T2C0.200
; #@! TA.AperFunction,Plated,PTH,ViaDrill
T3C0.250
; #@! TA.AperFunction,Plated,PTH,ViaDrill
T4C0.300
; #@! TA.AperFunction,Plated,PTH,ComponentDrill
T5C0.600
; #@! TA.AperFunction,Plated,PTH,ComponentDrill
T6C0.650
%
G90
G05
T1
X82.85Y-101.825
X84.125Y-101.875
X84.875Y-97.775
X84.975Y-99.275
X85.275Y-101.625
X85.874Y-113.811
X85.876Y-102.433
X87.95Y-93.7
X87.995Y-87.853
X88.933Y-103.116
X90.25Y-115.3
X91.95Y-90.65
X92.014Y-88.388
X92.35Y-94.75
X93.109Y-116.72
X93.925Y-86.499
X94.646Y-79.496
X94.8Y-92.0
X95.775Y-88.275
X96.15Y-87.1
X97.67Y-83.319
X97.69Y-89.605
X98.1Y-108.1
X98.25Y-114.35
X100.9Y-91.8
X100.975Y-98.955
X100.997Y-100.122
X102.35Y-105.95
X102.4Y-103.75
X102.4Y-104.7
X102.475Y-111.7
X102.925Y-106.65
X103.592Y-94.703
X104.525Y-82.0
X104.725Y-91.725
X104.725Y-92.55
X104.8Y-88.925
X105.225Y-86.35
X106.525Y-90.45
X106.62Y-84.316
X106.7Y-92.3
X106.925Y-88.8
X107.128Y-80.294
X108.425Y-88.8
X109.175Y-110.825
X109.85Y-93.675
X109.925Y-98.975
X110.075Y-110.825
X110.329Y-112.762
X110.65Y-106.45
X110.9Y-86.0
X111.379Y-108.441
X111.5Y-85.775
X111.85Y-96.75
X111.9Y-103.1
X112.85Y-104.15
X114.0Y-110.85
X114.774Y-92.639
X114.8Y-107.7
X115.0Y-82.552
X115.25Y-106.37
X116.846Y-103.843
X117.275Y-109.0
X117.9Y-108.2
X118.312Y-105.32
X119.015Y-97.854
X119.041Y-101.427
X119.375Y-108.3
X119.5Y-110.425
X120.15Y-105.875
X120.35Y-112.75
X120.7Y-110.85
X121.0Y-92.5
X121.0Y-94.5
X121.058Y-102.529
X122.35Y-109.0
X122.751Y-94.412
T2
X97.1Y-98.61
X97.1Y-100.01
X97.8Y-97.91
X97.8Y-99.31
X97.8Y-100.71
X98.5Y-98.61
X98.5Y-100.01
X99.2Y-97.91
X99.2Y-99.31
X99.2Y-100.71
X99.9Y-98.61
X99.9Y-100.01
X105.45Y-82.0
X106.55Y-82.0
T3
X84.1Y-111.9
X92.125Y-108.95
X92.875Y-106.125
X118.55Y-90.15
X118.65Y-100.55
T4
X80.0Y-99.997
X80.05Y-103.85
X82.2Y-94.5
X82.85Y-108.8
X83.05Y-105.35
X83.65Y-108.8
X84.1Y-99.85
X84.3Y-102.65
X85.5Y-109.9
X85.75Y-89.7
X85.85Y-91.5
X86.106Y-99.945
X86.106Y-100.745
X86.4Y-95.1
X86.4Y-97.25
X86.5Y-88.6
X86.65Y-91.45
X86.9Y-117.9
X87.25Y-85.175
X87.25Y-86.825
X87.3Y-108.1
X87.35Y-105.95
X87.45Y-117.35
X87.7Y-92.1
X88.15Y-103.75
X88.95Y-93.2
X89.0Y-83.225
X89.0Y-90.8
X89.5Y-96.75
X90.0Y-88.55
X90.0Y-100.25
X90.7Y-89.4
X90.75Y-81.7
X91.1Y-86.0
X92.0Y-86.4
X92.45Y-102.35
X92.45Y-103.65
X92.5Y-97.6
X92.5Y-107.5
X92.55Y-93.3
X92.6Y-80.75
X92.9Y-104.75
X93.0Y-106.83
X93.0Y-108.1
X93.05Y-103.15
X93.5Y-104.75
X93.75Y-98.05
X94.0Y-87.5
X94.05Y-90.75
X94.8Y-82.3
X94.8Y-86.35
X96.0Y-105.95
X96.55Y-80.95
X96.95Y-83.225
X97.45Y-106.65
X98.5Y-83.4
X98.8Y-115.1
X99.4Y-81.3
X100.0Y-86.0
X101.5Y-89.95
X102.7Y-88.2
X103.3Y-87.55
X103.4Y-79.0
X103.55Y-106.5
X104.328Y-82.694
X104.528Y-80.494
X105.2Y-112.55
X105.5Y-84.1
X105.8Y-103.0
X105.85Y-111.55
X106.3Y-88.05
X106.5Y-103.6
X107.1Y-82.0
X107.35Y-102.0
X107.4Y-104.0
X108.3Y-77.5
X108.5Y-89.7
X110.0Y-94.65
X110.0Y-103.4
X110.1Y-95.45
X110.1Y-104.6
X110.3Y-88.4
X111.0Y-96.0
X111.1Y-82.1
X111.2Y-103.3
X111.3Y-79.0
X111.8Y-99.7
X111.8Y-101.5
X112.2Y-106.1
X112.8Y-103.5
X112.85Y-105.6
X113.5Y-103.3
X113.7Y-101.4
X114.0Y-96.5
X114.0Y-99.7
X114.05Y-98.0
X115.2Y-108.9
X115.4Y-101.8
X115.4Y-103.8
X115.9Y-111.9
X116.5Y-100.25
X116.6Y-108.9
X116.7Y-109.5
X116.75Y-106.05
X116.8Y-105.2
X117.0Y-110.3
X118.65Y-107.05
X118.7Y-98.65
X118.815Y-94.454
X118.85Y-108.95
X118.9Y-111.5
X119.1Y-99.3
X119.65Y-111.15
X119.65Y-112.65
X119.7Y-88.7
X119.8Y-90.1
X120.3Y-88.7
X120.8Y-90.1
X121.3Y-89.4
X121.7Y-109.8
X122.0Y-97.0
T6
X81.11Y-87.751
X82.073Y-86.923
X83.037Y-86.096
X84.0Y-85.268
X84.964Y-84.441
X85.927Y-83.614
X89.898Y-80.531
X91.11Y-80.151
X92.322Y-79.771
X93.534Y-79.391
T5
X117.675Y-95.68G85X118.775Y-95.68
G05
X117.675Y-104.32G85X118.775Y-104.32
G05
X122.005Y-95.68G85X122.805Y-95.68
G05
X122.005Y-104.32G85X122.805Y-104.32
G05
M30
