%TF.GenerationSoftware,KiCad,Pcbnew,10.0.6*%
%TF.CreationDate,2026-09-26T16:36:25-05:00*%
%TF.ProjectId,puck-revA,7075636b-2d72-4657-9641-2e6b69636164,rev?*%
%TF.SameCoordinates,Original*%
%TF.FileFunction,Copper,L3,Inr*%
%TF.FilePolarity,Positive*%
%FSLAX46Y46*%
G04 Gerber Fmt 4.6, Leading zero omitted, Abs format (unit mm)*
G04 Created by KiCad (PCBNEW 10.0.6) date 2026-09-26 16:36:25*
%MOMM*%
%LPD*%
G01*
G04 APERTURE LIST*
G04 Aperture macros list*
%AMRotRect*
0 Rectangle, with rotation*
0 The origin of the aperture is its center*
0 $1 length*
0 $2 width*
0 $3 Rotation angle, in degrees counterclockwise*
0 Add horizontal line*
21,1,$1,$2,0,0,$3*%
G04 Aperture macros list end*
%TA.AperFunction,ComponentPad*%
%ADD10RotRect,1.000000X1.000000X287.419600*%
%TD*%
%TA.AperFunction,ComponentPad*%
%ADD11C,1.000000*%
%TD*%
%TA.AperFunction,ComponentPad*%
%ADD12RotRect,1.000000X1.000000X310.656300*%
%TD*%
%TA.AperFunction,HeatsinkPad*%
%ADD13C,0.500000*%
%TD*%
%TA.AperFunction,ComponentPad*%
%ADD14O,2.100000X1.000000*%
%TD*%
%TA.AperFunction,ComponentPad*%
%ADD15O,1.800000X1.000000*%
%TD*%
%TA.AperFunction,HeatsinkPad*%
%ADD16C,0.600000*%
%TD*%
%TA.AperFunction,ViaPad*%
%ADD17C,0.400000*%
%TD*%
%TA.AperFunction,ViaPad*%
%ADD18C,0.600000*%
%TD*%
%TA.AperFunction,ViaPad*%
%ADD19C,0.450000*%
%TD*%
G04 APERTURE END LIST*
D10*
%TO.N,GND*%
%TO.C,J2*%
X93533700Y-79390600D03*
D11*
%TO.N,UART0_TX*%
X92321945Y-79770796D03*
%TO.N,UART0_RX*%
X91110190Y-80150993D03*
%TO.N,+3V3*%
X89898434Y-80531189D03*
%TD*%
D12*
%TO.N,+3V3*%
%TO.C,J3*%
X85927200Y-83613600D03*
D11*
%TO.N,SYS_5V*%
X84963738Y-84441030D03*
%TO.N,GND*%
X84000276Y-85268461D03*
%TO.N,EXP_A*%
X83036814Y-86095891D03*
%TO.N,EXP_B*%
X82073352Y-86923321D03*
%TO.N,EXP_C*%
X81109890Y-87750752D03*
%TD*%
D13*
%TO.N,GND*%
%TO.C,U2*%
X106550000Y-82000000D03*
X105450000Y-82000000D03*
%TD*%
D14*
%TO.N,GND*%
%TO.C,J1*%
X118225000Y-104320000D03*
D15*
X122405000Y-104320000D03*
D14*
X118225000Y-95680000D03*
D15*
X122405000Y-95680000D03*
%TD*%
D16*
%TO.N,GND*%
%TO.C,U1*%
X97100000Y-98610000D03*
X97100000Y-100010000D03*
X97800000Y-97910000D03*
X97800000Y-99310000D03*
X97800000Y-100710000D03*
X98500000Y-98610000D03*
X98500000Y-100010000D03*
X99200000Y-97910000D03*
X99200000Y-99310000D03*
X99200000Y-100710000D03*
X99900000Y-98610000D03*
X99900000Y-100010000D03*
%TD*%
D17*
%TO.N,LED_DATA_EN*%
X106525000Y-90450000D03*
X109850000Y-93675000D03*
D18*
%TO.N,GND*%
X122000000Y-97000000D03*
D17*
X95775000Y-88275000D03*
X116846094Y-103843002D03*
D19*
X88932739Y-103116488D03*
X121057530Y-102529062D03*
D17*
X85873903Y-113811456D03*
D19*
X100997189Y-100122314D03*
D17*
X92875000Y-106125000D03*
D19*
X94646412Y-79496333D03*
X107127937Y-80293516D03*
D18*
X87250000Y-85175000D03*
D19*
X122750779Y-94411710D03*
D18*
X96950000Y-83225000D03*
D19*
X85875684Y-102432856D03*
D17*
X118550000Y-90150000D03*
D19*
X110329078Y-112762087D03*
X92013866Y-88388406D03*
D18*
X86105910Y-99944881D03*
X114050000Y-98000000D03*
D19*
X115000500Y-82552173D03*
X97689567Y-89604656D03*
X100975104Y-98954957D03*
X93109082Y-116720497D03*
D18*
X111000000Y-96000000D03*
X80000000Y-99997203D03*
D19*
X114774185Y-92639000D03*
X97669592Y-83318972D03*
D18*
X103400000Y-79000000D03*
D19*
X119015099Y-97853882D03*
D18*
X104527937Y-80493516D03*
D19*
X93925399Y-86499168D03*
X84100000Y-111900000D03*
D17*
X119040631Y-101427203D03*
D18*
X114000000Y-99700000D03*
X86105910Y-100744880D03*
D19*
X111379493Y-108441471D03*
D17*
X120700000Y-110850000D03*
X119500000Y-110425000D03*
X118311821Y-105320000D03*
X104800000Y-88925000D03*
D18*
X104327937Y-82693516D03*
X107100000Y-82000000D03*
D17*
X92125000Y-108950000D03*
X105225000Y-86350000D03*
D18*
X119700000Y-88700000D03*
X111300000Y-79000000D03*
D17*
X121000000Y-94500000D03*
X118650000Y-100550000D03*
D19*
X103592278Y-94703127D03*
X106620364Y-84315500D03*
D18*
X118815099Y-94453882D03*
D19*
X87994665Y-87852566D03*
D17*
X109925000Y-98975000D03*
D18*
X113700000Y-101400000D03*
X89000000Y-83225000D03*
X94000000Y-87500000D03*
X120300000Y-88700000D03*
%TO.N,LED_OE_N*%
X103300000Y-87550000D03*
X101500000Y-89950000D03*
%TO.N,LED_5V*%
X115200000Y-108900000D03*
X87700000Y-92100000D03*
X85500000Y-109900000D03*
X116600000Y-108900000D03*
X90750000Y-81700000D03*
X90000000Y-88550000D03*
X94800000Y-82300000D03*
X112200000Y-106100000D03*
X106500000Y-103600000D03*
X87300000Y-108100000D03*
X99400000Y-81300000D03*
X100000000Y-86000000D03*
X110300000Y-88400000D03*
X118900000Y-111500000D03*
X89000000Y-90800000D03*
X116700000Y-109500000D03*
X91100000Y-86000000D03*
X98500000Y-83400000D03*
%TO.N,SYS_5V*%
X102700000Y-88200000D03*
X92000000Y-86400000D03*
X111800000Y-99700000D03*
%TO.N,IO0*%
X103550000Y-106500000D03*
X83050000Y-105350000D03*
%TO.N,EN*%
X94050000Y-90750000D03*
X92550000Y-93300000D03*
%TO.N,RESET_SW*%
X83650000Y-108800000D03*
X87350000Y-105950000D03*
%TO.N,UART0_TX*%
X96550000Y-80950000D03*
X110000000Y-94650000D03*
%TO.N,UART0_RX*%
X110100000Y-95450000D03*
X92600000Y-80750000D03*
%TO.N,+3V3*%
X115400000Y-101800000D03*
X115900000Y-111900000D03*
D17*
X82850000Y-101825000D03*
D18*
X116800000Y-105200000D03*
X105500000Y-84100000D03*
X111100000Y-82100000D03*
X115400000Y-103800000D03*
X86500000Y-88600000D03*
X108300000Y-77500000D03*
D17*
X85275000Y-101625000D03*
D18*
X117000000Y-110300000D03*
%TO.N,USB_CC_INT_N*%
X92500000Y-97600000D03*
X90000000Y-100250000D03*
%TO.N,EXP_A*%
X86650000Y-91450000D03*
X92450000Y-102350000D03*
%TO.N,EXP_B*%
X92450000Y-103650000D03*
X85850000Y-91500000D03*
%TO.N,EXP_C*%
X82200000Y-94500000D03*
X93050000Y-103150000D03*
%TO.N,LED_D2_OUT*%
X82850000Y-108800000D03*
D17*
X98250000Y-114350000D03*
D18*
%TO.N,LED_D3_OUT*%
X85750000Y-89700000D03*
X88150000Y-103750000D03*
%TO.N,USER_BTN*%
X84100000Y-99850000D03*
X89500000Y-96750000D03*
D17*
X87950000Y-93700000D03*
D18*
X80050000Y-103850000D03*
D19*
X92350000Y-94750000D03*
D18*
%TO.N,ILIM_BOOST_D*%
X111800000Y-101500000D03*
X111200000Y-103300000D03*
%TO.N,LED_D1_OUT*%
X92500000Y-107500000D03*
X110100000Y-104600000D03*
X112850000Y-105600000D03*
X110000000Y-103400000D03*
X105800000Y-103000000D03*
X98800000Y-115100000D03*
%TO.N,LED_DATA_3V3*%
X90700000Y-89400000D03*
X107350000Y-102000000D03*
D17*
X91950000Y-90650000D03*
D18*
X106300000Y-88050000D03*
%TO.N,LED_DATA_5V*%
X108500000Y-89700000D03*
D17*
X110900000Y-86000000D03*
%TO.N,CC1*%
X120150000Y-105875000D03*
X119375000Y-108300000D03*
D18*
%TO.N,CC2*%
X118700000Y-98650000D03*
X118850000Y-108950000D03*
X118650000Y-107050000D03*
X116750000Y-106050000D03*
%TO.N,USB_VBUS_DET*%
X119650000Y-111150000D03*
X119650000Y-112650000D03*
%TO.N,SDA*%
X121700000Y-109800000D03*
X105200000Y-112550000D03*
X105850000Y-111550000D03*
X92900000Y-104750000D03*
X87450000Y-117350000D03*
X93500000Y-104750000D03*
%TO.N,SCL*%
X86400000Y-97250000D03*
D19*
X114000000Y-110850000D03*
D18*
X86900000Y-117900000D03*
X88950000Y-93200000D03*
D17*
X98100000Y-108100000D03*
X112850000Y-104150000D03*
D19*
X111900000Y-103100000D03*
D18*
X86400000Y-95100000D03*
X84300000Y-102650000D03*
D17*
X114800000Y-107700000D03*
D19*
X120350000Y-112750000D03*
X110650000Y-106450000D03*
D18*
X96000000Y-105950000D03*
X97450000Y-106650000D03*
D17*
X115250000Y-106370000D03*
D18*
X93750000Y-98050000D03*
D17*
%TO.N,LED_D5_OUT*%
X111850000Y-96750000D03*
X96150000Y-87100000D03*
X100900000Y-91800000D03*
X106700000Y-92300000D03*
D18*
%TO.N,USB_DM*%
X93000000Y-106830000D03*
X116500000Y-100250000D03*
X119800000Y-90100000D03*
X119100000Y-99300000D03*
%TO.N,USB_DP*%
X120800000Y-90100000D03*
X93000000Y-108100000D03*
D19*
%TO.N,VBUS*%
X121000000Y-92500000D03*
D18*
X121300000Y-89400000D03*
%TO.N,LED_PWR_EN*%
X87250000Y-86825000D03*
X94800000Y-86350000D03*
D17*
X94800000Y-92000000D03*
%TO.N,LED_D1_IN*%
X109175000Y-110825000D03*
X102350000Y-105950000D03*
X106925000Y-88800000D03*
X102400000Y-104700000D03*
X102925000Y-106650000D03*
X102400000Y-103750000D03*
X110075000Y-110825000D03*
X104725000Y-92550000D03*
X104725000Y-91725000D03*
X108425000Y-88800000D03*
%TO.N,LED_D4_OUT*%
X104525000Y-82000000D03*
X117900000Y-108200000D03*
X102475000Y-111700000D03*
X111500000Y-85775000D03*
X117275000Y-109000000D03*
X122350000Y-109000000D03*
X84975000Y-99275000D03*
X84875000Y-97775000D03*
X90250000Y-115300000D03*
X84125000Y-101875000D03*
D18*
%TO.N,INPUT_FAULT_N*%
X112800000Y-103500000D03*
X113500000Y-103300000D03*
X114000000Y-96500000D03*
X107400000Y-104000000D03*
%TD*%
%TA.AperFunction,Conductor*%
%TO.N,GND*%
G36*
X100300328Y-75505242D02*
G01*
X100302585Y-75505281D01*
X100625111Y-75510910D01*
X100627539Y-75510979D01*
X101235064Y-75534849D01*
X101236415Y-75534911D01*
X101543791Y-75551020D01*
X101546880Y-75551222D01*
X102198709Y-75602522D01*
X102199034Y-75602549D01*
X102457184Y-75625134D01*
X102460896Y-75625517D01*
X103271124Y-75721413D01*
X103271539Y-75721463D01*
X103365231Y-75732967D01*
X103369470Y-75733563D01*
X104294198Y-75880025D01*
X104298384Y-75880763D01*
X104391177Y-75898800D01*
X105191658Y-76058026D01*
X105195314Y-76058811D01*
X105447725Y-76117084D01*
X105448391Y-76117241D01*
X106083847Y-76269801D01*
X106086931Y-76270584D01*
X106384238Y-76350247D01*
X106385643Y-76350634D01*
X106970598Y-76515608D01*
X106973016Y-76516318D01*
X107283758Y-76611322D01*
X107285741Y-76611947D01*
X107852928Y-76796237D01*
X107854823Y-76796871D01*
X108012260Y-76851081D01*
X108069237Y-76891518D01*
X108095308Y-76956341D01*
X108082194Y-77024969D01*
X108034059Y-77075613D01*
X108033890Y-77075710D01*
X107992689Y-77099498D01*
X107992683Y-77099502D01*
X107899502Y-77192683D01*
X107899500Y-77192686D01*
X107833608Y-77306812D01*
X107799500Y-77434108D01*
X107799500Y-77565892D01*
X107816554Y-77629539D01*
X107833608Y-77693187D01*
X107866554Y-77750250D01*
X107899500Y-77807314D01*
X107992686Y-77900500D01*
X108106814Y-77966392D01*
X108234108Y-78000500D01*
X108234110Y-78000500D01*
X108365890Y-78000500D01*
X108365892Y-78000500D01*
X108493186Y-77966392D01*
X108607314Y-77900500D01*
X108700500Y-77807314D01*
X108766392Y-77693186D01*
X108800500Y-77565892D01*
X108800500Y-77434108D01*
X108775388Y-77340388D01*
X108777051Y-77270543D01*
X108816213Y-77212680D01*
X108880441Y-77185176D01*
X108939599Y-77192534D01*
X109023359Y-77224687D01*
X109026315Y-77225866D01*
X109629951Y-77475900D01*
X109630681Y-77476206D01*
X109869202Y-77577452D01*
X109872584Y-77578949D01*
X110613967Y-77920732D01*
X110699468Y-77960601D01*
X110703209Y-77962426D01*
X111537535Y-78387536D01*
X111541330Y-78389554D01*
X111623565Y-78435138D01*
X111623862Y-78435304D01*
X112336034Y-78834140D01*
X112339310Y-78836040D01*
X112561230Y-78969383D01*
X112562104Y-78969914D01*
X113119099Y-79311241D01*
X113121794Y-79312941D01*
X113315874Y-79438978D01*
X113379829Y-79480511D01*
X113381185Y-79481404D01*
X113886501Y-79819045D01*
X113888636Y-79820505D01*
X114092347Y-79963145D01*
X114154741Y-80006834D01*
X114156502Y-80008091D01*
X114638891Y-80358567D01*
X114640543Y-80359789D01*
X114759594Y-80449500D01*
X114899959Y-80555273D01*
X114902102Y-80556925D01*
X114956976Y-80600184D01*
X115379325Y-80933137D01*
X115380512Y-80934085D01*
X115452878Y-80992686D01*
X115619690Y-81127768D01*
X115622185Y-81129844D01*
X116118878Y-81554059D01*
X116119616Y-81554694D01*
X116315105Y-81724630D01*
X116317874Y-81727113D01*
X116917124Y-82281053D01*
X116917279Y-82281197D01*
X116986293Y-82345553D01*
X116986308Y-82345567D01*
X116989421Y-82348574D01*
X117651423Y-83010576D01*
X117654430Y-83013689D01*
X117718691Y-83082600D01*
X117718902Y-83082828D01*
X117946468Y-83329007D01*
X118272860Y-83682097D01*
X118275388Y-83684917D01*
X118445241Y-83880310D01*
X118445947Y-83881129D01*
X118870150Y-84377807D01*
X118872226Y-84380303D01*
X119065888Y-84619455D01*
X119066901Y-84620723D01*
X119086325Y-84645362D01*
X119443090Y-85097917D01*
X119444694Y-85099998D01*
X119528078Y-85210652D01*
X119640184Y-85359422D01*
X119641471Y-85361162D01*
X119724261Y-85475112D01*
X119991945Y-85843547D01*
X119993150Y-85845237D01*
X120147654Y-86065891D01*
X120179452Y-86111303D01*
X120180973Y-86113526D01*
X120294765Y-86283828D01*
X120518582Y-86618794D01*
X120519475Y-86620150D01*
X120687042Y-86878181D01*
X120688774Y-86880926D01*
X121030033Y-87437810D01*
X121030595Y-87438735D01*
X121163964Y-87660698D01*
X121165865Y-87663974D01*
X121564597Y-88375962D01*
X121564860Y-88376435D01*
X121610448Y-88458679D01*
X121612480Y-88462500D01*
X121820275Y-88870319D01*
X121833171Y-88938988D01*
X121806895Y-89003729D01*
X121749788Y-89043986D01*
X121679983Y-89046978D01*
X121622109Y-89014295D01*
X121607316Y-88999502D01*
X121607314Y-88999500D01*
X121522439Y-88950497D01*
X121493187Y-88933608D01*
X121429539Y-88916554D01*
X121365892Y-88899500D01*
X121234108Y-88899500D01*
X121106812Y-88933608D01*
X120992686Y-88999500D01*
X120992683Y-88999502D01*
X120899502Y-89092683D01*
X120899500Y-89092686D01*
X120833608Y-89206812D01*
X120799500Y-89334108D01*
X120799500Y-89465893D01*
X120800068Y-89470208D01*
X120799500Y-89473850D01*
X120799500Y-89474019D01*
X120799474Y-89474019D01*
X120789302Y-89539244D01*
X120742922Y-89591499D01*
X120709223Y-89606167D01*
X120606814Y-89633608D01*
X120606812Y-89633608D01*
X120606812Y-89633609D01*
X120492686Y-89699500D01*
X120492683Y-89699502D01*
X120399498Y-89792687D01*
X120398370Y-89794158D01*
X120397102Y-89795083D01*
X120393753Y-89798433D01*
X120393230Y-89797910D01*
X120341940Y-89835356D01*
X120272193Y-89839506D01*
X120211275Y-89805289D01*
X120201630Y-89794158D01*
X120200501Y-89792687D01*
X120107316Y-89699502D01*
X120107314Y-89699500D01*
X120008910Y-89642686D01*
X119993187Y-89633608D01*
X119929539Y-89616554D01*
X119865892Y-89599500D01*
X119734108Y-89599500D01*
X119606812Y-89633608D01*
X119492686Y-89699500D01*
X119492683Y-89699502D01*
X119399502Y-89792683D01*
X119399500Y-89792686D01*
X119333608Y-89906812D01*
X119299500Y-90034108D01*
X119299500Y-90165891D01*
X119333608Y-90293187D01*
X119354585Y-90329520D01*
X119399500Y-90407314D01*
X119492686Y-90500500D01*
X119606814Y-90566392D01*
X119734108Y-90600500D01*
X119734110Y-90600500D01*
X119865890Y-90600500D01*
X119865892Y-90600500D01*
X119993186Y-90566392D01*
X120107314Y-90500500D01*
X120200500Y-90407314D01*
X120200504Y-90407306D01*
X120201625Y-90405847D01*
X120202892Y-90404921D01*
X120206247Y-90401567D01*
X120206770Y-90402090D01*
X120258053Y-90364645D01*
X120327799Y-90360491D01*
X120388719Y-90394704D01*
X120398375Y-90405847D01*
X120399498Y-90407311D01*
X120399500Y-90407314D01*
X120492686Y-90500500D01*
X120606814Y-90566392D01*
X120734108Y-90600500D01*
X120734110Y-90600500D01*
X120865890Y-90600500D01*
X120865892Y-90600500D01*
X120993186Y-90566392D01*
X121107314Y-90500500D01*
X121200500Y-90407314D01*
X121266392Y-90293186D01*
X121300500Y-90165892D01*
X121300500Y-90034108D01*
X121300499Y-90034105D01*
X121299932Y-90029799D01*
X121300500Y-90026155D01*
X121300500Y-90025981D01*
X121300527Y-90025981D01*
X121310693Y-89960763D01*
X121357070Y-89908504D01*
X121390772Y-89893833D01*
X121493186Y-89866392D01*
X121607314Y-89800500D01*
X121700500Y-89707314D01*
X121766392Y-89593186D01*
X121800500Y-89465892D01*
X121800500Y-89348005D01*
X121820185Y-89280966D01*
X121872989Y-89235211D01*
X121942147Y-89225267D01*
X122005703Y-89254292D01*
X122034995Y-89291731D01*
X122037544Y-89296736D01*
X122039431Y-89300604D01*
X122055055Y-89334108D01*
X122079242Y-89385978D01*
X122079373Y-89386261D01*
X122385131Y-90049500D01*
X122421024Y-90127358D01*
X122422557Y-90130821D01*
X122523723Y-90369154D01*
X122523765Y-90369251D01*
X122524142Y-90370152D01*
X122574898Y-90492686D01*
X122774106Y-90973620D01*
X122775309Y-90976635D01*
X122885572Y-91263880D01*
X122886144Y-91265399D01*
X123096468Y-91835504D01*
X123097376Y-91838053D01*
X123203111Y-92145131D01*
X123203798Y-92147183D01*
X123388026Y-92714181D01*
X123388677Y-92716245D01*
X123483659Y-93026914D01*
X123484421Y-93029509D01*
X123649325Y-93614216D01*
X123649756Y-93615781D01*
X123729415Y-93913072D01*
X123730214Y-93916219D01*
X123882686Y-94551309D01*
X123882934Y-94552362D01*
X123941187Y-94804685D01*
X123941982Y-94808388D01*
X124101086Y-95608259D01*
X124101191Y-95608790D01*
X124119231Y-95701599D01*
X124119982Y-95705861D01*
X124266427Y-96630476D01*
X124267030Y-96634761D01*
X124278535Y-96728456D01*
X124278600Y-96728995D01*
X124374478Y-97539075D01*
X124374865Y-97542841D01*
X124397426Y-97800704D01*
X124397516Y-97801783D01*
X124448768Y-98453009D01*
X124448980Y-98456249D01*
X124465083Y-98763527D01*
X124465157Y-98765148D01*
X124489012Y-99372284D01*
X124489089Y-99374987D01*
X124494758Y-99699689D01*
X124494777Y-99701854D01*
X124494777Y-100298143D01*
X124494758Y-100300308D01*
X124489089Y-100625011D01*
X124489012Y-100627714D01*
X124465158Y-101234846D01*
X124465084Y-101236468D01*
X124448980Y-101543752D01*
X124448768Y-101546991D01*
X124397517Y-102198205D01*
X124397427Y-102199284D01*
X124374862Y-102457188D01*
X124374475Y-102460954D01*
X124278624Y-103270804D01*
X124278559Y-103271341D01*
X124267031Y-103365235D01*
X124266428Y-103369522D01*
X124119982Y-104294137D01*
X124119231Y-104298397D01*
X124101200Y-104391166D01*
X124101095Y-104391699D01*
X123941983Y-105191603D01*
X123941188Y-105195306D01*
X123882928Y-105447661D01*
X123882680Y-105448714D01*
X123730217Y-106083769D01*
X123729418Y-106086916D01*
X123649751Y-106384236D01*
X123649320Y-106385801D01*
X123484425Y-106970476D01*
X123483663Y-106973071D01*
X123388672Y-107283769D01*
X123388021Y-107285833D01*
X123203804Y-107852797D01*
X123203117Y-107854849D01*
X123097371Y-108161959D01*
X123096463Y-108164508D01*
X122889093Y-108726605D01*
X122847421Y-108782687D01*
X122782044Y-108807338D01*
X122713719Y-108792730D01*
X122674379Y-108759169D01*
X122670478Y-108754085D01*
X122595914Y-108679521D01*
X122595913Y-108679520D01*
X122529059Y-108640922D01*
X122504589Y-108626794D01*
X122504588Y-108626793D01*
X122504587Y-108626793D01*
X122402727Y-108599500D01*
X122297273Y-108599500D01*
X122195413Y-108626793D01*
X122195410Y-108626794D01*
X122104085Y-108679521D01*
X122029521Y-108754085D01*
X121976794Y-108845410D01*
X121976793Y-108845413D01*
X121949500Y-108947273D01*
X121949500Y-109052727D01*
X121973738Y-109143187D01*
X121978897Y-109162438D01*
X121975962Y-109163224D01*
X121981886Y-109218319D01*
X121950611Y-109280798D01*
X121890523Y-109316451D01*
X121827764Y-109316078D01*
X121765893Y-109299500D01*
X121765892Y-109299500D01*
X121634108Y-109299500D01*
X121506812Y-109333608D01*
X121392686Y-109399500D01*
X121392683Y-109399502D01*
X121299502Y-109492683D01*
X121299500Y-109492686D01*
X121233608Y-109606812D01*
X121199500Y-109734108D01*
X121199500Y-109865891D01*
X121233608Y-109993187D01*
X121238794Y-110002169D01*
X121299500Y-110107314D01*
X121392686Y-110200500D01*
X121506814Y-110266392D01*
X121634108Y-110300500D01*
X121634110Y-110300500D01*
X121765890Y-110300500D01*
X121765892Y-110300500D01*
X121893186Y-110266392D01*
X122007314Y-110200500D01*
X122007321Y-110200492D01*
X122013760Y-110195553D01*
X122015482Y-110197797D01*
X122064744Y-110170882D01*
X122134437Y-110175848D01*
X122190381Y-110217704D01*
X122214816Y-110283162D01*
X122203744Y-110343955D01*
X122079480Y-110613506D01*
X122079252Y-110613997D01*
X122039420Y-110699417D01*
X122037523Y-110703307D01*
X121612480Y-111537499D01*
X121610448Y-111541320D01*
X121564860Y-111623564D01*
X121564596Y-111624037D01*
X121165872Y-112336009D01*
X121163972Y-112339285D01*
X121030564Y-112561313D01*
X121030002Y-112562238D01*
X120979167Y-112645193D01*
X120927355Y-112692068D01*
X120858426Y-112703491D01*
X120794263Y-112675834D01*
X120755238Y-112617878D01*
X120753671Y-112612514D01*
X120746503Y-112585763D01*
X120690485Y-112488737D01*
X120611263Y-112409515D01*
X120519979Y-112356812D01*
X120514239Y-112353498D01*
X120514238Y-112353497D01*
X120514237Y-112353497D01*
X120406018Y-112324500D01*
X120293982Y-112324500D01*
X120185763Y-112353497D01*
X120178253Y-112356608D01*
X120177327Y-112354374D01*
X120121346Y-112367947D01*
X120055323Y-112345085D01*
X120039583Y-112331769D01*
X119957316Y-112249502D01*
X119957314Y-112249500D01*
X119900250Y-112216554D01*
X119843187Y-112183608D01*
X119779539Y-112166554D01*
X119715892Y-112149500D01*
X119584108Y-112149500D01*
X119456812Y-112183608D01*
X119342686Y-112249500D01*
X119342683Y-112249502D01*
X119249502Y-112342683D01*
X119249500Y-112342686D01*
X119183608Y-112456812D01*
X119149500Y-112584108D01*
X119149500Y-112715891D01*
X119183608Y-112843187D01*
X119191766Y-112857316D01*
X119249500Y-112957314D01*
X119342686Y-113050500D01*
X119411937Y-113090482D01*
X119456810Y-113116390D01*
X119456814Y-113116392D01*
X119584108Y-113150500D01*
X119584110Y-113150500D01*
X119715890Y-113150500D01*
X119715892Y-113150500D01*
X119843186Y-113116392D01*
X119932882Y-113064605D01*
X120000781Y-113048132D01*
X120066808Y-113070984D01*
X120082563Y-113084311D01*
X120088737Y-113090485D01*
X120185763Y-113146503D01*
X120293982Y-113175500D01*
X120293984Y-113175500D01*
X120406009Y-113175500D01*
X120406018Y-113175500D01*
X120406026Y-113175497D01*
X120408506Y-113175171D01*
X120410617Y-113175500D01*
X120414145Y-113175500D01*
X120414145Y-113176049D01*
X120477542Y-113185931D01*
X120529803Y-113232306D01*
X120548694Y-113299573D01*
X120528699Y-113365643D01*
X120519453Y-113379881D01*
X120518559Y-113381238D01*
X120181008Y-113886419D01*
X120179481Y-113888652D01*
X119993136Y-114154779D01*
X119991879Y-114156540D01*
X119641491Y-114638808D01*
X119640204Y-114640548D01*
X119444703Y-114899988D01*
X119443051Y-114902131D01*
X119066931Y-115379237D01*
X119065918Y-115380505D01*
X118872210Y-115619713D01*
X118870134Y-115622208D01*
X118445995Y-116118812D01*
X118445289Y-116119632D01*
X118275374Y-116315097D01*
X118272846Y-116317917D01*
X117719167Y-116916884D01*
X117718799Y-116917281D01*
X117654416Y-116986323D01*
X117651409Y-116989436D01*
X116989436Y-117651409D01*
X116986323Y-117654416D01*
X116917283Y-117718797D01*
X116916886Y-117719165D01*
X116317917Y-118272846D01*
X116315097Y-118275374D01*
X116119632Y-118445289D01*
X116118812Y-118445995D01*
X115622208Y-118870134D01*
X115619713Y-118872210D01*
X115380505Y-119065918D01*
X115379237Y-119066931D01*
X114902131Y-119443051D01*
X114899988Y-119444703D01*
X114640548Y-119640204D01*
X114638808Y-119641491D01*
X114156540Y-119991879D01*
X114154779Y-119993136D01*
X113888652Y-120179481D01*
X113886419Y-120181008D01*
X113381238Y-120518559D01*
X113379882Y-120519452D01*
X113121800Y-120687053D01*
X113119055Y-120688785D01*
X112562238Y-121030002D01*
X112561313Y-121030564D01*
X112339285Y-121163972D01*
X112336009Y-121165872D01*
X111624037Y-121564596D01*
X111623564Y-121564860D01*
X111541320Y-121610448D01*
X111537499Y-121612480D01*
X110703307Y-122037523D01*
X110699416Y-122039421D01*
X110614016Y-122079243D01*
X110613526Y-122079470D01*
X109872624Y-122421031D01*
X109869161Y-122422564D01*
X109630803Y-122523741D01*
X109629805Y-122524159D01*
X109026377Y-122774107D01*
X109023361Y-122775310D01*
X108736117Y-122885572D01*
X108734599Y-122886144D01*
X108164508Y-123096463D01*
X108161959Y-123097371D01*
X107854849Y-123203117D01*
X107852797Y-123203804D01*
X107285833Y-123388021D01*
X107283769Y-123388672D01*
X106973071Y-123483663D01*
X106970476Y-123484425D01*
X106385801Y-123649320D01*
X106384236Y-123649751D01*
X106086916Y-123729418D01*
X106083769Y-123730217D01*
X105448714Y-123882680D01*
X105447661Y-123882928D01*
X105195306Y-123941188D01*
X105191603Y-123941983D01*
X104391740Y-124101087D01*
X104391208Y-124101192D01*
X104298398Y-124119231D01*
X104294137Y-124119982D01*
X103369522Y-124266428D01*
X103365235Y-124267031D01*
X103271341Y-124278559D01*
X103270804Y-124278624D01*
X102460954Y-124374475D01*
X102457188Y-124374862D01*
X102199284Y-124397427D01*
X102198205Y-124397517D01*
X101546991Y-124448768D01*
X101543752Y-124448980D01*
X101236468Y-124465084D01*
X101234846Y-124465158D01*
X100627714Y-124489012D01*
X100625011Y-124489089D01*
X100302796Y-124494714D01*
X100300307Y-124494758D01*
X100298144Y-124494777D01*
X99701856Y-124494777D01*
X99699691Y-124494758D01*
X99374987Y-124489089D01*
X99372284Y-124489012D01*
X98765148Y-124465157D01*
X98763527Y-124465083D01*
X98456249Y-124448980D01*
X98453009Y-124448768D01*
X97801783Y-124397516D01*
X97800704Y-124397426D01*
X97542841Y-124374865D01*
X97539075Y-124374478D01*
X96728995Y-124278600D01*
X96728456Y-124278535D01*
X96634761Y-124267030D01*
X96630476Y-124266427D01*
X95705861Y-124119982D01*
X95701599Y-124119231D01*
X95608790Y-124101191D01*
X95608259Y-124101086D01*
X94808388Y-123941982D01*
X94804685Y-123941187D01*
X94552362Y-123882934D01*
X94551309Y-123882686D01*
X93916219Y-123730214D01*
X93913072Y-123729415D01*
X93615781Y-123649756D01*
X93614216Y-123649325D01*
X93029509Y-123484421D01*
X93026914Y-123483659D01*
X92716245Y-123388677D01*
X92714181Y-123388026D01*
X92147183Y-123203798D01*
X92145131Y-123203111D01*
X91838053Y-123097376D01*
X91835504Y-123096468D01*
X91265399Y-122886144D01*
X91263880Y-122885572D01*
X90976635Y-122775309D01*
X90973620Y-122774106D01*
X90488066Y-122572984D01*
X90370173Y-122524151D01*
X90369310Y-122523790D01*
X90130821Y-122422557D01*
X90127358Y-122421024D01*
X89821560Y-122280049D01*
X89386261Y-122079373D01*
X89385978Y-122079242D01*
X89350005Y-122062468D01*
X89300604Y-122039431D01*
X89296715Y-122037534D01*
X88527710Y-121645707D01*
X88462487Y-121612474D01*
X88458667Y-121610442D01*
X88376341Y-121564809D01*
X88375959Y-121564596D01*
X88332197Y-121540088D01*
X104570000Y-121540088D01*
X104570000Y-121733311D01*
X104600225Y-121924141D01*
X104659929Y-122107894D01*
X104747647Y-122280049D01*
X104861215Y-122436363D01*
X104997836Y-122572984D01*
X105154150Y-122686552D01*
X105326305Y-122774270D01*
X105418181Y-122804122D01*
X105510060Y-122833975D01*
X105598443Y-122847973D01*
X105700889Y-122864200D01*
X105700894Y-122864200D01*
X105894111Y-122864200D01*
X105986623Y-122849546D01*
X106084940Y-122833975D01*
X106268697Y-122774269D01*
X106440850Y-122686552D01*
X106597163Y-122572985D01*
X106733785Y-122436363D01*
X106847352Y-122280050D01*
X106935069Y-122107897D01*
X106994775Y-121924140D01*
X107010346Y-121825823D01*
X107025000Y-121733311D01*
X107025000Y-121540088D01*
X107007416Y-121429073D01*
X106994775Y-121349260D01*
X106964922Y-121257381D01*
X106935070Y-121165505D01*
X106847352Y-120993350D01*
X106733784Y-120837036D01*
X106597163Y-120700415D01*
X106440849Y-120586847D01*
X106268694Y-120499129D01*
X106084941Y-120439425D01*
X105894111Y-120409200D01*
X105894106Y-120409200D01*
X105700894Y-120409200D01*
X105700889Y-120409200D01*
X105510058Y-120439425D01*
X105326305Y-120499129D01*
X105154150Y-120586847D01*
X104997836Y-120700415D01*
X104861215Y-120837036D01*
X104747647Y-120993350D01*
X104659929Y-121165505D01*
X104600225Y-121349258D01*
X104570000Y-121540088D01*
X88332197Y-121540088D01*
X87664011Y-121165886D01*
X87660735Y-121163986D01*
X87438706Y-121030577D01*
X87437781Y-121030015D01*
X86880926Y-120688774D01*
X86878181Y-120687042D01*
X86620150Y-120519475D01*
X86618794Y-120518582D01*
X86345533Y-120335995D01*
X86113526Y-120180973D01*
X86111303Y-120179452D01*
X85845217Y-119993136D01*
X85843548Y-119991945D01*
X85463677Y-119715953D01*
X85361162Y-119641471D01*
X85359422Y-119640184D01*
X85243778Y-119553040D01*
X85099998Y-119444694D01*
X85097922Y-119443094D01*
X84620723Y-119066901D01*
X84619455Y-119065888D01*
X84380303Y-118872226D01*
X84377807Y-118870150D01*
X83881129Y-118445947D01*
X83880310Y-118445241D01*
X83684917Y-118275388D01*
X83682097Y-118272860D01*
X83297169Y-117917037D01*
X83226277Y-117851505D01*
X83207457Y-117834108D01*
X86399500Y-117834108D01*
X86399500Y-117965891D01*
X86433608Y-118093187D01*
X86466554Y-118150250D01*
X86499500Y-118207314D01*
X86592686Y-118300500D01*
X86706814Y-118366392D01*
X86834108Y-118400500D01*
X86834110Y-118400500D01*
X86965890Y-118400500D01*
X86965892Y-118400500D01*
X87093186Y-118366392D01*
X87207314Y-118300500D01*
X87300500Y-118207314D01*
X87366392Y-118093186D01*
X87400500Y-117965892D01*
X87400500Y-117965883D01*
X87401505Y-117958257D01*
X87429773Y-117894361D01*
X87488098Y-117855890D01*
X87508257Y-117851505D01*
X87515883Y-117850500D01*
X87515892Y-117850500D01*
X87643186Y-117816392D01*
X87757314Y-117750500D01*
X87850500Y-117657314D01*
X87916392Y-117543186D01*
X87950500Y-117415892D01*
X87950500Y-117284108D01*
X87916392Y-117156814D01*
X87850500Y-117042686D01*
X87757314Y-116949500D01*
X87700250Y-116916554D01*
X87643187Y-116883608D01*
X87579539Y-116866554D01*
X87515892Y-116849500D01*
X87384108Y-116849500D01*
X87256812Y-116883608D01*
X87142686Y-116949500D01*
X87142683Y-116949502D01*
X87049502Y-117042683D01*
X87049500Y-117042686D01*
X86983608Y-117156812D01*
X86949499Y-117284111D01*
X86948493Y-117291751D01*
X86920221Y-117355645D01*
X86861893Y-117394111D01*
X86841751Y-117398493D01*
X86834111Y-117399499D01*
X86706812Y-117433608D01*
X86592686Y-117499500D01*
X86592683Y-117499502D01*
X86499502Y-117592683D01*
X86499500Y-117592686D01*
X86433608Y-117706812D01*
X86399500Y-117834108D01*
X83207457Y-117834108D01*
X83082714Y-117718797D01*
X83082600Y-117718691D01*
X83069861Y-117706812D01*
X83013689Y-117654430D01*
X83010576Y-117651423D01*
X82348574Y-116989421D01*
X82345568Y-116986308D01*
X82281315Y-116917406D01*
X82281124Y-116917201D01*
X81727113Y-116317874D01*
X81724623Y-116315097D01*
X81554694Y-116119616D01*
X81554059Y-116118878D01*
X81129844Y-115622185D01*
X81127768Y-115619690D01*
X80994069Y-115454586D01*
X80934079Y-115380505D01*
X80933104Y-115379284D01*
X80933067Y-115379237D01*
X80883146Y-115315912D01*
X80883146Y-115315911D01*
X80829036Y-115247273D01*
X89849500Y-115247273D01*
X89849500Y-115352727D01*
X89876793Y-115454587D01*
X89929520Y-115545913D01*
X90004087Y-115620480D01*
X90095413Y-115673207D01*
X90197273Y-115700500D01*
X90197275Y-115700500D01*
X90302725Y-115700500D01*
X90302727Y-115700500D01*
X90404587Y-115673207D01*
X90495913Y-115620480D01*
X90570480Y-115545913D01*
X90623207Y-115454587D01*
X90650500Y-115352727D01*
X90650500Y-115247273D01*
X90623207Y-115145413D01*
X90570480Y-115054087D01*
X90495913Y-114979520D01*
X90404587Y-114926793D01*
X90302727Y-114899500D01*
X90197273Y-114899500D01*
X90095413Y-114926793D01*
X90095410Y-114926794D01*
X90004085Y-114979521D01*
X89929521Y-115054085D01*
X89876794Y-115145410D01*
X89876793Y-115145413D01*
X89849500Y-115247273D01*
X80829036Y-115247273D01*
X80556925Y-114902101D01*
X80555273Y-114899959D01*
X80474437Y-114792686D01*
X80359789Y-114640543D01*
X80358567Y-114638891D01*
X80110367Y-114297273D01*
X97849500Y-114297273D01*
X97849500Y-114402727D01*
X97876793Y-114504587D01*
X97929520Y-114595913D01*
X98004087Y-114670480D01*
X98095413Y-114723207D01*
X98197273Y-114750500D01*
X98197275Y-114750500D01*
X98213893Y-114750500D01*
X98280932Y-114770185D01*
X98326687Y-114822989D01*
X98336631Y-114892147D01*
X98333668Y-114906594D01*
X98333609Y-114906810D01*
X98333608Y-114906814D01*
X98299500Y-115034108D01*
X98299500Y-115034110D01*
X98299500Y-115165891D01*
X98333608Y-115293187D01*
X98346728Y-115315911D01*
X98399500Y-115407314D01*
X98492686Y-115500500D01*
X98606814Y-115566392D01*
X98734108Y-115600500D01*
X98734110Y-115600500D01*
X98865890Y-115600500D01*
X98865892Y-115600500D01*
X98993186Y-115566392D01*
X99107314Y-115500500D01*
X99200500Y-115407314D01*
X99266392Y-115293186D01*
X99300500Y-115165892D01*
X99300500Y-115034108D01*
X99266392Y-114906814D01*
X99200500Y-114792686D01*
X99107314Y-114699500D01*
X99050250Y-114666554D01*
X98993187Y-114633608D01*
X98929539Y-114616554D01*
X98865892Y-114599500D01*
X98759375Y-114599500D01*
X98692336Y-114579815D01*
X98646581Y-114527011D01*
X98636637Y-114457853D01*
X98639600Y-114443408D01*
X98642910Y-114431050D01*
X98650500Y-114402727D01*
X98650500Y-114297273D01*
X98623207Y-114195413D01*
X98570480Y-114104087D01*
X98495913Y-114029520D01*
X98404587Y-113976793D01*
X98302727Y-113949500D01*
X98197273Y-113949500D01*
X98095413Y-113976793D01*
X98095410Y-113976794D01*
X98004085Y-114029521D01*
X97929521Y-114104085D01*
X97876794Y-114195410D01*
X97876793Y-114195413D01*
X97849500Y-114297273D01*
X80110367Y-114297273D01*
X80008091Y-114156502D01*
X80006834Y-114154741D01*
X79882233Y-113976793D01*
X79820505Y-113888636D01*
X79819045Y-113886501D01*
X79481404Y-113381185D01*
X79480511Y-113379829D01*
X79354592Y-113185931D01*
X79312941Y-113121794D01*
X79311251Y-113119116D01*
X78969937Y-112562142D01*
X78969384Y-112561230D01*
X78956536Y-112539848D01*
X78956534Y-112539846D01*
X78925826Y-112488740D01*
X78923043Y-112484108D01*
X104699500Y-112484108D01*
X104699500Y-112615891D01*
X104733608Y-112743187D01*
X104766554Y-112800250D01*
X104799500Y-112857314D01*
X104892686Y-112950500D01*
X105006814Y-113016392D01*
X105134108Y-113050500D01*
X105134110Y-113050500D01*
X105265890Y-113050500D01*
X105265892Y-113050500D01*
X105393186Y-113016392D01*
X105507314Y-112950500D01*
X105600500Y-112857314D01*
X105666392Y-112743186D01*
X105700500Y-112615892D01*
X105700500Y-112484108D01*
X105666392Y-112356814D01*
X105600500Y-112242686D01*
X105597994Y-112240180D01*
X105596557Y-112237548D01*
X105595553Y-112236240D01*
X105595757Y-112236083D01*
X105564509Y-112178857D01*
X105569493Y-112109165D01*
X105611365Y-112053232D01*
X105676829Y-112028815D01*
X105717765Y-112032723D01*
X105784108Y-112050500D01*
X105784110Y-112050500D01*
X105915890Y-112050500D01*
X105915892Y-112050500D01*
X106043186Y-112016392D01*
X106157314Y-111950500D01*
X106250500Y-111857314D01*
X106263898Y-111834108D01*
X115399500Y-111834108D01*
X115399500Y-111965891D01*
X115433608Y-112093187D01*
X115466121Y-112149500D01*
X115499500Y-112207314D01*
X115592686Y-112300500D01*
X115706814Y-112366392D01*
X115834108Y-112400500D01*
X115834110Y-112400500D01*
X115965890Y-112400500D01*
X115965892Y-112400500D01*
X116093186Y-112366392D01*
X116207314Y-112300500D01*
X116300500Y-112207314D01*
X116366392Y-112093186D01*
X116400500Y-111965892D01*
X116400500Y-111834108D01*
X116366392Y-111706814D01*
X116300500Y-111592686D01*
X116207314Y-111499500D01*
X116150250Y-111466554D01*
X116094053Y-111434108D01*
X118399500Y-111434108D01*
X118399500Y-111565892D01*
X118412897Y-111615890D01*
X118433608Y-111693187D01*
X118437389Y-111699735D01*
X118499500Y-111807314D01*
X118592686Y-111900500D01*
X118691521Y-111957563D01*
X118705944Y-111965890D01*
X118706814Y-111966392D01*
X118834108Y-112000500D01*
X118834110Y-112000500D01*
X118965890Y-112000500D01*
X118965892Y-112000500D01*
X119093186Y-111966392D01*
X119207314Y-111900500D01*
X119300500Y-111807314D01*
X119366392Y-111693186D01*
X119366392Y-111693184D01*
X119369329Y-111688098D01*
X119419896Y-111639883D01*
X119488503Y-111626659D01*
X119508796Y-111630320D01*
X119584108Y-111650500D01*
X119584111Y-111650500D01*
X119715890Y-111650500D01*
X119715892Y-111650500D01*
X119843186Y-111616392D01*
X119957314Y-111550500D01*
X120050500Y-111457314D01*
X120116392Y-111343186D01*
X120150500Y-111215892D01*
X120150500Y-111084108D01*
X120116392Y-110956814D01*
X120050500Y-110842686D01*
X119957314Y-110749500D01*
X119877306Y-110703307D01*
X119843187Y-110683608D01*
X119776124Y-110665639D01*
X119715892Y-110649500D01*
X119584108Y-110649500D01*
X119456812Y-110683608D01*
X119342686Y-110749500D01*
X119342683Y-110749502D01*
X119249502Y-110842683D01*
X119249500Y-110842686D01*
X119180670Y-110961902D01*
X119130102Y-111010117D01*
X119061495Y-111023339D01*
X119041191Y-111019676D01*
X118965892Y-110999500D01*
X118834108Y-110999500D01*
X118706812Y-111033608D01*
X118592686Y-111099500D01*
X118592683Y-111099502D01*
X118499502Y-111192683D01*
X118499500Y-111192686D01*
X118433608Y-111306812D01*
X118414126Y-111379521D01*
X118399500Y-111434108D01*
X116094053Y-111434108D01*
X116093187Y-111433608D01*
X116029539Y-111416554D01*
X115965892Y-111399500D01*
X115834108Y-111399500D01*
X115706812Y-111433608D01*
X115592686Y-111499500D01*
X115592683Y-111499502D01*
X115499502Y-111592683D01*
X115499500Y-111592686D01*
X115433608Y-111706812D01*
X115399500Y-111834108D01*
X106263898Y-111834108D01*
X106309755Y-111754680D01*
X106316391Y-111743188D01*
X106316392Y-111743186D01*
X106350500Y-111615892D01*
X106350500Y-111484108D01*
X106316392Y-111356814D01*
X106250500Y-111242686D01*
X106157314Y-111149500D01*
X106091079Y-111111259D01*
X106043187Y-111083608D01*
X105979539Y-111066554D01*
X105915892Y-111049500D01*
X105784108Y-111049500D01*
X105656812Y-111083608D01*
X105542686Y-111149500D01*
X105542683Y-111149502D01*
X105449502Y-111242683D01*
X105449500Y-111242686D01*
X105383608Y-111356812D01*
X105357544Y-111454087D01*
X105349500Y-111484108D01*
X105349500Y-111615892D01*
X105357909Y-111647275D01*
X105383608Y-111743187D01*
X105395613Y-111763979D01*
X105449500Y-111857314D01*
X105449502Y-111857316D01*
X105452005Y-111859819D01*
X105453441Y-111862449D01*
X105454447Y-111863760D01*
X105454242Y-111863916D01*
X105485490Y-111921142D01*
X105480506Y-111990834D01*
X105438634Y-112046767D01*
X105373170Y-112071184D01*
X105332232Y-112067275D01*
X105265893Y-112049500D01*
X105265892Y-112049500D01*
X105134108Y-112049500D01*
X105006812Y-112083608D01*
X104892686Y-112149500D01*
X104892683Y-112149502D01*
X104799502Y-112242683D01*
X104799500Y-112242686D01*
X104733608Y-112356812D01*
X104699500Y-112484108D01*
X78923043Y-112484108D01*
X78839510Y-112345085D01*
X78836040Y-112339310D01*
X78834140Y-112336034D01*
X78477795Y-111699735D01*
X78448415Y-111647273D01*
X102074500Y-111647273D01*
X102074500Y-111752727D01*
X102096307Y-111834110D01*
X102101793Y-111854586D01*
X102101794Y-111854589D01*
X102104814Y-111859819D01*
X102154520Y-111945913D01*
X102229087Y-112020480D01*
X102320413Y-112073207D01*
X102422273Y-112100500D01*
X102422275Y-112100500D01*
X102527725Y-112100500D01*
X102527727Y-112100500D01*
X102629587Y-112073207D01*
X102720913Y-112020480D01*
X102795480Y-111945913D01*
X102848207Y-111854587D01*
X102875500Y-111752727D01*
X102875500Y-111647273D01*
X102848207Y-111545413D01*
X102795480Y-111454087D01*
X102720913Y-111379520D01*
X102629587Y-111326793D01*
X102527727Y-111299500D01*
X102422273Y-111299500D01*
X102320413Y-111326793D01*
X102320410Y-111326794D01*
X102229085Y-111379521D01*
X102154521Y-111454085D01*
X102101794Y-111545410D01*
X102101793Y-111545413D01*
X102074500Y-111647273D01*
X78448415Y-111647273D01*
X78435304Y-111623862D01*
X78435138Y-111623564D01*
X78389549Y-111541320D01*
X78387529Y-111537521D01*
X78387518Y-111537499D01*
X77997616Y-110772273D01*
X108774500Y-110772273D01*
X108774500Y-110877727D01*
X108801793Y-110979587D01*
X108854520Y-111070913D01*
X108929087Y-111145480D01*
X109020413Y-111198207D01*
X109122273Y-111225500D01*
X109122275Y-111225500D01*
X109227725Y-111225500D01*
X109227727Y-111225500D01*
X109329587Y-111198207D01*
X109420913Y-111145480D01*
X109495480Y-111070913D01*
X109517614Y-111032574D01*
X109568179Y-110984361D01*
X109636786Y-110971137D01*
X109701651Y-110997105D01*
X109732384Y-111032573D01*
X109754520Y-111070913D01*
X109829087Y-111145480D01*
X109920413Y-111198207D01*
X110022273Y-111225500D01*
X110022275Y-111225500D01*
X110127725Y-111225500D01*
X110127727Y-111225500D01*
X110229587Y-111198207D01*
X110320913Y-111145480D01*
X110395480Y-111070913D01*
X110448207Y-110979587D01*
X110475500Y-110877727D01*
X110475500Y-110793982D01*
X113574500Y-110793982D01*
X113574500Y-110906018D01*
X113603497Y-111014237D01*
X113659515Y-111111263D01*
X113738737Y-111190485D01*
X113835763Y-111246503D01*
X113943982Y-111275500D01*
X113943984Y-111275500D01*
X114056016Y-111275500D01*
X114056018Y-111275500D01*
X114164237Y-111246503D01*
X114261263Y-111190485D01*
X114340485Y-111111263D01*
X114396503Y-111014237D01*
X114425500Y-110906018D01*
X114425500Y-110793982D01*
X114396503Y-110685763D01*
X114340485Y-110588737D01*
X114261263Y-110509515D01*
X114164237Y-110453497D01*
X114056018Y-110424500D01*
X113943982Y-110424500D01*
X113835763Y-110453497D01*
X113835760Y-110453498D01*
X113738740Y-110509513D01*
X113738734Y-110509517D01*
X113659517Y-110588734D01*
X113659513Y-110588740D01*
X113603498Y-110685760D01*
X113603497Y-110685763D01*
X113574500Y-110793982D01*
X110475500Y-110793982D01*
X110475500Y-110772273D01*
X110448207Y-110670413D01*
X110395480Y-110579087D01*
X110320913Y-110504520D01*
X110232540Y-110453498D01*
X110229589Y-110451794D01*
X110229588Y-110451793D01*
X110229587Y-110451793D01*
X110127727Y-110424500D01*
X110022273Y-110424500D01*
X109920413Y-110451793D01*
X109920410Y-110451794D01*
X109829085Y-110504521D01*
X109754522Y-110579084D01*
X109754520Y-110579086D01*
X109754520Y-110579087D01*
X109732385Y-110617425D01*
X109681820Y-110665639D01*
X109613212Y-110678861D01*
X109548348Y-110652893D01*
X109517615Y-110617426D01*
X109495480Y-110579087D01*
X109420913Y-110504520D01*
X109332540Y-110453498D01*
X109329589Y-110451794D01*
X109329588Y-110451793D01*
X109329587Y-110451793D01*
X109227727Y-110424500D01*
X109122273Y-110424500D01*
X109020413Y-110451793D01*
X109020410Y-110451794D01*
X108929085Y-110504521D01*
X108854521Y-110579085D01*
X108801794Y-110670410D01*
X108801793Y-110670413D01*
X108774500Y-110772273D01*
X77997616Y-110772273D01*
X77962426Y-110703209D01*
X77960601Y-110699468D01*
X77920702Y-110613903D01*
X77920519Y-110613506D01*
X77578968Y-109872624D01*
X77577452Y-109869202D01*
X77562556Y-109834108D01*
X84999500Y-109834108D01*
X84999500Y-109965892D01*
X85006813Y-109993186D01*
X85033608Y-110093187D01*
X85041766Y-110107316D01*
X85099500Y-110207314D01*
X85192686Y-110300500D01*
X85267952Y-110343955D01*
X85305944Y-110365890D01*
X85306814Y-110366392D01*
X85434108Y-110400500D01*
X85434110Y-110400500D01*
X85565890Y-110400500D01*
X85565892Y-110400500D01*
X85693186Y-110366392D01*
X85807314Y-110300500D01*
X85900500Y-110207314D01*
X85966392Y-110093186D01*
X86000500Y-109965892D01*
X86000500Y-109834108D01*
X85966392Y-109706814D01*
X85900500Y-109592686D01*
X85807314Y-109499500D01*
X85722442Y-109450499D01*
X85693187Y-109433608D01*
X85580417Y-109403392D01*
X85565892Y-109399500D01*
X85434108Y-109399500D01*
X85306812Y-109433608D01*
X85192686Y-109499500D01*
X85192683Y-109499502D01*
X85099502Y-109592683D01*
X85099500Y-109592686D01*
X85033608Y-109706812D01*
X85026294Y-109734110D01*
X84999500Y-109834108D01*
X77562556Y-109834108D01*
X77476206Y-109630681D01*
X77475850Y-109629831D01*
X77225866Y-109026314D01*
X77224697Y-109023386D01*
X77114441Y-108736158D01*
X77113869Y-108734640D01*
X77113673Y-108734108D01*
X82349500Y-108734108D01*
X82349500Y-108865892D01*
X82363358Y-108917612D01*
X82383608Y-108993187D01*
X82396717Y-109015892D01*
X82449500Y-109107314D01*
X82542686Y-109200500D01*
X82656814Y-109266392D01*
X82784108Y-109300500D01*
X82784110Y-109300500D01*
X82915890Y-109300500D01*
X82915892Y-109300500D01*
X83043186Y-109266392D01*
X83157314Y-109200500D01*
X83162319Y-109195495D01*
X83223642Y-109162010D01*
X83293334Y-109166994D01*
X83337681Y-109195495D01*
X83342686Y-109200500D01*
X83456814Y-109266392D01*
X83584108Y-109300500D01*
X83584110Y-109300500D01*
X83715890Y-109300500D01*
X83715892Y-109300500D01*
X83843186Y-109266392D01*
X83957314Y-109200500D01*
X84050500Y-109107314D01*
X84116392Y-108993186D01*
X84150500Y-108865892D01*
X84150500Y-108834108D01*
X114699500Y-108834108D01*
X114699500Y-108965891D01*
X114733608Y-109093187D01*
X114760353Y-109139510D01*
X114799500Y-109207314D01*
X114892686Y-109300500D01*
X115006814Y-109366392D01*
X115134108Y-109400500D01*
X115134110Y-109400500D01*
X115265890Y-109400500D01*
X115265892Y-109400500D01*
X115393186Y-109366392D01*
X115507314Y-109300500D01*
X115600500Y-109207314D01*
X115666392Y-109093186D01*
X115700500Y-108965892D01*
X115700500Y-108834108D01*
X116099500Y-108834108D01*
X116099500Y-108965891D01*
X116133608Y-109093187D01*
X116160353Y-109139510D01*
X116199500Y-109207314D01*
X116199502Y-109207316D01*
X116204447Y-109213760D01*
X116202578Y-109215193D01*
X116230289Y-109265941D01*
X116228897Y-109324392D01*
X116199500Y-109434108D01*
X116199500Y-109565892D01*
X116210464Y-109606812D01*
X116233608Y-109693187D01*
X116266554Y-109750250D01*
X116299500Y-109807314D01*
X116392686Y-109900500D01*
X116481201Y-109951604D01*
X116529415Y-110002169D01*
X116542639Y-110070776D01*
X116535629Y-110098940D01*
X116535712Y-110098963D01*
X116534480Y-110103560D01*
X116533766Y-110106430D01*
X116533610Y-110106804D01*
X116499500Y-110234108D01*
X116499500Y-110365891D01*
X116533608Y-110493187D01*
X116566554Y-110550250D01*
X116599500Y-110607314D01*
X116692686Y-110700500D01*
X116806814Y-110766392D01*
X116934108Y-110800500D01*
X116934110Y-110800500D01*
X117065890Y-110800500D01*
X117065892Y-110800500D01*
X117193186Y-110766392D01*
X117307314Y-110700500D01*
X117400500Y-110607314D01*
X117466392Y-110493186D01*
X117500500Y-110365892D01*
X117500500Y-110234108D01*
X117466392Y-110106814D01*
X117400500Y-109992686D01*
X117307314Y-109899500D01*
X117218798Y-109848395D01*
X117170583Y-109797827D01*
X117157361Y-109729220D01*
X117164371Y-109701059D01*
X117164288Y-109701037D01*
X117165541Y-109696357D01*
X117166242Y-109693545D01*
X117166385Y-109693197D01*
X117166392Y-109693186D01*
X117200500Y-109565892D01*
X117200500Y-109524500D01*
X117220185Y-109457461D01*
X117272989Y-109411706D01*
X117324500Y-109400500D01*
X117327725Y-109400500D01*
X117327727Y-109400500D01*
X117429587Y-109373207D01*
X117520913Y-109320480D01*
X117595480Y-109245913D01*
X117648207Y-109154587D01*
X117675500Y-109052727D01*
X117675500Y-108947273D01*
X117658575Y-108884108D01*
X118349500Y-108884108D01*
X118349500Y-109015891D01*
X118383608Y-109143187D01*
X118397994Y-109168104D01*
X118449500Y-109257314D01*
X118542686Y-109350500D01*
X118656814Y-109416392D01*
X118784108Y-109450500D01*
X118784110Y-109450500D01*
X118915890Y-109450500D01*
X118915892Y-109450500D01*
X119043186Y-109416392D01*
X119157314Y-109350500D01*
X119250500Y-109257314D01*
X119316392Y-109143186D01*
X119350500Y-109015892D01*
X119350500Y-108884108D01*
X119341864Y-108851877D01*
X119343527Y-108782031D01*
X119382689Y-108724168D01*
X119429543Y-108700013D01*
X119529587Y-108673207D01*
X119620913Y-108620480D01*
X119695480Y-108545913D01*
X119748207Y-108454587D01*
X119775500Y-108352727D01*
X119775500Y-108247273D01*
X119748207Y-108145413D01*
X119695480Y-108054087D01*
X119620913Y-107979520D01*
X119529587Y-107926793D01*
X119427727Y-107899500D01*
X119322273Y-107899500D01*
X119220413Y-107926793D01*
X119220410Y-107926794D01*
X119129085Y-107979521D01*
X119054521Y-108054085D01*
X119001794Y-108145410D01*
X119001793Y-108145413D01*
X118974500Y-108247273D01*
X118974500Y-108325500D01*
X118954815Y-108392539D01*
X118902011Y-108438294D01*
X118850500Y-108449500D01*
X118784108Y-108449500D01*
X118656812Y-108483608D01*
X118542686Y-108549500D01*
X118542683Y-108549502D01*
X118449502Y-108642683D01*
X118449500Y-108642686D01*
X118383608Y-108756812D01*
X118349500Y-108884108D01*
X117658575Y-108884108D01*
X117648207Y-108845413D01*
X117595480Y-108754087D01*
X117593474Y-108752081D01*
X117587948Y-108739732D01*
X117584065Y-108711185D01*
X117577271Y-108683181D01*
X117579413Y-108676989D01*
X117578531Y-108670500D01*
X117590697Y-108644386D01*
X117600123Y-108617154D01*
X117605272Y-108613104D01*
X117608039Y-108607167D01*
X117632396Y-108591774D01*
X117655044Y-108573964D01*
X117661564Y-108573341D01*
X117667103Y-108569841D01*
X117695921Y-108570060D01*
X117724598Y-108567322D01*
X117734707Y-108570355D01*
X117736971Y-108570373D01*
X117738453Y-108571341D01*
X117745409Y-108573204D01*
X117745413Y-108573207D01*
X117847273Y-108600500D01*
X117847275Y-108600500D01*
X117952725Y-108600500D01*
X117952727Y-108600500D01*
X118054587Y-108573207D01*
X118145913Y-108520480D01*
X118220480Y-108445913D01*
X118273207Y-108354587D01*
X118300500Y-108252727D01*
X118300500Y-108147273D01*
X118273207Y-108045413D01*
X118220480Y-107954087D01*
X118145913Y-107879520D01*
X118054587Y-107826793D01*
X117952727Y-107799500D01*
X117847273Y-107799500D01*
X117745413Y-107826793D01*
X117745410Y-107826794D01*
X117654085Y-107879521D01*
X117579521Y-107954085D01*
X117526794Y-108045410D01*
X117526793Y-108045413D01*
X117499500Y-108147273D01*
X117499500Y-108252727D01*
X117526295Y-108352726D01*
X117526793Y-108354586D01*
X117526794Y-108354589D01*
X117581255Y-108448918D01*
X117597728Y-108516818D01*
X117574875Y-108582845D01*
X117519954Y-108626036D01*
X117450401Y-108632677D01*
X117437465Y-108628795D01*
X117437438Y-108628897D01*
X117429588Y-108626793D01*
X117429587Y-108626793D01*
X117327727Y-108599500D01*
X117222273Y-108599500D01*
X117194977Y-108606814D01*
X117121891Y-108626397D01*
X117052041Y-108624734D01*
X117002117Y-108594303D01*
X116907316Y-108499502D01*
X116907314Y-108499500D01*
X116814499Y-108445913D01*
X116793187Y-108433608D01*
X116729539Y-108416554D01*
X116665892Y-108399500D01*
X116534108Y-108399500D01*
X116406812Y-108433608D01*
X116292686Y-108499500D01*
X116292683Y-108499502D01*
X116199502Y-108592683D01*
X116199500Y-108592686D01*
X116133608Y-108706812D01*
X116099500Y-108834108D01*
X115700500Y-108834108D01*
X115666392Y-108706814D01*
X115600500Y-108592686D01*
X115507314Y-108499500D01*
X115414499Y-108445913D01*
X115393187Y-108433608D01*
X115329539Y-108416554D01*
X115265892Y-108399500D01*
X115134108Y-108399500D01*
X115006812Y-108433608D01*
X114892686Y-108499500D01*
X114892683Y-108499502D01*
X114799502Y-108592683D01*
X114799500Y-108592686D01*
X114733608Y-108706812D01*
X114699500Y-108834108D01*
X84150500Y-108834108D01*
X84150500Y-108734108D01*
X84116392Y-108606814D01*
X84050500Y-108492686D01*
X83957314Y-108399500D01*
X83876301Y-108352727D01*
X83843187Y-108333608D01*
X83779539Y-108316554D01*
X83715892Y-108299500D01*
X83584108Y-108299500D01*
X83456812Y-108333608D01*
X83342686Y-108399500D01*
X83342683Y-108399502D01*
X83337681Y-108404505D01*
X83276358Y-108437990D01*
X83206666Y-108433006D01*
X83162319Y-108404505D01*
X83157316Y-108399502D01*
X83157314Y-108399500D01*
X83076301Y-108352727D01*
X83043187Y-108333608D01*
X82979539Y-108316554D01*
X82915892Y-108299500D01*
X82784108Y-108299500D01*
X82656812Y-108333608D01*
X82542686Y-108399500D01*
X82542683Y-108399502D01*
X82449502Y-108492683D01*
X82449500Y-108492686D01*
X82383608Y-108606812D01*
X82364126Y-108679521D01*
X82349500Y-108734108D01*
X77113673Y-108734108D01*
X76903492Y-108164389D01*
X76902627Y-108161959D01*
X76858604Y-108034108D01*
X86799500Y-108034108D01*
X86799500Y-108165891D01*
X86833608Y-108293187D01*
X86856946Y-108333608D01*
X86899500Y-108407314D01*
X86992686Y-108500500D01*
X87106814Y-108566392D01*
X87234108Y-108600500D01*
X87234110Y-108600500D01*
X87365890Y-108600500D01*
X87365892Y-108600500D01*
X87493186Y-108566392D01*
X87607314Y-108500500D01*
X87700500Y-108407314D01*
X87766392Y-108293186D01*
X87800500Y-108165892D01*
X87800500Y-108034108D01*
X87766392Y-107906814D01*
X87700500Y-107792686D01*
X87607314Y-107699500D01*
X87516858Y-107647275D01*
X87493187Y-107633608D01*
X87429539Y-107616554D01*
X87365892Y-107599500D01*
X87234108Y-107599500D01*
X87106812Y-107633608D01*
X86992686Y-107699500D01*
X86992683Y-107699502D01*
X86899502Y-107792683D01*
X86899500Y-107792686D01*
X86833608Y-107906812D01*
X86799500Y-108034108D01*
X76858604Y-108034108D01*
X76796871Y-107854823D01*
X76796237Y-107852928D01*
X76660154Y-107434108D01*
X91999500Y-107434108D01*
X91999500Y-107565892D01*
X92008505Y-107599500D01*
X92033608Y-107693187D01*
X92064408Y-107746533D01*
X92099500Y-107807314D01*
X92192686Y-107900500D01*
X92306814Y-107966392D01*
X92407594Y-107993395D01*
X92467254Y-108029760D01*
X92497783Y-108092607D01*
X92499500Y-108113170D01*
X92499500Y-108165891D01*
X92533608Y-108293187D01*
X92556946Y-108333608D01*
X92599500Y-108407314D01*
X92692686Y-108500500D01*
X92806814Y-108566392D01*
X92934108Y-108600500D01*
X92934110Y-108600500D01*
X93065890Y-108600500D01*
X93065892Y-108600500D01*
X93193186Y-108566392D01*
X93307314Y-108500500D01*
X93400500Y-108407314D01*
X93466392Y-108293186D01*
X93500500Y-108165892D01*
X93500500Y-108047273D01*
X97699500Y-108047273D01*
X97699500Y-108152727D01*
X97726793Y-108254587D01*
X97779520Y-108345913D01*
X97854087Y-108420480D01*
X97945413Y-108473207D01*
X98047273Y-108500500D01*
X98047275Y-108500500D01*
X98152725Y-108500500D01*
X98152727Y-108500500D01*
X98254587Y-108473207D01*
X98345913Y-108420480D01*
X98420480Y-108345913D01*
X98473207Y-108254587D01*
X98500500Y-108152727D01*
X98500500Y-108047273D01*
X98473207Y-107945413D01*
X98420480Y-107854087D01*
X98345913Y-107779520D01*
X98254587Y-107726793D01*
X98152727Y-107699500D01*
X98047273Y-107699500D01*
X97945413Y-107726793D01*
X97945410Y-107726794D01*
X97854085Y-107779521D01*
X97779521Y-107854085D01*
X97726794Y-107945410D01*
X97726793Y-107945413D01*
X97699500Y-108047273D01*
X93500500Y-108047273D01*
X93500500Y-108034108D01*
X93466392Y-107906814D01*
X93400500Y-107792686D01*
X93307314Y-107699500D01*
X93216854Y-107647273D01*
X114399500Y-107647273D01*
X114399500Y-107752727D01*
X114426793Y-107854587D01*
X114479520Y-107945913D01*
X114554087Y-108020480D01*
X114645413Y-108073207D01*
X114747273Y-108100500D01*
X114747275Y-108100500D01*
X114852725Y-108100500D01*
X114852727Y-108100500D01*
X114954587Y-108073207D01*
X115045913Y-108020480D01*
X115120480Y-107945913D01*
X115173207Y-107854587D01*
X115200500Y-107752727D01*
X115200500Y-107647273D01*
X115173207Y-107545413D01*
X115120480Y-107454087D01*
X115045913Y-107379520D01*
X114954587Y-107326793D01*
X114852727Y-107299500D01*
X114747273Y-107299500D01*
X114645413Y-107326793D01*
X114645410Y-107326794D01*
X114554085Y-107379521D01*
X114479521Y-107454085D01*
X114426794Y-107545410D01*
X114426793Y-107545413D01*
X114399500Y-107647273D01*
X93216854Y-107647273D01*
X93193186Y-107633608D01*
X93124194Y-107615121D01*
X93092406Y-107606604D01*
X93032746Y-107570238D01*
X93002217Y-107507391D01*
X93000500Y-107486829D01*
X93000500Y-107443170D01*
X93020185Y-107376131D01*
X93072989Y-107330376D01*
X93092402Y-107323396D01*
X93193186Y-107296392D01*
X93307314Y-107230500D01*
X93400500Y-107137314D01*
X93466392Y-107023186D01*
X93500500Y-106895892D01*
X93500500Y-106764108D01*
X93466392Y-106636814D01*
X93435962Y-106584108D01*
X96949500Y-106584108D01*
X96949500Y-106715892D01*
X96956819Y-106743206D01*
X96983608Y-106843187D01*
X97008805Y-106886829D01*
X97049500Y-106957314D01*
X97142686Y-107050500D01*
X97227560Y-107099502D01*
X97255944Y-107115890D01*
X97256814Y-107116392D01*
X97384108Y-107150500D01*
X97384110Y-107150500D01*
X97515890Y-107150500D01*
X97515892Y-107150500D01*
X97643186Y-107116392D01*
X97757314Y-107050500D01*
X97850500Y-106957314D01*
X97916392Y-106843186D01*
X97950500Y-106715892D01*
X97950500Y-106584108D01*
X97916392Y-106456814D01*
X97850500Y-106342686D01*
X97757314Y-106249500D01*
X97698269Y-106215410D01*
X97643187Y-106183608D01*
X97577065Y-106165891D01*
X97515892Y-106149500D01*
X97384108Y-106149500D01*
X97256812Y-106183608D01*
X97142686Y-106249500D01*
X97142683Y-106249502D01*
X97049502Y-106342683D01*
X97049500Y-106342686D01*
X96983608Y-106456812D01*
X96965448Y-106524587D01*
X96949500Y-106584108D01*
X93435962Y-106584108D01*
X93400500Y-106522686D01*
X93307314Y-106429500D01*
X93243509Y-106392662D01*
X93193187Y-106363608D01*
X93115092Y-106342683D01*
X93065892Y-106329500D01*
X92934108Y-106329500D01*
X92806812Y-106363608D01*
X92692686Y-106429500D01*
X92692683Y-106429502D01*
X92599502Y-106522683D01*
X92599500Y-106522686D01*
X92533608Y-106636812D01*
X92499500Y-106764108D01*
X92499500Y-106886829D01*
X92479815Y-106953868D01*
X92427011Y-106999623D01*
X92407594Y-107006604D01*
X92365176Y-107017969D01*
X92306814Y-107033608D01*
X92306812Y-107033608D01*
X92306812Y-107033609D01*
X92192686Y-107099500D01*
X92192683Y-107099502D01*
X92099502Y-107192683D01*
X92099500Y-107192686D01*
X92033608Y-107306812D01*
X91999500Y-107434108D01*
X76660154Y-107434108D01*
X76611947Y-107285741D01*
X76611309Y-107283717D01*
X76598918Y-107243187D01*
X76516318Y-106973016D01*
X76515608Y-106970598D01*
X76350635Y-106385647D01*
X76350247Y-106384236D01*
X76270584Y-106086931D01*
X76269793Y-106083815D01*
X76269782Y-106083769D01*
X76221847Y-105884108D01*
X86849500Y-105884108D01*
X86849500Y-106015892D01*
X86863031Y-106066391D01*
X86883608Y-106143187D01*
X86896717Y-106165892D01*
X86949500Y-106257314D01*
X87042686Y-106350500D01*
X87156814Y-106416392D01*
X87284108Y-106450500D01*
X87284110Y-106450500D01*
X87415890Y-106450500D01*
X87415892Y-106450500D01*
X87543186Y-106416392D01*
X87657314Y-106350500D01*
X87750500Y-106257314D01*
X87816392Y-106143186D01*
X87850500Y-106015892D01*
X87850500Y-105884108D01*
X95499500Y-105884108D01*
X95499500Y-106015892D01*
X95513031Y-106066391D01*
X95533608Y-106143187D01*
X95546717Y-106165892D01*
X95599500Y-106257314D01*
X95692686Y-106350500D01*
X95806814Y-106416392D01*
X95934108Y-106450500D01*
X95934110Y-106450500D01*
X96065890Y-106450500D01*
X96065892Y-106450500D01*
X96193186Y-106416392D01*
X96307314Y-106350500D01*
X96400500Y-106257314D01*
X96466392Y-106143186D01*
X96500500Y-106015892D01*
X96500500Y-105897273D01*
X101949500Y-105897273D01*
X101949500Y-106002727D01*
X101976793Y-106104587D01*
X102029520Y-106195913D01*
X102104087Y-106270480D01*
X102195413Y-106323207D01*
X102297273Y-106350500D01*
X102297275Y-106350500D01*
X102402725Y-106350500D01*
X102402727Y-106350500D01*
X102402728Y-106350499D01*
X102410783Y-106349439D01*
X102411142Y-106352168D01*
X102467538Y-106353505D01*
X102525405Y-106392662D01*
X102552916Y-106456887D01*
X102549569Y-106503712D01*
X102524500Y-106597273D01*
X102524500Y-106702727D01*
X102548015Y-106790485D01*
X102551793Y-106804586D01*
X102551794Y-106804589D01*
X102565922Y-106829059D01*
X102604520Y-106895913D01*
X102679087Y-106970480D01*
X102770413Y-107023207D01*
X102872273Y-107050500D01*
X102872275Y-107050500D01*
X102977725Y-107050500D01*
X102977727Y-107050500D01*
X103079587Y-107023207D01*
X103170913Y-106970480D01*
X103174264Y-106967129D01*
X103235585Y-106933640D01*
X103305277Y-106938621D01*
X103323951Y-106947419D01*
X103356808Y-106966389D01*
X103356809Y-106966389D01*
X103356814Y-106966392D01*
X103484108Y-107000500D01*
X103484110Y-107000500D01*
X103615890Y-107000500D01*
X103615892Y-107000500D01*
X103677068Y-106984108D01*
X118149500Y-106984108D01*
X118149500Y-107115892D01*
X118158773Y-107150499D01*
X118183608Y-107243187D01*
X118208200Y-107285781D01*
X118249500Y-107357314D01*
X118342686Y-107450500D01*
X118456814Y-107516392D01*
X118584108Y-107550500D01*
X118584110Y-107550500D01*
X118715890Y-107550500D01*
X118715892Y-107550500D01*
X118843186Y-107516392D01*
X118957314Y-107450500D01*
X119050500Y-107357314D01*
X119116392Y-107243186D01*
X119150500Y-107115892D01*
X119150500Y-106984108D01*
X119116392Y-106856814D01*
X119050500Y-106742686D01*
X118957314Y-106649500D01*
X118900250Y-106616554D01*
X118843187Y-106583608D01*
X118777061Y-106565890D01*
X118715892Y-106549500D01*
X118584108Y-106549500D01*
X118456812Y-106583608D01*
X118342686Y-106649500D01*
X118342683Y-106649502D01*
X118249502Y-106742683D01*
X118249500Y-106742686D01*
X118183608Y-106856812D01*
X118171902Y-106900500D01*
X118149500Y-106984108D01*
X103677068Y-106984108D01*
X103743186Y-106966392D01*
X103857314Y-106900500D01*
X103950500Y-106807314D01*
X104016392Y-106693186D01*
X104050500Y-106565892D01*
X104050500Y-106434108D01*
X104049266Y-106429502D01*
X104046173Y-106417957D01*
X104046170Y-106417949D01*
X104043321Y-106407316D01*
X104039748Y-106393982D01*
X110224500Y-106393982D01*
X110224500Y-106506018D01*
X110229476Y-106524586D01*
X110253497Y-106614236D01*
X110253498Y-106614239D01*
X110254465Y-106615914D01*
X110309515Y-106711263D01*
X110388737Y-106790485D01*
X110485763Y-106846503D01*
X110593982Y-106875500D01*
X110593984Y-106875500D01*
X110706016Y-106875500D01*
X110706018Y-106875500D01*
X110814237Y-106846503D01*
X110911263Y-106790485D01*
X110990485Y-106711263D01*
X111046503Y-106614237D01*
X111075500Y-106506018D01*
X111075500Y-106393982D01*
X111046503Y-106285763D01*
X110990485Y-106188737D01*
X110911263Y-106109515D01*
X110814237Y-106053497D01*
X110741876Y-106034108D01*
X111699500Y-106034108D01*
X111699500Y-106165892D01*
X111707428Y-106195480D01*
X111733608Y-106293187D01*
X111754574Y-106329500D01*
X111799500Y-106407314D01*
X111892686Y-106500500D01*
X111991521Y-106557563D01*
X112005944Y-106565890D01*
X112006814Y-106566392D01*
X112134108Y-106600500D01*
X112134110Y-106600500D01*
X112265890Y-106600500D01*
X112265892Y-106600500D01*
X112393186Y-106566392D01*
X112507314Y-106500500D01*
X112600500Y-106407314D01*
X112652485Y-106317273D01*
X114849500Y-106317273D01*
X114849500Y-106422727D01*
X114876793Y-106524587D01*
X114929520Y-106615913D01*
X115004087Y-106690480D01*
X115095413Y-106743207D01*
X115197273Y-106770500D01*
X115197275Y-106770500D01*
X115302725Y-106770500D01*
X115302727Y-106770500D01*
X115404587Y-106743207D01*
X115495913Y-106690480D01*
X115570480Y-106615913D01*
X115623207Y-106524587D01*
X115650500Y-106422727D01*
X115650500Y-106317273D01*
X115623207Y-106215413D01*
X115570480Y-106124087D01*
X115495913Y-106049520D01*
X115404587Y-105996793D01*
X115357245Y-105984108D01*
X116249500Y-105984108D01*
X116249500Y-106115892D01*
X116251696Y-106124087D01*
X116283608Y-106243187D01*
X116308188Y-106285760D01*
X116349500Y-106357314D01*
X116442686Y-106450500D01*
X116556814Y-106516392D01*
X116684108Y-106550500D01*
X116684110Y-106550500D01*
X116815890Y-106550500D01*
X116815892Y-106550500D01*
X116943186Y-106516392D01*
X117057314Y-106450500D01*
X117150500Y-106357314D01*
X117216392Y-106243186D01*
X117250500Y-106115892D01*
X117250500Y-105984108D01*
X117216392Y-105856814D01*
X117196450Y-105822273D01*
X119749500Y-105822273D01*
X119749500Y-105927727D01*
X119773124Y-106015892D01*
X119776793Y-106029586D01*
X119776794Y-106029589D01*
X119779403Y-106034108D01*
X119829520Y-106120913D01*
X119904087Y-106195480D01*
X119995413Y-106248207D01*
X120097273Y-106275500D01*
X120097275Y-106275500D01*
X120202725Y-106275500D01*
X120202727Y-106275500D01*
X120304587Y-106248207D01*
X120395913Y-106195480D01*
X120470480Y-106120913D01*
X120523207Y-106029587D01*
X120550500Y-105927727D01*
X120550500Y-105822273D01*
X120523207Y-105720413D01*
X120470480Y-105629087D01*
X120395913Y-105554520D01*
X120304587Y-105501793D01*
X120202727Y-105474500D01*
X120097273Y-105474500D01*
X119995413Y-105501793D01*
X119995410Y-105501794D01*
X119904085Y-105554521D01*
X119829521Y-105629085D01*
X119776794Y-105720410D01*
X119776793Y-105720413D01*
X119749500Y-105822273D01*
X117196450Y-105822273D01*
X117150500Y-105742686D01*
X117134954Y-105727140D01*
X117127211Y-105714399D01*
X117121896Y-105694460D01*
X117112009Y-105676351D01*
X117113079Y-105661385D01*
X117109215Y-105646886D01*
X117115523Y-105627240D01*
X117116996Y-105606660D01*
X117127259Y-105590690D01*
X117130576Y-105580362D01*
X117137631Y-105574551D01*
X117145491Y-105562322D01*
X117200500Y-105507314D01*
X117266392Y-105393186D01*
X117300500Y-105265892D01*
X117300500Y-105134108D01*
X117266392Y-105006814D01*
X117200500Y-104892686D01*
X117107314Y-104799500D01*
X117026301Y-104752727D01*
X116993187Y-104733608D01*
X116929539Y-104716554D01*
X116865892Y-104699500D01*
X116734108Y-104699500D01*
X116606812Y-104733608D01*
X116492686Y-104799500D01*
X116492683Y-104799502D01*
X116399502Y-104892683D01*
X116399500Y-104892686D01*
X116333608Y-105006812D01*
X116315818Y-105073206D01*
X116299500Y-105134108D01*
X116299500Y-105265892D01*
X116316554Y-105329539D01*
X116333608Y-105393187D01*
X116346717Y-105415892D01*
X116399500Y-105507314D01*
X116399502Y-105507316D01*
X116404505Y-105512319D01*
X116437990Y-105573642D01*
X116433006Y-105643334D01*
X116404505Y-105687681D01*
X116349502Y-105742683D01*
X116349500Y-105742686D01*
X116283608Y-105856812D01*
X116264607Y-105927726D01*
X116249500Y-105984108D01*
X115357245Y-105984108D01*
X115302727Y-105969500D01*
X115197273Y-105969500D01*
X115095413Y-105996793D01*
X115095410Y-105996794D01*
X115004085Y-106049521D01*
X114929521Y-106124085D01*
X114876794Y-106215410D01*
X114876793Y-106215413D01*
X114849500Y-106317273D01*
X112652485Y-106317273D01*
X112666392Y-106293186D01*
X112693396Y-106192404D01*
X112729760Y-106132746D01*
X112792607Y-106102217D01*
X112813170Y-106100500D01*
X112915890Y-106100500D01*
X112915892Y-106100500D01*
X113043186Y-106066392D01*
X113157314Y-106000500D01*
X113250500Y-105907314D01*
X113316392Y-105793186D01*
X113350500Y-105665892D01*
X113350500Y-105534108D01*
X113316392Y-105406814D01*
X113250500Y-105292686D01*
X113157314Y-105199500D01*
X113083380Y-105156814D01*
X113043187Y-105133608D01*
X112979539Y-105116554D01*
X112915892Y-105099500D01*
X112784108Y-105099500D01*
X112656812Y-105133608D01*
X112542686Y-105199500D01*
X112542683Y-105199502D01*
X112449502Y-105292683D01*
X112449500Y-105292686D01*
X112383608Y-105406812D01*
X112372663Y-105447661D01*
X112356680Y-105507314D01*
X112356605Y-105507593D01*
X112320240Y-105567254D01*
X112257393Y-105597783D01*
X112236830Y-105599500D01*
X112134108Y-105599500D01*
X112006812Y-105633608D01*
X111892686Y-105699500D01*
X111892683Y-105699502D01*
X111799502Y-105792683D01*
X111799500Y-105792686D01*
X111733608Y-105906812D01*
X111728004Y-105927727D01*
X111699500Y-106034108D01*
X110741876Y-106034108D01*
X110706018Y-106024500D01*
X110593982Y-106024500D01*
X110485763Y-106053497D01*
X110485760Y-106053498D01*
X110388740Y-106109513D01*
X110388734Y-106109517D01*
X110309517Y-106188734D01*
X110309513Y-106188740D01*
X110253498Y-106285760D01*
X110253497Y-106285763D01*
X110224500Y-106393982D01*
X104039748Y-106393982D01*
X104016392Y-106306814D01*
X103950500Y-106192686D01*
X103857314Y-106099500D01*
X103799968Y-106066391D01*
X103743187Y-106033608D01*
X103627935Y-106002727D01*
X103615892Y-105999500D01*
X103484108Y-105999500D01*
X103356812Y-106033608D01*
X103242686Y-106099500D01*
X103242683Y-106099502D01*
X103149502Y-106192683D01*
X103149497Y-106192689D01*
X103145649Y-106199355D01*
X103095078Y-106247567D01*
X103026470Y-106260785D01*
X103006174Y-106257122D01*
X102977728Y-106249500D01*
X102977727Y-106249500D01*
X102872273Y-106249500D01*
X102872271Y-106249500D01*
X102864217Y-106250561D01*
X102863858Y-106247839D01*
X102807411Y-106246478D01*
X102749561Y-106207297D01*
X102722077Y-106143060D01*
X102725429Y-106096292D01*
X102750500Y-106002727D01*
X102750500Y-105897273D01*
X102723207Y-105795413D01*
X102670480Y-105704087D01*
X102595913Y-105629520D01*
X102504587Y-105576793D01*
X102402727Y-105549500D01*
X102297273Y-105549500D01*
X102195413Y-105576793D01*
X102195410Y-105576794D01*
X102104085Y-105629521D01*
X102029521Y-105704085D01*
X101976794Y-105795410D01*
X101976793Y-105795413D01*
X101949500Y-105897273D01*
X96500500Y-105897273D01*
X96500500Y-105884108D01*
X96466392Y-105756814D01*
X96400500Y-105642686D01*
X96307314Y-105549500D01*
X96234729Y-105507593D01*
X96193187Y-105483608D01*
X96127636Y-105466044D01*
X96065892Y-105449500D01*
X95934108Y-105449500D01*
X95806812Y-105483608D01*
X95692686Y-105549500D01*
X95692683Y-105549502D01*
X95599502Y-105642683D01*
X95599500Y-105642686D01*
X95533608Y-105756812D01*
X95517644Y-105816392D01*
X95499500Y-105884108D01*
X87850500Y-105884108D01*
X87816392Y-105756814D01*
X87750500Y-105642686D01*
X87657314Y-105549500D01*
X87584729Y-105507593D01*
X87543187Y-105483608D01*
X87477636Y-105466044D01*
X87415892Y-105449500D01*
X87284108Y-105449500D01*
X87156812Y-105483608D01*
X87042686Y-105549500D01*
X87042683Y-105549502D01*
X86949502Y-105642683D01*
X86949500Y-105642686D01*
X86883608Y-105756812D01*
X86867644Y-105816392D01*
X86849500Y-105884108D01*
X76221847Y-105884108D01*
X76117253Y-105448443D01*
X76117070Y-105447661D01*
X76079311Y-105284108D01*
X82549500Y-105284108D01*
X82549500Y-105415892D01*
X82558265Y-105448605D01*
X82583608Y-105543187D01*
X82615130Y-105597783D01*
X82649500Y-105657314D01*
X82742686Y-105750500D01*
X82841521Y-105807563D01*
X82856810Y-105816390D01*
X82856814Y-105816392D01*
X82984108Y-105850500D01*
X82984110Y-105850500D01*
X83115890Y-105850500D01*
X83115892Y-105850500D01*
X83243186Y-105816392D01*
X83357314Y-105750500D01*
X83450500Y-105657314D01*
X83516392Y-105543186D01*
X83550500Y-105415892D01*
X83550500Y-105284108D01*
X83516392Y-105156814D01*
X83450500Y-105042686D01*
X83357314Y-104949500D01*
X83300250Y-104916554D01*
X83243187Y-104883608D01*
X83179539Y-104866554D01*
X83115892Y-104849500D01*
X82984108Y-104849500D01*
X82856812Y-104883608D01*
X82742686Y-104949500D01*
X82742683Y-104949502D01*
X82649502Y-105042683D01*
X82649500Y-105042686D01*
X82583608Y-105156812D01*
X82567644Y-105216392D01*
X82549500Y-105284108D01*
X76079311Y-105284108D01*
X76058809Y-105195306D01*
X76058021Y-105191634D01*
X76058015Y-105191603D01*
X75898781Y-104391083D01*
X75880763Y-104298384D01*
X75880025Y-104294198D01*
X75799235Y-103784108D01*
X79549500Y-103784108D01*
X79549500Y-103915892D01*
X79566554Y-103979539D01*
X79583608Y-104043187D01*
X79596717Y-104065892D01*
X79649500Y-104157314D01*
X79742686Y-104250500D01*
X79856814Y-104316392D01*
X79984108Y-104350500D01*
X79984110Y-104350500D01*
X80115890Y-104350500D01*
X80115892Y-104350500D01*
X80243186Y-104316392D01*
X80357314Y-104250500D01*
X80450500Y-104157314D01*
X80516392Y-104043186D01*
X80550500Y-103915892D01*
X80550500Y-103784108D01*
X80523705Y-103684108D01*
X87649500Y-103684108D01*
X87649500Y-103815892D01*
X87664188Y-103870710D01*
X87683608Y-103943187D01*
X87691766Y-103957316D01*
X87749500Y-104057314D01*
X87842686Y-104150500D01*
X87956814Y-104216392D01*
X88084108Y-104250500D01*
X88084110Y-104250500D01*
X88215890Y-104250500D01*
X88215892Y-104250500D01*
X88343186Y-104216392D01*
X88457314Y-104150500D01*
X88550500Y-104057314D01*
X88616392Y-103943186D01*
X88650500Y-103815892D01*
X88650500Y-103684108D01*
X88616392Y-103556814D01*
X88612256Y-103549651D01*
X88602994Y-103533608D01*
X88550500Y-103442686D01*
X88457314Y-103349500D01*
X88391777Y-103311662D01*
X88343187Y-103283608D01*
X88270892Y-103264237D01*
X88215892Y-103249500D01*
X88084108Y-103249500D01*
X87956812Y-103283608D01*
X87842686Y-103349500D01*
X87842683Y-103349502D01*
X87749502Y-103442683D01*
X87749500Y-103442686D01*
X87683608Y-103556812D01*
X87667644Y-103616392D01*
X87649500Y-103684108D01*
X80523705Y-103684108D01*
X80516392Y-103656814D01*
X80450500Y-103542686D01*
X80357314Y-103449500D01*
X80283380Y-103406814D01*
X80243187Y-103383608D01*
X80174523Y-103365210D01*
X80115892Y-103349500D01*
X79984108Y-103349500D01*
X79856812Y-103383608D01*
X79742686Y-103449500D01*
X79742683Y-103449502D01*
X79649502Y-103542683D01*
X79649500Y-103542686D01*
X79583608Y-103656812D01*
X79554247Y-103766391D01*
X79549500Y-103784108D01*
X75799235Y-103784108D01*
X75733563Y-103369470D01*
X75732964Y-103365210D01*
X75731035Y-103349502D01*
X75721439Y-103271341D01*
X75721387Y-103270904D01*
X75721375Y-103270804D01*
X75625517Y-102460896D01*
X75625132Y-102457156D01*
X75625102Y-102456810D01*
X75602549Y-102199034D01*
X75602522Y-102198709D01*
X75568961Y-101772273D01*
X82449500Y-101772273D01*
X82449500Y-101877727D01*
X82476793Y-101979587D01*
X82529520Y-102070913D01*
X82604087Y-102145480D01*
X82695413Y-102198207D01*
X82797273Y-102225500D01*
X82797275Y-102225500D01*
X82902725Y-102225500D01*
X82902727Y-102225500D01*
X83004587Y-102198207D01*
X83095913Y-102145480D01*
X83170480Y-102070913D01*
X83223207Y-101979587D01*
X83250500Y-101877727D01*
X83250500Y-101822273D01*
X83724500Y-101822273D01*
X83724500Y-101927727D01*
X83744000Y-102000500D01*
X83751793Y-102029586D01*
X83751794Y-102029589D01*
X83804521Y-102120914D01*
X83878629Y-102195022D01*
X83912114Y-102256345D01*
X83907130Y-102326037D01*
X83898335Y-102344703D01*
X83833609Y-102456810D01*
X83833609Y-102456811D01*
X83833608Y-102456813D01*
X83833608Y-102456814D01*
X83819932Y-102507853D01*
X83799500Y-102584108D01*
X83799500Y-102715891D01*
X83833608Y-102843187D01*
X83841921Y-102857585D01*
X83899500Y-102957314D01*
X83992686Y-103050500D01*
X84106814Y-103116392D01*
X84234108Y-103150500D01*
X84234110Y-103150500D01*
X84365890Y-103150500D01*
X84365892Y-103150500D01*
X84493186Y-103116392D01*
X84607314Y-103050500D01*
X84700500Y-102957314D01*
X84766392Y-102843186D01*
X84800500Y-102715892D01*
X84800500Y-102584108D01*
X84766392Y-102456814D01*
X84742764Y-102415890D01*
X84700503Y-102342691D01*
X84700502Y-102342690D01*
X84700500Y-102342686D01*
X84641922Y-102284108D01*
X91949500Y-102284108D01*
X91949500Y-102415892D01*
X91966554Y-102479539D01*
X91983608Y-102543187D01*
X92016121Y-102599500D01*
X92049500Y-102657314D01*
X92142686Y-102750500D01*
X92256814Y-102816392D01*
X92384108Y-102850500D01*
X92384110Y-102850500D01*
X92450495Y-102850500D01*
X92517534Y-102870185D01*
X92563289Y-102922989D01*
X92573233Y-102992147D01*
X92570270Y-103006591D01*
X92558506Y-103050500D01*
X92556605Y-103057593D01*
X92520241Y-103117253D01*
X92457394Y-103147783D01*
X92436830Y-103149500D01*
X92384108Y-103149500D01*
X92256812Y-103183608D01*
X92142686Y-103249500D01*
X92142683Y-103249502D01*
X92049502Y-103342683D01*
X92049500Y-103342686D01*
X91983608Y-103456812D01*
X91950130Y-103581758D01*
X91949500Y-103584108D01*
X91949500Y-103715892D01*
X91956605Y-103742407D01*
X91983608Y-103843187D01*
X92010249Y-103889330D01*
X92049500Y-103957314D01*
X92142686Y-104050500D01*
X92237545Y-104105267D01*
X92256285Y-104116087D01*
X92256814Y-104116392D01*
X92384108Y-104150500D01*
X92384110Y-104150500D01*
X92492324Y-104150500D01*
X92559363Y-104170185D01*
X92605118Y-104222989D01*
X92615062Y-104292147D01*
X92586037Y-104355703D01*
X92580005Y-104362181D01*
X92499502Y-104442683D01*
X92499500Y-104442686D01*
X92433608Y-104556812D01*
X92399500Y-104684108D01*
X92399500Y-104815891D01*
X92433608Y-104943187D01*
X92466554Y-105000250D01*
X92499500Y-105057314D01*
X92592686Y-105150500D01*
X92706814Y-105216392D01*
X92834108Y-105250500D01*
X92834110Y-105250500D01*
X92965890Y-105250500D01*
X92965892Y-105250500D01*
X93093186Y-105216392D01*
X93137999Y-105190518D01*
X93205898Y-105174045D01*
X93262000Y-105190518D01*
X93263879Y-105191603D01*
X93306811Y-105216391D01*
X93306813Y-105216391D01*
X93306814Y-105216392D01*
X93434108Y-105250500D01*
X93434110Y-105250500D01*
X93565890Y-105250500D01*
X93565892Y-105250500D01*
X93693186Y-105216392D01*
X93807314Y-105150500D01*
X93900500Y-105057314D01*
X93966392Y-104943186D01*
X94000500Y-104815892D01*
X94000500Y-104684108D01*
X93966392Y-104556814D01*
X93900500Y-104442686D01*
X93807314Y-104349500D01*
X93737999Y-104309481D01*
X93693187Y-104283608D01*
X93628931Y-104266391D01*
X93565892Y-104249500D01*
X93434108Y-104249500D01*
X93306814Y-104283608D01*
X93306807Y-104283611D01*
X93261999Y-104309481D01*
X93194099Y-104325954D01*
X93138001Y-104309481D01*
X93093192Y-104283611D01*
X93093188Y-104283609D01*
X93093186Y-104283608D01*
X92965892Y-104249500D01*
X92857676Y-104249500D01*
X92790637Y-104229815D01*
X92744882Y-104177011D01*
X92734938Y-104107853D01*
X92763963Y-104044297D01*
X92769995Y-104037819D01*
X92807317Y-104000497D01*
X92850500Y-103957314D01*
X92916392Y-103843186D01*
X92943395Y-103742405D01*
X92970905Y-103697273D01*
X101999500Y-103697273D01*
X101999500Y-103802727D01*
X102022173Y-103887342D01*
X102026793Y-103904586D01*
X102026794Y-103904589D01*
X102033319Y-103915890D01*
X102079520Y-103995913D01*
X102154087Y-104070480D01*
X102217889Y-104107316D01*
X102235724Y-104117613D01*
X102283940Y-104168180D01*
X102297162Y-104236787D01*
X102271194Y-104301652D01*
X102235724Y-104332387D01*
X102154085Y-104379521D01*
X102079521Y-104454085D01*
X102026794Y-104545410D01*
X102026793Y-104545413D01*
X101999500Y-104647273D01*
X101999500Y-104752727D01*
X102026793Y-104854587D01*
X102079520Y-104945913D01*
X102154087Y-105020480D01*
X102245413Y-105073207D01*
X102347273Y-105100500D01*
X102347275Y-105100500D01*
X102452725Y-105100500D01*
X102452727Y-105100500D01*
X102554587Y-105073207D01*
X102645913Y-105020480D01*
X102720480Y-104945913D01*
X102773207Y-104854587D01*
X102800500Y-104752727D01*
X102800500Y-104647273D01*
X102773207Y-104545413D01*
X102720480Y-104454087D01*
X102645913Y-104379520D01*
X102564273Y-104332385D01*
X102516059Y-104281820D01*
X102502836Y-104213213D01*
X102528804Y-104148348D01*
X102564272Y-104117614D01*
X102645913Y-104070480D01*
X102720480Y-103995913D01*
X102773207Y-103904587D01*
X102800500Y-103802727D01*
X102800500Y-103697273D01*
X102773207Y-103595413D01*
X102720480Y-103504087D01*
X102645913Y-103429520D01*
X102566391Y-103383608D01*
X102554589Y-103376794D01*
X102554588Y-103376793D01*
X102554587Y-103376793D01*
X102452727Y-103349500D01*
X102347273Y-103349500D01*
X102245413Y-103376793D01*
X102245410Y-103376794D01*
X102154085Y-103429521D01*
X102079521Y-103504085D01*
X102026794Y-103595410D01*
X102026793Y-103595413D01*
X101999500Y-103697273D01*
X92970905Y-103697273D01*
X92979760Y-103682746D01*
X93042607Y-103652217D01*
X93063170Y-103650500D01*
X93115890Y-103650500D01*
X93115892Y-103650500D01*
X93243186Y-103616392D01*
X93357314Y-103550500D01*
X93450500Y-103457314D01*
X93516392Y-103343186D01*
X93550500Y-103215892D01*
X93550500Y-103084108D01*
X93516392Y-102956814D01*
X93503283Y-102934108D01*
X105299500Y-102934108D01*
X105299500Y-103065892D01*
X105313031Y-103116391D01*
X105333608Y-103193187D01*
X105364014Y-103245851D01*
X105399500Y-103307314D01*
X105492686Y-103400500D01*
X105606814Y-103466392D01*
X105734108Y-103500500D01*
X105734110Y-103500500D01*
X105874019Y-103500500D01*
X105874019Y-103503671D01*
X105928274Y-103512095D01*
X105980561Y-103558439D01*
X105999500Y-103624304D01*
X105999500Y-103665892D01*
X106010803Y-103708074D01*
X106033608Y-103793187D01*
X106046717Y-103815892D01*
X106099500Y-103907314D01*
X106192686Y-104000500D01*
X106291089Y-104057313D01*
X106305944Y-104065890D01*
X106306814Y-104066392D01*
X106434108Y-104100500D01*
X106434110Y-104100500D01*
X106565890Y-104100500D01*
X106565892Y-104100500D01*
X106693186Y-104066392D01*
X106694056Y-104065890D01*
X106708906Y-104057316D01*
X106732024Y-104043968D01*
X106799923Y-104027495D01*
X106865951Y-104050347D01*
X106909142Y-104105267D01*
X106913800Y-104119261D01*
X106933608Y-104193186D01*
X106999500Y-104307314D01*
X107092686Y-104400500D01*
X107206814Y-104466392D01*
X107334108Y-104500500D01*
X107334110Y-104500500D01*
X107465890Y-104500500D01*
X107465892Y-104500500D01*
X107593186Y-104466392D01*
X107707314Y-104400500D01*
X107800500Y-104307314D01*
X107866392Y-104193186D01*
X107900500Y-104065892D01*
X107900500Y-103934108D01*
X107866392Y-103806814D01*
X107800500Y-103692686D01*
X107707314Y-103599500D01*
X107648975Y-103565818D01*
X107593187Y-103533608D01*
X107520552Y-103514146D01*
X107465892Y-103499500D01*
X107334108Y-103499500D01*
X107206811Y-103533608D01*
X107167973Y-103556032D01*
X107148108Y-103560850D01*
X107129984Y-103570297D01*
X107114844Y-103568919D01*
X107100072Y-103572503D01*
X107080757Y-103565818D01*
X107060402Y-103563966D01*
X107048411Y-103554623D01*
X107034046Y-103549651D01*
X107021410Y-103533583D01*
X107005289Y-103521021D01*
X106995822Y-103501044D01*
X106990856Y-103494729D01*
X106988976Y-103489723D01*
X106987418Y-103485288D01*
X106966392Y-103406814D01*
X106924415Y-103334108D01*
X109499500Y-103334108D01*
X109499500Y-103465892D01*
X109515472Y-103525500D01*
X109533608Y-103593187D01*
X109541766Y-103607316D01*
X109599500Y-103707314D01*
X109692686Y-103800500D01*
X109766622Y-103843187D01*
X109805944Y-103865890D01*
X109806814Y-103866392D01*
X109908442Y-103893623D01*
X109968102Y-103929987D01*
X109998631Y-103992834D01*
X109990337Y-104062209D01*
X109945851Y-104116087D01*
X109914314Y-104130490D01*
X109914318Y-104130500D01*
X109914061Y-104130606D01*
X109908447Y-104133170D01*
X109907873Y-104133324D01*
X109906812Y-104133608D01*
X109792686Y-104199500D01*
X109792683Y-104199502D01*
X109699502Y-104292683D01*
X109699500Y-104292686D01*
X109633608Y-104406812D01*
X109617644Y-104466392D01*
X109599500Y-104534108D01*
X109599500Y-104665892D01*
X109608505Y-104699500D01*
X109633608Y-104793187D01*
X109646717Y-104815892D01*
X109699500Y-104907314D01*
X109792686Y-105000500D01*
X109906814Y-105066392D01*
X110034108Y-105100500D01*
X110034110Y-105100500D01*
X110165890Y-105100500D01*
X110165892Y-105100500D01*
X110293186Y-105066392D01*
X110407314Y-105000500D01*
X110500500Y-104907314D01*
X110566392Y-104793186D01*
X110600500Y-104665892D01*
X110600500Y-104534108D01*
X110566392Y-104406814D01*
X110500500Y-104292686D01*
X110407314Y-104199500D01*
X110293186Y-104133608D01*
X110191556Y-104106376D01*
X110131897Y-104070012D01*
X110101368Y-104007165D01*
X110109663Y-103937789D01*
X110154148Y-103883911D01*
X110185686Y-103869509D01*
X110185682Y-103869500D01*
X110185957Y-103869385D01*
X110191559Y-103866827D01*
X110193186Y-103866392D01*
X110307314Y-103800500D01*
X110400500Y-103707314D01*
X110466392Y-103593186D01*
X110493623Y-103491555D01*
X110529986Y-103431898D01*
X110592833Y-103401368D01*
X110662209Y-103409662D01*
X110716087Y-103454147D01*
X110730490Y-103485686D01*
X110730500Y-103485682D01*
X110730612Y-103485953D01*
X110733171Y-103491556D01*
X110733607Y-103493184D01*
X110733607Y-103493185D01*
X110754435Y-103529260D01*
X110799500Y-103607314D01*
X110892686Y-103700500D01*
X111006814Y-103766392D01*
X111134108Y-103800500D01*
X111134110Y-103800500D01*
X111265890Y-103800500D01*
X111265892Y-103800500D01*
X111393186Y-103766392D01*
X111507314Y-103700500D01*
X111600500Y-103607314D01*
X111626454Y-103562359D01*
X111677019Y-103514146D01*
X111745626Y-103500922D01*
X111765919Y-103504583D01*
X111843982Y-103525500D01*
X111843985Y-103525500D01*
X111956016Y-103525500D01*
X111956018Y-103525500D01*
X112064237Y-103496503D01*
X112113676Y-103467959D01*
X112181573Y-103451487D01*
X112247600Y-103474339D01*
X112290791Y-103529260D01*
X112298612Y-103559153D01*
X112299499Y-103565887D01*
X112299500Y-103565890D01*
X112299500Y-103565892D01*
X112313031Y-103616391D01*
X112333608Y-103693187D01*
X112362026Y-103742407D01*
X112399500Y-103807314D01*
X112399502Y-103807316D01*
X112450660Y-103858474D01*
X112484145Y-103919797D01*
X112479161Y-103989489D01*
X112477546Y-103993593D01*
X112476795Y-103995404D01*
X112460207Y-104057313D01*
X112449500Y-104097273D01*
X112449500Y-104202727D01*
X112475135Y-104298397D01*
X112476793Y-104304586D01*
X112476794Y-104304589D01*
X112483608Y-104316391D01*
X112529520Y-104395913D01*
X112604087Y-104470480D01*
X112695413Y-104523207D01*
X112797273Y-104550500D01*
X112797275Y-104550500D01*
X112902725Y-104550500D01*
X112902727Y-104550500D01*
X113004587Y-104523207D01*
X113095913Y-104470480D01*
X113170480Y-104395913D01*
X113223207Y-104304587D01*
X113250500Y-104202727D01*
X113250500Y-104097273D01*
X113223207Y-103995413D01*
X113201161Y-103957229D01*
X113184689Y-103889330D01*
X113207542Y-103823303D01*
X113262463Y-103780112D01*
X113332016Y-103773471D01*
X113340606Y-103775446D01*
X113434108Y-103800500D01*
X113434111Y-103800500D01*
X113565890Y-103800500D01*
X113565892Y-103800500D01*
X113693186Y-103766392D01*
X113749103Y-103734108D01*
X114899500Y-103734108D01*
X114899500Y-103865892D01*
X114912897Y-103915890D01*
X114933608Y-103993187D01*
X114953416Y-104027495D01*
X114999500Y-104107314D01*
X115092686Y-104200500D01*
X115206814Y-104266392D01*
X115334108Y-104300500D01*
X115334110Y-104300500D01*
X115465890Y-104300500D01*
X115465892Y-104300500D01*
X115593186Y-104266392D01*
X115707314Y-104200500D01*
X115800500Y-104107314D01*
X115866392Y-103993186D01*
X115900500Y-103865892D01*
X115900500Y-103734108D01*
X115866392Y-103606814D01*
X115800500Y-103492686D01*
X115707314Y-103399500D01*
X115641086Y-103361263D01*
X115593187Y-103333608D01*
X115511285Y-103311663D01*
X115465892Y-103299500D01*
X115334108Y-103299500D01*
X115206812Y-103333608D01*
X115092686Y-103399500D01*
X115092683Y-103399502D01*
X114999502Y-103492683D01*
X114999500Y-103492686D01*
X114933608Y-103606812D01*
X114909370Y-103697273D01*
X114899500Y-103734108D01*
X113749103Y-103734108D01*
X113807314Y-103700500D01*
X113900500Y-103607314D01*
X113966392Y-103493186D01*
X114000500Y-103365892D01*
X114000500Y-103234108D01*
X113966392Y-103106814D01*
X113900500Y-102992686D01*
X113807314Y-102899500D01*
X113743350Y-102862570D01*
X113693187Y-102833608D01*
X113681315Y-102830427D01*
X118272500Y-102830427D01*
X118272500Y-102949573D01*
X118274440Y-102956814D01*
X118303337Y-103064660D01*
X118327674Y-103106812D01*
X118362910Y-103167842D01*
X118447158Y-103252090D01*
X118527769Y-103298631D01*
X118542806Y-103307313D01*
X118550341Y-103311663D01*
X118665427Y-103342500D01*
X118665429Y-103342500D01*
X118784571Y-103342500D01*
X118784573Y-103342500D01*
X118899659Y-103311663D01*
X119002842Y-103252090D01*
X119087090Y-103167842D01*
X119146663Y-103064659D01*
X119177500Y-102949573D01*
X119177500Y-102830427D01*
X119146663Y-102715341D01*
X119087090Y-102612158D01*
X119002842Y-102527910D01*
X118943081Y-102493407D01*
X118899660Y-102468337D01*
X118842116Y-102452918D01*
X118784573Y-102437500D01*
X118665427Y-102437500D01*
X118550339Y-102468337D01*
X118447158Y-102527910D01*
X118447155Y-102527912D01*
X118362912Y-102612155D01*
X118362910Y-102612158D01*
X118303337Y-102715339D01*
X118278827Y-102806814D01*
X118272500Y-102830427D01*
X113681315Y-102830427D01*
X113593188Y-102806814D01*
X113565892Y-102799500D01*
X113434108Y-102799500D01*
X113306812Y-102833608D01*
X113192686Y-102899500D01*
X113192682Y-102899503D01*
X113095379Y-102996805D01*
X113034056Y-103030289D01*
X112975608Y-103028898D01*
X112865892Y-102999500D01*
X112734108Y-102999500D01*
X112606814Y-103033608D01*
X112606813Y-103033608D01*
X112606811Y-103033609D01*
X112606810Y-103033609D01*
X112500731Y-103094855D01*
X112432831Y-103111328D01*
X112366804Y-103088476D01*
X112323614Y-103033555D01*
X112318956Y-103019561D01*
X112296503Y-102935763D01*
X112240485Y-102838737D01*
X112161263Y-102759515D01*
X112085702Y-102715890D01*
X112064239Y-102703498D01*
X112064238Y-102703497D01*
X112064237Y-102703497D01*
X111956018Y-102674500D01*
X111843982Y-102674500D01*
X111735763Y-102703497D01*
X111735760Y-102703498D01*
X111638740Y-102759513D01*
X111638738Y-102759514D01*
X111569166Y-102829086D01*
X111507842Y-102862570D01*
X111438151Y-102857585D01*
X111419485Y-102848791D01*
X111393189Y-102833609D01*
X111393186Y-102833608D01*
X111265892Y-102799500D01*
X111134108Y-102799500D01*
X111006812Y-102833608D01*
X110892686Y-102899500D01*
X110892683Y-102899502D01*
X110799502Y-102992683D01*
X110799500Y-102992686D01*
X110740513Y-103094855D01*
X110733608Y-103106814D01*
X110720424Y-103156018D01*
X110706377Y-103208442D01*
X110670012Y-103268102D01*
X110607164Y-103298631D01*
X110537789Y-103290336D01*
X110483911Y-103245851D01*
X110469509Y-103214313D01*
X110469500Y-103214318D01*
X110469384Y-103214038D01*
X110466827Y-103208439D01*
X110466392Y-103206814D01*
X110462170Y-103199502D01*
X110450820Y-103179843D01*
X110400500Y-103092686D01*
X110307314Y-102999500D01*
X110250250Y-102966554D01*
X110193187Y-102933608D01*
X110106396Y-102910353D01*
X110065892Y-102899500D01*
X109934108Y-102899500D01*
X109806812Y-102933608D01*
X109692686Y-102999500D01*
X109692683Y-102999502D01*
X109599502Y-103092683D01*
X109599500Y-103092686D01*
X109533608Y-103206812D01*
X109510600Y-103292683D01*
X109499500Y-103334108D01*
X106924415Y-103334108D01*
X106900500Y-103292686D01*
X106807314Y-103199500D01*
X106717738Y-103147783D01*
X106693187Y-103133608D01*
X106593188Y-103106814D01*
X106565892Y-103099500D01*
X106434108Y-103099500D01*
X106425981Y-103099500D01*
X106425981Y-103096340D01*
X106371652Y-103087869D01*
X106319395Y-103041490D01*
X106300500Y-102975695D01*
X106300500Y-102934110D01*
X106300500Y-102934108D01*
X106266392Y-102806814D01*
X106200500Y-102692686D01*
X106107314Y-102599500D01*
X106050250Y-102566554D01*
X105993187Y-102533608D01*
X105897066Y-102507853D01*
X105865892Y-102499500D01*
X105734108Y-102499500D01*
X105606812Y-102533608D01*
X105492686Y-102599500D01*
X105492683Y-102599502D01*
X105399502Y-102692683D01*
X105399500Y-102692686D01*
X105333608Y-102806812D01*
X105308772Y-102899503D01*
X105299500Y-102934108D01*
X93503283Y-102934108D01*
X93450500Y-102842686D01*
X93357314Y-102749500D01*
X93298146Y-102715339D01*
X93243187Y-102683608D01*
X93179539Y-102666554D01*
X93115892Y-102649500D01*
X93049505Y-102649500D01*
X92982466Y-102629815D01*
X92936711Y-102577011D01*
X92926767Y-102507853D01*
X92929730Y-102493407D01*
X92950500Y-102415892D01*
X92950500Y-102284108D01*
X92916392Y-102156814D01*
X92850500Y-102042686D01*
X92757314Y-101949500D01*
X92730654Y-101934108D01*
X106849500Y-101934108D01*
X106849500Y-102065892D01*
X106864243Y-102120913D01*
X106883608Y-102193187D01*
X106915374Y-102248207D01*
X106949500Y-102307314D01*
X107042686Y-102400500D01*
X107156814Y-102466392D01*
X107284108Y-102500500D01*
X107284110Y-102500500D01*
X107415890Y-102500500D01*
X107415892Y-102500500D01*
X107543186Y-102466392D01*
X107657314Y-102400500D01*
X107750500Y-102307314D01*
X107816392Y-102193186D01*
X107850500Y-102065892D01*
X107850500Y-101934108D01*
X107816392Y-101806814D01*
X107750500Y-101692686D01*
X107657314Y-101599500D01*
X107566300Y-101546953D01*
X107543188Y-101533609D01*
X107543187Y-101533608D01*
X107543186Y-101533608D01*
X107415892Y-101499500D01*
X107284108Y-101499500D01*
X107156812Y-101533608D01*
X107042686Y-101599500D01*
X107042683Y-101599502D01*
X106949502Y-101692683D01*
X106949500Y-101692686D01*
X106883608Y-101806812D01*
X106864607Y-101877726D01*
X106849500Y-101934108D01*
X92730654Y-101934108D01*
X92672439Y-101900497D01*
X92643187Y-101883608D01*
X92577061Y-101865890D01*
X92515892Y-101849500D01*
X92384108Y-101849500D01*
X92256812Y-101883608D01*
X92142686Y-101949500D01*
X92142683Y-101949502D01*
X92049502Y-102042683D01*
X92049500Y-102042686D01*
X91983608Y-102156812D01*
X91957785Y-102253187D01*
X91949500Y-102284108D01*
X84641922Y-102284108D01*
X84607314Y-102249500D01*
X84537643Y-102209275D01*
X84489429Y-102158708D01*
X84476207Y-102090101D01*
X84492259Y-102039888D01*
X84498207Y-102029587D01*
X84525500Y-101927727D01*
X84525500Y-101822273D01*
X84498207Y-101720413D01*
X84445480Y-101629087D01*
X84388666Y-101572273D01*
X84874500Y-101572273D01*
X84874500Y-101677727D01*
X84901793Y-101779587D01*
X84954520Y-101870913D01*
X85029087Y-101945480D01*
X85120413Y-101998207D01*
X85222273Y-102025500D01*
X85222275Y-102025500D01*
X85327725Y-102025500D01*
X85327727Y-102025500D01*
X85429587Y-101998207D01*
X85520913Y-101945480D01*
X85595480Y-101870913D01*
X85648207Y-101779587D01*
X85675500Y-101677727D01*
X85675500Y-101572273D01*
X85648207Y-101470413D01*
X85627246Y-101434108D01*
X111299500Y-101434108D01*
X111299500Y-101565892D01*
X111303035Y-101579085D01*
X111333608Y-101693187D01*
X111366554Y-101750250D01*
X111399500Y-101807314D01*
X111492686Y-101900500D01*
X111606814Y-101966392D01*
X111734108Y-102000500D01*
X111734110Y-102000500D01*
X111865890Y-102000500D01*
X111865892Y-102000500D01*
X111993186Y-101966392D01*
X112107314Y-101900500D01*
X112200500Y-101807314D01*
X112242766Y-101734108D01*
X114899500Y-101734108D01*
X114899500Y-101865892D01*
X114900846Y-101870914D01*
X114933608Y-101993187D01*
X114954624Y-102029587D01*
X114999500Y-102107314D01*
X115092686Y-102200500D01*
X115206814Y-102266392D01*
X115334108Y-102300500D01*
X115334110Y-102300500D01*
X115465890Y-102300500D01*
X115465892Y-102300500D01*
X115593186Y-102266392D01*
X115707314Y-102200500D01*
X115800500Y-102107314D01*
X115866392Y-101993186D01*
X115900500Y-101865892D01*
X115900500Y-101734108D01*
X115866392Y-101606814D01*
X115800500Y-101492686D01*
X115707314Y-101399500D01*
X115650250Y-101366554D01*
X115593187Y-101333608D01*
X115493188Y-101306814D01*
X115465892Y-101299500D01*
X115334108Y-101299500D01*
X115206812Y-101333608D01*
X115092686Y-101399500D01*
X115092683Y-101399502D01*
X114999502Y-101492683D01*
X114999500Y-101492686D01*
X114933608Y-101606812D01*
X114899500Y-101734108D01*
X112242766Y-101734108D01*
X112266392Y-101693186D01*
X112300500Y-101565892D01*
X112300500Y-101434108D01*
X112266392Y-101306814D01*
X112200500Y-101192686D01*
X112107314Y-101099500D01*
X112050250Y-101066554D01*
X111993187Y-101033608D01*
X111929539Y-101016554D01*
X111865892Y-100999500D01*
X111734108Y-100999500D01*
X111606812Y-101033608D01*
X111492686Y-101099500D01*
X111492683Y-101099502D01*
X111399502Y-101192683D01*
X111399500Y-101192686D01*
X111333608Y-101306812D01*
X111302074Y-101424500D01*
X111299500Y-101434108D01*
X85627246Y-101434108D01*
X85595480Y-101379087D01*
X85520913Y-101304520D01*
X85429587Y-101251793D01*
X85327727Y-101224500D01*
X85222273Y-101224500D01*
X85120413Y-101251793D01*
X85120410Y-101251794D01*
X85029085Y-101304521D01*
X84954521Y-101379085D01*
X84901794Y-101470410D01*
X84901793Y-101470413D01*
X84874500Y-101572273D01*
X84388666Y-101572273D01*
X84370913Y-101554520D01*
X84284312Y-101504521D01*
X84279589Y-101501794D01*
X84279588Y-101501793D01*
X84279587Y-101501793D01*
X84177727Y-101474500D01*
X84072273Y-101474500D01*
X83970413Y-101501793D01*
X83970410Y-101501794D01*
X83879085Y-101554521D01*
X83804521Y-101629085D01*
X83751794Y-101720410D01*
X83751793Y-101720413D01*
X83724500Y-101822273D01*
X83250500Y-101822273D01*
X83250500Y-101772273D01*
X83223207Y-101670413D01*
X83170480Y-101579087D01*
X83095913Y-101504520D01*
X83004587Y-101451793D01*
X82902727Y-101424500D01*
X82797273Y-101424500D01*
X82695413Y-101451793D01*
X82695410Y-101451794D01*
X82604085Y-101504521D01*
X82529521Y-101579085D01*
X82476794Y-101670410D01*
X82476793Y-101670413D01*
X82449500Y-101772273D01*
X75568961Y-101772273D01*
X75551222Y-101546880D01*
X75551020Y-101543791D01*
X75534911Y-101236415D01*
X75534849Y-101235064D01*
X75510979Y-100627539D01*
X75510910Y-100625111D01*
X75505242Y-100300308D01*
X75505223Y-100298164D01*
X75505223Y-99784108D01*
X83599500Y-99784108D01*
X83599500Y-99915892D01*
X83616554Y-99979539D01*
X83633608Y-100043187D01*
X83641475Y-100056812D01*
X83699500Y-100157314D01*
X83792686Y-100250500D01*
X83878956Y-100300308D01*
X83905944Y-100315890D01*
X83906814Y-100316392D01*
X84034108Y-100350500D01*
X84034110Y-100350500D01*
X84165890Y-100350500D01*
X84165892Y-100350500D01*
X84293186Y-100316392D01*
X84407314Y-100250500D01*
X84473706Y-100184108D01*
X89499500Y-100184108D01*
X89499500Y-100315891D01*
X89533608Y-100443187D01*
X89555449Y-100481016D01*
X89599500Y-100557314D01*
X89692686Y-100650500D01*
X89806814Y-100716392D01*
X89934108Y-100750500D01*
X89934110Y-100750500D01*
X90065890Y-100750500D01*
X90065892Y-100750500D01*
X90193186Y-100716392D01*
X90307314Y-100650500D01*
X90400500Y-100557314D01*
X90466392Y-100443186D01*
X90500500Y-100315892D01*
X90500500Y-100184108D01*
X90466392Y-100056814D01*
X90400500Y-99942686D01*
X90307314Y-99849500D01*
X90222442Y-99800499D01*
X90193187Y-99783608D01*
X90127061Y-99765890D01*
X90065892Y-99749500D01*
X89934108Y-99749500D01*
X89806812Y-99783608D01*
X89692686Y-99849500D01*
X89692683Y-99849502D01*
X89599502Y-99942683D01*
X89599500Y-99942686D01*
X89533608Y-100056812D01*
X89499500Y-100184108D01*
X84473706Y-100184108D01*
X84500500Y-100157314D01*
X84513023Y-100135622D01*
X84525520Y-100113980D01*
X84566390Y-100043189D01*
X84566392Y-100043186D01*
X84600500Y-99915892D01*
X84600500Y-99784108D01*
X84594654Y-99762290D01*
X84596317Y-99692443D01*
X84635479Y-99634580D01*
X84699708Y-99607076D01*
X84768610Y-99618662D01*
X84776420Y-99622807D01*
X84820413Y-99648207D01*
X84922273Y-99675500D01*
X84922275Y-99675500D01*
X85027725Y-99675500D01*
X85027727Y-99675500D01*
X85129587Y-99648207D01*
X85154007Y-99634108D01*
X111299500Y-99634108D01*
X111299500Y-99765892D01*
X111308773Y-99800499D01*
X111333608Y-99893187D01*
X111346717Y-99915892D01*
X111399500Y-100007314D01*
X111492686Y-100100500D01*
X111606814Y-100166392D01*
X111734108Y-100200500D01*
X111734110Y-100200500D01*
X111865890Y-100200500D01*
X111865892Y-100200500D01*
X111927068Y-100184108D01*
X115999500Y-100184108D01*
X115999500Y-100315891D01*
X116033608Y-100443187D01*
X116055449Y-100481016D01*
X116099500Y-100557314D01*
X116192686Y-100650500D01*
X116306814Y-100716392D01*
X116434108Y-100750500D01*
X116434110Y-100750500D01*
X116565890Y-100750500D01*
X116565892Y-100750500D01*
X116693186Y-100716392D01*
X116807314Y-100650500D01*
X116900500Y-100557314D01*
X116966392Y-100443186D01*
X117000500Y-100315892D01*
X117000500Y-100184108D01*
X116966392Y-100056814D01*
X116900500Y-99942686D01*
X116807314Y-99849500D01*
X116722442Y-99800499D01*
X116693187Y-99783608D01*
X116627061Y-99765890D01*
X116565892Y-99749500D01*
X116434108Y-99749500D01*
X116306812Y-99783608D01*
X116192686Y-99849500D01*
X116192683Y-99849502D01*
X116099502Y-99942683D01*
X116099500Y-99942686D01*
X116033608Y-100056812D01*
X115999500Y-100184108D01*
X111927068Y-100184108D01*
X111993186Y-100166392D01*
X112107314Y-100100500D01*
X112200500Y-100007314D01*
X112266392Y-99893186D01*
X112300500Y-99765892D01*
X112300500Y-99634108D01*
X112266392Y-99506814D01*
X112200500Y-99392686D01*
X112107314Y-99299500D01*
X112050250Y-99266554D01*
X111993187Y-99233608D01*
X111926766Y-99215811D01*
X111865892Y-99199500D01*
X111734108Y-99199500D01*
X111606812Y-99233608D01*
X111492686Y-99299500D01*
X111492683Y-99299502D01*
X111399502Y-99392683D01*
X111399500Y-99392686D01*
X111333608Y-99506812D01*
X111323997Y-99542683D01*
X111299500Y-99634108D01*
X85154007Y-99634108D01*
X85220913Y-99595480D01*
X85295480Y-99520913D01*
X85348207Y-99429587D01*
X85375500Y-99327727D01*
X85375500Y-99222273D01*
X85348207Y-99120413D01*
X85295480Y-99029087D01*
X85220913Y-98954520D01*
X85129587Y-98901793D01*
X85027727Y-98874500D01*
X84922273Y-98874500D01*
X84820413Y-98901793D01*
X84820410Y-98901794D01*
X84729085Y-98954521D01*
X84654521Y-99029085D01*
X84601794Y-99120410D01*
X84601793Y-99120413D01*
X84574500Y-99222273D01*
X84574500Y-99331250D01*
X84554815Y-99398289D01*
X84502011Y-99444044D01*
X84432853Y-99453988D01*
X84388500Y-99438637D01*
X84293189Y-99383609D01*
X84293186Y-99383608D01*
X84165892Y-99349500D01*
X84034108Y-99349500D01*
X83906812Y-99383608D01*
X83792686Y-99449500D01*
X83792683Y-99449502D01*
X83699502Y-99542683D01*
X83699500Y-99542686D01*
X83633608Y-99656812D01*
X83608773Y-99749500D01*
X83599500Y-99784108D01*
X75505223Y-99784108D01*
X75505223Y-99701834D01*
X75505242Y-99699671D01*
X75506858Y-99607076D01*
X75510910Y-99374889D01*
X75510979Y-99372460D01*
X75534846Y-98765016D01*
X75534918Y-98763447D01*
X75536452Y-98734179D01*
X75544317Y-98584108D01*
X118199500Y-98584108D01*
X118199500Y-98715891D01*
X118233608Y-98843187D01*
X118251687Y-98874500D01*
X118299500Y-98957314D01*
X118392686Y-99050500D01*
X118506814Y-99116392D01*
X118506815Y-99116392D01*
X118506815Y-99116393D01*
X118507592Y-99116601D01*
X118508173Y-99116955D01*
X118514326Y-99119504D01*
X118513928Y-99120463D01*
X118567253Y-99152965D01*
X118597783Y-99215811D01*
X118599500Y-99236376D01*
X118599500Y-99365892D01*
X118608181Y-99398289D01*
X118633608Y-99493187D01*
X118649616Y-99520913D01*
X118699500Y-99607314D01*
X118792686Y-99700500D01*
X118891521Y-99757563D01*
X118905944Y-99765890D01*
X118906814Y-99766392D01*
X119034108Y-99800500D01*
X119034110Y-99800500D01*
X119165890Y-99800500D01*
X119165892Y-99800500D01*
X119293186Y-99766392D01*
X119407314Y-99700500D01*
X119500500Y-99607314D01*
X119566392Y-99493186D01*
X119600500Y-99365892D01*
X119600500Y-99234108D01*
X119566392Y-99106814D01*
X119500500Y-98992686D01*
X119407314Y-98899500D01*
X119341421Y-98861456D01*
X119293185Y-98833607D01*
X119293186Y-98833607D01*
X119292399Y-98833397D01*
X119291810Y-98833038D01*
X119285682Y-98830500D01*
X119286078Y-98829543D01*
X119232741Y-98797028D01*
X119202216Y-98734179D01*
X119200500Y-98713624D01*
X119200500Y-98584110D01*
X119200500Y-98584108D01*
X119166392Y-98456814D01*
X119100500Y-98342686D01*
X119007314Y-98249500D01*
X118950250Y-98216554D01*
X118893187Y-98183608D01*
X118829539Y-98166554D01*
X118765892Y-98149500D01*
X118634108Y-98149500D01*
X118506812Y-98183608D01*
X118392686Y-98249500D01*
X118392683Y-98249502D01*
X118299502Y-98342683D01*
X118299500Y-98342686D01*
X118233608Y-98456812D01*
X118199500Y-98584108D01*
X75544317Y-98584108D01*
X75551019Y-98456222D01*
X75551222Y-98453115D01*
X75602520Y-97801315D01*
X75602551Y-97800944D01*
X75609434Y-97722273D01*
X84474500Y-97722273D01*
X84474500Y-97827727D01*
X84501793Y-97929587D01*
X84554520Y-98020913D01*
X84629087Y-98095480D01*
X84720413Y-98148207D01*
X84822273Y-98175500D01*
X84822275Y-98175500D01*
X84927725Y-98175500D01*
X84927727Y-98175500D01*
X85029587Y-98148207D01*
X85120913Y-98095480D01*
X85195480Y-98020913D01*
X85248207Y-97929587D01*
X85275500Y-97827727D01*
X85275500Y-97722273D01*
X85248207Y-97620413D01*
X85195480Y-97529087D01*
X85120913Y-97454520D01*
X85029587Y-97401793D01*
X84927727Y-97374500D01*
X84822273Y-97374500D01*
X84720413Y-97401793D01*
X84720410Y-97401794D01*
X84629085Y-97454521D01*
X84554521Y-97529085D01*
X84501794Y-97620410D01*
X84501793Y-97620413D01*
X84474500Y-97722273D01*
X75609434Y-97722273D01*
X75625133Y-97542841D01*
X75625517Y-97539110D01*
X75667534Y-97184108D01*
X85899500Y-97184108D01*
X85899500Y-97315891D01*
X85933608Y-97443187D01*
X85966428Y-97500032D01*
X85999500Y-97557314D01*
X86092686Y-97650500D01*
X86206814Y-97716392D01*
X86334108Y-97750500D01*
X86334110Y-97750500D01*
X86465890Y-97750500D01*
X86465892Y-97750500D01*
X86593186Y-97716392D01*
X86707314Y-97650500D01*
X86800500Y-97557314D01*
X86813898Y-97534108D01*
X91999500Y-97534108D01*
X91999500Y-97665891D01*
X92033608Y-97793187D01*
X92038571Y-97801783D01*
X92099500Y-97907314D01*
X92192686Y-98000500D01*
X92306814Y-98066392D01*
X92434108Y-98100500D01*
X92434110Y-98100500D01*
X92565890Y-98100500D01*
X92565892Y-98100500D01*
X92693186Y-98066392D01*
X92807314Y-98000500D01*
X92823706Y-97984108D01*
X93249500Y-97984108D01*
X93249500Y-98115892D01*
X93265472Y-98175500D01*
X93283608Y-98243187D01*
X93316554Y-98300250D01*
X93349500Y-98357314D01*
X93442686Y-98450500D01*
X93525783Y-98498476D01*
X93556810Y-98516390D01*
X93556814Y-98516392D01*
X93684108Y-98550500D01*
X93684110Y-98550500D01*
X93815890Y-98550500D01*
X93815892Y-98550500D01*
X93943186Y-98516392D01*
X94057314Y-98450500D01*
X94150500Y-98357314D01*
X94216392Y-98243186D01*
X94250500Y-98115892D01*
X94250500Y-97984108D01*
X94216392Y-97856814D01*
X94150500Y-97742686D01*
X94057314Y-97649500D01*
X94000250Y-97616554D01*
X93943187Y-97583608D01*
X93864405Y-97562499D01*
X93815892Y-97549500D01*
X93684108Y-97549500D01*
X93556812Y-97583608D01*
X93442686Y-97649500D01*
X93442683Y-97649502D01*
X93349502Y-97742683D01*
X93349500Y-97742686D01*
X93283608Y-97856812D01*
X93264108Y-97929589D01*
X93249500Y-97984108D01*
X92823706Y-97984108D01*
X92900500Y-97907314D01*
X92966392Y-97793186D01*
X93000500Y-97665892D01*
X93000500Y-97534108D01*
X92966392Y-97406814D01*
X92900500Y-97292686D01*
X92807314Y-97199500D01*
X92750250Y-97166554D01*
X92693187Y-97133608D01*
X92629539Y-97116554D01*
X92565892Y-97099500D01*
X92434108Y-97099500D01*
X92306812Y-97133608D01*
X92192686Y-97199500D01*
X92192683Y-97199502D01*
X92099502Y-97292683D01*
X92099500Y-97292686D01*
X92033608Y-97406812D01*
X91999500Y-97534108D01*
X86813898Y-97534108D01*
X86866392Y-97443186D01*
X86900500Y-97315892D01*
X86900500Y-97184108D01*
X86866392Y-97056814D01*
X86862704Y-97050427D01*
X86831231Y-96995914D01*
X86800500Y-96942686D01*
X86707314Y-96849500D01*
X86593186Y-96783608D01*
X86465892Y-96749500D01*
X86334108Y-96749500D01*
X86206812Y-96783608D01*
X86092686Y-96849500D01*
X86092683Y-96849502D01*
X85999502Y-96942683D01*
X85999500Y-96942686D01*
X85933608Y-97056812D01*
X85899500Y-97184108D01*
X75667534Y-97184108D01*
X75670220Y-97161410D01*
X75670220Y-97161407D01*
X75671511Y-97150499D01*
X75721467Y-96728420D01*
X75726908Y-96684108D01*
X88999500Y-96684108D01*
X88999500Y-96815892D01*
X89008505Y-96849498D01*
X89033608Y-96943187D01*
X89047005Y-96966390D01*
X89099500Y-97057314D01*
X89192686Y-97150500D01*
X89306814Y-97216392D01*
X89434108Y-97250500D01*
X89434110Y-97250500D01*
X89565890Y-97250500D01*
X89565892Y-97250500D01*
X89693186Y-97216392D01*
X89807314Y-97150500D01*
X89900500Y-97057314D01*
X89966392Y-96943186D01*
X90000500Y-96815892D01*
X90000500Y-96697273D01*
X111449500Y-96697273D01*
X111449500Y-96802727D01*
X111476793Y-96904587D01*
X111529520Y-96995913D01*
X111604087Y-97070480D01*
X111695413Y-97123207D01*
X111797273Y-97150500D01*
X111797275Y-97150500D01*
X111902725Y-97150500D01*
X111902727Y-97150500D01*
X112004587Y-97123207D01*
X112095913Y-97070480D01*
X112115966Y-97050427D01*
X118272500Y-97050427D01*
X118272500Y-97169573D01*
X118285045Y-97216391D01*
X118303337Y-97284660D01*
X118307971Y-97292686D01*
X118362910Y-97387842D01*
X118447158Y-97472090D01*
X118550341Y-97531663D01*
X118665427Y-97562500D01*
X118665429Y-97562500D01*
X118784571Y-97562500D01*
X118784573Y-97562500D01*
X118899659Y-97531663D01*
X119002842Y-97472090D01*
X119087090Y-97387842D01*
X119146663Y-97284659D01*
X119177500Y-97169573D01*
X119177500Y-97050427D01*
X119146663Y-96935341D01*
X119146416Y-96934914D01*
X119128907Y-96904587D01*
X119087090Y-96832158D01*
X119002842Y-96747910D01*
X118951250Y-96718123D01*
X118899660Y-96688337D01*
X118842116Y-96672918D01*
X118784573Y-96657500D01*
X118665427Y-96657500D01*
X118550339Y-96688337D01*
X118447158Y-96747910D01*
X118447155Y-96747912D01*
X118362912Y-96832155D01*
X118362910Y-96832158D01*
X118303337Y-96935339D01*
X118285878Y-97000499D01*
X118272500Y-97050427D01*
X112115966Y-97050427D01*
X112170480Y-96995913D01*
X112223207Y-96904587D01*
X112250500Y-96802727D01*
X112250500Y-96697273D01*
X112223207Y-96595413D01*
X112170480Y-96504087D01*
X112100501Y-96434108D01*
X113499500Y-96434108D01*
X113499500Y-96565891D01*
X113533608Y-96693187D01*
X113553971Y-96728456D01*
X113599500Y-96807314D01*
X113692686Y-96900500D01*
X113766622Y-96943187D01*
X113806810Y-96966390D01*
X113806814Y-96966392D01*
X113934108Y-97000500D01*
X113934110Y-97000500D01*
X114065890Y-97000500D01*
X114065892Y-97000500D01*
X114193186Y-96966392D01*
X114307314Y-96900500D01*
X114400500Y-96807314D01*
X114466392Y-96693186D01*
X114500500Y-96565892D01*
X114500500Y-96434108D01*
X114466392Y-96306814D01*
X114400500Y-96192686D01*
X114307314Y-96099500D01*
X114250250Y-96066554D01*
X114193187Y-96033608D01*
X114129539Y-96016554D01*
X114065892Y-95999500D01*
X113934108Y-95999500D01*
X113806812Y-96033608D01*
X113692686Y-96099500D01*
X113692683Y-96099502D01*
X113599502Y-96192683D01*
X113599500Y-96192686D01*
X113533608Y-96306812D01*
X113499500Y-96434108D01*
X112100501Y-96434108D01*
X112095913Y-96429520D01*
X112004587Y-96376793D01*
X111902727Y-96349500D01*
X111797273Y-96349500D01*
X111695413Y-96376793D01*
X111695410Y-96376794D01*
X111604085Y-96429521D01*
X111529521Y-96504085D01*
X111476794Y-96595410D01*
X111476793Y-96595413D01*
X111449500Y-96697273D01*
X90000500Y-96697273D01*
X90000500Y-96684108D01*
X89966392Y-96556814D01*
X89900500Y-96442686D01*
X89807314Y-96349500D01*
X89733380Y-96306814D01*
X89693187Y-96283608D01*
X89629539Y-96266554D01*
X89565892Y-96249500D01*
X89434108Y-96249500D01*
X89306812Y-96283608D01*
X89192686Y-96349500D01*
X89192683Y-96349502D01*
X89099502Y-96442683D01*
X89099500Y-96442686D01*
X89033608Y-96556812D01*
X88999500Y-96684108D01*
X75726908Y-96684108D01*
X75732975Y-96634694D01*
X75733550Y-96630611D01*
X75880028Y-95705788D01*
X75880762Y-95701617D01*
X75898769Y-95608977D01*
X76058038Y-94808280D01*
X76058800Y-94804728D01*
X76117102Y-94552198D01*
X76117214Y-94551722D01*
X76224249Y-94105888D01*
X77135800Y-94105888D01*
X77135800Y-94299111D01*
X77166025Y-94489941D01*
X77225729Y-94673694D01*
X77313447Y-94845849D01*
X77363135Y-94914239D01*
X77427015Y-95002163D01*
X77563637Y-95138785D01*
X77719950Y-95252352D01*
X77892105Y-95340070D01*
X77983981Y-95369922D01*
X78075860Y-95399775D01*
X78164243Y-95413773D01*
X78266689Y-95430000D01*
X78266694Y-95430000D01*
X78459911Y-95430000D01*
X78552423Y-95415346D01*
X78650740Y-95399775D01*
X78834497Y-95340069D01*
X79006650Y-95252352D01*
X79162963Y-95138785D01*
X79267640Y-95034108D01*
X85899500Y-95034108D01*
X85899500Y-95165892D01*
X85916554Y-95229539D01*
X85933608Y-95293187D01*
X85966554Y-95350250D01*
X85999500Y-95407314D01*
X86092686Y-95500500D01*
X86206814Y-95566392D01*
X86334108Y-95600500D01*
X86334110Y-95600500D01*
X86465890Y-95600500D01*
X86465892Y-95600500D01*
X86593186Y-95566392D01*
X86707314Y-95500500D01*
X86800500Y-95407314D01*
X86866392Y-95293186D01*
X86900500Y-95165892D01*
X86900500Y-95034108D01*
X86866392Y-94906814D01*
X86800500Y-94792686D01*
X86707314Y-94699500D01*
X86697757Y-94693982D01*
X91924500Y-94693982D01*
X91924500Y-94806018D01*
X91951508Y-94906812D01*
X91953497Y-94914236D01*
X91953498Y-94914239D01*
X91956013Y-94918595D01*
X92009515Y-95011263D01*
X92088737Y-95090485D01*
X92185763Y-95146503D01*
X92293982Y-95175500D01*
X92293984Y-95175500D01*
X92406016Y-95175500D01*
X92406018Y-95175500D01*
X92514237Y-95146503D01*
X92611263Y-95090485D01*
X92690485Y-95011263D01*
X92746503Y-94914237D01*
X92775500Y-94806018D01*
X92775500Y-94693982D01*
X92746503Y-94585763D01*
X92690485Y-94488737D01*
X92611263Y-94409515D01*
X92514237Y-94353497D01*
X92406018Y-94324500D01*
X92293982Y-94324500D01*
X92185763Y-94353497D01*
X92185760Y-94353498D01*
X92088740Y-94409513D01*
X92088734Y-94409517D01*
X92009517Y-94488734D01*
X92009513Y-94488740D01*
X91953498Y-94585760D01*
X91953497Y-94585763D01*
X91924500Y-94693982D01*
X86697757Y-94693982D01*
X86650250Y-94666554D01*
X86593187Y-94633608D01*
X86529539Y-94616554D01*
X86465892Y-94599500D01*
X86334108Y-94599500D01*
X86206812Y-94633608D01*
X86092686Y-94699500D01*
X86092683Y-94699502D01*
X85999502Y-94792683D01*
X85999500Y-94792686D01*
X85933608Y-94906812D01*
X85905622Y-95011259D01*
X85899500Y-95034108D01*
X79267640Y-95034108D01*
X79299585Y-95002163D01*
X79413152Y-94845850D01*
X79500869Y-94673697D01*
X79524977Y-94599500D01*
X79560575Y-94489941D01*
X79569418Y-94434108D01*
X81699500Y-94434108D01*
X81699500Y-94565892D01*
X81708505Y-94599500D01*
X81733608Y-94693187D01*
X81746717Y-94715892D01*
X81799500Y-94807314D01*
X81892686Y-94900500D01*
X81974442Y-94947702D01*
X82006810Y-94966390D01*
X82006814Y-94966392D01*
X82134108Y-95000500D01*
X82134110Y-95000500D01*
X82265890Y-95000500D01*
X82265892Y-95000500D01*
X82393186Y-94966392D01*
X82507314Y-94900500D01*
X82600500Y-94807314D01*
X82666392Y-94693186D01*
X82700500Y-94565892D01*
X82700500Y-94434108D01*
X82666392Y-94306814D01*
X82600500Y-94192686D01*
X82507314Y-94099500D01*
X82450250Y-94066554D01*
X82393187Y-94033608D01*
X82306172Y-94010293D01*
X82265892Y-93999500D01*
X82134108Y-93999500D01*
X82006812Y-94033608D01*
X81892686Y-94099500D01*
X81892683Y-94099502D01*
X81799502Y-94192683D01*
X81799500Y-94192686D01*
X81733608Y-94306812D01*
X81728869Y-94324500D01*
X81699500Y-94434108D01*
X79569418Y-94434108D01*
X79573778Y-94406583D01*
X79590800Y-94299111D01*
X79590800Y-94105888D01*
X79569502Y-93971426D01*
X79560575Y-93915060D01*
X79500869Y-93731303D01*
X79485174Y-93700500D01*
X79482597Y-93695442D01*
X79482596Y-93695441D01*
X79458053Y-93647273D01*
X87549500Y-93647273D01*
X87549500Y-93752727D01*
X87576793Y-93854587D01*
X87629520Y-93945913D01*
X87704087Y-94020480D01*
X87795413Y-94073207D01*
X87897273Y-94100500D01*
X87897275Y-94100500D01*
X88002725Y-94100500D01*
X88002727Y-94100500D01*
X88104587Y-94073207D01*
X88195913Y-94020480D01*
X88270480Y-93945913D01*
X88323207Y-93854587D01*
X88350500Y-93752727D01*
X88350500Y-93647273D01*
X88346207Y-93631251D01*
X88347869Y-93561402D01*
X88387030Y-93503539D01*
X88451259Y-93476034D01*
X88520161Y-93487620D01*
X88553662Y-93511476D01*
X88642686Y-93600500D01*
X88756814Y-93666392D01*
X88884108Y-93700500D01*
X88884110Y-93700500D01*
X89015890Y-93700500D01*
X89015892Y-93700500D01*
X89143186Y-93666392D01*
X89257314Y-93600500D01*
X89350500Y-93507314D01*
X89416392Y-93393186D01*
X89450500Y-93265892D01*
X89450500Y-93234108D01*
X92049500Y-93234108D01*
X92049500Y-93365891D01*
X92083608Y-93493187D01*
X92113760Y-93545410D01*
X92149500Y-93607314D01*
X92242686Y-93700500D01*
X92356814Y-93766392D01*
X92484108Y-93800500D01*
X92484110Y-93800500D01*
X92615890Y-93800500D01*
X92615892Y-93800500D01*
X92743186Y-93766392D01*
X92857314Y-93700500D01*
X92935541Y-93622273D01*
X109449500Y-93622273D01*
X109449500Y-93727727D01*
X109476793Y-93829587D01*
X109529520Y-93920913D01*
X109604087Y-93995480D01*
X109670127Y-94033608D01*
X109682837Y-94040946D01*
X109731053Y-94091513D01*
X109744275Y-94160120D01*
X109718307Y-94224985D01*
X109696327Y-94246706D01*
X109692685Y-94249500D01*
X109599502Y-94342683D01*
X109599500Y-94342686D01*
X109533608Y-94456812D01*
X109499500Y-94584108D01*
X109499500Y-94715891D01*
X109533608Y-94843187D01*
X109533609Y-94843188D01*
X109599500Y-94957314D01*
X109599502Y-94957316D01*
X109663467Y-95021281D01*
X109696952Y-95082604D01*
X109691968Y-95152296D01*
X109683174Y-95170961D01*
X109633608Y-95256811D01*
X109599500Y-95384108D01*
X109599500Y-95515891D01*
X109633608Y-95643187D01*
X109662414Y-95693079D01*
X109699500Y-95757314D01*
X109792686Y-95850500D01*
X109906814Y-95916392D01*
X110034108Y-95950500D01*
X110034110Y-95950500D01*
X110165890Y-95950500D01*
X110165892Y-95950500D01*
X110293186Y-95916392D01*
X110407314Y-95850500D01*
X110500500Y-95757314D01*
X110566392Y-95643186D01*
X110600500Y-95515892D01*
X110600500Y-95384108D01*
X110566392Y-95256814D01*
X110500500Y-95142686D01*
X110436531Y-95078717D01*
X110403046Y-95017394D01*
X110408030Y-94947702D01*
X110416819Y-94929048D01*
X110466392Y-94843186D01*
X110500500Y-94715892D01*
X110500500Y-94584108D01*
X110466392Y-94456814D01*
X110400500Y-94342686D01*
X110307314Y-94249500D01*
X110208910Y-94192686D01*
X110193185Y-94183607D01*
X110175550Y-94178882D01*
X110115890Y-94142516D01*
X110085362Y-94079668D01*
X110093659Y-94010293D01*
X110119963Y-93971429D01*
X110170480Y-93920913D01*
X110223207Y-93829587D01*
X110250500Y-93727727D01*
X110250500Y-93622273D01*
X110223207Y-93520413D01*
X110170480Y-93429087D01*
X110095913Y-93354520D01*
X110004587Y-93301793D01*
X109902727Y-93274500D01*
X109797273Y-93274500D01*
X109695413Y-93301793D01*
X109695410Y-93301794D01*
X109604085Y-93354521D01*
X109529521Y-93429085D01*
X109476794Y-93520410D01*
X109476793Y-93520413D01*
X109449500Y-93622273D01*
X92935541Y-93622273D01*
X92950500Y-93607314D01*
X93016392Y-93493186D01*
X93050500Y-93365892D01*
X93050500Y-93234108D01*
X93016392Y-93106814D01*
X92950500Y-92992686D01*
X92857314Y-92899500D01*
X92800250Y-92866554D01*
X92743187Y-92833608D01*
X92679539Y-92816554D01*
X92615892Y-92799500D01*
X92484108Y-92799500D01*
X92356812Y-92833608D01*
X92242686Y-92899500D01*
X92242683Y-92899502D01*
X92149502Y-92992683D01*
X92149500Y-92992686D01*
X92083608Y-93106812D01*
X92049500Y-93234108D01*
X89450500Y-93234108D01*
X89450500Y-93134108D01*
X89416392Y-93006814D01*
X89350500Y-92892686D01*
X89257314Y-92799500D01*
X89191079Y-92761259D01*
X89143187Y-92733608D01*
X89070683Y-92714181D01*
X89015892Y-92699500D01*
X88884108Y-92699500D01*
X88756812Y-92733608D01*
X88642686Y-92799500D01*
X88642683Y-92799502D01*
X88549502Y-92892683D01*
X88549500Y-92892686D01*
X88483608Y-93006812D01*
X88449500Y-93134108D01*
X88449500Y-93265893D01*
X88464135Y-93320513D01*
X88462472Y-93390363D01*
X88423308Y-93448225D01*
X88359080Y-93475728D01*
X88290178Y-93464141D01*
X88256679Y-93440286D01*
X88195914Y-93379521D01*
X88195913Y-93379520D01*
X88104587Y-93326793D01*
X88002727Y-93299500D01*
X87897273Y-93299500D01*
X87795413Y-93326793D01*
X87795410Y-93326794D01*
X87704085Y-93379521D01*
X87629521Y-93454085D01*
X87576794Y-93545410D01*
X87576793Y-93545413D01*
X87549500Y-93647273D01*
X79458053Y-93647273D01*
X79434220Y-93600499D01*
X79413152Y-93559150D01*
X79299585Y-93402837D01*
X79162963Y-93266215D01*
X79006650Y-93152648D01*
X79006651Y-93152648D01*
X79006649Y-93152647D01*
X78834494Y-93064929D01*
X78650741Y-93005225D01*
X78459911Y-92975000D01*
X78459906Y-92975000D01*
X78266694Y-92975000D01*
X78266689Y-92975000D01*
X78075858Y-93005225D01*
X77892105Y-93064929D01*
X77719950Y-93152647D01*
X77563636Y-93266215D01*
X77427015Y-93402836D01*
X77313447Y-93559150D01*
X77225729Y-93731305D01*
X77166025Y-93915058D01*
X77135800Y-94105888D01*
X76224249Y-94105888D01*
X76269828Y-93916040D01*
X76270555Y-93913174D01*
X76350267Y-93615686D01*
X76350596Y-93614492D01*
X76515626Y-93029339D01*
X76516315Y-93026992D01*
X76611330Y-92716212D01*
X76611926Y-92714323D01*
X76796248Y-92147038D01*
X76796887Y-92145131D01*
X76835115Y-92034108D01*
X87199500Y-92034108D01*
X87199500Y-92165892D01*
X87201460Y-92173206D01*
X87233608Y-92293187D01*
X87245615Y-92313983D01*
X87299500Y-92407314D01*
X87392686Y-92500500D01*
X87506814Y-92566392D01*
X87634108Y-92600500D01*
X87634110Y-92600500D01*
X87765890Y-92600500D01*
X87765892Y-92600500D01*
X87893186Y-92566392D01*
X88007314Y-92500500D01*
X88100500Y-92407314D01*
X88166392Y-92293186D01*
X88200500Y-92165892D01*
X88200500Y-92034108D01*
X88177233Y-91947273D01*
X94399500Y-91947273D01*
X94399500Y-92052727D01*
X94426793Y-92154587D01*
X94479520Y-92245913D01*
X94554087Y-92320480D01*
X94645413Y-92373207D01*
X94747273Y-92400500D01*
X94747275Y-92400500D01*
X94852725Y-92400500D01*
X94852727Y-92400500D01*
X94954587Y-92373207D01*
X95045913Y-92320480D01*
X95120480Y-92245913D01*
X95173207Y-92154587D01*
X95200500Y-92052727D01*
X95200500Y-91947273D01*
X95173207Y-91845413D01*
X95120480Y-91754087D01*
X95113666Y-91747273D01*
X100499500Y-91747273D01*
X100499500Y-91852727D01*
X100526793Y-91954587D01*
X100579520Y-92045913D01*
X100654087Y-92120480D01*
X100745413Y-92173207D01*
X100847273Y-92200500D01*
X100847275Y-92200500D01*
X100952725Y-92200500D01*
X100952727Y-92200500D01*
X101054587Y-92173207D01*
X101145913Y-92120480D01*
X101220480Y-92045913D01*
X101273207Y-91954587D01*
X101300500Y-91852727D01*
X101300500Y-91747273D01*
X101280404Y-91672273D01*
X104324500Y-91672273D01*
X104324500Y-91777727D01*
X104351793Y-91879587D01*
X104401909Y-91966391D01*
X104404521Y-91970914D01*
X104483426Y-92049819D01*
X104516911Y-92111142D01*
X104511927Y-92180834D01*
X104483426Y-92225181D01*
X104404521Y-92304085D01*
X104351794Y-92395410D01*
X104351793Y-92395413D01*
X104324500Y-92497273D01*
X104324500Y-92602727D01*
X104351793Y-92704587D01*
X104404520Y-92795913D01*
X104479087Y-92870480D01*
X104570413Y-92923207D01*
X104672273Y-92950500D01*
X104672275Y-92950500D01*
X104777725Y-92950500D01*
X104777727Y-92950500D01*
X104879587Y-92923207D01*
X104970913Y-92870480D01*
X105045480Y-92795913D01*
X105098207Y-92704587D01*
X105125500Y-92602727D01*
X105125500Y-92497273D01*
X105098207Y-92395413D01*
X105045480Y-92304087D01*
X104988666Y-92247273D01*
X106299500Y-92247273D01*
X106299500Y-92352727D01*
X106326793Y-92454587D01*
X106379520Y-92545913D01*
X106454087Y-92620480D01*
X106545413Y-92673207D01*
X106647273Y-92700500D01*
X106647275Y-92700500D01*
X106752725Y-92700500D01*
X106752727Y-92700500D01*
X106854587Y-92673207D01*
X106945913Y-92620480D01*
X107020480Y-92545913D01*
X107073207Y-92454587D01*
X107076049Y-92443982D01*
X120574500Y-92443982D01*
X120574500Y-92556018D01*
X120603497Y-92664237D01*
X120659515Y-92761263D01*
X120738737Y-92840485D01*
X120835763Y-92896503D01*
X120943982Y-92925500D01*
X120943984Y-92925500D01*
X121056016Y-92925500D01*
X121056018Y-92925500D01*
X121164237Y-92896503D01*
X121261263Y-92840485D01*
X121340485Y-92761263D01*
X121396503Y-92664237D01*
X121425500Y-92556018D01*
X121425500Y-92443982D01*
X121396503Y-92335763D01*
X121340485Y-92238737D01*
X121261263Y-92159515D01*
X121164237Y-92103497D01*
X121056018Y-92074500D01*
X120943982Y-92074500D01*
X120835763Y-92103497D01*
X120835760Y-92103498D01*
X120738740Y-92159513D01*
X120738734Y-92159517D01*
X120659517Y-92238734D01*
X120659513Y-92238740D01*
X120603498Y-92335760D01*
X120603497Y-92335763D01*
X120574500Y-92443982D01*
X107076049Y-92443982D01*
X107100500Y-92352727D01*
X107100500Y-92247273D01*
X107073207Y-92145413D01*
X107020480Y-92054087D01*
X106945913Y-91979520D01*
X106854587Y-91926793D01*
X106752727Y-91899500D01*
X106647273Y-91899500D01*
X106545413Y-91926793D01*
X106545410Y-91926794D01*
X106454085Y-91979521D01*
X106379521Y-92054085D01*
X106326794Y-92145410D01*
X106326793Y-92145413D01*
X106299500Y-92247273D01*
X104988666Y-92247273D01*
X104970913Y-92229520D01*
X104970353Y-92229197D01*
X104964509Y-92223067D01*
X104949144Y-92193260D01*
X104933089Y-92163858D01*
X104933198Y-92162327D01*
X104932495Y-92160963D01*
X104935681Y-92127599D01*
X104938073Y-92094166D01*
X104939015Y-92092698D01*
X104939139Y-92091410D01*
X104942996Y-92086504D01*
X104966574Y-92049819D01*
X104982285Y-92034108D01*
X105045480Y-91970913D01*
X105098207Y-91879587D01*
X105125500Y-91777727D01*
X105125500Y-91672273D01*
X105098207Y-91570413D01*
X105045480Y-91479087D01*
X104970913Y-91404520D01*
X104879587Y-91351793D01*
X104777727Y-91324500D01*
X104672273Y-91324500D01*
X104570413Y-91351793D01*
X104570410Y-91351794D01*
X104479085Y-91404521D01*
X104404521Y-91479085D01*
X104351794Y-91570410D01*
X104351793Y-91570413D01*
X104324500Y-91672273D01*
X101280404Y-91672273D01*
X101273207Y-91645413D01*
X101220480Y-91554087D01*
X101145913Y-91479520D01*
X101054587Y-91426793D01*
X100952727Y-91399500D01*
X100847273Y-91399500D01*
X100745413Y-91426793D01*
X100745410Y-91426794D01*
X100654085Y-91479521D01*
X100579521Y-91554085D01*
X100526794Y-91645410D01*
X100526793Y-91645413D01*
X100499500Y-91747273D01*
X95113666Y-91747273D01*
X95045913Y-91679520D01*
X94954587Y-91626793D01*
X94852727Y-91599500D01*
X94747273Y-91599500D01*
X94645413Y-91626793D01*
X94645410Y-91626794D01*
X94554085Y-91679521D01*
X94479521Y-91754085D01*
X94426794Y-91845410D01*
X94426793Y-91845413D01*
X94399500Y-91947273D01*
X88177233Y-91947273D01*
X88166392Y-91906814D01*
X88100500Y-91792686D01*
X88007314Y-91699500D01*
X87913633Y-91645413D01*
X87893187Y-91633608D01*
X87829539Y-91616554D01*
X87765892Y-91599500D01*
X87634108Y-91599500D01*
X87506812Y-91633608D01*
X87392686Y-91699500D01*
X87331361Y-91760824D01*
X87331359Y-91760826D01*
X87299500Y-91792686D01*
X87233608Y-91906814D01*
X87230593Y-91918063D01*
X87230592Y-91918066D01*
X87214126Y-91979521D01*
X87199500Y-92034108D01*
X76835115Y-92034108D01*
X76902653Y-91837963D01*
X76903469Y-91835671D01*
X77051614Y-91434108D01*
X85349500Y-91434108D01*
X85349500Y-91565892D01*
X85358505Y-91599500D01*
X85383608Y-91693187D01*
X85414835Y-91747273D01*
X85449500Y-91807314D01*
X85542686Y-91900500D01*
X85656814Y-91966392D01*
X85784108Y-92000500D01*
X85784110Y-92000500D01*
X85915890Y-92000500D01*
X85915892Y-92000500D01*
X86043186Y-91966392D01*
X86157314Y-91900500D01*
X86189584Y-91868229D01*
X86250904Y-91834745D01*
X86320596Y-91839729D01*
X86339265Y-91848524D01*
X86342683Y-91850497D01*
X86342686Y-91850500D01*
X86456814Y-91916392D01*
X86584108Y-91950500D01*
X86584110Y-91950500D01*
X86715890Y-91950500D01*
X86715892Y-91950500D01*
X86843186Y-91916392D01*
X86957314Y-91850500D01*
X87050500Y-91757314D01*
X87116392Y-91643186D01*
X87150500Y-91515892D01*
X87150500Y-91384108D01*
X87116392Y-91256814D01*
X87050500Y-91142686D01*
X86957314Y-91049500D01*
X86870712Y-90999500D01*
X86843187Y-90983608D01*
X86779539Y-90966554D01*
X86715892Y-90949500D01*
X86584108Y-90949500D01*
X86456812Y-90983608D01*
X86342686Y-91049500D01*
X86342682Y-91049503D01*
X86310415Y-91081770D01*
X86249092Y-91115255D01*
X86179400Y-91110269D01*
X86160735Y-91101475D01*
X86043188Y-91033609D01*
X86043187Y-91033608D01*
X86043186Y-91033608D01*
X85915892Y-90999500D01*
X85784108Y-90999500D01*
X85656812Y-91033608D01*
X85542686Y-91099500D01*
X85542683Y-91099502D01*
X85449502Y-91192683D01*
X85449500Y-91192686D01*
X85383608Y-91306812D01*
X85362897Y-91384108D01*
X85349500Y-91434108D01*
X77051614Y-91434108D01*
X77113955Y-91265125D01*
X77114389Y-91263974D01*
X77224724Y-90976544D01*
X77225817Y-90973803D01*
X77325102Y-90734108D01*
X88499500Y-90734108D01*
X88499500Y-90865891D01*
X88533608Y-90993187D01*
X88556946Y-91033608D01*
X88599500Y-91107314D01*
X88692686Y-91200500D01*
X88806814Y-91266392D01*
X88934108Y-91300500D01*
X88934110Y-91300500D01*
X89065890Y-91300500D01*
X89065892Y-91300500D01*
X89193186Y-91266392D01*
X89307314Y-91200500D01*
X89400500Y-91107314D01*
X89466392Y-90993186D01*
X89500500Y-90865892D01*
X89500500Y-90734108D01*
X89466392Y-90606814D01*
X89465107Y-90604589D01*
X89460883Y-90597273D01*
X91549500Y-90597273D01*
X91549500Y-90702727D01*
X91576793Y-90804587D01*
X91629520Y-90895913D01*
X91704087Y-90970480D01*
X91795413Y-91023207D01*
X91897273Y-91050500D01*
X91897275Y-91050500D01*
X92002725Y-91050500D01*
X92002727Y-91050500D01*
X92104587Y-91023207D01*
X92195913Y-90970480D01*
X92270480Y-90895913D01*
X92323207Y-90804587D01*
X92350500Y-90702727D01*
X92350500Y-90684108D01*
X93549500Y-90684108D01*
X93549500Y-90815892D01*
X93551460Y-90823206D01*
X93583608Y-90943187D01*
X93602867Y-90976544D01*
X93649500Y-91057314D01*
X93742686Y-91150500D01*
X93856814Y-91216392D01*
X93984108Y-91250500D01*
X93984110Y-91250500D01*
X94115890Y-91250500D01*
X94115892Y-91250500D01*
X94243186Y-91216392D01*
X94357314Y-91150500D01*
X94450500Y-91057314D01*
X94516392Y-90943186D01*
X94550500Y-90815892D01*
X94550500Y-90684108D01*
X94516392Y-90556814D01*
X94450500Y-90442686D01*
X94357314Y-90349500D01*
X94300250Y-90316554D01*
X94243187Y-90283608D01*
X94179539Y-90266554D01*
X94115892Y-90249500D01*
X93984108Y-90249500D01*
X93856812Y-90283608D01*
X93742686Y-90349500D01*
X93742683Y-90349502D01*
X93649502Y-90442683D01*
X93649500Y-90442686D01*
X93583608Y-90556812D01*
X93550995Y-90678528D01*
X93549500Y-90684108D01*
X92350500Y-90684108D01*
X92350500Y-90597273D01*
X92323207Y-90495413D01*
X92270480Y-90404087D01*
X92195913Y-90329520D01*
X92104587Y-90276793D01*
X92002727Y-90249500D01*
X91897273Y-90249500D01*
X91795413Y-90276793D01*
X91795410Y-90276794D01*
X91704085Y-90329521D01*
X91629521Y-90404085D01*
X91576794Y-90495410D01*
X91576793Y-90495413D01*
X91549500Y-90597273D01*
X89460883Y-90597273D01*
X89443054Y-90566392D01*
X89400500Y-90492686D01*
X89307314Y-90399500D01*
X89222439Y-90350497D01*
X89193187Y-90333608D01*
X89129539Y-90316554D01*
X89065892Y-90299500D01*
X88934108Y-90299500D01*
X88806812Y-90333608D01*
X88692686Y-90399500D01*
X88692683Y-90399502D01*
X88599502Y-90492683D01*
X88599500Y-90492686D01*
X88533608Y-90606812D01*
X88499500Y-90734108D01*
X77325102Y-90734108D01*
X77476030Y-90369733D01*
X77476161Y-90369422D01*
X77577455Y-90130788D01*
X77578934Y-90127447D01*
X77806367Y-89634108D01*
X85249500Y-89634108D01*
X85249500Y-89765892D01*
X85256680Y-89792687D01*
X85283608Y-89893187D01*
X85316554Y-89950250D01*
X85349500Y-90007314D01*
X85442686Y-90100500D01*
X85516622Y-90143187D01*
X85555944Y-90165890D01*
X85556814Y-90166392D01*
X85684108Y-90200500D01*
X85684110Y-90200500D01*
X85815890Y-90200500D01*
X85815892Y-90200500D01*
X85943186Y-90166392D01*
X86057314Y-90100500D01*
X86150500Y-90007314D01*
X86216392Y-89893186D01*
X86250500Y-89765892D01*
X86250500Y-89634108D01*
X86216392Y-89506814D01*
X86150500Y-89392686D01*
X86057314Y-89299500D01*
X85979012Y-89254292D01*
X85943187Y-89233608D01*
X85843188Y-89206814D01*
X85815892Y-89199500D01*
X85684108Y-89199500D01*
X85556812Y-89233608D01*
X85442686Y-89299500D01*
X85442683Y-89299502D01*
X85349502Y-89392683D01*
X85349500Y-89392686D01*
X85283608Y-89506812D01*
X85258773Y-89599500D01*
X85249500Y-89634108D01*
X77806367Y-89634108D01*
X77920796Y-89385892D01*
X77960589Y-89300555D01*
X77962426Y-89296789D01*
X78351031Y-88534108D01*
X85999500Y-88534108D01*
X85999500Y-88665892D01*
X86016554Y-88729539D01*
X86033608Y-88793187D01*
X86066554Y-88850250D01*
X86099500Y-88907314D01*
X86192686Y-89000500D01*
X86306814Y-89066392D01*
X86434108Y-89100500D01*
X86434110Y-89100500D01*
X86565890Y-89100500D01*
X86565892Y-89100500D01*
X86693186Y-89066392D01*
X86807314Y-89000500D01*
X86900500Y-88907314D01*
X86966392Y-88793186D01*
X87000500Y-88665892D01*
X87000500Y-88534108D01*
X86987103Y-88484108D01*
X89499500Y-88484108D01*
X89499500Y-88615891D01*
X89533608Y-88743187D01*
X89538538Y-88751725D01*
X89599500Y-88857314D01*
X89692686Y-88950500D01*
X89806814Y-89016392D01*
X89934108Y-89050500D01*
X89934110Y-89050500D01*
X90065888Y-89050500D01*
X90065892Y-89050500D01*
X90084499Y-89045514D01*
X90154343Y-89047174D01*
X90212207Y-89086335D01*
X90239713Y-89150562D01*
X90233160Y-89198279D01*
X90235712Y-89198963D01*
X90233608Y-89206812D01*
X90233608Y-89206814D01*
X90199500Y-89334108D01*
X90199500Y-89465892D01*
X90201678Y-89474019D01*
X90233608Y-89593187D01*
X90262185Y-89642683D01*
X90299500Y-89707314D01*
X90392686Y-89800500D01*
X90506814Y-89866392D01*
X90634108Y-89900500D01*
X90634110Y-89900500D01*
X90765890Y-89900500D01*
X90765892Y-89900500D01*
X90827068Y-89884108D01*
X100999500Y-89884108D01*
X100999500Y-90015892D01*
X101003881Y-90032241D01*
X101033608Y-90143187D01*
X101055933Y-90181854D01*
X101099500Y-90257314D01*
X101192686Y-90350500D01*
X101306814Y-90416392D01*
X101434108Y-90450500D01*
X101434110Y-90450500D01*
X101565890Y-90450500D01*
X101565892Y-90450500D01*
X101693186Y-90416392D01*
X101726301Y-90397273D01*
X106124500Y-90397273D01*
X106124500Y-90502727D01*
X106149834Y-90597273D01*
X106151793Y-90604586D01*
X106151794Y-90604589D01*
X106153079Y-90606814D01*
X106204520Y-90695913D01*
X106279087Y-90770480D01*
X106370413Y-90823207D01*
X106472273Y-90850500D01*
X106472275Y-90850500D01*
X106577725Y-90850500D01*
X106577727Y-90850500D01*
X106679587Y-90823207D01*
X106770913Y-90770480D01*
X106845480Y-90695913D01*
X106898207Y-90604587D01*
X106925500Y-90502727D01*
X106925500Y-90397273D01*
X106898207Y-90295413D01*
X106845480Y-90204087D01*
X106770913Y-90129520D01*
X106679587Y-90076793D01*
X106577727Y-90049500D01*
X106472273Y-90049500D01*
X106370413Y-90076793D01*
X106370410Y-90076794D01*
X106279085Y-90129521D01*
X106204521Y-90204085D01*
X106151794Y-90295410D01*
X106151793Y-90295413D01*
X106124500Y-90397273D01*
X101726301Y-90397273D01*
X101807314Y-90350500D01*
X101900500Y-90257314D01*
X101966392Y-90143186D01*
X102000500Y-90015892D01*
X102000500Y-89884108D01*
X101966392Y-89756814D01*
X101900500Y-89642686D01*
X101891922Y-89634108D01*
X107999500Y-89634108D01*
X107999500Y-89765892D01*
X108006680Y-89792687D01*
X108033608Y-89893187D01*
X108066554Y-89950250D01*
X108099500Y-90007314D01*
X108192686Y-90100500D01*
X108266622Y-90143187D01*
X108305944Y-90165890D01*
X108306814Y-90166392D01*
X108434108Y-90200500D01*
X108434110Y-90200500D01*
X108565890Y-90200500D01*
X108565892Y-90200500D01*
X108693186Y-90166392D01*
X108807314Y-90100500D01*
X108900500Y-90007314D01*
X108966392Y-89893186D01*
X109000500Y-89765892D01*
X109000500Y-89634108D01*
X108966392Y-89506814D01*
X108900500Y-89392686D01*
X108807314Y-89299500D01*
X108747292Y-89264846D01*
X108699078Y-89214280D01*
X108685856Y-89145672D01*
X108711824Y-89080808D01*
X108721598Y-89069794D01*
X108745480Y-89045913D01*
X108798207Y-88954587D01*
X108825500Y-88852727D01*
X108825500Y-88747273D01*
X108798207Y-88645413D01*
X108745480Y-88554087D01*
X108670913Y-88479520D01*
X108579587Y-88426793D01*
X108477727Y-88399500D01*
X108372273Y-88399500D01*
X108270413Y-88426793D01*
X108270410Y-88426794D01*
X108179085Y-88479521D01*
X108104521Y-88554085D01*
X108051794Y-88645410D01*
X108051793Y-88645413D01*
X108024500Y-88747273D01*
X108024500Y-88852727D01*
X108051793Y-88954587D01*
X108103407Y-89043986D01*
X108104521Y-89045914D01*
X108184834Y-89126227D01*
X108183128Y-89127932D01*
X108217106Y-89174474D01*
X108221254Y-89244220D01*
X108188095Y-89304091D01*
X108099500Y-89392686D01*
X108033608Y-89506812D01*
X108008773Y-89599500D01*
X107999500Y-89634108D01*
X101891922Y-89634108D01*
X101807314Y-89549500D01*
X101733380Y-89506814D01*
X101693187Y-89483608D01*
X101627061Y-89465890D01*
X101565892Y-89449500D01*
X101434108Y-89449500D01*
X101306812Y-89483608D01*
X101192686Y-89549500D01*
X101192683Y-89549502D01*
X101099502Y-89642683D01*
X101099500Y-89642686D01*
X101033608Y-89756812D01*
X101021902Y-89800500D01*
X100999500Y-89884108D01*
X90827068Y-89884108D01*
X90893186Y-89866392D01*
X91007314Y-89800500D01*
X91100500Y-89707314D01*
X91166392Y-89593186D01*
X91200500Y-89465892D01*
X91200500Y-89334108D01*
X91166392Y-89206814D01*
X91100500Y-89092686D01*
X91007314Y-88999500D01*
X90922439Y-88950497D01*
X90893187Y-88933608D01*
X90829539Y-88916554D01*
X90765892Y-88899500D01*
X90634108Y-88899500D01*
X90615499Y-88904485D01*
X90545651Y-88902823D01*
X90487789Y-88863660D01*
X90460285Y-88799432D01*
X90466856Y-88751725D01*
X90464288Y-88751037D01*
X90476003Y-88707316D01*
X90500500Y-88615892D01*
X90500500Y-88484108D01*
X90466392Y-88356814D01*
X90400500Y-88242686D01*
X90307314Y-88149500D01*
X90280654Y-88134108D01*
X102199500Y-88134108D01*
X102199500Y-88265892D01*
X102215877Y-88327011D01*
X102233608Y-88393187D01*
X102256807Y-88433368D01*
X102299500Y-88507314D01*
X102392686Y-88600500D01*
X102478649Y-88650131D01*
X102505944Y-88665890D01*
X102506814Y-88666392D01*
X102634108Y-88700500D01*
X102634110Y-88700500D01*
X102765890Y-88700500D01*
X102765892Y-88700500D01*
X102893186Y-88666392D01*
X103007314Y-88600500D01*
X103100500Y-88507314D01*
X103166392Y-88393186D01*
X103200500Y-88265892D01*
X103200500Y-88174500D01*
X103220185Y-88107461D01*
X103272989Y-88061706D01*
X103324500Y-88050500D01*
X103365890Y-88050500D01*
X103365892Y-88050500D01*
X103493186Y-88016392D01*
X103549103Y-87984108D01*
X105799500Y-87984108D01*
X105799500Y-88115891D01*
X105833608Y-88243187D01*
X105866554Y-88300250D01*
X105899500Y-88357314D01*
X105992686Y-88450500D01*
X106106814Y-88516392D01*
X106234108Y-88550500D01*
X106234110Y-88550500D01*
X106365890Y-88550500D01*
X106365892Y-88550500D01*
X106386115Y-88545081D01*
X106455963Y-88546742D01*
X106513826Y-88585904D01*
X106541332Y-88650131D01*
X106537984Y-88696947D01*
X106524500Y-88747271D01*
X106524500Y-88747273D01*
X106524500Y-88852727D01*
X106551793Y-88954587D01*
X106604520Y-89045913D01*
X106679087Y-89120480D01*
X106770413Y-89173207D01*
X106872273Y-89200500D01*
X106872275Y-89200500D01*
X106977725Y-89200500D01*
X106977727Y-89200500D01*
X107079587Y-89173207D01*
X107170913Y-89120480D01*
X107245480Y-89045913D01*
X107298207Y-88954587D01*
X107325500Y-88852727D01*
X107325500Y-88747273D01*
X107298207Y-88645413D01*
X107245480Y-88554087D01*
X107170913Y-88479520D01*
X107079587Y-88426793D01*
X106977727Y-88399500D01*
X106886107Y-88399500D01*
X106819068Y-88379815D01*
X106779463Y-88334108D01*
X109799500Y-88334108D01*
X109799500Y-88465892D01*
X109810803Y-88508074D01*
X109833608Y-88593187D01*
X109846717Y-88615892D01*
X109899500Y-88707314D01*
X109992686Y-88800500D01*
X110106814Y-88866392D01*
X110234108Y-88900500D01*
X110234110Y-88900500D01*
X110365890Y-88900500D01*
X110365892Y-88900500D01*
X110493186Y-88866392D01*
X110607314Y-88800500D01*
X110700500Y-88707314D01*
X110766392Y-88593186D01*
X110800500Y-88465892D01*
X110800500Y-88334108D01*
X110766392Y-88206814D01*
X110700500Y-88092686D01*
X110607314Y-87999500D01*
X110550250Y-87966554D01*
X110493187Y-87933608D01*
X110429539Y-87916554D01*
X110365892Y-87899500D01*
X110234108Y-87899500D01*
X110106812Y-87933608D01*
X109992686Y-87999500D01*
X109992683Y-87999502D01*
X109899502Y-88092683D01*
X109899500Y-88092686D01*
X109833608Y-88206812D01*
X109810015Y-88294866D01*
X109799500Y-88334108D01*
X106779463Y-88334108D01*
X106773313Y-88327011D01*
X106763369Y-88257853D01*
X106766332Y-88243406D01*
X106766391Y-88243187D01*
X106766392Y-88243186D01*
X106800500Y-88115892D01*
X106800500Y-87984108D01*
X106766392Y-87856814D01*
X106700500Y-87742686D01*
X106607314Y-87649500D01*
X106516212Y-87596902D01*
X106493187Y-87583608D01*
X106415577Y-87562813D01*
X106365892Y-87549500D01*
X106234108Y-87549500D01*
X106106812Y-87583608D01*
X105992686Y-87649500D01*
X105992683Y-87649502D01*
X105899502Y-87742683D01*
X105899500Y-87742686D01*
X105833608Y-87856812D01*
X105799500Y-87984108D01*
X103549103Y-87984108D01*
X103607314Y-87950500D01*
X103700500Y-87857314D01*
X103766392Y-87743186D01*
X103800500Y-87615892D01*
X103800500Y-87484108D01*
X103766392Y-87356814D01*
X103700500Y-87242686D01*
X103607314Y-87149500D01*
X103541079Y-87111259D01*
X103493187Y-87083608D01*
X103429539Y-87066554D01*
X103365892Y-87049500D01*
X103234108Y-87049500D01*
X103106812Y-87083608D01*
X102992686Y-87149500D01*
X102992683Y-87149502D01*
X102899502Y-87242683D01*
X102899500Y-87242686D01*
X102833608Y-87356812D01*
X102799500Y-87484108D01*
X102799500Y-87575500D01*
X102779815Y-87642539D01*
X102727011Y-87688294D01*
X102675500Y-87699500D01*
X102634108Y-87699500D01*
X102506812Y-87733608D01*
X102392686Y-87799500D01*
X102392683Y-87799502D01*
X102299502Y-87892683D01*
X102299500Y-87892686D01*
X102233608Y-88006812D01*
X102213031Y-88083608D01*
X102199500Y-88134108D01*
X90280654Y-88134108D01*
X90208910Y-88092686D01*
X90193187Y-88083608D01*
X90111446Y-88061706D01*
X90065892Y-88049500D01*
X89934108Y-88049500D01*
X89806812Y-88083608D01*
X89692686Y-88149500D01*
X89692683Y-88149502D01*
X89599502Y-88242683D01*
X89599500Y-88242686D01*
X89533608Y-88356812D01*
X89499500Y-88484108D01*
X86987103Y-88484108D01*
X86966392Y-88406814D01*
X86900500Y-88292686D01*
X86807314Y-88199500D01*
X86750250Y-88166554D01*
X86693187Y-88133608D01*
X86595603Y-88107461D01*
X86565892Y-88099500D01*
X86434108Y-88099500D01*
X86306812Y-88133608D01*
X86192686Y-88199500D01*
X86192683Y-88199502D01*
X86099502Y-88292683D01*
X86099500Y-88292686D01*
X86033608Y-88406812D01*
X86014126Y-88479521D01*
X85999500Y-88534108D01*
X78351031Y-88534108D01*
X78387569Y-88462399D01*
X78389531Y-88458710D01*
X78435182Y-88376354D01*
X78746897Y-87819747D01*
X80409389Y-87819747D01*
X80436308Y-87955074D01*
X80436311Y-87955084D01*
X80489111Y-88082556D01*
X80489118Y-88082569D01*
X80565775Y-88197293D01*
X80565778Y-88197297D01*
X80663344Y-88294863D01*
X80663348Y-88294866D01*
X80778072Y-88371523D01*
X80778085Y-88371530D01*
X80905557Y-88424330D01*
X80905562Y-88424332D01*
X80905566Y-88424332D01*
X80905567Y-88424333D01*
X81040894Y-88451252D01*
X81040897Y-88451252D01*
X81178885Y-88451252D01*
X81269931Y-88433141D01*
X81314218Y-88424332D01*
X81441701Y-88371527D01*
X81556432Y-88294866D01*
X81654004Y-88197294D01*
X81730665Y-88082563D01*
X81783470Y-87955080D01*
X81795882Y-87892683D01*
X81810390Y-87819747D01*
X81810390Y-87736332D01*
X81830075Y-87669293D01*
X81882879Y-87623538D01*
X81952037Y-87613594D01*
X81958564Y-87614711D01*
X81991720Y-87621307D01*
X82004358Y-87623821D01*
X82004359Y-87623821D01*
X82142347Y-87623821D01*
X82233393Y-87605710D01*
X82277680Y-87596901D01*
X82405163Y-87544096D01*
X82519894Y-87467435D01*
X82617466Y-87369863D01*
X82694127Y-87255132D01*
X82746932Y-87127649D01*
X82762477Y-87049500D01*
X82773852Y-86992316D01*
X82773852Y-86908902D01*
X82793537Y-86841863D01*
X82846341Y-86796108D01*
X82915499Y-86786164D01*
X82922026Y-86787281D01*
X82955182Y-86793877D01*
X82967820Y-86796391D01*
X82967821Y-86796391D01*
X83105809Y-86796391D01*
X83196855Y-86778280D01*
X83241142Y-86769471D01*
X83266161Y-86759108D01*
X86749500Y-86759108D01*
X86749500Y-86890892D01*
X86754326Y-86908902D01*
X86783608Y-87018187D01*
X86801687Y-87049500D01*
X86849500Y-87132314D01*
X86942686Y-87225500D01*
X87056814Y-87291392D01*
X87184108Y-87325500D01*
X87184110Y-87325500D01*
X87315890Y-87325500D01*
X87315892Y-87325500D01*
X87443186Y-87291392D01*
X87557314Y-87225500D01*
X87650500Y-87132314D01*
X87699599Y-87047273D01*
X95749500Y-87047273D01*
X95749500Y-87152727D01*
X95773604Y-87242683D01*
X95776793Y-87254586D01*
X95776794Y-87254589D01*
X95777108Y-87255132D01*
X95829520Y-87345913D01*
X95904087Y-87420480D01*
X95995413Y-87473207D01*
X96097273Y-87500500D01*
X96097275Y-87500500D01*
X96202725Y-87500500D01*
X96202727Y-87500500D01*
X96304587Y-87473207D01*
X96395913Y-87420480D01*
X96470480Y-87345913D01*
X96523207Y-87254587D01*
X96550500Y-87152727D01*
X96550500Y-87047273D01*
X96523207Y-86945413D01*
X96470480Y-86854087D01*
X96395913Y-86779520D01*
X96304587Y-86726793D01*
X96202727Y-86699500D01*
X96097273Y-86699500D01*
X95995413Y-86726793D01*
X95995410Y-86726794D01*
X95904085Y-86779521D01*
X95829521Y-86854085D01*
X95776794Y-86945410D01*
X95776793Y-86945413D01*
X95749500Y-87047273D01*
X87699599Y-87047273D01*
X87716392Y-87018186D01*
X87719985Y-87004779D01*
X87737947Y-86937740D01*
X87750500Y-86890892D01*
X87750500Y-86759108D01*
X87716392Y-86631814D01*
X87708905Y-86618847D01*
X87707563Y-86616521D01*
X87650500Y-86517686D01*
X87557314Y-86424500D01*
X87478868Y-86379209D01*
X87443187Y-86358608D01*
X87351757Y-86334110D01*
X87315892Y-86324500D01*
X87184108Y-86324500D01*
X87056812Y-86358608D01*
X86942686Y-86424500D01*
X86942683Y-86424502D01*
X86849502Y-86517683D01*
X86849500Y-86517686D01*
X86783608Y-86631812D01*
X86765472Y-86699500D01*
X86749500Y-86759108D01*
X83266161Y-86759108D01*
X83368625Y-86716666D01*
X83394316Y-86699500D01*
X83471572Y-86647879D01*
X83471573Y-86647878D01*
X83483356Y-86640005D01*
X83580928Y-86542433D01*
X83657589Y-86427702D01*
X83658915Y-86424502D01*
X83680162Y-86373205D01*
X83710394Y-86300219D01*
X83721196Y-86245913D01*
X83737314Y-86164886D01*
X83737314Y-86026895D01*
X83737313Y-86026893D01*
X83722053Y-85950172D01*
X83718857Y-85934108D01*
X90599500Y-85934108D01*
X90599500Y-86065892D01*
X90607428Y-86095480D01*
X90633608Y-86193187D01*
X90656622Y-86233047D01*
X90699500Y-86307314D01*
X90792686Y-86400500D01*
X90891521Y-86457563D01*
X90905944Y-86465890D01*
X90906814Y-86466392D01*
X91034108Y-86500500D01*
X91034110Y-86500500D01*
X91165890Y-86500500D01*
X91165892Y-86500500D01*
X91293186Y-86466392D01*
X91294056Y-86465890D01*
X91304212Y-86460025D01*
X91332024Y-86443968D01*
X91399923Y-86427495D01*
X91465951Y-86450347D01*
X91509142Y-86505267D01*
X91513800Y-86519261D01*
X91533608Y-86593186D01*
X91599500Y-86707314D01*
X91692686Y-86800500D01*
X91806814Y-86866392D01*
X91934108Y-86900500D01*
X91934110Y-86900500D01*
X92065890Y-86900500D01*
X92065892Y-86900500D01*
X92193186Y-86866392D01*
X92307314Y-86800500D01*
X92400500Y-86707314D01*
X92466392Y-86593186D01*
X92500500Y-86465892D01*
X92500500Y-86334108D01*
X92487103Y-86284108D01*
X94299500Y-86284108D01*
X94299500Y-86415892D01*
X94302666Y-86427708D01*
X94333608Y-86543187D01*
X94361504Y-86591503D01*
X94399500Y-86657314D01*
X94492686Y-86750500D01*
X94606814Y-86816392D01*
X94734108Y-86850500D01*
X94734110Y-86850500D01*
X94865890Y-86850500D01*
X94865892Y-86850500D01*
X94993186Y-86816392D01*
X95107314Y-86750500D01*
X95200500Y-86657314D01*
X95266392Y-86543186D01*
X95300500Y-86415892D01*
X95300500Y-86284108D01*
X95266392Y-86156814D01*
X95265107Y-86154589D01*
X95241405Y-86113535D01*
X95200500Y-86042686D01*
X95107314Y-85949500D01*
X95080654Y-85934108D01*
X99499500Y-85934108D01*
X99499500Y-86065892D01*
X99507428Y-86095480D01*
X99533608Y-86193187D01*
X99556622Y-86233047D01*
X99599500Y-86307314D01*
X99692686Y-86400500D01*
X99791521Y-86457563D01*
X99805944Y-86465890D01*
X99806814Y-86466392D01*
X99934108Y-86500500D01*
X99934110Y-86500500D01*
X100065890Y-86500500D01*
X100065892Y-86500500D01*
X100193186Y-86466392D01*
X100307314Y-86400500D01*
X100400500Y-86307314D01*
X100466392Y-86193186D01*
X100500500Y-86065892D01*
X100500500Y-85947273D01*
X110499500Y-85947273D01*
X110499500Y-86052727D01*
X110526440Y-86153267D01*
X110526793Y-86154586D01*
X110526794Y-86154589D01*
X110528079Y-86156814D01*
X110579520Y-86245913D01*
X110654087Y-86320480D01*
X110745413Y-86373207D01*
X110847273Y-86400500D01*
X110847275Y-86400500D01*
X110952725Y-86400500D01*
X110952727Y-86400500D01*
X111054587Y-86373207D01*
X111145913Y-86320480D01*
X111220480Y-86245913D01*
X111238497Y-86214705D01*
X111289061Y-86166491D01*
X111357668Y-86153267D01*
X111377961Y-86156928D01*
X111447273Y-86175500D01*
X111447276Y-86175500D01*
X111552725Y-86175500D01*
X111552727Y-86175500D01*
X111654587Y-86148207D01*
X111745913Y-86095480D01*
X111820480Y-86020913D01*
X111873207Y-85929587D01*
X111900500Y-85827727D01*
X111900500Y-85722273D01*
X111873207Y-85620413D01*
X111820480Y-85529087D01*
X111745913Y-85454520D01*
X111654587Y-85401793D01*
X111552727Y-85374500D01*
X111447273Y-85374500D01*
X111345413Y-85401793D01*
X111345410Y-85401794D01*
X111254085Y-85454521D01*
X111179521Y-85529085D01*
X111161502Y-85560295D01*
X111110934Y-85608510D01*
X111042327Y-85621731D01*
X111022027Y-85618068D01*
X110952727Y-85599500D01*
X110847273Y-85599500D01*
X110745413Y-85626793D01*
X110745410Y-85626794D01*
X110654085Y-85679521D01*
X110579521Y-85754085D01*
X110526794Y-85845410D01*
X110526793Y-85845413D01*
X110499500Y-85947273D01*
X100500500Y-85947273D01*
X100500500Y-85934108D01*
X100466392Y-85806814D01*
X100400500Y-85692686D01*
X100307314Y-85599500D01*
X100224654Y-85551776D01*
X100193187Y-85533608D01*
X100129539Y-85516554D01*
X100065892Y-85499500D01*
X99934108Y-85499500D01*
X99806812Y-85533608D01*
X99692686Y-85599500D01*
X99692683Y-85599502D01*
X99599502Y-85692683D01*
X99599500Y-85692686D01*
X99533608Y-85806812D01*
X99513031Y-85883608D01*
X99499500Y-85934108D01*
X95080654Y-85934108D01*
X95020712Y-85899500D01*
X94993187Y-85883608D01*
X94929539Y-85866554D01*
X94865892Y-85849500D01*
X94734108Y-85849500D01*
X94606812Y-85883608D01*
X94492686Y-85949500D01*
X94492683Y-85949502D01*
X94399502Y-86042683D01*
X94399500Y-86042686D01*
X94333608Y-86156812D01*
X94308708Y-86249742D01*
X94299500Y-86284108D01*
X92487103Y-86284108D01*
X92466392Y-86206814D01*
X92400500Y-86092686D01*
X92307314Y-85999500D01*
X92250250Y-85966554D01*
X92193187Y-85933608D01*
X92129539Y-85916554D01*
X92065892Y-85899500D01*
X91934108Y-85899500D01*
X91806811Y-85933608D01*
X91767973Y-85956032D01*
X91700072Y-85972503D01*
X91634046Y-85949651D01*
X91590856Y-85894729D01*
X91586199Y-85880737D01*
X91566392Y-85806814D01*
X91500500Y-85692686D01*
X91407314Y-85599500D01*
X91324654Y-85551776D01*
X91293187Y-85533608D01*
X91229539Y-85516554D01*
X91165892Y-85499500D01*
X91034108Y-85499500D01*
X90906812Y-85533608D01*
X90792686Y-85599500D01*
X90792683Y-85599502D01*
X90699502Y-85692683D01*
X90699500Y-85692686D01*
X90633608Y-85806812D01*
X90613031Y-85883608D01*
X90599500Y-85934108D01*
X83718857Y-85934108D01*
X83710395Y-85891568D01*
X83710394Y-85891567D01*
X83710394Y-85891563D01*
X83690495Y-85843523D01*
X83657592Y-85764086D01*
X83657585Y-85764073D01*
X83580928Y-85649349D01*
X83580925Y-85649345D01*
X83483359Y-85551779D01*
X83483355Y-85551776D01*
X83368631Y-85475119D01*
X83368618Y-85475112D01*
X83241146Y-85422312D01*
X83241136Y-85422309D01*
X83105809Y-85395391D01*
X83105807Y-85395391D01*
X82967821Y-85395391D01*
X82967819Y-85395391D01*
X82832491Y-85422309D01*
X82832481Y-85422312D01*
X82705009Y-85475112D01*
X82704996Y-85475119D01*
X82590272Y-85551776D01*
X82590268Y-85551779D01*
X82492702Y-85649345D01*
X82492699Y-85649349D01*
X82416042Y-85764073D01*
X82416035Y-85764086D01*
X82363235Y-85891558D01*
X82363232Y-85891568D01*
X82336314Y-86026895D01*
X82336314Y-86110309D01*
X82316629Y-86177348D01*
X82263825Y-86223103D01*
X82194667Y-86233047D01*
X82188123Y-86231926D01*
X82142349Y-86222821D01*
X82142345Y-86222821D01*
X82004359Y-86222821D01*
X82004357Y-86222821D01*
X81869029Y-86249739D01*
X81869019Y-86249742D01*
X81741547Y-86302542D01*
X81741534Y-86302549D01*
X81626810Y-86379206D01*
X81626806Y-86379209D01*
X81529240Y-86476775D01*
X81529237Y-86476779D01*
X81452580Y-86591503D01*
X81452573Y-86591516D01*
X81399773Y-86718988D01*
X81399770Y-86718998D01*
X81372852Y-86854325D01*
X81372852Y-86937740D01*
X81353167Y-87004779D01*
X81300363Y-87050534D01*
X81231205Y-87060478D01*
X81224661Y-87059357D01*
X81178887Y-87050252D01*
X81178883Y-87050252D01*
X81040897Y-87050252D01*
X81040895Y-87050252D01*
X80905567Y-87077170D01*
X80905557Y-87077173D01*
X80778085Y-87129973D01*
X80778072Y-87129980D01*
X80663348Y-87206637D01*
X80663344Y-87206640D01*
X80565778Y-87304206D01*
X80565775Y-87304210D01*
X80489118Y-87418934D01*
X80489111Y-87418947D01*
X80436311Y-87546419D01*
X80436308Y-87546429D01*
X80409390Y-87681756D01*
X80409390Y-87681759D01*
X80409390Y-87819745D01*
X80409390Y-87819747D01*
X80409389Y-87819747D01*
X78746897Y-87819747D01*
X78834181Y-87663890D01*
X78835987Y-87660776D01*
X78969588Y-87438427D01*
X79311307Y-86880793D01*
X79312906Y-86878258D01*
X79480595Y-86620039D01*
X79481267Y-86619019D01*
X79819078Y-86113449D01*
X79820503Y-86111364D01*
X80006855Y-85845227D01*
X80008027Y-85843585D01*
X80358635Y-85361015D01*
X80359765Y-85359487D01*
X80555332Y-85099961D01*
X80556829Y-85098018D01*
X80933232Y-84620553D01*
X80934058Y-84619519D01*
X81022725Y-84510025D01*
X84263237Y-84510025D01*
X84290156Y-84645352D01*
X84290159Y-84645362D01*
X84342959Y-84772834D01*
X84342966Y-84772847D01*
X84419623Y-84887571D01*
X84419626Y-84887575D01*
X84517192Y-84985141D01*
X84517196Y-84985144D01*
X84631920Y-85061801D01*
X84631933Y-85061808D01*
X84719039Y-85097888D01*
X84759410Y-85114610D01*
X84759414Y-85114610D01*
X84759415Y-85114611D01*
X84894742Y-85141530D01*
X84894745Y-85141530D01*
X85032733Y-85141530D01*
X85123779Y-85123419D01*
X85168066Y-85114610D01*
X85295549Y-85061805D01*
X85410280Y-84985144D01*
X85507852Y-84887572D01*
X85584513Y-84772841D01*
X85637318Y-84645358D01*
X85645984Y-84601787D01*
X85678368Y-84539880D01*
X85739083Y-84505305D01*
X85800933Y-84506545D01*
X85858161Y-84522516D01*
X85858162Y-84522515D01*
X85858163Y-84522516D01*
X85910951Y-84516122D01*
X85937346Y-84512925D01*
X85989293Y-84483648D01*
X86512738Y-84034108D01*
X104999500Y-84034108D01*
X104999500Y-84165891D01*
X105033608Y-84293187D01*
X105066554Y-84350250D01*
X105099500Y-84407314D01*
X105192686Y-84500500D01*
X105306814Y-84566392D01*
X105434108Y-84600500D01*
X105434110Y-84600500D01*
X105565890Y-84600500D01*
X105565892Y-84600500D01*
X105693186Y-84566392D01*
X105807314Y-84500500D01*
X105900500Y-84407314D01*
X105966392Y-84293186D01*
X106000500Y-84165892D01*
X106000500Y-84064188D01*
X114611700Y-84064188D01*
X114611700Y-84257411D01*
X114641925Y-84448241D01*
X114701629Y-84631994D01*
X114773391Y-84772834D01*
X114789348Y-84804150D01*
X114902915Y-84960463D01*
X115039537Y-85097085D01*
X115063660Y-85114611D01*
X115195850Y-85210652D01*
X115368005Y-85298370D01*
X115459881Y-85328222D01*
X115551760Y-85358075D01*
X115640143Y-85372073D01*
X115742589Y-85388300D01*
X115742594Y-85388300D01*
X115935811Y-85388300D01*
X116028323Y-85373646D01*
X116126640Y-85358075D01*
X116310397Y-85298369D01*
X116482550Y-85210652D01*
X116638863Y-85097085D01*
X116775485Y-84960463D01*
X116889052Y-84804150D01*
X116976769Y-84631997D01*
X117036475Y-84448240D01*
X117061033Y-84293187D01*
X117066700Y-84257411D01*
X117066700Y-84064188D01*
X117049116Y-83953173D01*
X117036475Y-83873360D01*
X116987397Y-83722312D01*
X116976770Y-83689605D01*
X116889052Y-83517450D01*
X116851593Y-83465892D01*
X116775485Y-83361137D01*
X116638863Y-83224515D01*
X116482550Y-83110948D01*
X116482551Y-83110948D01*
X116482549Y-83110947D01*
X116310394Y-83023229D01*
X116126641Y-82963525D01*
X115935811Y-82933300D01*
X115935806Y-82933300D01*
X115742594Y-82933300D01*
X115742589Y-82933300D01*
X115551758Y-82963525D01*
X115368005Y-83023229D01*
X115195850Y-83110947D01*
X115039536Y-83224515D01*
X114902915Y-83361136D01*
X114789347Y-83517450D01*
X114701629Y-83689605D01*
X114641925Y-83873358D01*
X114611700Y-84064188D01*
X106000500Y-84064188D01*
X106000500Y-84034108D01*
X105966392Y-83906814D01*
X105900500Y-83792686D01*
X105807314Y-83699500D01*
X105750250Y-83666554D01*
X105693187Y-83633608D01*
X105629539Y-83616554D01*
X105565892Y-83599500D01*
X105434108Y-83599500D01*
X105306812Y-83633608D01*
X105192686Y-83699500D01*
X105192683Y-83699502D01*
X105099502Y-83792683D01*
X105099500Y-83792686D01*
X105033608Y-83906812D01*
X104999500Y-84034108D01*
X86512738Y-84034108D01*
X86777887Y-83806395D01*
X86814675Y-83759467D01*
X86836116Y-83682639D01*
X86836050Y-83682097D01*
X86826525Y-83603454D01*
X86826524Y-83603452D01*
X86797253Y-83551515D01*
X86797245Y-83551503D01*
X86672949Y-83406772D01*
X86672946Y-83406770D01*
X86610543Y-83334108D01*
X97999500Y-83334108D01*
X97999500Y-83465892D01*
X97999994Y-83467735D01*
X98033608Y-83593187D01*
X98039535Y-83603452D01*
X98099500Y-83707314D01*
X98192686Y-83800500D01*
X98306814Y-83866392D01*
X98434108Y-83900500D01*
X98434110Y-83900500D01*
X98565890Y-83900500D01*
X98565892Y-83900500D01*
X98693186Y-83866392D01*
X98807314Y-83800500D01*
X98900500Y-83707314D01*
X98966392Y-83593186D01*
X99000500Y-83465892D01*
X99000500Y-83334108D01*
X98966392Y-83206814D01*
X98900500Y-83092686D01*
X98807314Y-82999500D01*
X98745004Y-82963525D01*
X98693187Y-82933608D01*
X98629539Y-82916554D01*
X98565892Y-82899500D01*
X98434108Y-82899500D01*
X98306812Y-82933608D01*
X98192686Y-82999500D01*
X98192683Y-82999502D01*
X98099502Y-83092683D01*
X98099500Y-83092686D01*
X98033608Y-83206812D01*
X98028865Y-83224515D01*
X97999500Y-83334108D01*
X86610543Y-83334108D01*
X86119995Y-82762913D01*
X86073067Y-82726125D01*
X86073064Y-82726124D01*
X85996240Y-82704684D01*
X85996236Y-82704683D01*
X85917054Y-82714274D01*
X85917052Y-82714275D01*
X85865115Y-82743546D01*
X85865109Y-82743550D01*
X85076513Y-83420805D01*
X85076510Y-83420808D01*
X85039726Y-83467731D01*
X85039724Y-83467735D01*
X85018284Y-83544559D01*
X85018283Y-83544562D01*
X85025195Y-83601619D01*
X85013715Y-83670539D01*
X84966796Y-83722312D01*
X84902095Y-83740530D01*
X84894743Y-83740530D01*
X84759415Y-83767448D01*
X84759405Y-83767451D01*
X84631933Y-83820251D01*
X84631920Y-83820258D01*
X84517196Y-83896915D01*
X84517192Y-83896918D01*
X84419626Y-83994484D01*
X84419623Y-83994488D01*
X84342966Y-84109212D01*
X84342959Y-84109225D01*
X84290159Y-84236697D01*
X84290156Y-84236707D01*
X84263238Y-84372034D01*
X84263238Y-84372037D01*
X84263238Y-84510023D01*
X84263238Y-84510025D01*
X84263237Y-84510025D01*
X81022725Y-84510025D01*
X81127821Y-84380242D01*
X81129750Y-84377922D01*
X81554340Y-83880791D01*
X81554581Y-83880513D01*
X81724648Y-83684873D01*
X81727064Y-83682177D01*
X82281433Y-83082465D01*
X82345608Y-83013646D01*
X82348502Y-83010650D01*
X83010650Y-82348502D01*
X83013646Y-82345608D01*
X83082611Y-82281298D01*
X83133661Y-82234108D01*
X94299500Y-82234108D01*
X94299500Y-82365892D01*
X94316554Y-82429539D01*
X94333608Y-82493187D01*
X94366554Y-82550250D01*
X94399500Y-82607314D01*
X94492686Y-82700500D01*
X94606814Y-82766392D01*
X94734108Y-82800500D01*
X94734110Y-82800500D01*
X94865890Y-82800500D01*
X94865892Y-82800500D01*
X94993186Y-82766392D01*
X95107314Y-82700500D01*
X95200500Y-82607314D01*
X95266392Y-82493186D01*
X95300500Y-82365892D01*
X95300500Y-82234108D01*
X95266392Y-82106814D01*
X95200500Y-81992686D01*
X95155087Y-81947273D01*
X104124500Y-81947273D01*
X104124500Y-82052727D01*
X104151793Y-82154587D01*
X104204520Y-82245913D01*
X104279087Y-82320480D01*
X104370413Y-82373207D01*
X104472273Y-82400500D01*
X104472275Y-82400500D01*
X104577725Y-82400500D01*
X104577727Y-82400500D01*
X104679587Y-82373207D01*
X104770913Y-82320480D01*
X104845480Y-82245913D01*
X104898207Y-82154587D01*
X104925500Y-82052727D01*
X104925500Y-82034108D01*
X110599500Y-82034108D01*
X110599500Y-82165892D01*
X110599634Y-82166391D01*
X110633608Y-82293187D01*
X110649365Y-82320478D01*
X110699500Y-82407314D01*
X110792686Y-82500500D01*
X110906814Y-82566392D01*
X111034108Y-82600500D01*
X111034110Y-82600500D01*
X111165890Y-82600500D01*
X111165892Y-82600500D01*
X111293186Y-82566392D01*
X111407314Y-82500500D01*
X111500500Y-82407314D01*
X111566392Y-82293186D01*
X111600500Y-82165892D01*
X111600500Y-82034108D01*
X111566392Y-81906814D01*
X111500500Y-81792686D01*
X111407314Y-81699500D01*
X111350250Y-81666554D01*
X111293187Y-81633608D01*
X111221235Y-81614329D01*
X111165892Y-81599500D01*
X111034108Y-81599500D01*
X110906812Y-81633608D01*
X110792686Y-81699500D01*
X110792683Y-81699502D01*
X110699502Y-81792683D01*
X110699500Y-81792686D01*
X110633608Y-81906812D01*
X110608332Y-82001147D01*
X110599500Y-82034108D01*
X104925500Y-82034108D01*
X104925500Y-81947273D01*
X104898207Y-81845413D01*
X104845480Y-81754087D01*
X104770913Y-81679520D01*
X104704059Y-81640922D01*
X104679589Y-81626794D01*
X104679588Y-81626793D01*
X104679587Y-81626793D01*
X104577727Y-81599500D01*
X104472273Y-81599500D01*
X104370413Y-81626793D01*
X104370410Y-81626794D01*
X104279085Y-81679521D01*
X104204521Y-81754085D01*
X104151794Y-81845410D01*
X104151793Y-81845413D01*
X104124500Y-81947273D01*
X95155087Y-81947273D01*
X95107314Y-81899500D01*
X95013628Y-81845410D01*
X94993187Y-81833608D01*
X94929539Y-81816554D01*
X94865892Y-81799500D01*
X94734108Y-81799500D01*
X94606812Y-81833608D01*
X94492686Y-81899500D01*
X94492683Y-81899502D01*
X94399502Y-81992683D01*
X94399500Y-81992686D01*
X94333608Y-82106812D01*
X94317644Y-82166392D01*
X94299500Y-82234108D01*
X83133661Y-82234108D01*
X83682177Y-81727064D01*
X83684873Y-81724648D01*
X83789028Y-81634108D01*
X90249500Y-81634108D01*
X90249500Y-81765892D01*
X90258505Y-81799500D01*
X90283608Y-81893187D01*
X90291475Y-81906812D01*
X90349500Y-82007314D01*
X90442686Y-82100500D01*
X90536367Y-82154587D01*
X90556810Y-82166390D01*
X90556814Y-82166392D01*
X90684108Y-82200500D01*
X90684110Y-82200500D01*
X90815890Y-82200500D01*
X90815892Y-82200500D01*
X90943186Y-82166392D01*
X91057314Y-82100500D01*
X91150500Y-82007314D01*
X91216392Y-81893186D01*
X91250500Y-81765892D01*
X91250500Y-81634108D01*
X91216392Y-81506814D01*
X91150500Y-81392686D01*
X91057314Y-81299500D01*
X90998412Y-81265493D01*
X90943187Y-81233608D01*
X90878931Y-81216391D01*
X90815892Y-81199500D01*
X90684108Y-81199500D01*
X90556814Y-81233608D01*
X90556813Y-81233608D01*
X90556811Y-81233609D01*
X90556810Y-81233609D01*
X90501585Y-81265493D01*
X90501572Y-81265501D01*
X90442686Y-81299500D01*
X90417316Y-81324869D01*
X90417313Y-81324872D01*
X90349500Y-81392686D01*
X90283608Y-81506812D01*
X90258773Y-81599500D01*
X90249500Y-81634108D01*
X83789028Y-81634108D01*
X83880513Y-81554581D01*
X83880791Y-81554340D01*
X84377915Y-81129757D01*
X84380242Y-81127821D01*
X84619519Y-80934058D01*
X84620553Y-80933232D01*
X85043022Y-80600184D01*
X89197933Y-80600184D01*
X89224852Y-80735511D01*
X89224855Y-80735521D01*
X89277655Y-80862993D01*
X89277662Y-80863006D01*
X89354319Y-80977730D01*
X89354322Y-80977734D01*
X89451888Y-81075300D01*
X89451892Y-81075303D01*
X89566616Y-81151960D01*
X89566629Y-81151967D01*
X89681385Y-81199500D01*
X89694106Y-81204769D01*
X89694110Y-81204769D01*
X89694111Y-81204770D01*
X89829438Y-81231689D01*
X89829441Y-81231689D01*
X89967429Y-81231689D01*
X90058475Y-81213578D01*
X90102762Y-81204769D01*
X90230245Y-81151964D01*
X90344976Y-81075303D01*
X90442548Y-80977731D01*
X90519209Y-80863000D01*
X90547166Y-80795503D01*
X90591006Y-80741102D01*
X90657300Y-80719036D01*
X90724999Y-80736315D01*
X90730600Y-80739843D01*
X90778379Y-80771768D01*
X90778381Y-80771769D01*
X90778385Y-80771771D01*
X90884904Y-80815892D01*
X90905862Y-80824573D01*
X90905866Y-80824573D01*
X90905867Y-80824574D01*
X91041194Y-80851493D01*
X91041197Y-80851493D01*
X91179185Y-80851493D01*
X91270231Y-80833382D01*
X91314518Y-80824573D01*
X91442001Y-80771768D01*
X91556732Y-80695107D01*
X91654304Y-80597535D01*
X91730965Y-80482804D01*
X91758922Y-80415307D01*
X91802762Y-80360906D01*
X91869056Y-80338840D01*
X91936755Y-80356119D01*
X91942374Y-80359659D01*
X91990128Y-80391567D01*
X91990134Y-80391571D01*
X92058661Y-80419955D01*
X92113063Y-80463795D01*
X92135129Y-80530089D01*
X92130983Y-80566609D01*
X92121987Y-80600184D01*
X92099500Y-80684108D01*
X92099500Y-80815892D01*
X92112124Y-80863006D01*
X92133608Y-80943187D01*
X92153554Y-80977734D01*
X92199500Y-81057314D01*
X92292686Y-81150500D01*
X92406814Y-81216392D01*
X92534108Y-81250500D01*
X92534110Y-81250500D01*
X92665890Y-81250500D01*
X92665892Y-81250500D01*
X92793186Y-81216392D01*
X92907314Y-81150500D01*
X93000500Y-81057314D01*
X93066392Y-80943186D01*
X93082222Y-80884108D01*
X96049500Y-80884108D01*
X96049500Y-81015892D01*
X96061755Y-81061630D01*
X96083608Y-81143187D01*
X96095613Y-81163979D01*
X96149500Y-81257314D01*
X96242686Y-81350500D01*
X96356814Y-81416392D01*
X96484108Y-81450500D01*
X96484110Y-81450500D01*
X96615890Y-81450500D01*
X96615892Y-81450500D01*
X96743186Y-81416392D01*
X96857314Y-81350500D01*
X96950500Y-81257314D01*
X96963898Y-81234108D01*
X98899500Y-81234108D01*
X98899500Y-81365892D01*
X98913031Y-81416391D01*
X98933608Y-81493187D01*
X98941475Y-81506812D01*
X98999500Y-81607314D01*
X99092686Y-81700500D01*
X99185498Y-81754085D01*
X99205944Y-81765890D01*
X99206814Y-81766392D01*
X99334108Y-81800500D01*
X99334110Y-81800500D01*
X99465890Y-81800500D01*
X99465892Y-81800500D01*
X99593186Y-81766392D01*
X99707314Y-81700500D01*
X99800500Y-81607314D01*
X99866392Y-81493186D01*
X99900500Y-81365892D01*
X99900500Y-81234108D01*
X99866392Y-81106814D01*
X99800500Y-80992686D01*
X99707314Y-80899500D01*
X99624164Y-80851493D01*
X99593187Y-80833608D01*
X99527057Y-80815889D01*
X99465892Y-80799500D01*
X99334108Y-80799500D01*
X99206812Y-80833608D01*
X99092686Y-80899500D01*
X99092683Y-80899502D01*
X98999502Y-80992683D01*
X98999500Y-80992686D01*
X98933608Y-81106812D01*
X98918290Y-81163981D01*
X98899500Y-81234108D01*
X96963898Y-81234108D01*
X97016392Y-81143186D01*
X97050500Y-81015892D01*
X97050500Y-80884108D01*
X97016392Y-80756814D01*
X96950500Y-80642686D01*
X96857314Y-80549500D01*
X96800250Y-80516554D01*
X96743187Y-80483608D01*
X96669242Y-80463795D01*
X96615892Y-80449500D01*
X96484108Y-80449500D01*
X96356812Y-80483608D01*
X96242686Y-80549500D01*
X96242683Y-80549502D01*
X96149502Y-80642683D01*
X96149500Y-80642686D01*
X96083608Y-80756812D01*
X96065452Y-80824573D01*
X96049500Y-80884108D01*
X93082222Y-80884108D01*
X93100500Y-80815892D01*
X93100500Y-80684108D01*
X93066392Y-80556814D01*
X93065536Y-80555332D01*
X93024126Y-80483608D01*
X93000500Y-80442686D01*
X92907314Y-80349500D01*
X92901605Y-80343791D01*
X92868120Y-80282468D01*
X92873104Y-80212776D01*
X92886184Y-80187219D01*
X92892026Y-80178474D01*
X92942720Y-80102607D01*
X92995525Y-79975124D01*
X93010354Y-79900575D01*
X93022445Y-79839791D01*
X93022445Y-79701800D01*
X92995526Y-79566473D01*
X92995525Y-79566472D01*
X92995525Y-79566468D01*
X92980508Y-79530214D01*
X92942723Y-79438991D01*
X92942716Y-79438978D01*
X92866059Y-79324254D01*
X92866056Y-79324250D01*
X92768490Y-79226684D01*
X92768486Y-79226681D01*
X92653762Y-79150024D01*
X92653749Y-79150017D01*
X92526277Y-79097217D01*
X92526267Y-79097214D01*
X92390940Y-79070296D01*
X92390938Y-79070296D01*
X92252952Y-79070296D01*
X92252950Y-79070296D01*
X92117622Y-79097214D01*
X92117612Y-79097217D01*
X91990140Y-79150017D01*
X91990127Y-79150024D01*
X91875403Y-79226681D01*
X91875399Y-79226684D01*
X91777833Y-79324250D01*
X91777830Y-79324254D01*
X91701173Y-79438978D01*
X91701168Y-79438988D01*
X91673212Y-79506480D01*
X91629370Y-79560884D01*
X91563076Y-79582948D01*
X91495377Y-79565668D01*
X91489760Y-79562129D01*
X91442007Y-79530221D01*
X91441994Y-79530214D01*
X91314522Y-79477414D01*
X91314512Y-79477411D01*
X91179185Y-79450493D01*
X91179183Y-79450493D01*
X91041197Y-79450493D01*
X91041195Y-79450493D01*
X90905867Y-79477411D01*
X90905857Y-79477414D01*
X90778385Y-79530214D01*
X90778372Y-79530221D01*
X90663648Y-79606878D01*
X90663644Y-79606881D01*
X90566078Y-79704447D01*
X90566075Y-79704451D01*
X90489418Y-79819175D01*
X90489413Y-79819185D01*
X90461457Y-79886677D01*
X90417615Y-79941081D01*
X90351321Y-79963145D01*
X90283622Y-79945865D01*
X90278005Y-79942326D01*
X90230250Y-79910417D01*
X90230238Y-79910410D01*
X90102766Y-79857610D01*
X90102756Y-79857607D01*
X89967429Y-79830689D01*
X89967427Y-79830689D01*
X89829441Y-79830689D01*
X89829439Y-79830689D01*
X89694111Y-79857607D01*
X89694101Y-79857610D01*
X89566629Y-79910410D01*
X89566616Y-79910417D01*
X89451892Y-79987074D01*
X89451888Y-79987077D01*
X89354322Y-80084643D01*
X89354319Y-80084647D01*
X89277662Y-80199371D01*
X89277655Y-80199384D01*
X89224855Y-80326856D01*
X89224852Y-80326866D01*
X89197934Y-80462193D01*
X89197934Y-80462196D01*
X89197934Y-80600182D01*
X89197934Y-80600184D01*
X89197933Y-80600184D01*
X85043022Y-80600184D01*
X85098018Y-80556829D01*
X85099961Y-80555332D01*
X85359489Y-80359763D01*
X85360974Y-80358664D01*
X85843585Y-80008027D01*
X85845227Y-80006855D01*
X86111364Y-79820503D01*
X86113449Y-79819078D01*
X86619019Y-79481267D01*
X86620039Y-79480595D01*
X86878258Y-79312906D01*
X86880793Y-79311307D01*
X87438142Y-78969762D01*
X87438663Y-78969446D01*
X87660719Y-78836021D01*
X87663950Y-78834148D01*
X87836089Y-78737745D01*
X88376533Y-78435082D01*
X88458746Y-78389511D01*
X88462384Y-78387577D01*
X89296789Y-77962426D01*
X89300555Y-77960589D01*
X89385789Y-77920844D01*
X90127447Y-77578934D01*
X90130788Y-77577455D01*
X90369422Y-77476161D01*
X90369733Y-77476030D01*
X90973803Y-77225817D01*
X90976544Y-77224724D01*
X91263974Y-77114389D01*
X91265125Y-77113955D01*
X91835671Y-76903469D01*
X91837963Y-76902653D01*
X92145178Y-76796871D01*
X92147037Y-76796248D01*
X92714323Y-76611926D01*
X92716212Y-76611330D01*
X93026992Y-76516315D01*
X93029339Y-76515626D01*
X93614492Y-76350596D01*
X93615686Y-76350267D01*
X93913174Y-76270555D01*
X93916040Y-76269828D01*
X94551722Y-76117214D01*
X94552198Y-76117102D01*
X94804728Y-76058800D01*
X94808280Y-76058038D01*
X95608977Y-75898769D01*
X95701617Y-75880762D01*
X95705788Y-75880028D01*
X96630611Y-75733550D01*
X96634694Y-75732975D01*
X96728454Y-75721463D01*
X97539141Y-75625512D01*
X97542846Y-75625132D01*
X97800944Y-75602551D01*
X97801315Y-75602520D01*
X98453115Y-75551222D01*
X98456222Y-75551019D01*
X98763497Y-75534915D01*
X98765013Y-75534846D01*
X99372460Y-75510979D01*
X99374889Y-75510910D01*
X99696065Y-75505304D01*
X99699672Y-75505242D01*
X99701835Y-75505223D01*
X100298165Y-75505223D01*
X100300328Y-75505242D01*
G37*
%TD.AperFunction*%
%TD*%
M02*
