%TF.GenerationSoftware,KiCad,Pcbnew,10.0.6*%
%TF.CreationDate,2026-09-26T16:36:25-05:00*%
%TF.ProjectId,puck-revA,7075636b-2d72-4657-9641-2e6b69636164,rev?*%
%TF.SameCoordinates,Original*%
%TF.FileFunction,Legend,Bot*%
%TF.FilePolarity,Positive*%
%FSLAX46Y46*%
G04 Gerber Fmt 4.6, Leading zero omitted, Abs format (unit mm)*
G04 Created by KiCad (PCBNEW 10.0.6) date 2026-09-26 16:36:25*
%MOMM*%
%LPD*%
G01*
G04 APERTURE LIST*
G04 Aperture macros list*
%AMRotRect*
0 Rectangle, with rotation*
0 The origin of the aperture is its center*
0 $1 length*
0 $2 width*
0 $3 Rotation angle, in degrees counterclockwise*
0 Add horizontal line*
21,1,$1,$2,0,0,$3*%
G04 Aperture macros list end*
%ADD10C,0.120000*%
%ADD11RotRect,1.000000X1.000000X287.419600*%
%ADD12C,1.000000*%
%ADD13RotRect,1.000000X1.000000X310.656300*%
%ADD14C,2.200000*%
%ADD15C,0.650000*%
%ADD16O,2.100000X1.000000*%
%ADD17O,1.800000X1.000000*%
G04 APERTURE END LIST*
D10*
X104576190Y-88440045D02*
X104652380Y-88401950D01*
X104652380Y-88401950D02*
X104728571Y-88325760D01*
X104728571Y-88325760D02*
X104842857Y-88211474D01*
X104842857Y-88211474D02*
X104919047Y-88173379D01*
X104919047Y-88173379D02*
X104995238Y-88173379D01*
X104957142Y-88363855D02*
X105033333Y-88325760D01*
X105033333Y-88325760D02*
X105109523Y-88249569D01*
X105109523Y-88249569D02*
X105147619Y-88097188D01*
X105147619Y-88097188D02*
X105147619Y-87830521D01*
X105147619Y-87830521D02*
X105109523Y-87678140D01*
X105109523Y-87678140D02*
X105033333Y-87601950D01*
X105033333Y-87601950D02*
X104957142Y-87563855D01*
X104957142Y-87563855D02*
X104804761Y-87563855D01*
X104804761Y-87563855D02*
X104728571Y-87601950D01*
X104728571Y-87601950D02*
X104652380Y-87678140D01*
X104652380Y-87678140D02*
X104614285Y-87830521D01*
X104614285Y-87830521D02*
X104614285Y-88097188D01*
X104614285Y-88097188D02*
X104652380Y-88249569D01*
X104652380Y-88249569D02*
X104728571Y-88325760D01*
X104728571Y-88325760D02*
X104804761Y-88363855D01*
X104804761Y-88363855D02*
X104957142Y-88363855D01*
X103852381Y-88363855D02*
X104309524Y-88363855D01*
X104080952Y-88363855D02*
X104080952Y-87563855D01*
X104080952Y-87563855D02*
X104157143Y-87678140D01*
X104157143Y-87678140D02*
X104233333Y-87754331D01*
X104233333Y-87754331D02*
X104309524Y-87792426D01*
X89895237Y-106787664D02*
X89933333Y-106825760D01*
X89933333Y-106825760D02*
X90047618Y-106863855D01*
X90047618Y-106863855D02*
X90123809Y-106863855D01*
X90123809Y-106863855D02*
X90238095Y-106825760D01*
X90238095Y-106825760D02*
X90314285Y-106749569D01*
X90314285Y-106749569D02*
X90352380Y-106673379D01*
X90352380Y-106673379D02*
X90390476Y-106520998D01*
X90390476Y-106520998D02*
X90390476Y-106406712D01*
X90390476Y-106406712D02*
X90352380Y-106254331D01*
X90352380Y-106254331D02*
X90314285Y-106178140D01*
X90314285Y-106178140D02*
X90238095Y-106101950D01*
X90238095Y-106101950D02*
X90123809Y-106063855D01*
X90123809Y-106063855D02*
X90047618Y-106063855D01*
X90047618Y-106063855D02*
X89933333Y-106101950D01*
X89933333Y-106101950D02*
X89895237Y-106140045D01*
X89133333Y-106863855D02*
X89590476Y-106863855D01*
X89361904Y-106863855D02*
X89361904Y-106063855D01*
X89361904Y-106063855D02*
X89438095Y-106178140D01*
X89438095Y-106178140D02*
X89514285Y-106254331D01*
X89514285Y-106254331D02*
X89590476Y-106292426D01*
X88638094Y-106063855D02*
X88561904Y-106063855D01*
X88561904Y-106063855D02*
X88485713Y-106101950D01*
X88485713Y-106101950D02*
X88447618Y-106140045D01*
X88447618Y-106140045D02*
X88409523Y-106216236D01*
X88409523Y-106216236D02*
X88371428Y-106368617D01*
X88371428Y-106368617D02*
X88371428Y-106559093D01*
X88371428Y-106559093D02*
X88409523Y-106711474D01*
X88409523Y-106711474D02*
X88447618Y-106787664D01*
X88447618Y-106787664D02*
X88485713Y-106825760D01*
X88485713Y-106825760D02*
X88561904Y-106863855D01*
X88561904Y-106863855D02*
X88638094Y-106863855D01*
X88638094Y-106863855D02*
X88714285Y-106825760D01*
X88714285Y-106825760D02*
X88752380Y-106787664D01*
X88752380Y-106787664D02*
X88790475Y-106711474D01*
X88790475Y-106711474D02*
X88828571Y-106559093D01*
X88828571Y-106559093D02*
X88828571Y-106368617D01*
X88828571Y-106368617D02*
X88790475Y-106216236D01*
X88790475Y-106216236D02*
X88752380Y-106140045D01*
X88752380Y-106140045D02*
X88714285Y-106101950D01*
X88714285Y-106101950D02*
X88638094Y-106063855D01*
X88066666Y-106140045D02*
X88028570Y-106101950D01*
X88028570Y-106101950D02*
X87952380Y-106063855D01*
X87952380Y-106063855D02*
X87761904Y-106063855D01*
X87761904Y-106063855D02*
X87685713Y-106101950D01*
X87685713Y-106101950D02*
X87647618Y-106140045D01*
X87647618Y-106140045D02*
X87609523Y-106216236D01*
X87609523Y-106216236D02*
X87609523Y-106292426D01*
X87609523Y-106292426D02*
X87647618Y-106406712D01*
X87647618Y-106406712D02*
X88104761Y-106863855D01*
X88104761Y-106863855D02*
X87609523Y-106863855D01*
X101514285Y-89363855D02*
X101780952Y-88982902D01*
X101971428Y-89363855D02*
X101971428Y-88563855D01*
X101971428Y-88563855D02*
X101666666Y-88563855D01*
X101666666Y-88563855D02*
X101590476Y-88601950D01*
X101590476Y-88601950D02*
X101552381Y-88640045D01*
X101552381Y-88640045D02*
X101514285Y-88716236D01*
X101514285Y-88716236D02*
X101514285Y-88830521D01*
X101514285Y-88830521D02*
X101552381Y-88906712D01*
X101552381Y-88906712D02*
X101590476Y-88944807D01*
X101590476Y-88944807D02*
X101666666Y-88982902D01*
X101666666Y-88982902D02*
X101971428Y-88982902D01*
X100752381Y-89363855D02*
X101209524Y-89363855D01*
X100980952Y-89363855D02*
X100980952Y-88563855D01*
X100980952Y-88563855D02*
X101057143Y-88678140D01*
X101057143Y-88678140D02*
X101133333Y-88754331D01*
X101133333Y-88754331D02*
X101209524Y-88792426D01*
X100257142Y-88563855D02*
X100180952Y-88563855D01*
X100180952Y-88563855D02*
X100104761Y-88601950D01*
X100104761Y-88601950D02*
X100066666Y-88640045D01*
X100066666Y-88640045D02*
X100028571Y-88716236D01*
X100028571Y-88716236D02*
X99990476Y-88868617D01*
X99990476Y-88868617D02*
X99990476Y-89059093D01*
X99990476Y-89059093D02*
X100028571Y-89211474D01*
X100028571Y-89211474D02*
X100066666Y-89287664D01*
X100066666Y-89287664D02*
X100104761Y-89325760D01*
X100104761Y-89325760D02*
X100180952Y-89363855D01*
X100180952Y-89363855D02*
X100257142Y-89363855D01*
X100257142Y-89363855D02*
X100333333Y-89325760D01*
X100333333Y-89325760D02*
X100371428Y-89287664D01*
X100371428Y-89287664D02*
X100409523Y-89211474D01*
X100409523Y-89211474D02*
X100447619Y-89059093D01*
X100447619Y-89059093D02*
X100447619Y-88868617D01*
X100447619Y-88868617D02*
X100409523Y-88716236D01*
X100409523Y-88716236D02*
X100371428Y-88640045D01*
X100371428Y-88640045D02*
X100333333Y-88601950D01*
X100333333Y-88601950D02*
X100257142Y-88563855D01*
X78866667Y-100322660D02*
X78752381Y-100360755D01*
X78752381Y-100360755D02*
X78561905Y-100360755D01*
X78561905Y-100360755D02*
X78485714Y-100322660D01*
X78485714Y-100322660D02*
X78447619Y-100284564D01*
X78447619Y-100284564D02*
X78409524Y-100208374D01*
X78409524Y-100208374D02*
X78409524Y-100132183D01*
X78409524Y-100132183D02*
X78447619Y-100055993D01*
X78447619Y-100055993D02*
X78485714Y-100017898D01*
X78485714Y-100017898D02*
X78561905Y-99979802D01*
X78561905Y-99979802D02*
X78714286Y-99941707D01*
X78714286Y-99941707D02*
X78790476Y-99903612D01*
X78790476Y-99903612D02*
X78828571Y-99865517D01*
X78828571Y-99865517D02*
X78866667Y-99789326D01*
X78866667Y-99789326D02*
X78866667Y-99713136D01*
X78866667Y-99713136D02*
X78828571Y-99636945D01*
X78828571Y-99636945D02*
X78790476Y-99598850D01*
X78790476Y-99598850D02*
X78714286Y-99560755D01*
X78714286Y-99560755D02*
X78523809Y-99560755D01*
X78523809Y-99560755D02*
X78409524Y-99598850D01*
X78142857Y-99560755D02*
X77952381Y-100360755D01*
X77952381Y-100360755D02*
X77800000Y-99789326D01*
X77800000Y-99789326D02*
X77647619Y-100360755D01*
X77647619Y-100360755D02*
X77457143Y-99560755D01*
X76733333Y-100360755D02*
X77190476Y-100360755D01*
X76961904Y-100360755D02*
X76961904Y-99560755D01*
X76961904Y-99560755D02*
X77038095Y-99675040D01*
X77038095Y-99675040D02*
X77114285Y-99751231D01*
X77114285Y-99751231D02*
X77190476Y-99789326D01*
X101395237Y-87287664D02*
X101433333Y-87325760D01*
X101433333Y-87325760D02*
X101547618Y-87363855D01*
X101547618Y-87363855D02*
X101623809Y-87363855D01*
X101623809Y-87363855D02*
X101738095Y-87325760D01*
X101738095Y-87325760D02*
X101814285Y-87249569D01*
X101814285Y-87249569D02*
X101852380Y-87173379D01*
X101852380Y-87173379D02*
X101890476Y-87020998D01*
X101890476Y-87020998D02*
X101890476Y-86906712D01*
X101890476Y-86906712D02*
X101852380Y-86754331D01*
X101852380Y-86754331D02*
X101814285Y-86678140D01*
X101814285Y-86678140D02*
X101738095Y-86601950D01*
X101738095Y-86601950D02*
X101623809Y-86563855D01*
X101623809Y-86563855D02*
X101547618Y-86563855D01*
X101547618Y-86563855D02*
X101433333Y-86601950D01*
X101433333Y-86601950D02*
X101395237Y-86640045D01*
X100633333Y-87363855D02*
X101090476Y-87363855D01*
X100861904Y-87363855D02*
X100861904Y-86563855D01*
X100861904Y-86563855D02*
X100938095Y-86678140D01*
X100938095Y-86678140D02*
X101014285Y-86754331D01*
X101014285Y-86754331D02*
X101090476Y-86792426D01*
X100138094Y-86563855D02*
X100061904Y-86563855D01*
X100061904Y-86563855D02*
X99985713Y-86601950D01*
X99985713Y-86601950D02*
X99947618Y-86640045D01*
X99947618Y-86640045D02*
X99909523Y-86716236D01*
X99909523Y-86716236D02*
X99871428Y-86868617D01*
X99871428Y-86868617D02*
X99871428Y-87059093D01*
X99871428Y-87059093D02*
X99909523Y-87211474D01*
X99909523Y-87211474D02*
X99947618Y-87287664D01*
X99947618Y-87287664D02*
X99985713Y-87325760D01*
X99985713Y-87325760D02*
X100061904Y-87363855D01*
X100061904Y-87363855D02*
X100138094Y-87363855D01*
X100138094Y-87363855D02*
X100214285Y-87325760D01*
X100214285Y-87325760D02*
X100252380Y-87287664D01*
X100252380Y-87287664D02*
X100290475Y-87211474D01*
X100290475Y-87211474D02*
X100328571Y-87059093D01*
X100328571Y-87059093D02*
X100328571Y-86868617D01*
X100328571Y-86868617D02*
X100290475Y-86716236D01*
X100290475Y-86716236D02*
X100252380Y-86640045D01*
X100252380Y-86640045D02*
X100214285Y-86601950D01*
X100214285Y-86601950D02*
X100138094Y-86563855D01*
X99604761Y-86563855D02*
X99109523Y-86563855D01*
X99109523Y-86563855D02*
X99376189Y-86868617D01*
X99376189Y-86868617D02*
X99261904Y-86868617D01*
X99261904Y-86868617D02*
X99185713Y-86906712D01*
X99185713Y-86906712D02*
X99147618Y-86944807D01*
X99147618Y-86944807D02*
X99109523Y-87020998D01*
X99109523Y-87020998D02*
X99109523Y-87211474D01*
X99109523Y-87211474D02*
X99147618Y-87287664D01*
X99147618Y-87287664D02*
X99185713Y-87325760D01*
X99185713Y-87325760D02*
X99261904Y-87363855D01*
X99261904Y-87363855D02*
X99490475Y-87363855D01*
X99490475Y-87363855D02*
X99566666Y-87325760D01*
X99566666Y-87325760D02*
X99604761Y-87287664D01*
X111514285Y-94363855D02*
X111780952Y-93982902D01*
X111971428Y-94363855D02*
X111971428Y-93563855D01*
X111971428Y-93563855D02*
X111666666Y-93563855D01*
X111666666Y-93563855D02*
X111590476Y-93601950D01*
X111590476Y-93601950D02*
X111552381Y-93640045D01*
X111552381Y-93640045D02*
X111514285Y-93716236D01*
X111514285Y-93716236D02*
X111514285Y-93830521D01*
X111514285Y-93830521D02*
X111552381Y-93906712D01*
X111552381Y-93906712D02*
X111590476Y-93944807D01*
X111590476Y-93944807D02*
X111666666Y-93982902D01*
X111666666Y-93982902D02*
X111971428Y-93982902D01*
X110752381Y-94363855D02*
X111209524Y-94363855D01*
X110980952Y-94363855D02*
X110980952Y-93563855D01*
X110980952Y-93563855D02*
X111057143Y-93678140D01*
X111057143Y-93678140D02*
X111133333Y-93754331D01*
X111133333Y-93754331D02*
X111209524Y-93792426D01*
X109990476Y-94363855D02*
X110447619Y-94363855D01*
X110219047Y-94363855D02*
X110219047Y-93563855D01*
X110219047Y-93563855D02*
X110295238Y-93678140D01*
X110295238Y-93678140D02*
X110371428Y-93754331D01*
X110371428Y-93754331D02*
X110447619Y-93792426D01*
X95800366Y-78954455D02*
X95800366Y-79525883D01*
X95800366Y-79525883D02*
X95838461Y-79640169D01*
X95838461Y-79640169D02*
X95914652Y-79716360D01*
X95914652Y-79716360D02*
X96028937Y-79754455D01*
X96028937Y-79754455D02*
X96105128Y-79754455D01*
X95457509Y-79030645D02*
X95419413Y-78992550D01*
X95419413Y-78992550D02*
X95343223Y-78954455D01*
X95343223Y-78954455D02*
X95152747Y-78954455D01*
X95152747Y-78954455D02*
X95076556Y-78992550D01*
X95076556Y-78992550D02*
X95038461Y-79030645D01*
X95038461Y-79030645D02*
X95000366Y-79106836D01*
X95000366Y-79106836D02*
X95000366Y-79183026D01*
X95000366Y-79183026D02*
X95038461Y-79297312D01*
X95038461Y-79297312D02*
X95495604Y-79754455D01*
X95495604Y-79754455D02*
X95000366Y-79754455D01*
X96031132Y-88374164D02*
X96069228Y-88412260D01*
X96069228Y-88412260D02*
X96183513Y-88450355D01*
X96183513Y-88450355D02*
X96259704Y-88450355D01*
X96259704Y-88450355D02*
X96373990Y-88412260D01*
X96373990Y-88412260D02*
X96450180Y-88336069D01*
X96450180Y-88336069D02*
X96488275Y-88259879D01*
X96488275Y-88259879D02*
X96526371Y-88107498D01*
X96526371Y-88107498D02*
X96526371Y-87993212D01*
X96526371Y-87993212D02*
X96488275Y-87840831D01*
X96488275Y-87840831D02*
X96450180Y-87764640D01*
X96450180Y-87764640D02*
X96373990Y-87688450D01*
X96373990Y-87688450D02*
X96259704Y-87650355D01*
X96259704Y-87650355D02*
X96183513Y-87650355D01*
X96183513Y-87650355D02*
X96069228Y-87688450D01*
X96069228Y-87688450D02*
X96031132Y-87726545D01*
X95764466Y-87650355D02*
X95231132Y-87650355D01*
X95231132Y-87650355D02*
X95573990Y-88450355D01*
X116633332Y-116363855D02*
X116899999Y-115982902D01*
X117090475Y-116363855D02*
X117090475Y-115563855D01*
X117090475Y-115563855D02*
X116785713Y-115563855D01*
X116785713Y-115563855D02*
X116709523Y-115601950D01*
X116709523Y-115601950D02*
X116671428Y-115640045D01*
X116671428Y-115640045D02*
X116633332Y-115716236D01*
X116633332Y-115716236D02*
X116633332Y-115830521D01*
X116633332Y-115830521D02*
X116671428Y-115906712D01*
X116671428Y-115906712D02*
X116709523Y-115944807D01*
X116709523Y-115944807D02*
X116785713Y-115982902D01*
X116785713Y-115982902D02*
X117090475Y-115982902D01*
X116252380Y-116363855D02*
X116099999Y-116363855D01*
X116099999Y-116363855D02*
X116023809Y-116325760D01*
X116023809Y-116325760D02*
X115985713Y-116287664D01*
X115985713Y-116287664D02*
X115909523Y-116173379D01*
X115909523Y-116173379D02*
X115871428Y-116020998D01*
X115871428Y-116020998D02*
X115871428Y-115716236D01*
X115871428Y-115716236D02*
X115909523Y-115640045D01*
X115909523Y-115640045D02*
X115947618Y-115601950D01*
X115947618Y-115601950D02*
X116023809Y-115563855D01*
X116023809Y-115563855D02*
X116176190Y-115563855D01*
X116176190Y-115563855D02*
X116252380Y-115601950D01*
X116252380Y-115601950D02*
X116290475Y-115640045D01*
X116290475Y-115640045D02*
X116328571Y-115716236D01*
X116328571Y-115716236D02*
X116328571Y-115906712D01*
X116328571Y-115906712D02*
X116290475Y-115982902D01*
X116290475Y-115982902D02*
X116252380Y-116020998D01*
X116252380Y-116020998D02*
X116176190Y-116059093D01*
X116176190Y-116059093D02*
X116023809Y-116059093D01*
X116023809Y-116059093D02*
X115947618Y-116020998D01*
X115947618Y-116020998D02*
X115909523Y-115982902D01*
X115909523Y-115982902D02*
X115871428Y-115906712D01*
X96264285Y-84287664D02*
X96302381Y-84325760D01*
X96302381Y-84325760D02*
X96416666Y-84363855D01*
X96416666Y-84363855D02*
X96492857Y-84363855D01*
X96492857Y-84363855D02*
X96607143Y-84325760D01*
X96607143Y-84325760D02*
X96683333Y-84249569D01*
X96683333Y-84249569D02*
X96721428Y-84173379D01*
X96721428Y-84173379D02*
X96759524Y-84020998D01*
X96759524Y-84020998D02*
X96759524Y-83906712D01*
X96759524Y-83906712D02*
X96721428Y-83754331D01*
X96721428Y-83754331D02*
X96683333Y-83678140D01*
X96683333Y-83678140D02*
X96607143Y-83601950D01*
X96607143Y-83601950D02*
X96492857Y-83563855D01*
X96492857Y-83563855D02*
X96416666Y-83563855D01*
X96416666Y-83563855D02*
X96302381Y-83601950D01*
X96302381Y-83601950D02*
X96264285Y-83640045D01*
X95502381Y-84363855D02*
X95959524Y-84363855D01*
X95730952Y-84363855D02*
X95730952Y-83563855D01*
X95730952Y-83563855D02*
X95807143Y-83678140D01*
X95807143Y-83678140D02*
X95883333Y-83754331D01*
X95883333Y-83754331D02*
X95959524Y-83792426D01*
X95007142Y-83563855D02*
X94930952Y-83563855D01*
X94930952Y-83563855D02*
X94854761Y-83601950D01*
X94854761Y-83601950D02*
X94816666Y-83640045D01*
X94816666Y-83640045D02*
X94778571Y-83716236D01*
X94778571Y-83716236D02*
X94740476Y-83868617D01*
X94740476Y-83868617D02*
X94740476Y-84059093D01*
X94740476Y-84059093D02*
X94778571Y-84211474D01*
X94778571Y-84211474D02*
X94816666Y-84287664D01*
X94816666Y-84287664D02*
X94854761Y-84325760D01*
X94854761Y-84325760D02*
X94930952Y-84363855D01*
X94930952Y-84363855D02*
X95007142Y-84363855D01*
X95007142Y-84363855D02*
X95083333Y-84325760D01*
X95083333Y-84325760D02*
X95121428Y-84287664D01*
X95121428Y-84287664D02*
X95159523Y-84211474D01*
X95159523Y-84211474D02*
X95197619Y-84059093D01*
X95197619Y-84059093D02*
X95197619Y-83868617D01*
X95197619Y-83868617D02*
X95159523Y-83716236D01*
X95159523Y-83716236D02*
X95121428Y-83640045D01*
X95121428Y-83640045D02*
X95083333Y-83601950D01*
X95083333Y-83601950D02*
X95007142Y-83563855D01*
X86443866Y-81177455D02*
X86443866Y-81748883D01*
X86443866Y-81748883D02*
X86481961Y-81863169D01*
X86481961Y-81863169D02*
X86558152Y-81939360D01*
X86558152Y-81939360D02*
X86672437Y-81977455D01*
X86672437Y-81977455D02*
X86748628Y-81977455D01*
X86139104Y-81177455D02*
X85643866Y-81177455D01*
X85643866Y-81177455D02*
X85910532Y-81482217D01*
X85910532Y-81482217D02*
X85796247Y-81482217D01*
X85796247Y-81482217D02*
X85720056Y-81520312D01*
X85720056Y-81520312D02*
X85681961Y-81558407D01*
X85681961Y-81558407D02*
X85643866Y-81634598D01*
X85643866Y-81634598D02*
X85643866Y-81825074D01*
X85643866Y-81825074D02*
X85681961Y-81901264D01*
X85681961Y-81901264D02*
X85720056Y-81939360D01*
X85720056Y-81939360D02*
X85796247Y-81977455D01*
X85796247Y-81977455D02*
X86024818Y-81977455D01*
X86024818Y-81977455D02*
X86101009Y-81939360D01*
X86101009Y-81939360D02*
X86139104Y-81901264D01*
X108514285Y-115863855D02*
X108780952Y-115482902D01*
X108971428Y-115863855D02*
X108971428Y-115063855D01*
X108971428Y-115063855D02*
X108666666Y-115063855D01*
X108666666Y-115063855D02*
X108590476Y-115101950D01*
X108590476Y-115101950D02*
X108552381Y-115140045D01*
X108552381Y-115140045D02*
X108514285Y-115216236D01*
X108514285Y-115216236D02*
X108514285Y-115330521D01*
X108514285Y-115330521D02*
X108552381Y-115406712D01*
X108552381Y-115406712D02*
X108590476Y-115444807D01*
X108590476Y-115444807D02*
X108666666Y-115482902D01*
X108666666Y-115482902D02*
X108971428Y-115482902D01*
X107752381Y-115863855D02*
X108209524Y-115863855D01*
X107980952Y-115863855D02*
X107980952Y-115063855D01*
X107980952Y-115063855D02*
X108057143Y-115178140D01*
X108057143Y-115178140D02*
X108133333Y-115254331D01*
X108133333Y-115254331D02*
X108209524Y-115292426D01*
X107295238Y-115406712D02*
X107371428Y-115368617D01*
X107371428Y-115368617D02*
X107409523Y-115330521D01*
X107409523Y-115330521D02*
X107447619Y-115254331D01*
X107447619Y-115254331D02*
X107447619Y-115216236D01*
X107447619Y-115216236D02*
X107409523Y-115140045D01*
X107409523Y-115140045D02*
X107371428Y-115101950D01*
X107371428Y-115101950D02*
X107295238Y-115063855D01*
X107295238Y-115063855D02*
X107142857Y-115063855D01*
X107142857Y-115063855D02*
X107066666Y-115101950D01*
X107066666Y-115101950D02*
X107028571Y-115140045D01*
X107028571Y-115140045D02*
X106990476Y-115216236D01*
X106990476Y-115216236D02*
X106990476Y-115254331D01*
X106990476Y-115254331D02*
X107028571Y-115330521D01*
X107028571Y-115330521D02*
X107066666Y-115368617D01*
X107066666Y-115368617D02*
X107142857Y-115406712D01*
X107142857Y-115406712D02*
X107295238Y-115406712D01*
X107295238Y-115406712D02*
X107371428Y-115444807D01*
X107371428Y-115444807D02*
X107409523Y-115482902D01*
X107409523Y-115482902D02*
X107447619Y-115559093D01*
X107447619Y-115559093D02*
X107447619Y-115711474D01*
X107447619Y-115711474D02*
X107409523Y-115787664D01*
X107409523Y-115787664D02*
X107371428Y-115825760D01*
X107371428Y-115825760D02*
X107295238Y-115863855D01*
X107295238Y-115863855D02*
X107142857Y-115863855D01*
X107142857Y-115863855D02*
X107066666Y-115825760D01*
X107066666Y-115825760D02*
X107028571Y-115787664D01*
X107028571Y-115787664D02*
X106990476Y-115711474D01*
X106990476Y-115711474D02*
X106990476Y-115559093D01*
X106990476Y-115559093D02*
X107028571Y-115482902D01*
X107028571Y-115482902D02*
X107066666Y-115444807D01*
X107066666Y-115444807D02*
X107142857Y-115406712D01*
X85650584Y-108475553D02*
X85650584Y-107675553D01*
X85650584Y-107675553D02*
X85460108Y-107675553D01*
X85460108Y-107675553D02*
X85345822Y-107713648D01*
X85345822Y-107713648D02*
X85269632Y-107789838D01*
X85269632Y-107789838D02*
X85231537Y-107866029D01*
X85231537Y-107866029D02*
X85193441Y-108018410D01*
X85193441Y-108018410D02*
X85193441Y-108132696D01*
X85193441Y-108132696D02*
X85231537Y-108285077D01*
X85231537Y-108285077D02*
X85269632Y-108361267D01*
X85269632Y-108361267D02*
X85345822Y-108437458D01*
X85345822Y-108437458D02*
X85460108Y-108475553D01*
X85460108Y-108475553D02*
X85650584Y-108475553D01*
X84926775Y-107675553D02*
X84431537Y-107675553D01*
X84431537Y-107675553D02*
X84698203Y-107980315D01*
X84698203Y-107980315D02*
X84583918Y-107980315D01*
X84583918Y-107980315D02*
X84507727Y-108018410D01*
X84507727Y-108018410D02*
X84469632Y-108056505D01*
X84469632Y-108056505D02*
X84431537Y-108132696D01*
X84431537Y-108132696D02*
X84431537Y-108323172D01*
X84431537Y-108323172D02*
X84469632Y-108399362D01*
X84469632Y-108399362D02*
X84507727Y-108437458D01*
X84507727Y-108437458D02*
X84583918Y-108475553D01*
X84583918Y-108475553D02*
X84812489Y-108475553D01*
X84812489Y-108475553D02*
X84888680Y-108437458D01*
X84888680Y-108437458D02*
X84926775Y-108399362D01*
X90383332Y-98863855D02*
X90649999Y-98482902D01*
X90840475Y-98863855D02*
X90840475Y-98063855D01*
X90840475Y-98063855D02*
X90535713Y-98063855D01*
X90535713Y-98063855D02*
X90459523Y-98101950D01*
X90459523Y-98101950D02*
X90421428Y-98140045D01*
X90421428Y-98140045D02*
X90383332Y-98216236D01*
X90383332Y-98216236D02*
X90383332Y-98330521D01*
X90383332Y-98330521D02*
X90421428Y-98406712D01*
X90421428Y-98406712D02*
X90459523Y-98444807D01*
X90459523Y-98444807D02*
X90535713Y-98482902D01*
X90535713Y-98482902D02*
X90840475Y-98482902D01*
X90116666Y-98063855D02*
X89583332Y-98063855D01*
X89583332Y-98063855D02*
X89926190Y-98863855D01*
X111514285Y-101863855D02*
X111780952Y-101482902D01*
X111971428Y-101863855D02*
X111971428Y-101063855D01*
X111971428Y-101063855D02*
X111666666Y-101063855D01*
X111666666Y-101063855D02*
X111590476Y-101101950D01*
X111590476Y-101101950D02*
X111552381Y-101140045D01*
X111552381Y-101140045D02*
X111514285Y-101216236D01*
X111514285Y-101216236D02*
X111514285Y-101330521D01*
X111514285Y-101330521D02*
X111552381Y-101406712D01*
X111552381Y-101406712D02*
X111590476Y-101444807D01*
X111590476Y-101444807D02*
X111666666Y-101482902D01*
X111666666Y-101482902D02*
X111971428Y-101482902D01*
X110752381Y-101863855D02*
X111209524Y-101863855D01*
X110980952Y-101863855D02*
X110980952Y-101063855D01*
X110980952Y-101063855D02*
X111057143Y-101178140D01*
X111057143Y-101178140D02*
X111133333Y-101254331D01*
X111133333Y-101254331D02*
X111209524Y-101292426D01*
X110066666Y-101063855D02*
X110219047Y-101063855D01*
X110219047Y-101063855D02*
X110295238Y-101101950D01*
X110295238Y-101101950D02*
X110333333Y-101140045D01*
X110333333Y-101140045D02*
X110409523Y-101254331D01*
X110409523Y-101254331D02*
X110447619Y-101406712D01*
X110447619Y-101406712D02*
X110447619Y-101711474D01*
X110447619Y-101711474D02*
X110409523Y-101787664D01*
X110409523Y-101787664D02*
X110371428Y-101825760D01*
X110371428Y-101825760D02*
X110295238Y-101863855D01*
X110295238Y-101863855D02*
X110142857Y-101863855D01*
X110142857Y-101863855D02*
X110066666Y-101825760D01*
X110066666Y-101825760D02*
X110028571Y-101787664D01*
X110028571Y-101787664D02*
X109990476Y-101711474D01*
X109990476Y-101711474D02*
X109990476Y-101520998D01*
X109990476Y-101520998D02*
X110028571Y-101444807D01*
X110028571Y-101444807D02*
X110066666Y-101406712D01*
X110066666Y-101406712D02*
X110142857Y-101368617D01*
X110142857Y-101368617D02*
X110295238Y-101368617D01*
X110295238Y-101368617D02*
X110371428Y-101406712D01*
X110371428Y-101406712D02*
X110409523Y-101444807D01*
X110409523Y-101444807D02*
X110447619Y-101520998D01*
X118895237Y-88787664D02*
X118933333Y-88825760D01*
X118933333Y-88825760D02*
X119047618Y-88863855D01*
X119047618Y-88863855D02*
X119123809Y-88863855D01*
X119123809Y-88863855D02*
X119238095Y-88825760D01*
X119238095Y-88825760D02*
X119314285Y-88749569D01*
X119314285Y-88749569D02*
X119352380Y-88673379D01*
X119352380Y-88673379D02*
X119390476Y-88520998D01*
X119390476Y-88520998D02*
X119390476Y-88406712D01*
X119390476Y-88406712D02*
X119352380Y-88254331D01*
X119352380Y-88254331D02*
X119314285Y-88178140D01*
X119314285Y-88178140D02*
X119238095Y-88101950D01*
X119238095Y-88101950D02*
X119123809Y-88063855D01*
X119123809Y-88063855D02*
X119047618Y-88063855D01*
X119047618Y-88063855D02*
X118933333Y-88101950D01*
X118933333Y-88101950D02*
X118895237Y-88140045D01*
X118133333Y-88863855D02*
X118590476Y-88863855D01*
X118361904Y-88863855D02*
X118361904Y-88063855D01*
X118361904Y-88063855D02*
X118438095Y-88178140D01*
X118438095Y-88178140D02*
X118514285Y-88254331D01*
X118514285Y-88254331D02*
X118590476Y-88292426D01*
X117638094Y-88063855D02*
X117561904Y-88063855D01*
X117561904Y-88063855D02*
X117485713Y-88101950D01*
X117485713Y-88101950D02*
X117447618Y-88140045D01*
X117447618Y-88140045D02*
X117409523Y-88216236D01*
X117409523Y-88216236D02*
X117371428Y-88368617D01*
X117371428Y-88368617D02*
X117371428Y-88559093D01*
X117371428Y-88559093D02*
X117409523Y-88711474D01*
X117409523Y-88711474D02*
X117447618Y-88787664D01*
X117447618Y-88787664D02*
X117485713Y-88825760D01*
X117485713Y-88825760D02*
X117561904Y-88863855D01*
X117561904Y-88863855D02*
X117638094Y-88863855D01*
X117638094Y-88863855D02*
X117714285Y-88825760D01*
X117714285Y-88825760D02*
X117752380Y-88787664D01*
X117752380Y-88787664D02*
X117790475Y-88711474D01*
X117790475Y-88711474D02*
X117828571Y-88559093D01*
X117828571Y-88559093D02*
X117828571Y-88368617D01*
X117828571Y-88368617D02*
X117790475Y-88216236D01*
X117790475Y-88216236D02*
X117752380Y-88140045D01*
X117752380Y-88140045D02*
X117714285Y-88101950D01*
X117714285Y-88101950D02*
X117638094Y-88063855D01*
X116685713Y-88330521D02*
X116685713Y-88863855D01*
X116876189Y-88025760D02*
X117066666Y-88597188D01*
X117066666Y-88597188D02*
X116571427Y-88597188D01*
X110609523Y-85563855D02*
X110609523Y-86211474D01*
X110609523Y-86211474D02*
X110571428Y-86287664D01*
X110571428Y-86287664D02*
X110533333Y-86325760D01*
X110533333Y-86325760D02*
X110457142Y-86363855D01*
X110457142Y-86363855D02*
X110304761Y-86363855D01*
X110304761Y-86363855D02*
X110228571Y-86325760D01*
X110228571Y-86325760D02*
X110190476Y-86287664D01*
X110190476Y-86287664D02*
X110152380Y-86211474D01*
X110152380Y-86211474D02*
X110152380Y-85563855D01*
X109847619Y-85563855D02*
X109352381Y-85563855D01*
X109352381Y-85563855D02*
X109619047Y-85868617D01*
X109619047Y-85868617D02*
X109504762Y-85868617D01*
X109504762Y-85868617D02*
X109428571Y-85906712D01*
X109428571Y-85906712D02*
X109390476Y-85944807D01*
X109390476Y-85944807D02*
X109352381Y-86020998D01*
X109352381Y-86020998D02*
X109352381Y-86211474D01*
X109352381Y-86211474D02*
X109390476Y-86287664D01*
X109390476Y-86287664D02*
X109428571Y-86325760D01*
X109428571Y-86325760D02*
X109504762Y-86363855D01*
X109504762Y-86363855D02*
X109733333Y-86363855D01*
X109733333Y-86363855D02*
X109809524Y-86325760D01*
X109809524Y-86325760D02*
X109847619Y-86287664D01*
X118895237Y-111787664D02*
X118933333Y-111825760D01*
X118933333Y-111825760D02*
X119047618Y-111863855D01*
X119047618Y-111863855D02*
X119123809Y-111863855D01*
X119123809Y-111863855D02*
X119238095Y-111825760D01*
X119238095Y-111825760D02*
X119314285Y-111749569D01*
X119314285Y-111749569D02*
X119352380Y-111673379D01*
X119352380Y-111673379D02*
X119390476Y-111520998D01*
X119390476Y-111520998D02*
X119390476Y-111406712D01*
X119390476Y-111406712D02*
X119352380Y-111254331D01*
X119352380Y-111254331D02*
X119314285Y-111178140D01*
X119314285Y-111178140D02*
X119238095Y-111101950D01*
X119238095Y-111101950D02*
X119123809Y-111063855D01*
X119123809Y-111063855D02*
X119047618Y-111063855D01*
X119047618Y-111063855D02*
X118933333Y-111101950D01*
X118933333Y-111101950D02*
X118895237Y-111140045D01*
X118133333Y-111863855D02*
X118590476Y-111863855D01*
X118361904Y-111863855D02*
X118361904Y-111063855D01*
X118361904Y-111063855D02*
X118438095Y-111178140D01*
X118438095Y-111178140D02*
X118514285Y-111254331D01*
X118514285Y-111254331D02*
X118590476Y-111292426D01*
X117638094Y-111063855D02*
X117561904Y-111063855D01*
X117561904Y-111063855D02*
X117485713Y-111101950D01*
X117485713Y-111101950D02*
X117447618Y-111140045D01*
X117447618Y-111140045D02*
X117409523Y-111216236D01*
X117409523Y-111216236D02*
X117371428Y-111368617D01*
X117371428Y-111368617D02*
X117371428Y-111559093D01*
X117371428Y-111559093D02*
X117409523Y-111711474D01*
X117409523Y-111711474D02*
X117447618Y-111787664D01*
X117447618Y-111787664D02*
X117485713Y-111825760D01*
X117485713Y-111825760D02*
X117561904Y-111863855D01*
X117561904Y-111863855D02*
X117638094Y-111863855D01*
X117638094Y-111863855D02*
X117714285Y-111825760D01*
X117714285Y-111825760D02*
X117752380Y-111787664D01*
X117752380Y-111787664D02*
X117790475Y-111711474D01*
X117790475Y-111711474D02*
X117828571Y-111559093D01*
X117828571Y-111559093D02*
X117828571Y-111368617D01*
X117828571Y-111368617D02*
X117790475Y-111216236D01*
X117790475Y-111216236D02*
X117752380Y-111140045D01*
X117752380Y-111140045D02*
X117714285Y-111101950D01*
X117714285Y-111101950D02*
X117638094Y-111063855D01*
X116609523Y-111863855D02*
X117066666Y-111863855D01*
X116838094Y-111863855D02*
X116838094Y-111063855D01*
X116838094Y-111063855D02*
X116914285Y-111178140D01*
X116914285Y-111178140D02*
X116990475Y-111254331D01*
X116990475Y-111254331D02*
X117066666Y-111292426D01*
X79960167Y-107207460D02*
X79845881Y-107245555D01*
X79845881Y-107245555D02*
X79655405Y-107245555D01*
X79655405Y-107245555D02*
X79579214Y-107207460D01*
X79579214Y-107207460D02*
X79541119Y-107169364D01*
X79541119Y-107169364D02*
X79503024Y-107093174D01*
X79503024Y-107093174D02*
X79503024Y-107016983D01*
X79503024Y-107016983D02*
X79541119Y-106940793D01*
X79541119Y-106940793D02*
X79579214Y-106902698D01*
X79579214Y-106902698D02*
X79655405Y-106864602D01*
X79655405Y-106864602D02*
X79807786Y-106826507D01*
X79807786Y-106826507D02*
X79883976Y-106788412D01*
X79883976Y-106788412D02*
X79922071Y-106750317D01*
X79922071Y-106750317D02*
X79960167Y-106674126D01*
X79960167Y-106674126D02*
X79960167Y-106597936D01*
X79960167Y-106597936D02*
X79922071Y-106521745D01*
X79922071Y-106521745D02*
X79883976Y-106483650D01*
X79883976Y-106483650D02*
X79807786Y-106445555D01*
X79807786Y-106445555D02*
X79617309Y-106445555D01*
X79617309Y-106445555D02*
X79503024Y-106483650D01*
X79236357Y-106445555D02*
X79045881Y-107245555D01*
X79045881Y-107245555D02*
X78893500Y-106674126D01*
X78893500Y-106674126D02*
X78741119Y-107245555D01*
X78741119Y-107245555D02*
X78550643Y-106445555D01*
X78322071Y-106445555D02*
X77826833Y-106445555D01*
X77826833Y-106445555D02*
X78093499Y-106750317D01*
X78093499Y-106750317D02*
X77979214Y-106750317D01*
X77979214Y-106750317D02*
X77903023Y-106788412D01*
X77903023Y-106788412D02*
X77864928Y-106826507D01*
X77864928Y-106826507D02*
X77826833Y-106902698D01*
X77826833Y-106902698D02*
X77826833Y-107093174D01*
X77826833Y-107093174D02*
X77864928Y-107169364D01*
X77864928Y-107169364D02*
X77903023Y-107207460D01*
X77903023Y-107207460D02*
X77979214Y-107245555D01*
X77979214Y-107245555D02*
X78207785Y-107245555D01*
X78207785Y-107245555D02*
X78283976Y-107207460D01*
X78283976Y-107207460D02*
X78322071Y-107169364D01*
X121109523Y-108563855D02*
X121109523Y-109211474D01*
X121109523Y-109211474D02*
X121071428Y-109287664D01*
X121071428Y-109287664D02*
X121033333Y-109325760D01*
X121033333Y-109325760D02*
X120957142Y-109363855D01*
X120957142Y-109363855D02*
X120804761Y-109363855D01*
X120804761Y-109363855D02*
X120728571Y-109325760D01*
X120728571Y-109325760D02*
X120690476Y-109287664D01*
X120690476Y-109287664D02*
X120652380Y-109211474D01*
X120652380Y-109211474D02*
X120652380Y-108563855D01*
X119928571Y-108563855D02*
X120080952Y-108563855D01*
X120080952Y-108563855D02*
X120157143Y-108601950D01*
X120157143Y-108601950D02*
X120195238Y-108640045D01*
X120195238Y-108640045D02*
X120271428Y-108754331D01*
X120271428Y-108754331D02*
X120309524Y-108906712D01*
X120309524Y-108906712D02*
X120309524Y-109211474D01*
X120309524Y-109211474D02*
X120271428Y-109287664D01*
X120271428Y-109287664D02*
X120233333Y-109325760D01*
X120233333Y-109325760D02*
X120157143Y-109363855D01*
X120157143Y-109363855D02*
X120004762Y-109363855D01*
X120004762Y-109363855D02*
X119928571Y-109325760D01*
X119928571Y-109325760D02*
X119890476Y-109287664D01*
X119890476Y-109287664D02*
X119852381Y-109211474D01*
X119852381Y-109211474D02*
X119852381Y-109020998D01*
X119852381Y-109020998D02*
X119890476Y-108944807D01*
X119890476Y-108944807D02*
X119928571Y-108906712D01*
X119928571Y-108906712D02*
X120004762Y-108868617D01*
X120004762Y-108868617D02*
X120157143Y-108868617D01*
X120157143Y-108868617D02*
X120233333Y-108906712D01*
X120233333Y-108906712D02*
X120271428Y-108944807D01*
X120271428Y-108944807D02*
X120309524Y-109020998D01*
X111731732Y-105287055D02*
X111998399Y-104906102D01*
X112188875Y-105287055D02*
X112188875Y-104487055D01*
X112188875Y-104487055D02*
X111884113Y-104487055D01*
X111884113Y-104487055D02*
X111807923Y-104525150D01*
X111807923Y-104525150D02*
X111769828Y-104563245D01*
X111769828Y-104563245D02*
X111731732Y-104639436D01*
X111731732Y-104639436D02*
X111731732Y-104753721D01*
X111731732Y-104753721D02*
X111769828Y-104829912D01*
X111769828Y-104829912D02*
X111807923Y-104868007D01*
X111807923Y-104868007D02*
X111884113Y-104906102D01*
X111884113Y-104906102D02*
X112188875Y-104906102D01*
X111046018Y-104487055D02*
X111198399Y-104487055D01*
X111198399Y-104487055D02*
X111274590Y-104525150D01*
X111274590Y-104525150D02*
X111312685Y-104563245D01*
X111312685Y-104563245D02*
X111388875Y-104677531D01*
X111388875Y-104677531D02*
X111426971Y-104829912D01*
X111426971Y-104829912D02*
X111426971Y-105134674D01*
X111426971Y-105134674D02*
X111388875Y-105210864D01*
X111388875Y-105210864D02*
X111350780Y-105248960D01*
X111350780Y-105248960D02*
X111274590Y-105287055D01*
X111274590Y-105287055D02*
X111122209Y-105287055D01*
X111122209Y-105287055D02*
X111046018Y-105248960D01*
X111046018Y-105248960D02*
X111007923Y-105210864D01*
X111007923Y-105210864D02*
X110969828Y-105134674D01*
X110969828Y-105134674D02*
X110969828Y-104944198D01*
X110969828Y-104944198D02*
X111007923Y-104868007D01*
X111007923Y-104868007D02*
X111046018Y-104829912D01*
X111046018Y-104829912D02*
X111122209Y-104791817D01*
X111122209Y-104791817D02*
X111274590Y-104791817D01*
X111274590Y-104791817D02*
X111350780Y-104829912D01*
X111350780Y-104829912D02*
X111388875Y-104868007D01*
X111388875Y-104868007D02*
X111426971Y-104944198D01*
X115238170Y-91735702D02*
X115238170Y-90935702D01*
X115238170Y-90935702D02*
X115047694Y-90935702D01*
X115047694Y-90935702D02*
X114933408Y-90973797D01*
X114933408Y-90973797D02*
X114857218Y-91049987D01*
X114857218Y-91049987D02*
X114819123Y-91126178D01*
X114819123Y-91126178D02*
X114781027Y-91278559D01*
X114781027Y-91278559D02*
X114781027Y-91392845D01*
X114781027Y-91392845D02*
X114819123Y-91545226D01*
X114819123Y-91545226D02*
X114857218Y-91621416D01*
X114857218Y-91621416D02*
X114933408Y-91697607D01*
X114933408Y-91697607D02*
X115047694Y-91735702D01*
X115047694Y-91735702D02*
X115238170Y-91735702D01*
X114095313Y-90935702D02*
X114247694Y-90935702D01*
X114247694Y-90935702D02*
X114323885Y-90973797D01*
X114323885Y-90973797D02*
X114361980Y-91011892D01*
X114361980Y-91011892D02*
X114438170Y-91126178D01*
X114438170Y-91126178D02*
X114476266Y-91278559D01*
X114476266Y-91278559D02*
X114476266Y-91583321D01*
X114476266Y-91583321D02*
X114438170Y-91659511D01*
X114438170Y-91659511D02*
X114400075Y-91697607D01*
X114400075Y-91697607D02*
X114323885Y-91735702D01*
X114323885Y-91735702D02*
X114171504Y-91735702D01*
X114171504Y-91735702D02*
X114095313Y-91697607D01*
X114095313Y-91697607D02*
X114057218Y-91659511D01*
X114057218Y-91659511D02*
X114019123Y-91583321D01*
X114019123Y-91583321D02*
X114019123Y-91392845D01*
X114019123Y-91392845D02*
X114057218Y-91316654D01*
X114057218Y-91316654D02*
X114095313Y-91278559D01*
X114095313Y-91278559D02*
X114171504Y-91240464D01*
X114171504Y-91240464D02*
X114323885Y-91240464D01*
X114323885Y-91240464D02*
X114400075Y-91278559D01*
X114400075Y-91278559D02*
X114438170Y-91316654D01*
X114438170Y-91316654D02*
X114476266Y-91392845D01*
X78972823Y-97066355D02*
X78972823Y-96266355D01*
X78972823Y-96647307D02*
X78515680Y-96647307D01*
X78515680Y-97066355D02*
X78515680Y-96266355D01*
X78172824Y-96342545D02*
X78134728Y-96304450D01*
X78134728Y-96304450D02*
X78058538Y-96266355D01*
X78058538Y-96266355D02*
X77868062Y-96266355D01*
X77868062Y-96266355D02*
X77791871Y-96304450D01*
X77791871Y-96304450D02*
X77753776Y-96342545D01*
X77753776Y-96342545D02*
X77715681Y-96418736D01*
X77715681Y-96418736D02*
X77715681Y-96494926D01*
X77715681Y-96494926D02*
X77753776Y-96609212D01*
X77753776Y-96609212D02*
X78210919Y-97066355D01*
X78210919Y-97066355D02*
X77715681Y-97066355D01*
X121609523Y-92063855D02*
X121609523Y-92711474D01*
X121609523Y-92711474D02*
X121571428Y-92787664D01*
X121571428Y-92787664D02*
X121533333Y-92825760D01*
X121533333Y-92825760D02*
X121457142Y-92863855D01*
X121457142Y-92863855D02*
X121304761Y-92863855D01*
X121304761Y-92863855D02*
X121228571Y-92825760D01*
X121228571Y-92825760D02*
X121190476Y-92787664D01*
X121190476Y-92787664D02*
X121152380Y-92711474D01*
X121152380Y-92711474D02*
X121152380Y-92063855D01*
X120428571Y-92330521D02*
X120428571Y-92863855D01*
X120619047Y-92025760D02*
X120809524Y-92597188D01*
X120809524Y-92597188D02*
X120314285Y-92597188D01*
X103907023Y-122000555D02*
X103907023Y-121200555D01*
X103907023Y-121581507D02*
X103449880Y-121581507D01*
X103449880Y-122000555D02*
X103449880Y-121200555D01*
X103145119Y-121200555D02*
X102649881Y-121200555D01*
X102649881Y-121200555D02*
X102916547Y-121505317D01*
X102916547Y-121505317D02*
X102802262Y-121505317D01*
X102802262Y-121505317D02*
X102726071Y-121543412D01*
X102726071Y-121543412D02*
X102687976Y-121581507D01*
X102687976Y-121581507D02*
X102649881Y-121657698D01*
X102649881Y-121657698D02*
X102649881Y-121848174D01*
X102649881Y-121848174D02*
X102687976Y-121924364D01*
X102687976Y-121924364D02*
X102726071Y-121962460D01*
X102726071Y-121962460D02*
X102802262Y-122000555D01*
X102802262Y-122000555D02*
X103030833Y-122000555D01*
X103030833Y-122000555D02*
X103107024Y-121962460D01*
X103107024Y-121962460D02*
X103145119Y-121924364D01*
X108076190Y-112940045D02*
X108152380Y-112901950D01*
X108152380Y-112901950D02*
X108228571Y-112825760D01*
X108228571Y-112825760D02*
X108342857Y-112711474D01*
X108342857Y-112711474D02*
X108419047Y-112673379D01*
X108419047Y-112673379D02*
X108495238Y-112673379D01*
X108457142Y-112863855D02*
X108533333Y-112825760D01*
X108533333Y-112825760D02*
X108609523Y-112749569D01*
X108609523Y-112749569D02*
X108647619Y-112597188D01*
X108647619Y-112597188D02*
X108647619Y-112330521D01*
X108647619Y-112330521D02*
X108609523Y-112178140D01*
X108609523Y-112178140D02*
X108533333Y-112101950D01*
X108533333Y-112101950D02*
X108457142Y-112063855D01*
X108457142Y-112063855D02*
X108304761Y-112063855D01*
X108304761Y-112063855D02*
X108228571Y-112101950D01*
X108228571Y-112101950D02*
X108152380Y-112178140D01*
X108152380Y-112178140D02*
X108114285Y-112330521D01*
X108114285Y-112330521D02*
X108114285Y-112597188D01*
X108114285Y-112597188D02*
X108152380Y-112749569D01*
X108152380Y-112749569D02*
X108228571Y-112825760D01*
X108228571Y-112825760D02*
X108304761Y-112863855D01*
X108304761Y-112863855D02*
X108457142Y-112863855D01*
X107809524Y-112140045D02*
X107771428Y-112101950D01*
X107771428Y-112101950D02*
X107695238Y-112063855D01*
X107695238Y-112063855D02*
X107504762Y-112063855D01*
X107504762Y-112063855D02*
X107428571Y-112101950D01*
X107428571Y-112101950D02*
X107390476Y-112140045D01*
X107390476Y-112140045D02*
X107352381Y-112216236D01*
X107352381Y-112216236D02*
X107352381Y-112292426D01*
X107352381Y-112292426D02*
X107390476Y-112406712D01*
X107390476Y-112406712D02*
X107847619Y-112863855D01*
X107847619Y-112863855D02*
X107352381Y-112863855D01*
X118133332Y-114363855D02*
X118399999Y-113982902D01*
X118590475Y-114363855D02*
X118590475Y-113563855D01*
X118590475Y-113563855D02*
X118285713Y-113563855D01*
X118285713Y-113563855D02*
X118209523Y-113601950D01*
X118209523Y-113601950D02*
X118171428Y-113640045D01*
X118171428Y-113640045D02*
X118133332Y-113716236D01*
X118133332Y-113716236D02*
X118133332Y-113830521D01*
X118133332Y-113830521D02*
X118171428Y-113906712D01*
X118171428Y-113906712D02*
X118209523Y-113944807D01*
X118209523Y-113944807D02*
X118285713Y-113982902D01*
X118285713Y-113982902D02*
X118590475Y-113982902D01*
X117676190Y-113906712D02*
X117752380Y-113868617D01*
X117752380Y-113868617D02*
X117790475Y-113830521D01*
X117790475Y-113830521D02*
X117828571Y-113754331D01*
X117828571Y-113754331D02*
X117828571Y-113716236D01*
X117828571Y-113716236D02*
X117790475Y-113640045D01*
X117790475Y-113640045D02*
X117752380Y-113601950D01*
X117752380Y-113601950D02*
X117676190Y-113563855D01*
X117676190Y-113563855D02*
X117523809Y-113563855D01*
X117523809Y-113563855D02*
X117447618Y-113601950D01*
X117447618Y-113601950D02*
X117409523Y-113640045D01*
X117409523Y-113640045D02*
X117371428Y-113716236D01*
X117371428Y-113716236D02*
X117371428Y-113754331D01*
X117371428Y-113754331D02*
X117409523Y-113830521D01*
X117409523Y-113830521D02*
X117447618Y-113868617D01*
X117447618Y-113868617D02*
X117523809Y-113906712D01*
X117523809Y-113906712D02*
X117676190Y-113906712D01*
X117676190Y-113906712D02*
X117752380Y-113944807D01*
X117752380Y-113944807D02*
X117790475Y-113982902D01*
X117790475Y-113982902D02*
X117828571Y-114059093D01*
X117828571Y-114059093D02*
X117828571Y-114211474D01*
X117828571Y-114211474D02*
X117790475Y-114287664D01*
X117790475Y-114287664D02*
X117752380Y-114325760D01*
X117752380Y-114325760D02*
X117676190Y-114363855D01*
X117676190Y-114363855D02*
X117523809Y-114363855D01*
X117523809Y-114363855D02*
X117447618Y-114325760D01*
X117447618Y-114325760D02*
X117409523Y-114287664D01*
X117409523Y-114287664D02*
X117371428Y-114211474D01*
X117371428Y-114211474D02*
X117371428Y-114059093D01*
X117371428Y-114059093D02*
X117409523Y-113982902D01*
X117409523Y-113982902D02*
X117447618Y-113944807D01*
X117447618Y-113944807D02*
X117523809Y-113906712D01*
X106609523Y-83063855D02*
X106609523Y-83711474D01*
X106609523Y-83711474D02*
X106571428Y-83787664D01*
X106571428Y-83787664D02*
X106533333Y-83825760D01*
X106533333Y-83825760D02*
X106457142Y-83863855D01*
X106457142Y-83863855D02*
X106304761Y-83863855D01*
X106304761Y-83863855D02*
X106228571Y-83825760D01*
X106228571Y-83825760D02*
X106190476Y-83787664D01*
X106190476Y-83787664D02*
X106152380Y-83711474D01*
X106152380Y-83711474D02*
X106152380Y-83063855D01*
X105809524Y-83140045D02*
X105771428Y-83101950D01*
X105771428Y-83101950D02*
X105695238Y-83063855D01*
X105695238Y-83063855D02*
X105504762Y-83063855D01*
X105504762Y-83063855D02*
X105428571Y-83101950D01*
X105428571Y-83101950D02*
X105390476Y-83140045D01*
X105390476Y-83140045D02*
X105352381Y-83216236D01*
X105352381Y-83216236D02*
X105352381Y-83292426D01*
X105352381Y-83292426D02*
X105390476Y-83406712D01*
X105390476Y-83406712D02*
X105847619Y-83863855D01*
X105847619Y-83863855D02*
X105352381Y-83863855D01*
X88199032Y-99109555D02*
X88465699Y-98728602D01*
X88656175Y-99109555D02*
X88656175Y-98309555D01*
X88656175Y-98309555D02*
X88351413Y-98309555D01*
X88351413Y-98309555D02*
X88275223Y-98347650D01*
X88275223Y-98347650D02*
X88237128Y-98385745D01*
X88237128Y-98385745D02*
X88199032Y-98461936D01*
X88199032Y-98461936D02*
X88199032Y-98576221D01*
X88199032Y-98576221D02*
X88237128Y-98652412D01*
X88237128Y-98652412D02*
X88275223Y-98690507D01*
X88275223Y-98690507D02*
X88351413Y-98728602D01*
X88351413Y-98728602D02*
X88656175Y-98728602D01*
X87932366Y-98309555D02*
X87437128Y-98309555D01*
X87437128Y-98309555D02*
X87703794Y-98614317D01*
X87703794Y-98614317D02*
X87589509Y-98614317D01*
X87589509Y-98614317D02*
X87513318Y-98652412D01*
X87513318Y-98652412D02*
X87475223Y-98690507D01*
X87475223Y-98690507D02*
X87437128Y-98766698D01*
X87437128Y-98766698D02*
X87437128Y-98957174D01*
X87437128Y-98957174D02*
X87475223Y-99033364D01*
X87475223Y-99033364D02*
X87513318Y-99071460D01*
X87513318Y-99071460D02*
X87589509Y-99109555D01*
X87589509Y-99109555D02*
X87818080Y-99109555D01*
X87818080Y-99109555D02*
X87894271Y-99071460D01*
X87894271Y-99071460D02*
X87932366Y-99033364D01*
X93609523Y-83563855D02*
X93609523Y-84211474D01*
X93609523Y-84211474D02*
X93571428Y-84287664D01*
X93571428Y-84287664D02*
X93533333Y-84325760D01*
X93533333Y-84325760D02*
X93457142Y-84363855D01*
X93457142Y-84363855D02*
X93304761Y-84363855D01*
X93304761Y-84363855D02*
X93228571Y-84325760D01*
X93228571Y-84325760D02*
X93190476Y-84287664D01*
X93190476Y-84287664D02*
X93152380Y-84211474D01*
X93152380Y-84211474D02*
X93152380Y-83563855D01*
X92847619Y-83563855D02*
X92314285Y-83563855D01*
X92314285Y-83563855D02*
X92657143Y-84363855D01*
X88534932Y-95364464D02*
X88573028Y-95402560D01*
X88573028Y-95402560D02*
X88687313Y-95440655D01*
X88687313Y-95440655D02*
X88763504Y-95440655D01*
X88763504Y-95440655D02*
X88877790Y-95402560D01*
X88877790Y-95402560D02*
X88953980Y-95326369D01*
X88953980Y-95326369D02*
X88992075Y-95250179D01*
X88992075Y-95250179D02*
X89030171Y-95097798D01*
X89030171Y-95097798D02*
X89030171Y-94983512D01*
X89030171Y-94983512D02*
X88992075Y-94831131D01*
X88992075Y-94831131D02*
X88953980Y-94754940D01*
X88953980Y-94754940D02*
X88877790Y-94678750D01*
X88877790Y-94678750D02*
X88763504Y-94640655D01*
X88763504Y-94640655D02*
X88687313Y-94640655D01*
X88687313Y-94640655D02*
X88573028Y-94678750D01*
X88573028Y-94678750D02*
X88534932Y-94716845D01*
X88268266Y-94640655D02*
X87773028Y-94640655D01*
X87773028Y-94640655D02*
X88039694Y-94945417D01*
X88039694Y-94945417D02*
X87925409Y-94945417D01*
X87925409Y-94945417D02*
X87849218Y-94983512D01*
X87849218Y-94983512D02*
X87811123Y-95021607D01*
X87811123Y-95021607D02*
X87773028Y-95097798D01*
X87773028Y-95097798D02*
X87773028Y-95288274D01*
X87773028Y-95288274D02*
X87811123Y-95364464D01*
X87811123Y-95364464D02*
X87849218Y-95402560D01*
X87849218Y-95402560D02*
X87925409Y-95440655D01*
X87925409Y-95440655D02*
X88153980Y-95440655D01*
X88153980Y-95440655D02*
X88230171Y-95402560D01*
X88230171Y-95402560D02*
X88268266Y-95364464D01*
X114514285Y-101037664D02*
X114552381Y-101075760D01*
X114552381Y-101075760D02*
X114666666Y-101113855D01*
X114666666Y-101113855D02*
X114742857Y-101113855D01*
X114742857Y-101113855D02*
X114857143Y-101075760D01*
X114857143Y-101075760D02*
X114933333Y-100999569D01*
X114933333Y-100999569D02*
X114971428Y-100923379D01*
X114971428Y-100923379D02*
X115009524Y-100770998D01*
X115009524Y-100770998D02*
X115009524Y-100656712D01*
X115009524Y-100656712D02*
X114971428Y-100504331D01*
X114971428Y-100504331D02*
X114933333Y-100428140D01*
X114933333Y-100428140D02*
X114857143Y-100351950D01*
X114857143Y-100351950D02*
X114742857Y-100313855D01*
X114742857Y-100313855D02*
X114666666Y-100313855D01*
X114666666Y-100313855D02*
X114552381Y-100351950D01*
X114552381Y-100351950D02*
X114514285Y-100390045D01*
X113752381Y-101113855D02*
X114209524Y-101113855D01*
X113980952Y-101113855D02*
X113980952Y-100313855D01*
X113980952Y-100313855D02*
X114057143Y-100428140D01*
X114057143Y-100428140D02*
X114133333Y-100504331D01*
X114133333Y-100504331D02*
X114209524Y-100542426D01*
X113485714Y-100313855D02*
X112990476Y-100313855D01*
X112990476Y-100313855D02*
X113257142Y-100618617D01*
X113257142Y-100618617D02*
X113142857Y-100618617D01*
X113142857Y-100618617D02*
X113066666Y-100656712D01*
X113066666Y-100656712D02*
X113028571Y-100694807D01*
X113028571Y-100694807D02*
X112990476Y-100770998D01*
X112990476Y-100770998D02*
X112990476Y-100961474D01*
X112990476Y-100961474D02*
X113028571Y-101037664D01*
X113028571Y-101037664D02*
X113066666Y-101075760D01*
X113066666Y-101075760D02*
X113142857Y-101113855D01*
X113142857Y-101113855D02*
X113371428Y-101113855D01*
X113371428Y-101113855D02*
X113447619Y-101075760D01*
X113447619Y-101075760D02*
X113485714Y-101037664D01*
X104235532Y-112277355D02*
X104502199Y-111896402D01*
X104692675Y-112277355D02*
X104692675Y-111477355D01*
X104692675Y-111477355D02*
X104387913Y-111477355D01*
X104387913Y-111477355D02*
X104311723Y-111515450D01*
X104311723Y-111515450D02*
X104273628Y-111553545D01*
X104273628Y-111553545D02*
X104235532Y-111629736D01*
X104235532Y-111629736D02*
X104235532Y-111744021D01*
X104235532Y-111744021D02*
X104273628Y-111820212D01*
X104273628Y-111820212D02*
X104311723Y-111858307D01*
X104311723Y-111858307D02*
X104387913Y-111896402D01*
X104387913Y-111896402D02*
X104692675Y-111896402D01*
X103511723Y-111477355D02*
X103892675Y-111477355D01*
X103892675Y-111477355D02*
X103930771Y-111858307D01*
X103930771Y-111858307D02*
X103892675Y-111820212D01*
X103892675Y-111820212D02*
X103816485Y-111782117D01*
X103816485Y-111782117D02*
X103626009Y-111782117D01*
X103626009Y-111782117D02*
X103549818Y-111820212D01*
X103549818Y-111820212D02*
X103511723Y-111858307D01*
X103511723Y-111858307D02*
X103473628Y-111934498D01*
X103473628Y-111934498D02*
X103473628Y-112124974D01*
X103473628Y-112124974D02*
X103511723Y-112201164D01*
X103511723Y-112201164D02*
X103549818Y-112239260D01*
X103549818Y-112239260D02*
X103626009Y-112277355D01*
X103626009Y-112277355D02*
X103816485Y-112277355D01*
X103816485Y-112277355D02*
X103892675Y-112239260D01*
X103892675Y-112239260D02*
X103930771Y-112201164D01*
X107764285Y-86287664D02*
X107802381Y-86325760D01*
X107802381Y-86325760D02*
X107916666Y-86363855D01*
X107916666Y-86363855D02*
X107992857Y-86363855D01*
X107992857Y-86363855D02*
X108107143Y-86325760D01*
X108107143Y-86325760D02*
X108183333Y-86249569D01*
X108183333Y-86249569D02*
X108221428Y-86173379D01*
X108221428Y-86173379D02*
X108259524Y-86020998D01*
X108259524Y-86020998D02*
X108259524Y-85906712D01*
X108259524Y-85906712D02*
X108221428Y-85754331D01*
X108221428Y-85754331D02*
X108183333Y-85678140D01*
X108183333Y-85678140D02*
X108107143Y-85601950D01*
X108107143Y-85601950D02*
X107992857Y-85563855D01*
X107992857Y-85563855D02*
X107916666Y-85563855D01*
X107916666Y-85563855D02*
X107802381Y-85601950D01*
X107802381Y-85601950D02*
X107764285Y-85640045D01*
X107002381Y-86363855D02*
X107459524Y-86363855D01*
X107230952Y-86363855D02*
X107230952Y-85563855D01*
X107230952Y-85563855D02*
X107307143Y-85678140D01*
X107307143Y-85678140D02*
X107383333Y-85754331D01*
X107383333Y-85754331D02*
X107459524Y-85792426D01*
X106697619Y-85640045D02*
X106659523Y-85601950D01*
X106659523Y-85601950D02*
X106583333Y-85563855D01*
X106583333Y-85563855D02*
X106392857Y-85563855D01*
X106392857Y-85563855D02*
X106316666Y-85601950D01*
X106316666Y-85601950D02*
X106278571Y-85640045D01*
X106278571Y-85640045D02*
X106240476Y-85716236D01*
X106240476Y-85716236D02*
X106240476Y-85792426D01*
X106240476Y-85792426D02*
X106278571Y-85906712D01*
X106278571Y-85906712D02*
X106735714Y-86363855D01*
X106735714Y-86363855D02*
X106240476Y-86363855D01*
X112514285Y-82363855D02*
X112780952Y-81982902D01*
X112971428Y-82363855D02*
X112971428Y-81563855D01*
X112971428Y-81563855D02*
X112666666Y-81563855D01*
X112666666Y-81563855D02*
X112590476Y-81601950D01*
X112590476Y-81601950D02*
X112552381Y-81640045D01*
X112552381Y-81640045D02*
X112514285Y-81716236D01*
X112514285Y-81716236D02*
X112514285Y-81830521D01*
X112514285Y-81830521D02*
X112552381Y-81906712D01*
X112552381Y-81906712D02*
X112590476Y-81944807D01*
X112590476Y-81944807D02*
X112666666Y-81982902D01*
X112666666Y-81982902D02*
X112971428Y-81982902D01*
X111752381Y-82363855D02*
X112209524Y-82363855D01*
X111980952Y-82363855D02*
X111980952Y-81563855D01*
X111980952Y-81563855D02*
X112057143Y-81678140D01*
X112057143Y-81678140D02*
X112133333Y-81754331D01*
X112133333Y-81754331D02*
X112209524Y-81792426D01*
X111066666Y-81830521D02*
X111066666Y-82363855D01*
X111257142Y-81525760D02*
X111447619Y-82097188D01*
X111447619Y-82097188D02*
X110952380Y-82097188D01*
X115085357Y-109246330D02*
X115085357Y-108446330D01*
X115085357Y-108446330D02*
X114894881Y-108446330D01*
X114894881Y-108446330D02*
X114780595Y-108484425D01*
X114780595Y-108484425D02*
X114704405Y-108560615D01*
X114704405Y-108560615D02*
X114666310Y-108636806D01*
X114666310Y-108636806D02*
X114628214Y-108789187D01*
X114628214Y-108789187D02*
X114628214Y-108903473D01*
X114628214Y-108903473D02*
X114666310Y-109055854D01*
X114666310Y-109055854D02*
X114704405Y-109132044D01*
X114704405Y-109132044D02*
X114780595Y-109208235D01*
X114780595Y-109208235D02*
X114894881Y-109246330D01*
X114894881Y-109246330D02*
X115085357Y-109246330D01*
X113866310Y-109246330D02*
X114323453Y-109246330D01*
X114094881Y-109246330D02*
X114094881Y-108446330D01*
X114094881Y-108446330D02*
X114171072Y-108560615D01*
X114171072Y-108560615D02*
X114247262Y-108636806D01*
X114247262Y-108636806D02*
X114323453Y-108674901D01*
X86095592Y-91481379D02*
X86095592Y-90681379D01*
X86095592Y-90681379D02*
X85905116Y-90681379D01*
X85905116Y-90681379D02*
X85790830Y-90719474D01*
X85790830Y-90719474D02*
X85714640Y-90795664D01*
X85714640Y-90795664D02*
X85676545Y-90871855D01*
X85676545Y-90871855D02*
X85638449Y-91024236D01*
X85638449Y-91024236D02*
X85638449Y-91138522D01*
X85638449Y-91138522D02*
X85676545Y-91290903D01*
X85676545Y-91290903D02*
X85714640Y-91367093D01*
X85714640Y-91367093D02*
X85790830Y-91443284D01*
X85790830Y-91443284D02*
X85905116Y-91481379D01*
X85905116Y-91481379D02*
X86095592Y-91481379D01*
X84952735Y-90948045D02*
X84952735Y-91481379D01*
X85143211Y-90643284D02*
X85333688Y-91214712D01*
X85333688Y-91214712D02*
X84838449Y-91214712D01*
X111514285Y-98363855D02*
X111780952Y-97982902D01*
X111971428Y-98363855D02*
X111971428Y-97563855D01*
X111971428Y-97563855D02*
X111666666Y-97563855D01*
X111666666Y-97563855D02*
X111590476Y-97601950D01*
X111590476Y-97601950D02*
X111552381Y-97640045D01*
X111552381Y-97640045D02*
X111514285Y-97716236D01*
X111514285Y-97716236D02*
X111514285Y-97830521D01*
X111514285Y-97830521D02*
X111552381Y-97906712D01*
X111552381Y-97906712D02*
X111590476Y-97944807D01*
X111590476Y-97944807D02*
X111666666Y-97982902D01*
X111666666Y-97982902D02*
X111971428Y-97982902D01*
X110752381Y-98363855D02*
X111209524Y-98363855D01*
X110980952Y-98363855D02*
X110980952Y-97563855D01*
X110980952Y-97563855D02*
X111057143Y-97678140D01*
X111057143Y-97678140D02*
X111133333Y-97754331D01*
X111133333Y-97754331D02*
X111209524Y-97792426D01*
X110028571Y-97563855D02*
X110409523Y-97563855D01*
X110409523Y-97563855D02*
X110447619Y-97944807D01*
X110447619Y-97944807D02*
X110409523Y-97906712D01*
X110409523Y-97906712D02*
X110333333Y-97868617D01*
X110333333Y-97868617D02*
X110142857Y-97868617D01*
X110142857Y-97868617D02*
X110066666Y-97906712D01*
X110066666Y-97906712D02*
X110028571Y-97944807D01*
X110028571Y-97944807D02*
X109990476Y-98020998D01*
X109990476Y-98020998D02*
X109990476Y-98211474D01*
X109990476Y-98211474D02*
X110028571Y-98287664D01*
X110028571Y-98287664D02*
X110066666Y-98325760D01*
X110066666Y-98325760D02*
X110142857Y-98363855D01*
X110142857Y-98363855D02*
X110333333Y-98363855D01*
X110333333Y-98363855D02*
X110409523Y-98325760D01*
X110409523Y-98325760D02*
X110447619Y-98287664D01*
X87560723Y-117524055D02*
X87560723Y-118171674D01*
X87560723Y-118171674D02*
X87522628Y-118247864D01*
X87522628Y-118247864D02*
X87484533Y-118285960D01*
X87484533Y-118285960D02*
X87408342Y-118324055D01*
X87408342Y-118324055D02*
X87255961Y-118324055D01*
X87255961Y-118324055D02*
X87179771Y-118285960D01*
X87179771Y-118285960D02*
X87141676Y-118247864D01*
X87141676Y-118247864D02*
X87103580Y-118171674D01*
X87103580Y-118171674D02*
X87103580Y-117524055D01*
X86341676Y-117524055D02*
X86722628Y-117524055D01*
X86722628Y-117524055D02*
X86760724Y-117905007D01*
X86760724Y-117905007D02*
X86722628Y-117866912D01*
X86722628Y-117866912D02*
X86646438Y-117828817D01*
X86646438Y-117828817D02*
X86455962Y-117828817D01*
X86455962Y-117828817D02*
X86379771Y-117866912D01*
X86379771Y-117866912D02*
X86341676Y-117905007D01*
X86341676Y-117905007D02*
X86303581Y-117981198D01*
X86303581Y-117981198D02*
X86303581Y-118171674D01*
X86303581Y-118171674D02*
X86341676Y-118247864D01*
X86341676Y-118247864D02*
X86379771Y-118285960D01*
X86379771Y-118285960D02*
X86455962Y-118324055D01*
X86455962Y-118324055D02*
X86646438Y-118324055D01*
X86646438Y-118324055D02*
X86722628Y-118285960D01*
X86722628Y-118285960D02*
X86760724Y-118247864D01*
X83134867Y-113413560D02*
X83020581Y-113451655D01*
X83020581Y-113451655D02*
X82830105Y-113451655D01*
X82830105Y-113451655D02*
X82753914Y-113413560D01*
X82753914Y-113413560D02*
X82715819Y-113375464D01*
X82715819Y-113375464D02*
X82677724Y-113299274D01*
X82677724Y-113299274D02*
X82677724Y-113223083D01*
X82677724Y-113223083D02*
X82715819Y-113146893D01*
X82715819Y-113146893D02*
X82753914Y-113108798D01*
X82753914Y-113108798D02*
X82830105Y-113070702D01*
X82830105Y-113070702D02*
X82982486Y-113032607D01*
X82982486Y-113032607D02*
X83058676Y-112994512D01*
X83058676Y-112994512D02*
X83096771Y-112956417D01*
X83096771Y-112956417D02*
X83134867Y-112880226D01*
X83134867Y-112880226D02*
X83134867Y-112804036D01*
X83134867Y-112804036D02*
X83096771Y-112727845D01*
X83096771Y-112727845D02*
X83058676Y-112689750D01*
X83058676Y-112689750D02*
X82982486Y-112651655D01*
X82982486Y-112651655D02*
X82792009Y-112651655D01*
X82792009Y-112651655D02*
X82677724Y-112689750D01*
X82411057Y-112651655D02*
X82220581Y-113451655D01*
X82220581Y-113451655D02*
X82068200Y-112880226D01*
X82068200Y-112880226D02*
X81915819Y-113451655D01*
X81915819Y-113451655D02*
X81725343Y-112651655D01*
X81458676Y-112727845D02*
X81420580Y-112689750D01*
X81420580Y-112689750D02*
X81344390Y-112651655D01*
X81344390Y-112651655D02*
X81153914Y-112651655D01*
X81153914Y-112651655D02*
X81077723Y-112689750D01*
X81077723Y-112689750D02*
X81039628Y-112727845D01*
X81039628Y-112727845D02*
X81001533Y-112804036D01*
X81001533Y-112804036D02*
X81001533Y-112880226D01*
X81001533Y-112880226D02*
X81039628Y-112994512D01*
X81039628Y-112994512D02*
X81496771Y-113451655D01*
X81496771Y-113451655D02*
X81001533Y-113451655D01*
X105633332Y-79287664D02*
X105671428Y-79325760D01*
X105671428Y-79325760D02*
X105785713Y-79363855D01*
X105785713Y-79363855D02*
X105861904Y-79363855D01*
X105861904Y-79363855D02*
X105976190Y-79325760D01*
X105976190Y-79325760D02*
X106052380Y-79249569D01*
X106052380Y-79249569D02*
X106090475Y-79173379D01*
X106090475Y-79173379D02*
X106128571Y-79020998D01*
X106128571Y-79020998D02*
X106128571Y-78906712D01*
X106128571Y-78906712D02*
X106090475Y-78754331D01*
X106090475Y-78754331D02*
X106052380Y-78678140D01*
X106052380Y-78678140D02*
X105976190Y-78601950D01*
X105976190Y-78601950D02*
X105861904Y-78563855D01*
X105861904Y-78563855D02*
X105785713Y-78563855D01*
X105785713Y-78563855D02*
X105671428Y-78601950D01*
X105671428Y-78601950D02*
X105633332Y-78640045D01*
X105252380Y-79363855D02*
X105099999Y-79363855D01*
X105099999Y-79363855D02*
X105023809Y-79325760D01*
X105023809Y-79325760D02*
X104985713Y-79287664D01*
X104985713Y-79287664D02*
X104909523Y-79173379D01*
X104909523Y-79173379D02*
X104871428Y-79020998D01*
X104871428Y-79020998D02*
X104871428Y-78716236D01*
X104871428Y-78716236D02*
X104909523Y-78640045D01*
X104909523Y-78640045D02*
X104947618Y-78601950D01*
X104947618Y-78601950D02*
X105023809Y-78563855D01*
X105023809Y-78563855D02*
X105176190Y-78563855D01*
X105176190Y-78563855D02*
X105252380Y-78601950D01*
X105252380Y-78601950D02*
X105290475Y-78640045D01*
X105290475Y-78640045D02*
X105328571Y-78716236D01*
X105328571Y-78716236D02*
X105328571Y-78906712D01*
X105328571Y-78906712D02*
X105290475Y-78982902D01*
X105290475Y-78982902D02*
X105252380Y-79020998D01*
X105252380Y-79020998D02*
X105176190Y-79059093D01*
X105176190Y-79059093D02*
X105023809Y-79059093D01*
X105023809Y-79059093D02*
X104947618Y-79020998D01*
X104947618Y-79020998D02*
X104909523Y-78982902D01*
X104909523Y-78982902D02*
X104871428Y-78906712D01*
X112514285Y-113863855D02*
X112780952Y-113482902D01*
X112971428Y-113863855D02*
X112971428Y-113063855D01*
X112971428Y-113063855D02*
X112666666Y-113063855D01*
X112666666Y-113063855D02*
X112590476Y-113101950D01*
X112590476Y-113101950D02*
X112552381Y-113140045D01*
X112552381Y-113140045D02*
X112514285Y-113216236D01*
X112514285Y-113216236D02*
X112514285Y-113330521D01*
X112514285Y-113330521D02*
X112552381Y-113406712D01*
X112552381Y-113406712D02*
X112590476Y-113444807D01*
X112590476Y-113444807D02*
X112666666Y-113482902D01*
X112666666Y-113482902D02*
X112971428Y-113482902D01*
X111752381Y-113863855D02*
X112209524Y-113863855D01*
X111980952Y-113863855D02*
X111980952Y-113063855D01*
X111980952Y-113063855D02*
X112057143Y-113178140D01*
X112057143Y-113178140D02*
X112133333Y-113254331D01*
X112133333Y-113254331D02*
X112209524Y-113292426D01*
X111485714Y-113063855D02*
X110990476Y-113063855D01*
X110990476Y-113063855D02*
X111257142Y-113368617D01*
X111257142Y-113368617D02*
X111142857Y-113368617D01*
X111142857Y-113368617D02*
X111066666Y-113406712D01*
X111066666Y-113406712D02*
X111028571Y-113444807D01*
X111028571Y-113444807D02*
X110990476Y-113520998D01*
X110990476Y-113520998D02*
X110990476Y-113711474D01*
X110990476Y-113711474D02*
X111028571Y-113787664D01*
X111028571Y-113787664D02*
X111066666Y-113825760D01*
X111066666Y-113825760D02*
X111142857Y-113863855D01*
X111142857Y-113863855D02*
X111371428Y-113863855D01*
X111371428Y-113863855D02*
X111447619Y-113825760D01*
X111447619Y-113825760D02*
X111485714Y-113787664D01*
X90764285Y-84287664D02*
X90802381Y-84325760D01*
X90802381Y-84325760D02*
X90916666Y-84363855D01*
X90916666Y-84363855D02*
X90992857Y-84363855D01*
X90992857Y-84363855D02*
X91107143Y-84325760D01*
X91107143Y-84325760D02*
X91183333Y-84249569D01*
X91183333Y-84249569D02*
X91221428Y-84173379D01*
X91221428Y-84173379D02*
X91259524Y-84020998D01*
X91259524Y-84020998D02*
X91259524Y-83906712D01*
X91259524Y-83906712D02*
X91221428Y-83754331D01*
X91221428Y-83754331D02*
X91183333Y-83678140D01*
X91183333Y-83678140D02*
X91107143Y-83601950D01*
X91107143Y-83601950D02*
X90992857Y-83563855D01*
X90992857Y-83563855D02*
X90916666Y-83563855D01*
X90916666Y-83563855D02*
X90802381Y-83601950D01*
X90802381Y-83601950D02*
X90764285Y-83640045D01*
X90002381Y-84363855D02*
X90459524Y-84363855D01*
X90230952Y-84363855D02*
X90230952Y-83563855D01*
X90230952Y-83563855D02*
X90307143Y-83678140D01*
X90307143Y-83678140D02*
X90383333Y-83754331D01*
X90383333Y-83754331D02*
X90459524Y-83792426D01*
X89240476Y-84363855D02*
X89697619Y-84363855D01*
X89469047Y-84363855D02*
X89469047Y-83563855D01*
X89469047Y-83563855D02*
X89545238Y-83678140D01*
X89545238Y-83678140D02*
X89621428Y-83754331D01*
X89621428Y-83754331D02*
X89697619Y-83792426D01*
X109383333Y-82363855D02*
X109764285Y-82363855D01*
X109764285Y-82363855D02*
X109764285Y-81563855D01*
X108697619Y-82363855D02*
X109154762Y-82363855D01*
X108926190Y-82363855D02*
X108926190Y-81563855D01*
X108926190Y-81563855D02*
X109002381Y-81678140D01*
X109002381Y-81678140D02*
X109078571Y-81754331D01*
X109078571Y-81754331D02*
X109154762Y-81792426D01*
X120633332Y-107037664D02*
X120671428Y-107075760D01*
X120671428Y-107075760D02*
X120785713Y-107113855D01*
X120785713Y-107113855D02*
X120861904Y-107113855D01*
X120861904Y-107113855D02*
X120976190Y-107075760D01*
X120976190Y-107075760D02*
X121052380Y-106999569D01*
X121052380Y-106999569D02*
X121090475Y-106923379D01*
X121090475Y-106923379D02*
X121128571Y-106770998D01*
X121128571Y-106770998D02*
X121128571Y-106656712D01*
X121128571Y-106656712D02*
X121090475Y-106504331D01*
X121090475Y-106504331D02*
X121052380Y-106428140D01*
X121052380Y-106428140D02*
X120976190Y-106351950D01*
X120976190Y-106351950D02*
X120861904Y-106313855D01*
X120861904Y-106313855D02*
X120785713Y-106313855D01*
X120785713Y-106313855D02*
X120671428Y-106351950D01*
X120671428Y-106351950D02*
X120633332Y-106390045D01*
X120176190Y-106656712D02*
X120252380Y-106618617D01*
X120252380Y-106618617D02*
X120290475Y-106580521D01*
X120290475Y-106580521D02*
X120328571Y-106504331D01*
X120328571Y-106504331D02*
X120328571Y-106466236D01*
X120328571Y-106466236D02*
X120290475Y-106390045D01*
X120290475Y-106390045D02*
X120252380Y-106351950D01*
X120252380Y-106351950D02*
X120176190Y-106313855D01*
X120176190Y-106313855D02*
X120023809Y-106313855D01*
X120023809Y-106313855D02*
X119947618Y-106351950D01*
X119947618Y-106351950D02*
X119909523Y-106390045D01*
X119909523Y-106390045D02*
X119871428Y-106466236D01*
X119871428Y-106466236D02*
X119871428Y-106504331D01*
X119871428Y-106504331D02*
X119909523Y-106580521D01*
X119909523Y-106580521D02*
X119947618Y-106618617D01*
X119947618Y-106618617D02*
X120023809Y-106656712D01*
X120023809Y-106656712D02*
X120176190Y-106656712D01*
X120176190Y-106656712D02*
X120252380Y-106694807D01*
X120252380Y-106694807D02*
X120290475Y-106732902D01*
X120290475Y-106732902D02*
X120328571Y-106809093D01*
X120328571Y-106809093D02*
X120328571Y-106961474D01*
X120328571Y-106961474D02*
X120290475Y-107037664D01*
X120290475Y-107037664D02*
X120252380Y-107075760D01*
X120252380Y-107075760D02*
X120176190Y-107113855D01*
X120176190Y-107113855D02*
X120023809Y-107113855D01*
X120023809Y-107113855D02*
X119947618Y-107075760D01*
X119947618Y-107075760D02*
X119909523Y-107037664D01*
X119909523Y-107037664D02*
X119871428Y-106961474D01*
X119871428Y-106961474D02*
X119871428Y-106809093D01*
X119871428Y-106809093D02*
X119909523Y-106732902D01*
X119909523Y-106732902D02*
X119947618Y-106694807D01*
X119947618Y-106694807D02*
X120023809Y-106656712D01*
X121596666Y-99563855D02*
X121596666Y-100135283D01*
X121596666Y-100135283D02*
X121634761Y-100249569D01*
X121634761Y-100249569D02*
X121710952Y-100325760D01*
X121710952Y-100325760D02*
X121825237Y-100363855D01*
X121825237Y-100363855D02*
X121901428Y-100363855D01*
X120796666Y-100363855D02*
X121253809Y-100363855D01*
X121025237Y-100363855D02*
X121025237Y-99563855D01*
X121025237Y-99563855D02*
X121101428Y-99678140D01*
X121101428Y-99678140D02*
X121177618Y-99754331D01*
X121177618Y-99754331D02*
X121253809Y-99792426D01*
X89014285Y-86363855D02*
X89280952Y-85982902D01*
X89471428Y-86363855D02*
X89471428Y-85563855D01*
X89471428Y-85563855D02*
X89166666Y-85563855D01*
X89166666Y-85563855D02*
X89090476Y-85601950D01*
X89090476Y-85601950D02*
X89052381Y-85640045D01*
X89052381Y-85640045D02*
X89014285Y-85716236D01*
X89014285Y-85716236D02*
X89014285Y-85830521D01*
X89014285Y-85830521D02*
X89052381Y-85906712D01*
X89052381Y-85906712D02*
X89090476Y-85944807D01*
X89090476Y-85944807D02*
X89166666Y-85982902D01*
X89166666Y-85982902D02*
X89471428Y-85982902D01*
X88252381Y-86363855D02*
X88709524Y-86363855D01*
X88480952Y-86363855D02*
X88480952Y-85563855D01*
X88480952Y-85563855D02*
X88557143Y-85678140D01*
X88557143Y-85678140D02*
X88633333Y-85754331D01*
X88633333Y-85754331D02*
X88709524Y-85792426D01*
X87947619Y-85640045D02*
X87909523Y-85601950D01*
X87909523Y-85601950D02*
X87833333Y-85563855D01*
X87833333Y-85563855D02*
X87642857Y-85563855D01*
X87642857Y-85563855D02*
X87566666Y-85601950D01*
X87566666Y-85601950D02*
X87528571Y-85640045D01*
X87528571Y-85640045D02*
X87490476Y-85716236D01*
X87490476Y-85716236D02*
X87490476Y-85792426D01*
X87490476Y-85792426D02*
X87528571Y-85906712D01*
X87528571Y-85906712D02*
X87985714Y-86363855D01*
X87985714Y-86363855D02*
X87490476Y-86363855D01*
X113948723Y-84524655D02*
X113948723Y-83724655D01*
X113948723Y-84105607D02*
X113491580Y-84105607D01*
X113491580Y-84524655D02*
X113491580Y-83724655D01*
X112691581Y-84524655D02*
X113148724Y-84524655D01*
X112920152Y-84524655D02*
X112920152Y-83724655D01*
X112920152Y-83724655D02*
X112996343Y-83838940D01*
X112996343Y-83838940D02*
X113072533Y-83915131D01*
X113072533Y-83915131D02*
X113148724Y-83953226D01*
X114609523Y-97563855D02*
X114609523Y-98211474D01*
X114609523Y-98211474D02*
X114571428Y-98287664D01*
X114571428Y-98287664D02*
X114533333Y-98325760D01*
X114533333Y-98325760D02*
X114457142Y-98363855D01*
X114457142Y-98363855D02*
X114304761Y-98363855D01*
X114304761Y-98363855D02*
X114228571Y-98325760D01*
X114228571Y-98325760D02*
X114190476Y-98287664D01*
X114190476Y-98287664D02*
X114152380Y-98211474D01*
X114152380Y-98211474D02*
X114152380Y-97563855D01*
X113657143Y-97906712D02*
X113733333Y-97868617D01*
X113733333Y-97868617D02*
X113771428Y-97830521D01*
X113771428Y-97830521D02*
X113809524Y-97754331D01*
X113809524Y-97754331D02*
X113809524Y-97716236D01*
X113809524Y-97716236D02*
X113771428Y-97640045D01*
X113771428Y-97640045D02*
X113733333Y-97601950D01*
X113733333Y-97601950D02*
X113657143Y-97563855D01*
X113657143Y-97563855D02*
X113504762Y-97563855D01*
X113504762Y-97563855D02*
X113428571Y-97601950D01*
X113428571Y-97601950D02*
X113390476Y-97640045D01*
X113390476Y-97640045D02*
X113352381Y-97716236D01*
X113352381Y-97716236D02*
X113352381Y-97754331D01*
X113352381Y-97754331D02*
X113390476Y-97830521D01*
X113390476Y-97830521D02*
X113428571Y-97868617D01*
X113428571Y-97868617D02*
X113504762Y-97906712D01*
X113504762Y-97906712D02*
X113657143Y-97906712D01*
X113657143Y-97906712D02*
X113733333Y-97944807D01*
X113733333Y-97944807D02*
X113771428Y-97982902D01*
X113771428Y-97982902D02*
X113809524Y-98059093D01*
X113809524Y-98059093D02*
X113809524Y-98211474D01*
X113809524Y-98211474D02*
X113771428Y-98287664D01*
X113771428Y-98287664D02*
X113733333Y-98325760D01*
X113733333Y-98325760D02*
X113657143Y-98363855D01*
X113657143Y-98363855D02*
X113504762Y-98363855D01*
X113504762Y-98363855D02*
X113428571Y-98325760D01*
X113428571Y-98325760D02*
X113390476Y-98287664D01*
X113390476Y-98287664D02*
X113352381Y-98211474D01*
X113352381Y-98211474D02*
X113352381Y-98059093D01*
X113352381Y-98059093D02*
X113390476Y-97982902D01*
X113390476Y-97982902D02*
X113428571Y-97944807D01*
X113428571Y-97944807D02*
X113504762Y-97906712D01*
X102359523Y-99563855D02*
X102359523Y-100211474D01*
X102359523Y-100211474D02*
X102321428Y-100287664D01*
X102321428Y-100287664D02*
X102283333Y-100325760D01*
X102283333Y-100325760D02*
X102207142Y-100363855D01*
X102207142Y-100363855D02*
X102054761Y-100363855D01*
X102054761Y-100363855D02*
X101978571Y-100325760D01*
X101978571Y-100325760D02*
X101940476Y-100287664D01*
X101940476Y-100287664D02*
X101902380Y-100211474D01*
X101902380Y-100211474D02*
X101902380Y-99563855D01*
X101102381Y-100363855D02*
X101559524Y-100363855D01*
X101330952Y-100363855D02*
X101330952Y-99563855D01*
X101330952Y-99563855D02*
X101407143Y-99678140D01*
X101407143Y-99678140D02*
X101483333Y-99754331D01*
X101483333Y-99754331D02*
X101559524Y-99792426D01*
X92133332Y-87787664D02*
X92171428Y-87825760D01*
X92171428Y-87825760D02*
X92285713Y-87863855D01*
X92285713Y-87863855D02*
X92361904Y-87863855D01*
X92361904Y-87863855D02*
X92476190Y-87825760D01*
X92476190Y-87825760D02*
X92552380Y-87749569D01*
X92552380Y-87749569D02*
X92590475Y-87673379D01*
X92590475Y-87673379D02*
X92628571Y-87520998D01*
X92628571Y-87520998D02*
X92628571Y-87406712D01*
X92628571Y-87406712D02*
X92590475Y-87254331D01*
X92590475Y-87254331D02*
X92552380Y-87178140D01*
X92552380Y-87178140D02*
X92476190Y-87101950D01*
X92476190Y-87101950D02*
X92361904Y-87063855D01*
X92361904Y-87063855D02*
X92285713Y-87063855D01*
X92285713Y-87063855D02*
X92171428Y-87101950D01*
X92171428Y-87101950D02*
X92133332Y-87140045D01*
X91371428Y-87863855D02*
X91828571Y-87863855D01*
X91599999Y-87863855D02*
X91599999Y-87063855D01*
X91599999Y-87063855D02*
X91676190Y-87178140D01*
X91676190Y-87178140D02*
X91752380Y-87254331D01*
X91752380Y-87254331D02*
X91828571Y-87292426D01*
X108633332Y-89363855D02*
X108899999Y-88982902D01*
X109090475Y-89363855D02*
X109090475Y-88563855D01*
X109090475Y-88563855D02*
X108785713Y-88563855D01*
X108785713Y-88563855D02*
X108709523Y-88601950D01*
X108709523Y-88601950D02*
X108671428Y-88640045D01*
X108671428Y-88640045D02*
X108633332Y-88716236D01*
X108633332Y-88716236D02*
X108633332Y-88830521D01*
X108633332Y-88830521D02*
X108671428Y-88906712D01*
X108671428Y-88906712D02*
X108709523Y-88944807D01*
X108709523Y-88944807D02*
X108785713Y-88982902D01*
X108785713Y-88982902D02*
X109090475Y-88982902D01*
X107947618Y-88830521D02*
X107947618Y-89363855D01*
X108138094Y-88525760D02*
X108328571Y-89097188D01*
X108328571Y-89097188D02*
X107833332Y-89097188D01*
X109383332Y-79287664D02*
X109421428Y-79325760D01*
X109421428Y-79325760D02*
X109535713Y-79363855D01*
X109535713Y-79363855D02*
X109611904Y-79363855D01*
X109611904Y-79363855D02*
X109726190Y-79325760D01*
X109726190Y-79325760D02*
X109802380Y-79249569D01*
X109802380Y-79249569D02*
X109840475Y-79173379D01*
X109840475Y-79173379D02*
X109878571Y-79020998D01*
X109878571Y-79020998D02*
X109878571Y-78906712D01*
X109878571Y-78906712D02*
X109840475Y-78754331D01*
X109840475Y-78754331D02*
X109802380Y-78678140D01*
X109802380Y-78678140D02*
X109726190Y-78601950D01*
X109726190Y-78601950D02*
X109611904Y-78563855D01*
X109611904Y-78563855D02*
X109535713Y-78563855D01*
X109535713Y-78563855D02*
X109421428Y-78601950D01*
X109421428Y-78601950D02*
X109383332Y-78640045D01*
X109078571Y-78640045D02*
X109040475Y-78601950D01*
X109040475Y-78601950D02*
X108964285Y-78563855D01*
X108964285Y-78563855D02*
X108773809Y-78563855D01*
X108773809Y-78563855D02*
X108697618Y-78601950D01*
X108697618Y-78601950D02*
X108659523Y-78640045D01*
X108659523Y-78640045D02*
X108621428Y-78716236D01*
X108621428Y-78716236D02*
X108621428Y-78792426D01*
X108621428Y-78792426D02*
X108659523Y-78906712D01*
X108659523Y-78906712D02*
X109116666Y-79363855D01*
X109116666Y-79363855D02*
X108621428Y-79363855D01*
X114514285Y-103113855D02*
X114780952Y-102732902D01*
X114971428Y-103113855D02*
X114971428Y-102313855D01*
X114971428Y-102313855D02*
X114666666Y-102313855D01*
X114666666Y-102313855D02*
X114590476Y-102351950D01*
X114590476Y-102351950D02*
X114552381Y-102390045D01*
X114552381Y-102390045D02*
X114514285Y-102466236D01*
X114514285Y-102466236D02*
X114514285Y-102580521D01*
X114514285Y-102580521D02*
X114552381Y-102656712D01*
X114552381Y-102656712D02*
X114590476Y-102694807D01*
X114590476Y-102694807D02*
X114666666Y-102732902D01*
X114666666Y-102732902D02*
X114971428Y-102732902D01*
X113752381Y-103113855D02*
X114209524Y-103113855D01*
X113980952Y-103113855D02*
X113980952Y-102313855D01*
X113980952Y-102313855D02*
X114057143Y-102428140D01*
X114057143Y-102428140D02*
X114133333Y-102504331D01*
X114133333Y-102504331D02*
X114209524Y-102542426D01*
X113485714Y-102313855D02*
X112952380Y-102313855D01*
X112952380Y-102313855D02*
X113295238Y-103113855D01*
%LPC*%
D11*
%TO.C,J2*%
X93533700Y-79390600D03*
D12*
X92321945Y-79770796D03*
X91110190Y-80150993D03*
X89898434Y-80531189D03*
%TD*%
D13*
%TO.C,J3*%
X85927200Y-83613600D03*
D12*
X84963738Y-84441030D03*
X84000276Y-85268461D03*
X83036814Y-86095891D03*
X82073352Y-86923321D03*
X81109890Y-87750752D03*
%TD*%
D14*
%TO.C,H2*%
X78363300Y-94202500D03*
%TD*%
%TO.C,H3*%
X105797500Y-121636700D03*
%TD*%
D15*
%TO.C,J1*%
X118725000Y-102890000D03*
X118725000Y-97110000D03*
D16*
X118225000Y-104320000D03*
D17*
X122405000Y-104320000D03*
D16*
X118225000Y-95680000D03*
D17*
X122405000Y-95680000D03*
%TD*%
D14*
%TO.C,H1*%
X115839200Y-84160800D03*
%TD*%
%LPD*%
M02*
