%TF.GenerationSoftware,KiCad,Pcbnew,10.0.6*%
%TF.CreationDate,2026-09-26T16:36:25-05:00*%
%TF.ProjectId,puck-revA,7075636b-2d72-4657-9641-2e6b69636164,rev?*%
%TF.SameCoordinates,Original*%
%TF.FileFunction,Copper,L4,Bot*%
%TF.FilePolarity,Positive*%
%FSLAX46Y46*%
G04 Gerber Fmt 4.6, Leading zero omitted, Abs format (unit mm)*
G04 Created by KiCad (PCBNEW 10.0.6) date 2026-09-26 16:36:25*
%MOMM*%
%LPD*%
G01*
G04 APERTURE LIST*
G04 Aperture macros list*
%AMRotRect*
0 Rectangle, with rotation*
0 The origin of the aperture is its center*
0 $1 length*
0 $2 width*
0 $3 Rotation angle, in degrees counterclockwise*
0 Add horizontal line*
21,1,$1,$2,0,0,$3*%
G04 Aperture macros list end*
%TA.AperFunction,ComponentPad*%
%ADD10RotRect,1.000000X1.000000X287.419600*%
%TD*%
%TA.AperFunction,ComponentPad*%
%ADD11C,1.000000*%
%TD*%
%TA.AperFunction,ComponentPad*%
%ADD12RotRect,1.000000X1.000000X310.656300*%
%TD*%
%TA.AperFunction,HeatsinkPad*%
%ADD13C,0.500000*%
%TD*%
%TA.AperFunction,HeatsinkPad*%
%ADD14R,1.600000X0.500000*%
%TD*%
%TA.AperFunction,ComponentPad*%
%ADD15O,2.100000X1.000000*%
%TD*%
%TA.AperFunction,ComponentPad*%
%ADD16O,1.800000X1.000000*%
%TD*%
%TA.AperFunction,HeatsinkPad*%
%ADD17C,0.600000*%
%TD*%
%TA.AperFunction,ViaPad*%
%ADD18C,0.400000*%
%TD*%
%TA.AperFunction,ViaPad*%
%ADD19C,0.600000*%
%TD*%
%TA.AperFunction,ViaPad*%
%ADD20C,0.450000*%
%TD*%
%TA.AperFunction,Conductor*%
%ADD21C,0.127000*%
%TD*%
%TA.AperFunction,Conductor*%
%ADD22C,0.200000*%
%TD*%
%TA.AperFunction,Conductor*%
%ADD23C,0.500000*%
%TD*%
%TA.AperFunction,Conductor*%
%ADD24C,0.300000*%
%TD*%
%TA.AperFunction,Conductor*%
%ADD25C,0.150000*%
%TD*%
%TA.AperFunction,Conductor*%
%ADD26C,0.400000*%
%TD*%
%TA.AperFunction,Conductor*%
%ADD27C,0.350000*%
%TD*%
%TA.AperFunction,Conductor*%
%ADD28C,0.250000*%
%TD*%
%TA.AperFunction,Conductor*%
%ADD29C,0.240000*%
%TD*%
G04 APERTURE END LIST*
D10*
%TO.P,J2,1*%
%TO.N,GND*%
X93533700Y-79390600D03*
D11*
%TO.P,J2,2*%
%TO.N,UART0_TX*%
X92321945Y-79770796D03*
%TO.P,J2,3*%
%TO.N,UART0_RX*%
X91110190Y-80150993D03*
%TO.P,J2,4*%
%TO.N,+3V3*%
X89898434Y-80531189D03*
%TD*%
D12*
%TO.P,J3,1*%
%TO.N,+3V3*%
X85927200Y-83613600D03*
D11*
%TO.P,J3,2*%
%TO.N,SYS_5V*%
X84963738Y-84441030D03*
%TO.P,J3,3*%
%TO.N,GND*%
X84000276Y-85268461D03*
%TO.P,J3,4*%
%TO.N,EXP_A*%
X83036814Y-86095891D03*
%TO.P,J3,5*%
%TO.N,EXP_B*%
X82073352Y-86923321D03*
%TO.P,J3,6*%
%TO.N,EXP_C*%
X81109890Y-87750752D03*
%TD*%
D13*
%TO.P,U2,9*%
%TO.N,GND*%
X106550000Y-82000000D03*
D14*
X106000000Y-82000000D03*
D13*
X105450000Y-82000000D03*
%TD*%
D15*
%TO.P,J1,SH*%
%TO.N,GND*%
X118225000Y-104320000D03*
D16*
X122405000Y-104320000D03*
D15*
X118225000Y-95680000D03*
D16*
X122405000Y-95680000D03*
%TD*%
D17*
%TO.P,U1,41*%
%TO.N,GND*%
X97100000Y-98610000D03*
X97100000Y-100010000D03*
X97800000Y-97910000D03*
X97800000Y-99310000D03*
X97800000Y-100710000D03*
X98500000Y-98610000D03*
X98500000Y-100010000D03*
X99200000Y-97910000D03*
X99200000Y-99310000D03*
X99200000Y-100710000D03*
X99900000Y-98610000D03*
X99900000Y-100010000D03*
%TD*%
D18*
%TO.N,LED_DATA_EN*%
X106525000Y-90450000D03*
X109850000Y-93675000D03*
D19*
%TO.N,GND*%
X122000000Y-97000000D03*
D18*
X95775000Y-88275000D03*
X116846094Y-103843002D03*
D20*
X88932739Y-103116488D03*
X121057530Y-102529062D03*
D18*
X85873903Y-113811456D03*
D20*
X100997189Y-100122314D03*
D18*
X92875000Y-106125000D03*
D20*
X94646412Y-79496333D03*
X107127937Y-80293516D03*
D19*
X87250000Y-85175000D03*
D20*
X122750779Y-94411710D03*
D19*
X96950000Y-83225000D03*
D20*
X85875684Y-102432856D03*
D18*
X118550000Y-90150000D03*
D20*
X110329078Y-112762087D03*
X92013866Y-88388406D03*
D19*
X86105910Y-99944881D03*
X114050000Y-98000000D03*
D20*
X115000500Y-82552173D03*
X97689567Y-89604656D03*
X100975104Y-98954957D03*
X93109082Y-116720497D03*
D19*
X111000000Y-96000000D03*
X80000000Y-99997203D03*
D20*
X114774185Y-92639000D03*
X97669592Y-83318972D03*
D19*
X103400000Y-79000000D03*
D20*
X119015099Y-97853882D03*
D19*
X104527937Y-80493516D03*
D20*
X93925399Y-86499168D03*
X84100000Y-111900000D03*
D18*
X119040631Y-101427203D03*
D19*
X114000000Y-99700000D03*
X86105910Y-100744880D03*
D20*
X111379493Y-108441471D03*
D18*
X120700000Y-110850000D03*
X119500000Y-110425000D03*
X118311821Y-105320000D03*
X104800000Y-88925000D03*
D19*
X104327937Y-82693516D03*
X107100000Y-82000000D03*
D18*
X92125000Y-108950000D03*
X105225000Y-86350000D03*
D19*
X119700000Y-88700000D03*
X111300000Y-79000000D03*
D18*
X121000000Y-94500000D03*
X118650000Y-100550000D03*
D20*
X103592278Y-94703127D03*
X106620364Y-84315500D03*
D19*
X118815099Y-94453882D03*
D20*
X87994665Y-87852566D03*
D18*
X109925000Y-98975000D03*
D19*
X113700000Y-101400000D03*
X89000000Y-83225000D03*
X94000000Y-87500000D03*
X120300000Y-88700000D03*
%TO.N,LED_OE_N*%
X103300000Y-87550000D03*
X101500000Y-89950000D03*
%TO.N,LED_5V*%
X115200000Y-108900000D03*
X87700000Y-92100000D03*
X85500000Y-109900000D03*
X116600000Y-108900000D03*
X90750000Y-81700000D03*
X90000000Y-88550000D03*
X94800000Y-82300000D03*
X112200000Y-106100000D03*
X106500000Y-103600000D03*
X87300000Y-108100000D03*
X99400000Y-81300000D03*
X100000000Y-86000000D03*
X110300000Y-88400000D03*
X118900000Y-111500000D03*
X89000000Y-90800000D03*
X116700000Y-109500000D03*
X91100000Y-86000000D03*
X98500000Y-83400000D03*
%TO.N,SYS_5V*%
X102700000Y-88200000D03*
X92000000Y-86400000D03*
X111800000Y-99700000D03*
%TO.N,IO0*%
X103550000Y-106500000D03*
X83050000Y-105350000D03*
%TO.N,EN*%
X94050000Y-90750000D03*
X92550000Y-93300000D03*
%TO.N,RESET_SW*%
X83650000Y-108800000D03*
X87350000Y-105950000D03*
%TO.N,UART0_TX*%
X96550000Y-80950000D03*
X110000000Y-94650000D03*
%TO.N,UART0_RX*%
X110100000Y-95450000D03*
X92600000Y-80750000D03*
%TO.N,+3V3*%
X115400000Y-101800000D03*
X115900000Y-111900000D03*
D18*
X82850000Y-101825000D03*
D19*
X116800000Y-105200000D03*
X105500000Y-84100000D03*
X111100000Y-82100000D03*
X115400000Y-103800000D03*
X86500000Y-88600000D03*
X108300000Y-77500000D03*
D18*
X85275000Y-101625000D03*
D19*
X117000000Y-110300000D03*
%TO.N,USB_CC_INT_N*%
X92500000Y-97600000D03*
X90000000Y-100250000D03*
%TO.N,EXP_A*%
X86650000Y-91450000D03*
X92450000Y-102350000D03*
%TO.N,EXP_B*%
X92450000Y-103650000D03*
X85850000Y-91500000D03*
%TO.N,EXP_C*%
X82200000Y-94500000D03*
X93050000Y-103150000D03*
%TO.N,LED_D2_OUT*%
X82850000Y-108800000D03*
D18*
X98250000Y-114350000D03*
D19*
%TO.N,LED_D3_OUT*%
X85750000Y-89700000D03*
X88150000Y-103750000D03*
%TO.N,USER_BTN*%
X84100000Y-99850000D03*
X89500000Y-96750000D03*
D18*
X87950000Y-93700000D03*
D19*
X80050000Y-103850000D03*
D20*
X92350000Y-94750000D03*
D19*
%TO.N,ILIM_BOOST_D*%
X111800000Y-101500000D03*
X111200000Y-103300000D03*
%TO.N,LED_D1_OUT*%
X92500000Y-107500000D03*
X110100000Y-104600000D03*
X112850000Y-105600000D03*
X110000000Y-103400000D03*
X105800000Y-103000000D03*
X98800000Y-115100000D03*
%TO.N,LED_DATA_3V3*%
X90700000Y-89400000D03*
X107350000Y-102000000D03*
D18*
X91950000Y-90650000D03*
D19*
X106300000Y-88050000D03*
%TO.N,LED_DATA_5V*%
X108500000Y-89700000D03*
D18*
X110900000Y-86000000D03*
%TO.N,CC1*%
X120150000Y-105875000D03*
X119375000Y-108300000D03*
D19*
%TO.N,CC2*%
X118700000Y-98650000D03*
X118850000Y-108950000D03*
X118650000Y-107050000D03*
X116750000Y-106050000D03*
%TO.N,USB_VBUS_DET*%
X119650000Y-111150000D03*
X119650000Y-112650000D03*
%TO.N,SDA*%
X121700000Y-109800000D03*
X105200000Y-112550000D03*
X105850000Y-111550000D03*
X92900000Y-104750000D03*
X87450000Y-117350000D03*
X93500000Y-104750000D03*
%TO.N,SCL*%
X86400000Y-97250000D03*
D20*
X114000000Y-110850000D03*
D19*
X86900000Y-117900000D03*
X88950000Y-93200000D03*
D18*
X98100000Y-108100000D03*
X112850000Y-104150000D03*
D20*
X111900000Y-103100000D03*
D19*
X86400000Y-95100000D03*
X84300000Y-102650000D03*
D18*
X114800000Y-107700000D03*
D20*
X120350000Y-112750000D03*
X110650000Y-106450000D03*
D19*
X96000000Y-105950000D03*
X97450000Y-106650000D03*
D18*
X115250000Y-106370000D03*
D19*
X93750000Y-98050000D03*
D18*
%TO.N,LED_D5_OUT*%
X111850000Y-96750000D03*
X96150000Y-87100000D03*
X100900000Y-91800000D03*
X106700000Y-92300000D03*
D19*
%TO.N,USB_DM*%
X93000000Y-106830000D03*
X116500000Y-100250000D03*
X119800000Y-90100000D03*
X119100000Y-99300000D03*
%TO.N,USB_DP*%
X120800000Y-90100000D03*
X93000000Y-108100000D03*
D20*
%TO.N,VBUS*%
X121000000Y-92500000D03*
D19*
X121300000Y-89400000D03*
%TO.N,LED_PWR_EN*%
X87250000Y-86825000D03*
X94800000Y-86350000D03*
D18*
X94800000Y-92000000D03*
%TO.N,LED_D1_IN*%
X109175000Y-110825000D03*
X102350000Y-105950000D03*
X106925000Y-88800000D03*
X102400000Y-104700000D03*
X102925000Y-106650000D03*
X102400000Y-103750000D03*
X110075000Y-110825000D03*
X104725000Y-92550000D03*
X104725000Y-91725000D03*
X108425000Y-88800000D03*
%TO.N,LED_D4_OUT*%
X104525000Y-82000000D03*
X117900000Y-108200000D03*
X102475000Y-111700000D03*
X111500000Y-85775000D03*
X117275000Y-109000000D03*
X122350000Y-109000000D03*
X84975000Y-99275000D03*
X84875000Y-97775000D03*
X90250000Y-115300000D03*
X84125000Y-101875000D03*
D19*
%TO.N,INPUT_FAULT_N*%
X112800000Y-103500000D03*
X113500000Y-103300000D03*
X114000000Y-96500000D03*
X107400000Y-104000000D03*
%TD*%
%TO.N,LED_DATA_EN*%
D21*
X109850000Y-93675000D02*
X106525000Y-90450000D01*
%TO.N,GND*%
D22*
X108800000Y-98975000D02*
X109925000Y-98975000D01*
D23*
X112050000Y-96000000D02*
X114050000Y-98000000D01*
X111000000Y-96000000D02*
X112050000Y-96000000D01*
D22*
X95775000Y-88275000D02*
X108800000Y-98975000D01*
D23*
X114050000Y-101125000D02*
X114050000Y-98000000D01*
X113700000Y-101400000D02*
X114050000Y-101125000D01*
X103400000Y-79000000D02*
X104100000Y-79000000D01*
X104100000Y-79000000D02*
X107100000Y-82000000D01*
X111300000Y-79000000D02*
X110100000Y-79000000D01*
X110100000Y-79000000D02*
X107100000Y-82000000D01*
%TO.N,LED_OE_N*%
D22*
X102150000Y-87950000D02*
X101500000Y-89950000D01*
X102550000Y-87600000D02*
X102300000Y-87750000D01*
X103300000Y-87550000D02*
X102550000Y-87600000D01*
X102300000Y-87750000D02*
X102150000Y-87950000D01*
%TO.N,LED_5V*%
D23*
X103800000Y-84800000D02*
X110300000Y-88400000D01*
D24*
X98500000Y-83400000D02*
X100000000Y-86000000D01*
D22*
X116700000Y-109500000D02*
X117500000Y-109700000D01*
D23*
X106500000Y-103600000D02*
X106500000Y-104300000D01*
X91100000Y-86000000D02*
X94800000Y-82300000D01*
D22*
X117500000Y-109700000D02*
X118900000Y-111500000D01*
D23*
X89000000Y-90800000D02*
X87700000Y-92100000D01*
X115200000Y-108900000D02*
X116600000Y-108900000D01*
X107100000Y-104900000D02*
X112200000Y-106100000D01*
X106500000Y-104300000D02*
X107100000Y-104900000D01*
D24*
X85500000Y-109900000D02*
X87300000Y-108100000D01*
D23*
X90750000Y-87800000D02*
X90000000Y-88550000D01*
X99400000Y-81300000D02*
X103800000Y-84800000D01*
X90750000Y-81700000D02*
X90750000Y-87800000D01*
%TO.N,SYS_5V*%
X92800000Y-85600000D02*
X92000000Y-86400000D01*
X111800000Y-99700000D02*
X95200000Y-85500000D01*
X95200000Y-85500000D02*
X92800000Y-85600000D01*
X111800000Y-99700000D02*
X102700000Y-88200000D01*
%TO.N,IO0*%
D22*
X83050000Y-105350000D02*
X102400000Y-105350000D01*
X102400000Y-105350000D02*
X103550000Y-106500000D01*
%TO.N,EN*%
X94050000Y-90750000D02*
X92550000Y-93300000D01*
%TO.N,RESET_SW*%
X87350000Y-105950000D02*
X83650000Y-108800000D01*
%TO.N,UART0_TX*%
X110600000Y-93850000D02*
X110550000Y-94150000D01*
X110550000Y-94150000D02*
X110000000Y-94650000D01*
X106900000Y-89900000D02*
X110550000Y-93600000D01*
X110550000Y-93600000D02*
X110600000Y-93850000D01*
X96550000Y-80950000D02*
X106900000Y-89900000D01*
%TO.N,UART0_RX*%
X110900000Y-94350000D02*
X110450000Y-95050000D01*
X110450000Y-95050000D02*
X110100000Y-95450000D01*
X96900000Y-80450000D02*
X107650000Y-90050000D01*
X107650000Y-90050000D02*
X110900000Y-93400000D01*
X96650000Y-80350000D02*
X96900000Y-80450000D01*
X110900000Y-93400000D02*
X111000000Y-93900000D01*
X111000000Y-93900000D02*
X110900000Y-94350000D01*
X92600000Y-80750000D02*
X96650000Y-80350000D01*
%TO.N,+3V3*%
D25*
X105500000Y-84100000D02*
X104000000Y-84100000D01*
X104000000Y-84100000D02*
X102500000Y-82600000D01*
X102500000Y-82600000D02*
X102500000Y-78500000D01*
D22*
X84900000Y-101375000D02*
X85275000Y-101625000D01*
D26*
X86200000Y-84100000D02*
X85900000Y-83600000D01*
D22*
X82850000Y-101825000D02*
X84000000Y-101350000D01*
D27*
X115400000Y-97700000D02*
X115400000Y-101800000D01*
D22*
X84000000Y-101350000D02*
X84900000Y-101375000D01*
D25*
X102500000Y-78500000D02*
X103500000Y-77500000D01*
D27*
X111100000Y-82100000D02*
X115400000Y-97700000D01*
D26*
X86500000Y-88600000D02*
X86200000Y-84100000D01*
D24*
X115400000Y-103800000D02*
X116800000Y-105200000D01*
D28*
X117000000Y-110300000D02*
X115900000Y-111900000D01*
D25*
X103500000Y-77500000D02*
X108300000Y-77500000D01*
D26*
X85900000Y-83600000D02*
X85927200Y-83613600D01*
%TO.N,USB_CC_INT_N*%
D22*
X92500000Y-97600000D02*
X90000000Y-100250000D01*
%TO.N,EXP_A*%
X86650000Y-91450000D02*
X89450000Y-100550000D01*
X89450000Y-100550000D02*
X91700000Y-102350000D01*
X91700000Y-102350000D02*
X92450000Y-102350000D01*
%TO.N,EXP_B*%
X89150000Y-100850000D02*
X92450000Y-103650000D01*
X85850000Y-91500000D02*
X89150000Y-100850000D01*
%TO.N,EXP_C*%
X93050000Y-103650000D02*
X93050000Y-103150000D01*
X92200000Y-104200000D02*
X92450000Y-104250000D01*
X92450000Y-104250000D02*
X92750000Y-104200000D01*
X89200000Y-101450000D02*
X92200000Y-104200000D01*
X93000000Y-103900000D02*
X93050000Y-103650000D01*
X82200000Y-94500000D02*
X89200000Y-101450000D01*
X92750000Y-104200000D02*
X93000000Y-103900000D01*
%TO.N,LED_D2_OUT*%
X82850000Y-108800000D02*
X83400000Y-109350000D01*
X91200000Y-113950000D02*
X98250000Y-114350000D01*
X83400000Y-109350000D02*
X91200000Y-113950000D01*
%TO.N,LED_D3_OUT*%
X81650000Y-94800000D02*
X85650000Y-101250000D01*
X85750000Y-89700000D02*
X81650000Y-94250000D01*
X81650000Y-94250000D02*
X81600000Y-94500000D01*
X85650000Y-101250000D02*
X88150000Y-103750000D01*
X81600000Y-94500000D02*
X81650000Y-94800000D01*
%TO.N,USER_BTN*%
D21*
X88400000Y-93250000D02*
X88400000Y-93000000D01*
D22*
X80050000Y-103850000D02*
X84100000Y-99850000D01*
D21*
X88400000Y-93000000D02*
X88750000Y-92650000D01*
X88750000Y-92650000D02*
X89150000Y-92650000D01*
D22*
X87950000Y-93700000D02*
X89500000Y-96750000D01*
D21*
X87950000Y-93700000D02*
X88400000Y-93250000D01*
X89150000Y-92650000D02*
X92350000Y-94750000D01*
%TO.N,ILIM_BOOST_D*%
D22*
X111800000Y-101500000D02*
X111200000Y-103300000D01*
%TO.N,LED_D1_OUT*%
X98800000Y-115100000D02*
X98850000Y-114100000D01*
X110100000Y-104600000D02*
X112850000Y-105600000D01*
X108900000Y-103050000D02*
X110000000Y-103400000D01*
X92450000Y-108400000D02*
X92400000Y-108050000D01*
X98850000Y-114100000D02*
X92450000Y-108400000D01*
X105800000Y-103000000D02*
X108900000Y-103050000D01*
X92400000Y-108050000D02*
X92500000Y-107500000D01*
%TO.N,LED_DATA_3V3*%
X88950000Y-80450000D02*
X89650000Y-83100000D01*
X92100000Y-93700000D02*
X96850000Y-97050000D01*
X96850000Y-97050000D02*
X99650000Y-97250000D01*
X91950000Y-93450000D02*
X92100000Y-93700000D01*
X92850000Y-78550000D02*
X89050000Y-79900000D01*
X90150000Y-89400000D02*
X90700000Y-89400000D01*
X99650000Y-97250000D02*
X107350000Y-102000000D01*
X89050000Y-79900000D02*
X88900000Y-80150000D01*
X93950000Y-78400000D02*
X92850000Y-78550000D01*
X89650000Y-83100000D02*
X89400000Y-88700000D01*
X88900000Y-80150000D02*
X88950000Y-80450000D01*
X97100000Y-80100000D02*
X93950000Y-78400000D01*
X91950000Y-90650000D02*
X91950000Y-93450000D01*
X89400000Y-88700000D02*
X89550000Y-88950000D01*
X106300000Y-88050000D02*
X97100000Y-80100000D01*
X89550000Y-88950000D02*
X90150000Y-89400000D01*
%TO.N,LED_DATA_5V*%
X110650000Y-88900000D02*
X110850000Y-88650000D01*
X110850000Y-88650000D02*
X110900000Y-88400000D01*
X108500000Y-89700000D02*
X110650000Y-88900000D01*
X110900000Y-88400000D02*
X110900000Y-86000000D01*
%TO.N,CC1*%
D21*
X120150000Y-105875000D02*
X119375000Y-108300000D01*
%TO.N,CC2*%
X118650000Y-107050000D02*
X118850000Y-108950000D01*
X117700000Y-102300000D02*
X116750000Y-103200000D01*
X118700000Y-98650000D02*
X116150000Y-99850000D01*
X116000000Y-100425000D02*
X116175000Y-100675000D01*
X116150000Y-99850000D02*
X116000000Y-100075000D01*
X114800000Y-104050000D02*
X116750000Y-106050000D01*
X115150000Y-103200000D02*
X114800000Y-103550000D01*
X116175000Y-100675000D02*
X117700000Y-102300000D01*
X116000000Y-100075000D02*
X116000000Y-100425000D01*
X114800000Y-103550000D02*
X114800000Y-104050000D01*
X116750000Y-103200000D02*
X115150000Y-103200000D01*
%TO.N,USB_VBUS_DET*%
X119650000Y-112650000D02*
X119650000Y-111150000D01*
%TO.N,SDA*%
D22*
X83050000Y-104750000D02*
X93500000Y-104750000D01*
D21*
X118650000Y-109500000D02*
X121700000Y-109800000D01*
D22*
X82650000Y-104900000D02*
X82500000Y-105100000D01*
X82450000Y-105350000D02*
X82250000Y-108950000D01*
X82900000Y-104750000D02*
X82650000Y-104900000D01*
X84489680Y-112567944D02*
X87450000Y-117350000D01*
X82600000Y-104950000D02*
X82800000Y-104800000D01*
X84971496Y-111446404D02*
X84489680Y-112567944D01*
D21*
X115100000Y-108350000D02*
X117450000Y-108350000D01*
D22*
X92900000Y-104750000D02*
X82900000Y-104750000D01*
X82500000Y-105100000D02*
X82450000Y-105350000D01*
X82250000Y-108800000D02*
X82450000Y-105200000D01*
D21*
X105850000Y-111550000D02*
X115100000Y-108350000D01*
D22*
X82450000Y-105200000D02*
X82600000Y-104950000D01*
X105200000Y-112550000D02*
X98950000Y-115700000D01*
X98650000Y-115700000D02*
X86800000Y-113550000D01*
D21*
X117450000Y-108350000D02*
X118650000Y-109500000D01*
D22*
X83436970Y-110867414D02*
X84655684Y-110936245D01*
X98950000Y-115700000D02*
X98650000Y-115700000D01*
X82300000Y-109050000D02*
X82250000Y-108800000D01*
X84655684Y-110936245D02*
X84971496Y-111446404D01*
X82800000Y-104800000D02*
X83050000Y-104750000D01*
X86800000Y-113550000D02*
X82300000Y-109050000D01*
X82250000Y-108950000D02*
X83436970Y-110867414D01*
%TO.N,SCL*%
X84300000Y-102650000D02*
X82200000Y-104800000D01*
D21*
X115550000Y-112450000D02*
X114000000Y-110850000D01*
X112300000Y-102700000D02*
X111900000Y-103100000D01*
X112350000Y-101300000D02*
X112300000Y-102700000D01*
D22*
X82050000Y-105200000D02*
X81850000Y-109050000D01*
X86400000Y-95100000D02*
X86400000Y-97250000D01*
D21*
X111700000Y-100950000D02*
X112000000Y-100950000D01*
D22*
X81850000Y-109050000D02*
X86900000Y-117900000D01*
D21*
X112000000Y-100950000D02*
X112350000Y-101300000D01*
X110650000Y-106450000D02*
X106800000Y-105350000D01*
X114800000Y-107700000D02*
X98100000Y-108100000D01*
X120350000Y-112750000D02*
X119850000Y-113200000D01*
D22*
X82200000Y-104800000D02*
X82050000Y-105200000D01*
D21*
X107700000Y-102550000D02*
X111700000Y-100950000D01*
X105250000Y-102800000D02*
X105600000Y-102450000D01*
X119850000Y-113200000D02*
X119450000Y-113200000D01*
X112850000Y-104150000D02*
X115250000Y-106370000D01*
D22*
X93750000Y-98050000D02*
X88950000Y-93200000D01*
D21*
X119450000Y-113200000D02*
X115550000Y-112450000D01*
X106050000Y-104550000D02*
X105250000Y-103150000D01*
X106800000Y-105350000D02*
X106050000Y-104550000D01*
D22*
X97450000Y-106650000D02*
X96000000Y-105950000D01*
D21*
X105250000Y-103150000D02*
X105250000Y-102800000D01*
X105600000Y-102450000D02*
X107700000Y-102550000D01*
%TO.N,LED_D5_OUT*%
X96150000Y-87100000D02*
X100900000Y-91800000D01*
X106700000Y-92300000D02*
X109700000Y-95850000D01*
X109700000Y-95850000D02*
X110800000Y-96600000D01*
X110800000Y-96600000D02*
X111850000Y-96750000D01*
%TO.N,USB_DM*%
D29*
X119702197Y-105014961D02*
X119475182Y-105241975D01*
X120081404Y-90794669D02*
X119702197Y-105014961D01*
D25*
X116500000Y-100250000D02*
X119100000Y-99300000D01*
D29*
X119800000Y-90100000D02*
X120081404Y-90794669D01*
X119475182Y-105241975D02*
X116941415Y-106801216D01*
X93795691Y-107300046D02*
X93000000Y-106830000D01*
X116941415Y-106801216D02*
X93795691Y-107300046D01*
%TO.N,USB_DP*%
X93804309Y-107699954D02*
X93000000Y-108100000D01*
X119724818Y-105558025D02*
X117058585Y-107198784D01*
X120097803Y-105185039D02*
X119724818Y-105558025D01*
X117058585Y-107198784D02*
X93804309Y-107699954D01*
X120481262Y-90805331D02*
X120097803Y-105185039D01*
X120800000Y-90100000D02*
X120481262Y-90805331D01*
%TO.N,VBUS*%
D22*
X121300000Y-92000000D02*
X121000000Y-92500000D01*
X121300000Y-89400000D02*
X121500000Y-89900000D01*
X121500000Y-89900000D02*
X121300000Y-92000000D01*
%TO.N,LED_PWR_EN*%
X87250000Y-90000000D02*
X87250000Y-86825000D01*
X94800000Y-86350000D02*
X94800000Y-90000000D01*
D21*
X94800000Y-92000000D02*
X94800000Y-86350000D01*
D22*
X94800000Y-90000000D02*
X87250000Y-90000000D01*
%TO.N,LED_D1_IN*%
D21*
X110075000Y-110825000D02*
X109175000Y-110825000D01*
X104725000Y-92550000D02*
X104725000Y-91725000D01*
X102925000Y-106650000D02*
X102350000Y-105950000D01*
X102400000Y-104700000D02*
X102400000Y-103750000D01*
X106925000Y-88800000D02*
X108425000Y-88800000D01*
%TO.N,LED_D4_OUT*%
X122200000Y-109950000D02*
X122350000Y-109000000D01*
X84125000Y-101875000D02*
X81900000Y-104675000D01*
X117775000Y-108075000D02*
X117900000Y-108200000D01*
X111500000Y-85775000D02*
X111025000Y-85475000D01*
X86750000Y-118400000D02*
X87075000Y-118400000D01*
X81550000Y-108850000D02*
X81550000Y-109175000D01*
X118575000Y-109775000D02*
X121600000Y-110300000D01*
X87325000Y-118225000D02*
X90250000Y-115300000D01*
X87075000Y-118400000D02*
X87325000Y-118225000D01*
X111025000Y-85475000D02*
X105000000Y-82475000D01*
X121600000Y-110300000D02*
X121875000Y-110300000D01*
X115050000Y-108075000D02*
X117775000Y-108075000D01*
X81900000Y-104675000D02*
X81725000Y-105200000D01*
X105000000Y-82475000D02*
X104525000Y-82000000D01*
X122100000Y-110150000D02*
X122200000Y-109950000D01*
X86525000Y-118275000D02*
X86750000Y-118400000D01*
X121875000Y-110300000D02*
X122100000Y-110150000D01*
X117275000Y-109000000D02*
X118575000Y-109775000D01*
X81550000Y-109175000D02*
X86525000Y-118275000D01*
X84875000Y-97775000D02*
X84975000Y-99275000D01*
X102475000Y-111700000D02*
X115050000Y-108075000D01*
X81725000Y-105200000D02*
X81550000Y-108850000D01*
%TO.N,INPUT_FAULT_N*%
D22*
X114800000Y-97800000D02*
X114700000Y-102100000D01*
X114000000Y-96500000D02*
X114800000Y-97800000D01*
X114700000Y-102100000D02*
X113500000Y-103300000D01*
X112800000Y-103500000D02*
X111400000Y-104000000D01*
X111400000Y-104000000D02*
X107400000Y-104000000D01*
%TD*%
%TA.AperFunction,Conductor*%
%TO.N,GND*%
G36*
X100213659Y-75505244D02*
G01*
X100927196Y-75522761D01*
X100928278Y-75522795D01*
X101318311Y-75538120D01*
X101320734Y-75538257D01*
X102299691Y-75610469D01*
X102399964Y-75618361D01*
X102402779Y-75618638D01*
X102502662Y-75630460D01*
X103476892Y-75750620D01*
X103479332Y-75750963D01*
X103864914Y-75812033D01*
X103865728Y-75812168D01*
X104569239Y-75934239D01*
X104570855Y-75934540D01*
X104986480Y-76017213D01*
X104988205Y-76017578D01*
X105684731Y-76173989D01*
X105685729Y-76174221D01*
X106065222Y-76265329D01*
X106067588Y-76265940D01*
X107013742Y-76527776D01*
X107099678Y-76552013D01*
X107110446Y-76555050D01*
X107113226Y-76555894D01*
X107208820Y-76586954D01*
X108122426Y-76888769D01*
X108165313Y-76925763D01*
X108169479Y-76982246D01*
X108132485Y-77025133D01*
X108118368Y-77030512D01*
X108106817Y-77033607D01*
X108106809Y-77033610D01*
X107992685Y-77099500D01*
X107899496Y-77192690D01*
X107897298Y-77195555D01*
X107848245Y-77223868D01*
X107838595Y-77224500D01*
X103445200Y-77224500D01*
X103343944Y-77266440D01*
X103343941Y-77266442D01*
X102343942Y-78266443D01*
X102266442Y-78343943D01*
X102265076Y-78347241D01*
X102224500Y-78445200D01*
X102224500Y-82654800D01*
X102238217Y-82687915D01*
X102243430Y-82700500D01*
X102266442Y-82756056D01*
X102266444Y-82756059D01*
X102559366Y-83048981D01*
X102581040Y-83101307D01*
X102559366Y-83153633D01*
X102507040Y-83175307D01*
X102460973Y-83159219D01*
X99865144Y-81094356D01*
X99847125Y-81073444D01*
X99800500Y-80992686D01*
X99707314Y-80899500D01*
X99680654Y-80884108D01*
X99593190Y-80833610D01*
X99593181Y-80833606D01*
X99465894Y-80799500D01*
X99465892Y-80799500D01*
X99334108Y-80799500D01*
X99334106Y-80799500D01*
X99206818Y-80833606D01*
X99206809Y-80833610D01*
X99092685Y-80899500D01*
X98999500Y-80992685D01*
X98933610Y-81106809D01*
X98933607Y-81106816D01*
X98924884Y-81139371D01*
X98890405Y-81184303D01*
X98834252Y-81191695D01*
X98805022Y-81176208D01*
X97629466Y-80160376D01*
X97302697Y-79878004D01*
X97300315Y-79875853D01*
X97277532Y-79854342D01*
X97277528Y-79854339D01*
X97273603Y-79851503D01*
X97273628Y-79851468D01*
X97270621Y-79849394D01*
X97270598Y-79849430D01*
X97266543Y-79846763D01*
X97238349Y-79833114D01*
X97235473Y-79831643D01*
X94979464Y-78614115D01*
X94118306Y-78149363D01*
X94108674Y-78143157D01*
X94100330Y-78136815D01*
X94100328Y-78136814D01*
X94100329Y-78136814D01*
X94082238Y-78129418D01*
X94075099Y-78126044D01*
X94057908Y-78116766D01*
X94057903Y-78116764D01*
X94047697Y-78114341D01*
X94036796Y-78110842D01*
X94027089Y-78106874D01*
X94027084Y-78106873D01*
X94007703Y-78104412D01*
X93999937Y-78103002D01*
X93985396Y-78099551D01*
X93980918Y-78098488D01*
X93980917Y-78098488D01*
X93980913Y-78098487D01*
X93970431Y-78098788D01*
X93958997Y-78098229D01*
X93948598Y-78096909D01*
X93929218Y-78099551D01*
X93921352Y-78100198D01*
X93901832Y-78100759D01*
X93901824Y-78100760D01*
X93891784Y-78103762D01*
X93880589Y-78106183D01*
X92819799Y-78250836D01*
X92815683Y-78251281D01*
X92786683Y-78253593D01*
X92785840Y-78253893D01*
X92771076Y-78257481D01*
X92770200Y-78257600D01*
X92770197Y-78257601D01*
X92743382Y-78268853D01*
X92739523Y-78270347D01*
X88966417Y-79610793D01*
X88959592Y-79612853D01*
X88938741Y-79618065D01*
X88938734Y-79618068D01*
X88931281Y-79622205D01*
X88920151Y-79627229D01*
X88912129Y-79630079D01*
X88912124Y-79630082D01*
X88894416Y-79642278D01*
X88888363Y-79646030D01*
X88869561Y-79656468D01*
X88863430Y-79662396D01*
X88853978Y-79670131D01*
X88846965Y-79674961D01*
X88846961Y-79674965D01*
X88833010Y-79691331D01*
X88828138Y-79696519D01*
X88812679Y-79711468D01*
X88812677Y-79711471D01*
X88808296Y-79718772D01*
X88801170Y-79728687D01*
X88795640Y-79735176D01*
X88795638Y-79735179D01*
X88786402Y-79754592D01*
X88783035Y-79760870D01*
X88650012Y-79982577D01*
X88646774Y-79987515D01*
X88632477Y-80007530D01*
X88632476Y-80007533D01*
X88630582Y-80012588D01*
X88624751Y-80024679D01*
X88621969Y-80029316D01*
X88615199Y-80052983D01*
X88613350Y-80058587D01*
X88604721Y-80081619D01*
X88604720Y-80081627D01*
X88604198Y-80087002D01*
X88601695Y-80100188D01*
X88600209Y-80105385D01*
X88600207Y-80105399D01*
X88599792Y-80130000D01*
X88599458Y-80135891D01*
X88597084Y-80160376D01*
X88597085Y-80160380D01*
X88597971Y-80165698D01*
X88598967Y-80179095D01*
X88598876Y-80184498D01*
X88598877Y-80184502D01*
X88604845Y-80208377D01*
X88606047Y-80214156D01*
X88648381Y-80468160D01*
X88649388Y-80480581D01*
X88649360Y-80488493D01*
X88649361Y-80488499D01*
X88655011Y-80509888D01*
X88656458Y-80516619D01*
X88660092Y-80538420D01*
X88660094Y-80538427D01*
X88663361Y-80545609D01*
X88667549Y-80557352D01*
X89344869Y-83121490D01*
X89347249Y-83143689D01*
X89101477Y-88648988D01*
X89099345Y-88663623D01*
X89098877Y-88665493D01*
X89098877Y-88665496D01*
X89099349Y-88693569D01*
X89099285Y-88698113D01*
X89098034Y-88726115D01*
X89098035Y-88726122D01*
X89098448Y-88727993D01*
X89100176Y-88742691D01*
X89100208Y-88744610D01*
X89107926Y-88771594D01*
X89109040Y-88775995D01*
X89115084Y-88803382D01*
X89115086Y-88803388D01*
X89115967Y-88805084D01*
X89121438Y-88818827D01*
X89121968Y-88820679D01*
X89121971Y-88820686D01*
X89136405Y-88844743D01*
X89138624Y-88848712D01*
X89151549Y-88873602D01*
X89151553Y-88873607D01*
X89152843Y-88875018D01*
X89161689Y-88886884D01*
X89279134Y-89082627D01*
X89283729Y-89091626D01*
X89289195Y-89104421D01*
X89289196Y-89104423D01*
X89299144Y-89117097D01*
X89304384Y-89124708D01*
X89312678Y-89138530D01*
X89322683Y-89148204D01*
X89329451Y-89155708D01*
X89338050Y-89166663D01*
X89338053Y-89166665D01*
X89338055Y-89166667D01*
X89350940Y-89176331D01*
X89357980Y-89182333D01*
X89369558Y-89193529D01*
X89381725Y-89200283D01*
X89390208Y-89205782D01*
X89870900Y-89566300D01*
X89899756Y-89615035D01*
X89885700Y-89669900D01*
X89836965Y-89698756D01*
X89826500Y-89699500D01*
X87624500Y-89699500D01*
X87572174Y-89677826D01*
X87550500Y-89625500D01*
X87550500Y-87262966D01*
X87572174Y-87210640D01*
X87610659Y-87172155D01*
X87650500Y-87132314D01*
X87716392Y-87018186D01*
X87750499Y-86890894D01*
X87750500Y-86890894D01*
X87750500Y-86759106D01*
X87750499Y-86759105D01*
X87749247Y-86754434D01*
X87716392Y-86631814D01*
X87650500Y-86517686D01*
X87557314Y-86424500D01*
X87515743Y-86400499D01*
X87443190Y-86358610D01*
X87443181Y-86358606D01*
X87315894Y-86324500D01*
X87315892Y-86324500D01*
X87184108Y-86324500D01*
X87184106Y-86324500D01*
X87056818Y-86358606D01*
X87056809Y-86358610D01*
X86942683Y-86424501D01*
X86883313Y-86483871D01*
X86830987Y-86505545D01*
X86778662Y-86483870D01*
X86757153Y-86436469D01*
X86600397Y-84085137D01*
X86600244Y-84081467D01*
X86599557Y-84040544D01*
X86598943Y-84038397D01*
X86596254Y-84022977D01*
X86596106Y-84020749D01*
X86596103Y-84020740D01*
X86596103Y-84020738D01*
X86595154Y-84015990D01*
X86597388Y-84015543D01*
X86600536Y-83966569D01*
X86618731Y-83943078D01*
X86777887Y-83806395D01*
X86814675Y-83759467D01*
X86836116Y-83682639D01*
X86826525Y-83603454D01*
X86797248Y-83551507D01*
X86119995Y-82762913D01*
X86073067Y-82726125D01*
X86073065Y-82726124D01*
X85996239Y-82704684D01*
X85917055Y-82714274D01*
X85917054Y-82714274D01*
X85865112Y-82743549D01*
X85865107Y-82743552D01*
X85145986Y-83361141D01*
X85076512Y-83420806D01*
X85039724Y-83467734D01*
X85018284Y-83544560D01*
X85027874Y-83623744D01*
X85027875Y-83623748D01*
X85031510Y-83630197D01*
X85038320Y-83686423D01*
X85003377Y-83730996D01*
X84967044Y-83740530D01*
X84894745Y-83740530D01*
X84856380Y-83748161D01*
X84759415Y-83767448D01*
X84759405Y-83767451D01*
X84631929Y-83820253D01*
X84517199Y-83896913D01*
X84419621Y-83994491D01*
X84342961Y-84109221D01*
X84290159Y-84236697D01*
X84290156Y-84236707D01*
X84263238Y-84372038D01*
X84263238Y-84513658D01*
X84262005Y-84513658D01*
X84246763Y-84563896D01*
X84196812Y-84590593D01*
X84177555Y-84589646D01*
X84177174Y-84589935D01*
X84147675Y-84978285D01*
X84125721Y-84965610D01*
X84043063Y-84943461D01*
X83957489Y-84943461D01*
X83898399Y-84959294D01*
X83928035Y-84569116D01*
X83796098Y-84595360D01*
X83796091Y-84595362D01*
X83668702Y-84648128D01*
X83554052Y-84724734D01*
X83554051Y-84724736D01*
X83456551Y-84822236D01*
X83456549Y-84822237D01*
X83379943Y-84936887D01*
X83327177Y-85064276D01*
X83327175Y-85064283D01*
X83321750Y-85091561D01*
X83710101Y-85121060D01*
X83697425Y-85143016D01*
X83675276Y-85225674D01*
X83675276Y-85311248D01*
X83691109Y-85370335D01*
X83300931Y-85340700D01*
X83295151Y-85347222D01*
X83287641Y-85384983D01*
X83240549Y-85416449D01*
X83211676Y-85416449D01*
X83105807Y-85395391D01*
X82967821Y-85395391D01*
X82931745Y-85402567D01*
X82832491Y-85422309D01*
X82832481Y-85422312D01*
X82705005Y-85475114D01*
X82590275Y-85551774D01*
X82492697Y-85649352D01*
X82416037Y-85764082D01*
X82363235Y-85891558D01*
X82363232Y-85891568D01*
X82336314Y-86026899D01*
X82336314Y-86168519D01*
X82334877Y-86168519D01*
X82319775Y-86218251D01*
X82269818Y-86244935D01*
X82248149Y-86243867D01*
X82142345Y-86222821D01*
X82004359Y-86222821D01*
X81965994Y-86230452D01*
X81869029Y-86249739D01*
X81869019Y-86249742D01*
X81741543Y-86302544D01*
X81626813Y-86379204D01*
X81529235Y-86476782D01*
X81452575Y-86591512D01*
X81399773Y-86718988D01*
X81399770Y-86718998D01*
X81372852Y-86854329D01*
X81372852Y-86995949D01*
X81371408Y-86995949D01*
X81356329Y-87045663D01*
X81306380Y-87072363D01*
X81284688Y-87071298D01*
X81267560Y-87067891D01*
X81178883Y-87050252D01*
X81040897Y-87050252D01*
X81002532Y-87057883D01*
X80905567Y-87077170D01*
X80905557Y-87077173D01*
X80778081Y-87129975D01*
X80663351Y-87206635D01*
X80565773Y-87304213D01*
X80489113Y-87418943D01*
X80436311Y-87546419D01*
X80436308Y-87546429D01*
X80409390Y-87681760D01*
X80409390Y-87819743D01*
X80436308Y-87955074D01*
X80436311Y-87955084D01*
X80489113Y-88082560D01*
X80547818Y-88170419D01*
X80565776Y-88197294D01*
X80663348Y-88294866D01*
X80778079Y-88371527D01*
X80778080Y-88371527D01*
X80778081Y-88371528D01*
X80863272Y-88406815D01*
X80905562Y-88424332D01*
X81040897Y-88451252D01*
X81040899Y-88451252D01*
X81178881Y-88451252D01*
X81178883Y-88451252D01*
X81314218Y-88424332D01*
X81441701Y-88371527D01*
X81556432Y-88294866D01*
X81654004Y-88197294D01*
X81730665Y-88082563D01*
X81783470Y-87955080D01*
X81810390Y-87819745D01*
X81810390Y-87681759D01*
X81810390Y-87678124D01*
X81811840Y-87678124D01*
X81826897Y-87628427D01*
X81876837Y-87601711D01*
X81898548Y-87602773D01*
X82004359Y-87623821D01*
X82004361Y-87623821D01*
X82142343Y-87623821D01*
X82142345Y-87623821D01*
X82277680Y-87596901D01*
X82405163Y-87544096D01*
X82519894Y-87467435D01*
X82617466Y-87369863D01*
X82694127Y-87255132D01*
X82746932Y-87127649D01*
X82773852Y-86992314D01*
X82773852Y-86854328D01*
X82773852Y-86850693D01*
X82775296Y-86850693D01*
X82790375Y-86800979D01*
X82840324Y-86774279D01*
X82862009Y-86775343D01*
X82967821Y-86796391D01*
X82967823Y-86796391D01*
X83105805Y-86796391D01*
X83105807Y-86796391D01*
X83241142Y-86769471D01*
X83368625Y-86716666D01*
X83483356Y-86640005D01*
X83580928Y-86542433D01*
X83657589Y-86427702D01*
X83710394Y-86300219D01*
X83737314Y-86164884D01*
X83737314Y-86026898D01*
X83737314Y-86023263D01*
X83738553Y-86023263D01*
X83753775Y-85973039D01*
X83788561Y-85949452D01*
X83824045Y-85938166D01*
X83852874Y-85558635D01*
X83874831Y-85571312D01*
X83957489Y-85593461D01*
X84043063Y-85593461D01*
X84102150Y-85577627D01*
X84072515Y-85967804D01*
X84072516Y-85967804D01*
X84204452Y-85941561D01*
X84204462Y-85941558D01*
X84331849Y-85888793D01*
X84446499Y-85812187D01*
X84446501Y-85812186D01*
X84544001Y-85714686D01*
X84544002Y-85714684D01*
X84620608Y-85600034D01*
X84673374Y-85472646D01*
X84673374Y-85472645D01*
X84678801Y-85445360D01*
X84678801Y-85445359D01*
X84290451Y-85415860D01*
X84303127Y-85393906D01*
X84325276Y-85311248D01*
X84325276Y-85225674D01*
X84309442Y-85166584D01*
X84699619Y-85196220D01*
X84705397Y-85189699D01*
X84712908Y-85151939D01*
X84759999Y-85120471D01*
X84788875Y-85120471D01*
X84894745Y-85141530D01*
X84894747Y-85141530D01*
X85032729Y-85141530D01*
X85032731Y-85141530D01*
X85168066Y-85114610D01*
X85295549Y-85061805D01*
X85410280Y-84985144D01*
X85507852Y-84887572D01*
X85584513Y-84772841D01*
X85637318Y-84645358D01*
X85658087Y-84540943D01*
X85689551Y-84493854D01*
X85745100Y-84482804D01*
X85776318Y-84497144D01*
X85781332Y-84501075D01*
X85787834Y-84504365D01*
X85786152Y-84507687D01*
X85820291Y-84534441D01*
X85829667Y-84565863D01*
X86078838Y-88303437D01*
X86069089Y-88345357D01*
X86033608Y-88406814D01*
X86033608Y-88406815D01*
X86033606Y-88406818D01*
X85999500Y-88534105D01*
X85999500Y-88665894D01*
X86033606Y-88793181D01*
X86033610Y-88793190D01*
X86077495Y-88869201D01*
X86099500Y-88907314D01*
X86192686Y-89000500D01*
X86306814Y-89066392D01*
X86434105Y-89100499D01*
X86434106Y-89100500D01*
X86434108Y-89100500D01*
X86565894Y-89100500D01*
X86565894Y-89100499D01*
X86693186Y-89066392D01*
X86807314Y-89000500D01*
X86823174Y-88984640D01*
X86875500Y-88962966D01*
X86927826Y-88984640D01*
X86949500Y-89036966D01*
X86949500Y-90039564D01*
X86969977Y-90115985D01*
X86969979Y-90115990D01*
X86999868Y-90167758D01*
X87009540Y-90184511D01*
X87065489Y-90240460D01*
X87134011Y-90280021D01*
X87134012Y-90280021D01*
X87134014Y-90280022D01*
X87172224Y-90290260D01*
X87210435Y-90300499D01*
X87210436Y-90300500D01*
X87210438Y-90300500D01*
X88613034Y-90300500D01*
X88665360Y-90322174D01*
X88687034Y-90374500D01*
X88665360Y-90426826D01*
X88599500Y-90492685D01*
X88533606Y-90606815D01*
X88530511Y-90618366D01*
X88511360Y-90651534D01*
X87551535Y-91611360D01*
X87518366Y-91630511D01*
X87506816Y-91633606D01*
X87392685Y-91699500D01*
X87299500Y-91792685D01*
X87234572Y-91905143D01*
X87189638Y-91939622D01*
X87133486Y-91932229D01*
X87099758Y-91889906D01*
X87098886Y-91887071D01*
X87065504Y-91778580D01*
X87070831Y-91722197D01*
X87072147Y-91719819D01*
X87084971Y-91697607D01*
X87116392Y-91643186D01*
X87150500Y-91515892D01*
X87150500Y-91384108D01*
X87150500Y-91384106D01*
X87150499Y-91384105D01*
X87121162Y-91274618D01*
X87116392Y-91256814D01*
X87050500Y-91142686D01*
X86957314Y-91049500D01*
X86870712Y-90999500D01*
X86843190Y-90983610D01*
X86843181Y-90983606D01*
X86715894Y-90949500D01*
X86715892Y-90949500D01*
X86584108Y-90949500D01*
X86584106Y-90949500D01*
X86456818Y-90983606D01*
X86456809Y-90983610D01*
X86342685Y-91049500D01*
X86277326Y-91114860D01*
X86225000Y-91136534D01*
X86172674Y-91114860D01*
X86157314Y-91099500D01*
X86043190Y-91033610D01*
X86043181Y-91033606D01*
X85915894Y-90999500D01*
X85915892Y-90999500D01*
X85784108Y-90999500D01*
X85784106Y-90999500D01*
X85656818Y-91033606D01*
X85656809Y-91033610D01*
X85542685Y-91099500D01*
X85449500Y-91192685D01*
X85383610Y-91306809D01*
X85383606Y-91306818D01*
X85349500Y-91434105D01*
X85349500Y-91565894D01*
X85383606Y-91693181D01*
X85383610Y-91693190D01*
X85432418Y-91777727D01*
X85449500Y-91807314D01*
X85542686Y-91900500D01*
X85656814Y-91966392D01*
X85656818Y-91966393D01*
X85662374Y-91967882D01*
X85707307Y-92002361D01*
X85713002Y-92014731D01*
X86595168Y-94514202D01*
X86592145Y-94570759D01*
X86550016Y-94608612D01*
X86506234Y-94610309D01*
X86465894Y-94599500D01*
X86465892Y-94599500D01*
X86334108Y-94599500D01*
X86334106Y-94599500D01*
X86206818Y-94633606D01*
X86206809Y-94633610D01*
X86092685Y-94699500D01*
X85999500Y-94792685D01*
X85933610Y-94906809D01*
X85933606Y-94906818D01*
X85899500Y-95034105D01*
X85899500Y-95165894D01*
X85933606Y-95293181D01*
X85933610Y-95293190D01*
X85999500Y-95407314D01*
X86077826Y-95485640D01*
X86099500Y-95537966D01*
X86099500Y-96812034D01*
X86077826Y-96864360D01*
X85999500Y-96942685D01*
X85933610Y-97056809D01*
X85933606Y-97056818D01*
X85899500Y-97184105D01*
X85899500Y-97315894D01*
X85933606Y-97443181D01*
X85933610Y-97443190D01*
X85983203Y-97529087D01*
X85999500Y-97557314D01*
X86092686Y-97650500D01*
X86206814Y-97716392D01*
X86334105Y-97750499D01*
X86334106Y-97750500D01*
X86334108Y-97750500D01*
X86465894Y-97750500D01*
X86465894Y-97750499D01*
X86593186Y-97716392D01*
X86707314Y-97650500D01*
X86800500Y-97557314D01*
X86866392Y-97443186D01*
X86900499Y-97315894D01*
X86900500Y-97315894D01*
X86900500Y-97184106D01*
X86900499Y-97184105D01*
X86891494Y-97150499D01*
X86866392Y-97056814D01*
X86800500Y-96942686D01*
X86722174Y-96864360D01*
X86700500Y-96812034D01*
X86700500Y-95537966D01*
X86722174Y-95485640D01*
X86731999Y-95475815D01*
X86798691Y-95409122D01*
X86851016Y-95387449D01*
X86903342Y-95409123D01*
X86920797Y-95436820D01*
X88620690Y-100253181D01*
X88617667Y-100309738D01*
X88575538Y-100347591D01*
X88518981Y-100344568D01*
X88498771Y-100330323D01*
X82722362Y-94595174D01*
X82700500Y-94542926D01*
X82700500Y-94434106D01*
X82700499Y-94434105D01*
X82687037Y-94383865D01*
X82666392Y-94306814D01*
X82600500Y-94192686D01*
X82507314Y-94099500D01*
X82465745Y-94075500D01*
X82393190Y-94033610D01*
X82393188Y-94033609D01*
X82393186Y-94033608D01*
X82393183Y-94033607D01*
X82388708Y-94031754D01*
X82389353Y-94030196D01*
X82349197Y-93999381D01*
X82341806Y-93943228D01*
X82358308Y-93912848D01*
X85681458Y-90224962D01*
X85732587Y-90200600D01*
X85736432Y-90200500D01*
X85815894Y-90200500D01*
X85815894Y-90200499D01*
X85943186Y-90166392D01*
X86057314Y-90100500D01*
X86150500Y-90007314D01*
X86216392Y-89893186D01*
X86250499Y-89765894D01*
X86250500Y-89765894D01*
X86250500Y-89634106D01*
X86250499Y-89634105D01*
X86250366Y-89633610D01*
X86216392Y-89506814D01*
X86150500Y-89392686D01*
X86057314Y-89299500D01*
X85999959Y-89266386D01*
X85943190Y-89233610D01*
X85943181Y-89233606D01*
X85815894Y-89199500D01*
X85815892Y-89199500D01*
X85684108Y-89199500D01*
X85684106Y-89199500D01*
X85556818Y-89233606D01*
X85556809Y-89233610D01*
X85442685Y-89299500D01*
X85349500Y-89392685D01*
X85283610Y-89506809D01*
X85283606Y-89506818D01*
X85249500Y-89634105D01*
X85249500Y-89765895D01*
X85249713Y-89767514D01*
X85249500Y-89768308D01*
X85249500Y-89770742D01*
X85248848Y-89770742D01*
X85235052Y-89822221D01*
X85231320Y-89826707D01*
X81456311Y-94016047D01*
X81450625Y-94021650D01*
X81430116Y-94044986D01*
X81430111Y-94044992D01*
X81425495Y-94050246D01*
X81400279Y-94078231D01*
X81399416Y-94079921D01*
X81398164Y-94081347D01*
X81381444Y-94115160D01*
X81364331Y-94148716D01*
X81363936Y-94150569D01*
X81363094Y-94152273D01*
X81362052Y-94157480D01*
X81362051Y-94157483D01*
X81355768Y-94188893D01*
X81355594Y-94189735D01*
X81347851Y-94226103D01*
X81347851Y-94226105D01*
X81347778Y-94226449D01*
X81346678Y-94234347D01*
X81311262Y-94411431D01*
X81307998Y-94422875D01*
X81304721Y-94431622D01*
X81304720Y-94431626D01*
X81302725Y-94452205D01*
X81301634Y-94459573D01*
X81297576Y-94479861D01*
X81297576Y-94479864D01*
X81298177Y-94489187D01*
X81297985Y-94501077D01*
X81297084Y-94510371D01*
X81297085Y-94510380D01*
X81300485Y-94530780D01*
X81301338Y-94538181D01*
X81302669Y-94558819D01*
X81305661Y-94567662D01*
X81308556Y-94579208D01*
X81349469Y-94824681D01*
X81350439Y-94834514D01*
X81350796Y-94845851D01*
X81350896Y-94849004D01*
X81350896Y-94849009D01*
X81355387Y-94863879D01*
X81357539Y-94873104D01*
X81360092Y-94888421D01*
X81360094Y-94888427D01*
X81366096Y-94901622D01*
X81369575Y-94910863D01*
X81373770Y-94924752D01*
X81373771Y-94924753D01*
X81381957Y-94937953D01*
X81386426Y-94946311D01*
X81392854Y-94960441D01*
X81392857Y-94960446D01*
X81402074Y-94971642D01*
X81407829Y-94979670D01*
X84053355Y-99245581D01*
X84062513Y-99301473D01*
X84029468Y-99347470D01*
X84009620Y-99356060D01*
X83906818Y-99383606D01*
X83906809Y-99383610D01*
X83792685Y-99449500D01*
X83699500Y-99542685D01*
X83633610Y-99656809D01*
X83633606Y-99656818D01*
X83599500Y-99784105D01*
X83599500Y-99891042D01*
X83577826Y-99943368D01*
X83577500Y-99943692D01*
X81469670Y-102025500D01*
X80155887Y-103323065D01*
X80150738Y-103328150D01*
X80098738Y-103349500D01*
X79984106Y-103349500D01*
X79856818Y-103383606D01*
X79856809Y-103383610D01*
X79742685Y-103449500D01*
X79649500Y-103542685D01*
X79583610Y-103656809D01*
X79583606Y-103656818D01*
X79549500Y-103784105D01*
X79549500Y-103915894D01*
X79583606Y-104043181D01*
X79583610Y-104043190D01*
X79632855Y-104128484D01*
X79649500Y-104157314D01*
X79742686Y-104250500D01*
X79856814Y-104316392D01*
X79984105Y-104350499D01*
X79984106Y-104350500D01*
X79984108Y-104350500D01*
X80115894Y-104350500D01*
X80115894Y-104350499D01*
X80243186Y-104316392D01*
X80357314Y-104250500D01*
X80450500Y-104157314D01*
X80516392Y-104043186D01*
X80550499Y-103915894D01*
X80550500Y-103915894D01*
X80550500Y-103808956D01*
X80572174Y-103756630D01*
X80572500Y-103756306D01*
X82370356Y-101980645D01*
X82422814Y-101959297D01*
X82475004Y-101981296D01*
X82486439Y-101996295D01*
X82529520Y-102070913D01*
X82604087Y-102145480D01*
X82695413Y-102198207D01*
X82797270Y-102225499D01*
X82797271Y-102225500D01*
X82797273Y-102225500D01*
X82902729Y-102225500D01*
X82902729Y-102225499D01*
X83004587Y-102198207D01*
X83095913Y-102145480D01*
X83170480Y-102070913D01*
X83196699Y-102025500D01*
X83198203Y-102022895D01*
X83234038Y-101991499D01*
X83622251Y-101831150D01*
X83678887Y-101831206D01*
X83718895Y-101871295D01*
X83724500Y-101899545D01*
X83724500Y-101928831D01*
X83708435Y-101974869D01*
X81697832Y-104505065D01*
X81695802Y-104507510D01*
X81666154Y-104541695D01*
X81663291Y-104546718D01*
X81660640Y-104551872D01*
X81648193Y-104595359D01*
X81647253Y-104598397D01*
X81480908Y-105097434D01*
X81477638Y-105105592D01*
X81463818Y-105134901D01*
X81463817Y-105134905D01*
X81463533Y-105140843D01*
X81459822Y-105160694D01*
X81457942Y-105166333D01*
X81457942Y-105166334D01*
X81460238Y-105198655D01*
X81460339Y-105207442D01*
X81289120Y-108778572D01*
X81286532Y-108790162D01*
X81287422Y-108790339D01*
X81286000Y-108797489D01*
X81286000Y-108841902D01*
X81285915Y-108845446D01*
X81283788Y-108889809D01*
X81284866Y-108897018D01*
X81283962Y-108897153D01*
X81286000Y-108908854D01*
X81286000Y-109126490D01*
X81283013Y-109147302D01*
X81281887Y-109151143D01*
X81281886Y-109151146D01*
X81285572Y-109185256D01*
X81286000Y-109193204D01*
X81286000Y-109227512D01*
X81287532Y-109231211D01*
X81292735Y-109251575D01*
X81293165Y-109255557D01*
X81293166Y-109255559D01*
X81293166Y-109255560D01*
X81293167Y-109255563D01*
X81309630Y-109285678D01*
X81313060Y-109292842D01*
X81326190Y-109324540D01*
X81326192Y-109324544D01*
X81329024Y-109327376D01*
X81341625Y-109344201D01*
X86275284Y-118368581D01*
X86281507Y-118383749D01*
X86285584Y-118398018D01*
X86285584Y-118398019D01*
X86300254Y-118416498D01*
X86307227Y-118427010D01*
X86318547Y-118447716D01*
X86330107Y-118457022D01*
X86341658Y-118468651D01*
X86350886Y-118480275D01*
X86371517Y-118491737D01*
X86381977Y-118498778D01*
X86400357Y-118513574D01*
X86400358Y-118513574D01*
X86400359Y-118513575D01*
X86414597Y-118517747D01*
X86429722Y-118524072D01*
X86580410Y-118607788D01*
X86596798Y-118620150D01*
X86600456Y-118623808D01*
X86631102Y-118636501D01*
X86638697Y-118640169D01*
X86667695Y-118656280D01*
X86672830Y-118656869D01*
X86692707Y-118662020D01*
X86697487Y-118664000D01*
X86730653Y-118664000D01*
X86739099Y-118664483D01*
X86772034Y-118668268D01*
X86777008Y-118666846D01*
X86797336Y-118664000D01*
X87045403Y-118664000D01*
X87058264Y-118665126D01*
X87080832Y-118669109D01*
X87080832Y-118669108D01*
X87080834Y-118669109D01*
X87095986Y-118665751D01*
X87111994Y-118664000D01*
X87127513Y-118664000D01*
X87148696Y-118655224D01*
X87160994Y-118651348D01*
X87183374Y-118646391D01*
X87196090Y-118637488D01*
X87210201Y-118629748D01*
X87224544Y-118623808D01*
X87240749Y-118607601D01*
X87250632Y-118599309D01*
X87446095Y-118462485D01*
X87460197Y-118454749D01*
X87474544Y-118448808D01*
X87490747Y-118432603D01*
X87500637Y-118424305D01*
X87519414Y-118411163D01*
X87527758Y-118398068D01*
X87537827Y-118385523D01*
X90201179Y-115722174D01*
X90253505Y-115700500D01*
X90302729Y-115700500D01*
X90302729Y-115700499D01*
X90404587Y-115673207D01*
X90495913Y-115620480D01*
X90570480Y-115545913D01*
X90623207Y-115454587D01*
X90650499Y-115352729D01*
X90650500Y-115352729D01*
X90650500Y-115247271D01*
X90650499Y-115247270D01*
X90623208Y-115145417D01*
X90623207Y-115145413D01*
X90570480Y-115054087D01*
X90495913Y-114979520D01*
X90404591Y-114926795D01*
X90404582Y-114926791D01*
X90302729Y-114899500D01*
X90302727Y-114899500D01*
X90197273Y-114899500D01*
X90197271Y-114899500D01*
X90095417Y-114926791D01*
X90095408Y-114926795D01*
X90004086Y-114979520D01*
X89929520Y-115054086D01*
X89876795Y-115145408D01*
X89876791Y-115145417D01*
X89849500Y-115247270D01*
X89849500Y-115296495D01*
X89827826Y-115348821D01*
X88022446Y-117154200D01*
X87970120Y-117175874D01*
X87917794Y-117154200D01*
X87906034Y-117138874D01*
X87850499Y-117042685D01*
X87757314Y-116949500D01*
X87643190Y-116883610D01*
X87643181Y-116883606D01*
X87517479Y-116849924D01*
X87473712Y-116817396D01*
X87371066Y-116651584D01*
X86532202Y-115296495D01*
X84847815Y-112575562D01*
X84838702Y-112519663D01*
X84842744Y-112507403D01*
X84946795Y-112265199D01*
X84987363Y-112225678D01*
X85043995Y-112226418D01*
X85067112Y-112242083D01*
X86563687Y-113738658D01*
X86572186Y-113748838D01*
X86574536Y-113752230D01*
X86575526Y-113753658D01*
X86575527Y-113753659D01*
X86575529Y-113753661D01*
X86593933Y-113769259D01*
X86598412Y-113773383D01*
X86615489Y-113790460D01*
X86620565Y-113793390D01*
X86631414Y-113801026D01*
X86635885Y-113804816D01*
X86657716Y-113815128D01*
X86663101Y-113817948D01*
X86684012Y-113830021D01*
X86689673Y-113831537D01*
X86702119Y-113836102D01*
X86707428Y-113838610D01*
X86731178Y-113842918D01*
X86737111Y-113844249D01*
X86760438Y-113850500D01*
X86766304Y-113850500D01*
X86779514Y-113851689D01*
X87344853Y-113954261D01*
X98581189Y-115992920D01*
X98587086Y-115994242D01*
X98610438Y-116000500D01*
X98616305Y-116000500D01*
X98629515Y-116001688D01*
X98635281Y-116002735D01*
X98659328Y-116000751D01*
X98665413Y-116000500D01*
X98939370Y-116000500D01*
X98943567Y-116000619D01*
X98944588Y-116000676D01*
X98972451Y-116002260D01*
X98973469Y-116002048D01*
X98988526Y-116000500D01*
X98989562Y-116000500D01*
X99017531Y-115993004D01*
X99021597Y-115992039D01*
X99049917Y-115986150D01*
X99050831Y-115985688D01*
X99064997Y-115980286D01*
X99065989Y-115980021D01*
X99091043Y-115965555D01*
X99094722Y-115963567D01*
X104941113Y-113016986D01*
X104997593Y-113012792D01*
X105002738Y-113014703D01*
X105006809Y-113016389D01*
X105006814Y-113016392D01*
X105134105Y-113050499D01*
X105134106Y-113050500D01*
X105134108Y-113050500D01*
X105265894Y-113050500D01*
X105265894Y-113050499D01*
X105393186Y-113016392D01*
X105507314Y-112950500D01*
X105600500Y-112857314D01*
X105666392Y-112743186D01*
X105700499Y-112615894D01*
X105700500Y-112615894D01*
X105700500Y-112484106D01*
X105700499Y-112484105D01*
X105698807Y-112477792D01*
X105666392Y-112356814D01*
X105600500Y-112242686D01*
X105507314Y-112149500D01*
X105422442Y-112100499D01*
X105393190Y-112083610D01*
X105393181Y-112083606D01*
X105265894Y-112049500D01*
X105265892Y-112049500D01*
X105134108Y-112049500D01*
X105134106Y-112049500D01*
X105006818Y-112083606D01*
X105006809Y-112083610D01*
X104892685Y-112149500D01*
X104799500Y-112242685D01*
X104733610Y-112356809D01*
X104733606Y-112356818D01*
X104713766Y-112430863D01*
X104679288Y-112475796D01*
X104675593Y-112477792D01*
X99407805Y-115132757D01*
X99351324Y-115136952D01*
X99308418Y-115099980D01*
X99300500Y-115066675D01*
X99300500Y-115034106D01*
X99300499Y-115034105D01*
X99266393Y-114906818D01*
X99266392Y-114906814D01*
X99200500Y-114792686D01*
X99143474Y-114735660D01*
X99121800Y-114683334D01*
X99121890Y-114679680D01*
X99148682Y-114143864D01*
X99150123Y-114132580D01*
X99152284Y-114122141D01*
X99151164Y-114102809D01*
X99151133Y-114094837D01*
X99152101Y-114075494D01*
X99149859Y-114065075D01*
X99148329Y-114053790D01*
X99147714Y-114043150D01*
X99147714Y-114043149D01*
X99141624Y-114024749D01*
X99139535Y-114017071D01*
X99137696Y-114008519D01*
X99135464Y-113998140D01*
X99130600Y-113988651D01*
X99126205Y-113978155D01*
X99122856Y-113968036D01*
X99122855Y-113968035D01*
X99122855Y-113968033D01*
X99112213Y-113951839D01*
X99108204Y-113944956D01*
X99099374Y-113927727D01*
X99099372Y-113927724D01*
X99092223Y-113919823D01*
X99085254Y-113910814D01*
X99079402Y-113901909D01*
X99064943Y-113889031D01*
X99059290Y-113883421D01*
X99046290Y-113869055D01*
X99046288Y-113869052D01*
X99037335Y-113863269D01*
X99028273Y-113856372D01*
X93206257Y-108671138D01*
X93181597Y-108620151D01*
X93200212Y-108566661D01*
X93218470Y-108551794D01*
X93307314Y-108500500D01*
X93400500Y-108407314D01*
X93466392Y-108293186D01*
X93478529Y-108247885D01*
X93513008Y-108202953D01*
X93517031Y-108200793D01*
X93868052Y-108026203D01*
X93899409Y-108018478D01*
X97630736Y-107938061D01*
X97683514Y-107958603D01*
X97706311Y-108010450D01*
X97703807Y-108031194D01*
X97699500Y-108047270D01*
X97699500Y-108152729D01*
X97726791Y-108254582D01*
X97726795Y-108254591D01*
X97749075Y-108293181D01*
X97779520Y-108345913D01*
X97854087Y-108420480D01*
X97945413Y-108473207D01*
X98047270Y-108500499D01*
X98047271Y-108500500D01*
X98047273Y-108500500D01*
X98152729Y-108500500D01*
X98152729Y-108500499D01*
X98254587Y-108473207D01*
X98345913Y-108420480D01*
X98388792Y-108377600D01*
X98439342Y-108355947D01*
X113879661Y-107986119D01*
X113932491Y-108006534D01*
X113955412Y-108058326D01*
X113934997Y-108111156D01*
X113901930Y-108131203D01*
X102722086Y-111354020D01*
X102665804Y-111347687D01*
X102664590Y-111347001D01*
X102629591Y-111326795D01*
X102629582Y-111326791D01*
X102527729Y-111299500D01*
X102527727Y-111299500D01*
X102422273Y-111299500D01*
X102422271Y-111299500D01*
X102320417Y-111326791D01*
X102320408Y-111326795D01*
X102229086Y-111379520D01*
X102154520Y-111454086D01*
X102101795Y-111545408D01*
X102101791Y-111545417D01*
X102074500Y-111647270D01*
X102074500Y-111752729D01*
X102101791Y-111854582D01*
X102101795Y-111854591D01*
X102154520Y-111945913D01*
X102229087Y-112020480D01*
X102320413Y-112073207D01*
X102422270Y-112100499D01*
X102422271Y-112100500D01*
X102422273Y-112100500D01*
X102527729Y-112100500D01*
X102527729Y-112100499D01*
X102629587Y-112073207D01*
X102720913Y-112020480D01*
X102795480Y-111945913D01*
X102824575Y-111895516D01*
X102868161Y-111861412D01*
X105360005Y-111143088D01*
X105416287Y-111149421D01*
X105451607Y-111193696D01*
X105445274Y-111249978D01*
X105444588Y-111251193D01*
X105383610Y-111356809D01*
X105383606Y-111356818D01*
X105349500Y-111484105D01*
X105349500Y-111615894D01*
X105383606Y-111743181D01*
X105383610Y-111743190D01*
X105430189Y-111823867D01*
X105449500Y-111857314D01*
X105542686Y-111950500D01*
X105656814Y-112016392D01*
X105784105Y-112050499D01*
X105784106Y-112050500D01*
X105784108Y-112050500D01*
X105915894Y-112050500D01*
X105915894Y-112050499D01*
X106043186Y-112016392D01*
X106157314Y-111950500D01*
X106250500Y-111857314D01*
X106316392Y-111743186D01*
X106328428Y-111698261D01*
X106362906Y-111653329D01*
X106375709Y-111647483D01*
X108684661Y-110848711D01*
X108741196Y-110852086D01*
X108778786Y-110894451D01*
X108780331Y-110899491D01*
X108801791Y-110979582D01*
X108801792Y-110979585D01*
X108801793Y-110979587D01*
X108854520Y-111070913D01*
X108929087Y-111145480D01*
X109020413Y-111198207D01*
X109122270Y-111225499D01*
X109122271Y-111225500D01*
X109122273Y-111225500D01*
X109227729Y-111225500D01*
X109227729Y-111225499D01*
X109329587Y-111198207D01*
X109420913Y-111145480D01*
X109455719Y-111110674D01*
X109508045Y-111089000D01*
X109741955Y-111089000D01*
X109794281Y-111110674D01*
X109829087Y-111145480D01*
X109920413Y-111198207D01*
X110022270Y-111225499D01*
X110022271Y-111225500D01*
X110022273Y-111225500D01*
X110127729Y-111225500D01*
X110127729Y-111225499D01*
X110229587Y-111198207D01*
X110320913Y-111145480D01*
X110395480Y-111070913D01*
X110448207Y-110979587D01*
X110475499Y-110877729D01*
X110475500Y-110877729D01*
X110475500Y-110772271D01*
X110475499Y-110772270D01*
X110473708Y-110765587D01*
X110448207Y-110670413D01*
X110395480Y-110579087D01*
X110320913Y-110504520D01*
X110232542Y-110453499D01*
X110229584Y-110451791D01*
X110228707Y-110451428D01*
X110228368Y-110451089D01*
X110225387Y-110449368D01*
X110225848Y-110448569D01*
X110188658Y-110411380D01*
X110188658Y-110354743D01*
X110228706Y-110314694D01*
X110232817Y-110313133D01*
X114601307Y-108801871D01*
X114657843Y-108805246D01*
X114695433Y-108847611D01*
X114699500Y-108871804D01*
X114699500Y-108965894D01*
X114733606Y-109093181D01*
X114733610Y-109093190D01*
X114767071Y-109151145D01*
X114799500Y-109207314D01*
X114892686Y-109300500D01*
X115006814Y-109366392D01*
X115134105Y-109400499D01*
X115134106Y-109400500D01*
X115134108Y-109400500D01*
X115265894Y-109400500D01*
X115265894Y-109400499D01*
X115393186Y-109366392D01*
X115403542Y-109360412D01*
X115440540Y-109350500D01*
X116126126Y-109350500D01*
X116178452Y-109372174D01*
X116200126Y-109424500D01*
X116199500Y-109434061D01*
X116199500Y-109565894D01*
X116233606Y-109693181D01*
X116233607Y-109693184D01*
X116233608Y-109693186D01*
X116299500Y-109807314D01*
X116392686Y-109900500D01*
X116506814Y-109966392D01*
X116507069Y-109966460D01*
X116507173Y-109966540D01*
X116511292Y-109968246D01*
X116510835Y-109969349D01*
X116552006Y-110000933D01*
X116559404Y-110057085D01*
X116552010Y-110074940D01*
X116533610Y-110106809D01*
X116533606Y-110106818D01*
X116499500Y-110234105D01*
X116499500Y-110365892D01*
X116507550Y-110395937D01*
X116500156Y-110452089D01*
X116497050Y-110457011D01*
X115867936Y-111372087D01*
X115826110Y-111401642D01*
X115706818Y-111433606D01*
X115706809Y-111433610D01*
X115592685Y-111499500D01*
X115499500Y-111592685D01*
X115433610Y-111706809D01*
X115433607Y-111706816D01*
X115416263Y-111771543D01*
X115381784Y-111816475D01*
X115325631Y-111823867D01*
X115291635Y-111803878D01*
X115260310Y-111771543D01*
X114650325Y-111141881D01*
X114446350Y-110931326D01*
X114425500Y-110879837D01*
X114425500Y-110793980D01*
X114425499Y-110793979D01*
X114423447Y-110786322D01*
X114396503Y-110685763D01*
X114340485Y-110588737D01*
X114261263Y-110509515D01*
X114232984Y-110493188D01*
X114164241Y-110453499D01*
X114164232Y-110453495D01*
X114056020Y-110424500D01*
X114056018Y-110424500D01*
X113943982Y-110424500D01*
X113943980Y-110424500D01*
X113835767Y-110453495D01*
X113835758Y-110453499D01*
X113738736Y-110509515D01*
X113659515Y-110588736D01*
X113603499Y-110685758D01*
X113603495Y-110685767D01*
X113574500Y-110793979D01*
X113574500Y-110906020D01*
X113603495Y-111014232D01*
X113603499Y-111014241D01*
X113623856Y-111049500D01*
X113659515Y-111111263D01*
X113738737Y-111190485D01*
X113835763Y-111246503D01*
X113943979Y-111275499D01*
X113943980Y-111275500D01*
X113943982Y-111275500D01*
X114013296Y-111275500D01*
X114065622Y-111297174D01*
X114066416Y-111297981D01*
X115082208Y-112346540D01*
X115339858Y-112612501D01*
X115347974Y-112622488D01*
X115360877Y-112641536D01*
X115360880Y-112641539D01*
X115360881Y-112641540D01*
X115373760Y-112650028D01*
X115386186Y-112660325D01*
X115396918Y-112671402D01*
X115396923Y-112671407D01*
X115418044Y-112680551D01*
X115429354Y-112686666D01*
X115448576Y-112699333D01*
X115463723Y-112702245D01*
X115479149Y-112707004D01*
X115493304Y-112713133D01*
X115516319Y-112713497D01*
X115529108Y-112714819D01*
X119366391Y-113452758D01*
X119380726Y-113457057D01*
X119397487Y-113464000D01*
X119417796Y-113464000D01*
X119431770Y-113465331D01*
X119437294Y-113466394D01*
X119451712Y-113469167D01*
X119451712Y-113469166D01*
X119451713Y-113469167D01*
X119465200Y-113466395D01*
X119469482Y-113465515D01*
X119484379Y-113464000D01*
X119841108Y-113464000D01*
X119844997Y-113464102D01*
X119888564Y-113466395D01*
X119888568Y-113466393D01*
X119895582Y-113465378D01*
X119902510Y-113464000D01*
X119902513Y-113464000D01*
X119942847Y-113447291D01*
X119946418Y-113445921D01*
X119987574Y-113431359D01*
X119987575Y-113431357D01*
X119993649Y-113427746D01*
X119999540Y-113423809D01*
X119999544Y-113423808D01*
X120030390Y-113392960D01*
X120033193Y-113390300D01*
X120250754Y-113194496D01*
X120300257Y-113175500D01*
X120406020Y-113175500D01*
X120406020Y-113175499D01*
X120513273Y-113146761D01*
X120569424Y-113154153D01*
X120603903Y-113199086D01*
X120596511Y-113255238D01*
X120594944Y-113257829D01*
X120485331Y-113430927D01*
X120484341Y-113432449D01*
X120248982Y-113784687D01*
X120247954Y-113786185D01*
X119836906Y-114369830D01*
X119836272Y-114370716D01*
X119606969Y-114686324D01*
X119605440Y-114688355D01*
X119001486Y-115462251D01*
X119001262Y-115462536D01*
X118939260Y-115541187D01*
X118937416Y-115543434D01*
X118872443Y-115619508D01*
X118872206Y-115619784D01*
X118230965Y-116363158D01*
X118229272Y-116365054D01*
X117964440Y-116651548D01*
X117963694Y-116652343D01*
X117471471Y-117169342D01*
X117470203Y-117170642D01*
X117170642Y-117470203D01*
X117169342Y-117471471D01*
X116652343Y-117963694D01*
X116651548Y-117964440D01*
X116365054Y-118229272D01*
X116363158Y-118230965D01*
X115619816Y-118872178D01*
X115619540Y-118872415D01*
X115543434Y-118937416D01*
X115541187Y-118939260D01*
X115462536Y-119001262D01*
X115462251Y-119001486D01*
X114688355Y-119605440D01*
X114686324Y-119606969D01*
X114370716Y-119836272D01*
X114369830Y-119836906D01*
X113786185Y-120247954D01*
X113784687Y-120248982D01*
X113432449Y-120484341D01*
X113430927Y-120485331D01*
X112827812Y-120867250D01*
X112826887Y-120867826D01*
X112494248Y-121071667D01*
X112492058Y-121072958D01*
X111638019Y-121556766D01*
X111637702Y-121556945D01*
X111550253Y-121605919D01*
X111547690Y-121607289D01*
X111458534Y-121652715D01*
X111458210Y-121652879D01*
X110581306Y-122094275D01*
X110579016Y-122095379D01*
X110224721Y-122258712D01*
X110223728Y-122259161D01*
X109571083Y-122548458D01*
X109569414Y-122549173D01*
X109178029Y-122711290D01*
X109176342Y-122711964D01*
X108510379Y-122968855D01*
X108509360Y-122969240D01*
X108143302Y-123104286D01*
X108140901Y-123105125D01*
X107208793Y-123413052D01*
X107208449Y-123413165D01*
X107113213Y-123444110D01*
X107110431Y-123444954D01*
X107014001Y-123472149D01*
X107013652Y-123472246D01*
X106067607Y-123734051D01*
X106065145Y-123734687D01*
X105685812Y-123825758D01*
X105684750Y-123826005D01*
X104988199Y-123982420D01*
X104986423Y-123982796D01*
X104570982Y-124065433D01*
X104569196Y-124065766D01*
X103865778Y-124187821D01*
X103864703Y-124187999D01*
X103479399Y-124249024D01*
X103476881Y-124249378D01*
X102502620Y-124369542D01*
X102502260Y-124369586D01*
X102402818Y-124381356D01*
X102399926Y-124381641D01*
X102300044Y-124389502D01*
X102299682Y-124389529D01*
X101320763Y-124461738D01*
X101318224Y-124461882D01*
X100928333Y-124477200D01*
X100927244Y-124477235D01*
X100213653Y-124494755D01*
X100211837Y-124494777D01*
X99788163Y-124494777D01*
X99786347Y-124494755D01*
X99072755Y-124477235D01*
X99071666Y-124477200D01*
X98681772Y-124461882D01*
X98679233Y-124461738D01*
X97700331Y-124389530D01*
X97699969Y-124389503D01*
X97600073Y-124381641D01*
X97597181Y-124381356D01*
X97497713Y-124369583D01*
X97497353Y-124369539D01*
X96523121Y-124249379D01*
X96520603Y-124249025D01*
X96135284Y-124187997D01*
X96134209Y-124187819D01*
X95430809Y-124065768D01*
X95429023Y-124065435D01*
X95013567Y-123982794D01*
X95011791Y-123982418D01*
X94315263Y-123826008D01*
X94314201Y-123825761D01*
X93934845Y-123734685D01*
X93932383Y-123734049D01*
X92986452Y-123472276D01*
X92986102Y-123472179D01*
X92889560Y-123444951D01*
X92886780Y-123444107D01*
X92791434Y-123413127D01*
X92791089Y-123413014D01*
X91859105Y-123105128D01*
X91856704Y-123104289D01*
X91490616Y-122969232D01*
X91489597Y-122968847D01*
X90823655Y-122711965D01*
X90821995Y-122711302D01*
X90430539Y-122549155D01*
X90428878Y-122548443D01*
X89776352Y-122259197D01*
X89775359Y-122258749D01*
X89420970Y-122095374D01*
X89418680Y-122094270D01*
X88541871Y-121652921D01*
X88541548Y-121652757D01*
X88541547Y-121652757D01*
X88452309Y-121607289D01*
X88449747Y-121605919D01*
X88442306Y-121601752D01*
X88362259Y-121556923D01*
X88362228Y-121556906D01*
X88332549Y-121540093D01*
X104570000Y-121540093D01*
X104570000Y-121733306D01*
X104600224Y-121924137D01*
X104600227Y-121924150D01*
X104659929Y-122107893D01*
X104659930Y-122107896D01*
X104659931Y-122107897D01*
X104747648Y-122280050D01*
X104861215Y-122436363D01*
X104997837Y-122572985D01*
X105154150Y-122686552D01*
X105326303Y-122774269D01*
X105326306Y-122774270D01*
X105326305Y-122774270D01*
X105510049Y-122833972D01*
X105510055Y-122833973D01*
X105510060Y-122833975D01*
X105637282Y-122854125D01*
X105700893Y-122864200D01*
X105700894Y-122864200D01*
X105894107Y-122864200D01*
X105941814Y-122856643D01*
X106084940Y-122833975D01*
X106084947Y-122833972D01*
X106084950Y-122833972D01*
X106168370Y-122806867D01*
X106268697Y-122774269D01*
X106440850Y-122686552D01*
X106597163Y-122572985D01*
X106733785Y-122436363D01*
X106847352Y-122280050D01*
X106935069Y-122107897D01*
X106994775Y-121924140D01*
X107025000Y-121733306D01*
X107025000Y-121540094D01*
X106994775Y-121349260D01*
X106994773Y-121349255D01*
X106994772Y-121349249D01*
X106935070Y-121165506D01*
X106935069Y-121165505D01*
X106935069Y-121165503D01*
X106847352Y-120993350D01*
X106733785Y-120837037D01*
X106597163Y-120700415D01*
X106440850Y-120586848D01*
X106268697Y-120499131D01*
X106268696Y-120499130D01*
X106268693Y-120499129D01*
X106268694Y-120499129D01*
X106084950Y-120439427D01*
X106084937Y-120439424D01*
X105894107Y-120409200D01*
X105894106Y-120409200D01*
X105700894Y-120409200D01*
X105700893Y-120409200D01*
X105510062Y-120439424D01*
X105510049Y-120439427D01*
X105326306Y-120499129D01*
X105154148Y-120586849D01*
X105154146Y-120586850D01*
X104997841Y-120700412D01*
X104997837Y-120700415D01*
X104861215Y-120837037D01*
X104861212Y-120837040D01*
X104861212Y-120837041D01*
X104747650Y-120993346D01*
X104747649Y-120993348D01*
X104659929Y-121165506D01*
X104600227Y-121349249D01*
X104600224Y-121349262D01*
X104570000Y-121540093D01*
X88332549Y-121540093D01*
X87995661Y-121349249D01*
X87507941Y-121072958D01*
X87505751Y-121071667D01*
X87265889Y-120924680D01*
X87173041Y-120867783D01*
X87172186Y-120867250D01*
X86590859Y-120499129D01*
X86569089Y-120485343D01*
X86567567Y-120484353D01*
X86215292Y-120248969D01*
X86213794Y-120247941D01*
X85630200Y-119836929D01*
X85629314Y-119836295D01*
X85313673Y-119606969D01*
X85313641Y-119606945D01*
X85311648Y-119605445D01*
X84537653Y-119001414D01*
X84537460Y-119001262D01*
X84458811Y-118939260D01*
X84456580Y-118937429D01*
X84380458Y-118872415D01*
X84380299Y-118872279D01*
X84380056Y-118872070D01*
X83636854Y-118230978D01*
X83634958Y-118229285D01*
X83348415Y-117964408D01*
X83347620Y-117963662D01*
X82830676Y-117471491D01*
X82829376Y-117470223D01*
X82529774Y-117170621D01*
X82528506Y-117169321D01*
X82036337Y-116652379D01*
X82035591Y-116651584D01*
X81770711Y-116365038D01*
X81769018Y-116363142D01*
X81458127Y-116002734D01*
X81127759Y-115619745D01*
X81062579Y-115543429D01*
X81060740Y-115541188D01*
X80998637Y-115462411D01*
X80998412Y-115462125D01*
X80394546Y-114688341D01*
X80393068Y-114686378D01*
X80163638Y-114370595D01*
X80163111Y-114369858D01*
X79752062Y-113786213D01*
X79751034Y-113784715D01*
X79664448Y-113655130D01*
X79515612Y-113432381D01*
X79514666Y-113430927D01*
X79132708Y-112827748D01*
X79132273Y-112827051D01*
X78928315Y-112494221D01*
X78927040Y-112492058D01*
X78443175Y-111637918D01*
X78396034Y-111553741D01*
X78394075Y-111550242D01*
X78392706Y-111547681D01*
X78347090Y-111458155D01*
X77905729Y-110581321D01*
X77904630Y-110579040D01*
X77900081Y-110569172D01*
X77741235Y-110224609D01*
X77740838Y-110223730D01*
X77451541Y-109571089D01*
X77450839Y-109569449D01*
X77288674Y-109177948D01*
X77288039Y-109176357D01*
X77031128Y-108510340D01*
X77030813Y-108509507D01*
X76895692Y-108143247D01*
X76894873Y-108140901D01*
X76586983Y-107208906D01*
X76586872Y-107208567D01*
X76555894Y-107113226D01*
X76555050Y-107110446D01*
X76527774Y-107013733D01*
X76527677Y-107013383D01*
X76523660Y-106998867D01*
X76265940Y-106067588D01*
X76265329Y-106065222D01*
X76174221Y-105685729D01*
X76173982Y-105684701D01*
X76157772Y-105612515D01*
X76017577Y-104988199D01*
X76017208Y-104986453D01*
X76017202Y-104986423D01*
X75934540Y-104570855D01*
X75934239Y-104569239D01*
X75812168Y-103865728D01*
X75812033Y-103864914D01*
X75750963Y-103479333D01*
X75750619Y-103476881D01*
X75630446Y-102502542D01*
X75618638Y-102402779D01*
X75618361Y-102399964D01*
X75610471Y-102299714D01*
X75538257Y-101320734D01*
X75538120Y-101318311D01*
X75522795Y-100928278D01*
X75522761Y-100927192D01*
X75521764Y-100886598D01*
X75505245Y-100213652D01*
X75505223Y-100211843D01*
X75505223Y-99788155D01*
X75505245Y-99786339D01*
X75506937Y-99717411D01*
X75522764Y-99072669D01*
X75522789Y-99071876D01*
X75538120Y-98681674D01*
X75538256Y-98679274D01*
X75610482Y-97700147D01*
X75618360Y-97600040D01*
X75618643Y-97597181D01*
X75630459Y-97497344D01*
X75750625Y-96523064D01*
X75750955Y-96520717D01*
X75812035Y-96135078D01*
X75812169Y-96134269D01*
X75934238Y-95430768D01*
X75934540Y-95429148D01*
X76017231Y-95013431D01*
X76017563Y-95011863D01*
X76174015Y-94315149D01*
X76174176Y-94314458D01*
X76224248Y-94105893D01*
X77135800Y-94105893D01*
X77135800Y-94299106D01*
X77166024Y-94489937D01*
X77166027Y-94489950D01*
X77225729Y-94673693D01*
X77225730Y-94673696D01*
X77225731Y-94673697D01*
X77313448Y-94845850D01*
X77427015Y-95002163D01*
X77563637Y-95138785D01*
X77719950Y-95252352D01*
X77892103Y-95340069D01*
X77892106Y-95340070D01*
X77892105Y-95340070D01*
X78075849Y-95399772D01*
X78075855Y-95399773D01*
X78075860Y-95399775D01*
X78203082Y-95419925D01*
X78266693Y-95430000D01*
X78266694Y-95430000D01*
X78459907Y-95430000D01*
X78507614Y-95422443D01*
X78650740Y-95399775D01*
X78650747Y-95399772D01*
X78650750Y-95399772D01*
X78776033Y-95359065D01*
X78834497Y-95340069D01*
X79006650Y-95252352D01*
X79162963Y-95138785D01*
X79299585Y-95002163D01*
X79413152Y-94845850D01*
X79500869Y-94673697D01*
X79533483Y-94573321D01*
X79560572Y-94489950D01*
X79560572Y-94489947D01*
X79560575Y-94489940D01*
X79590800Y-94299106D01*
X79590800Y-94105894D01*
X79587603Y-94085712D01*
X79567506Y-93958820D01*
X79560575Y-93915060D01*
X79560573Y-93915055D01*
X79560572Y-93915049D01*
X79500870Y-93731306D01*
X79500869Y-93731305D01*
X79500869Y-93731303D01*
X79413152Y-93559150D01*
X79299585Y-93402837D01*
X79162963Y-93266215D01*
X79006650Y-93152648D01*
X78834497Y-93064931D01*
X78834496Y-93064930D01*
X78834493Y-93064929D01*
X78834494Y-93064929D01*
X78650750Y-93005227D01*
X78650737Y-93005224D01*
X78459907Y-92975000D01*
X78459906Y-92975000D01*
X78266694Y-92975000D01*
X78266693Y-92975000D01*
X78075862Y-93005224D01*
X78075849Y-93005227D01*
X77892106Y-93064929D01*
X77719948Y-93152649D01*
X77719946Y-93152650D01*
X77563641Y-93266212D01*
X77563637Y-93266215D01*
X77427015Y-93402837D01*
X77427012Y-93402840D01*
X77427012Y-93402841D01*
X77313450Y-93559146D01*
X77313449Y-93559148D01*
X77225729Y-93731306D01*
X77166027Y-93915049D01*
X77166024Y-93915062D01*
X77135800Y-94105893D01*
X76224248Y-94105893D01*
X76265334Y-93934759D01*
X76265939Y-93932414D01*
X76527759Y-92986319D01*
X76555057Y-92889527D01*
X76555892Y-92886779D01*
X76587014Y-92790993D01*
X76894874Y-91859092D01*
X76895685Y-91856771D01*
X77030876Y-91490320D01*
X77031076Y-91489793D01*
X77288033Y-90823655D01*
X77288668Y-90822067D01*
X77450861Y-90430498D01*
X77451546Y-90428899D01*
X77740867Y-89776200D01*
X77741164Y-89775544D01*
X77904662Y-89420889D01*
X77905711Y-89418714D01*
X78347087Y-88541850D01*
X78392718Y-88452293D01*
X78394061Y-88449780D01*
X78443283Y-88361888D01*
X78927044Y-87507933D01*
X78928286Y-87505825D01*
X79132385Y-87172766D01*
X79132652Y-87172338D01*
X79514709Y-86569004D01*
X79515551Y-86567710D01*
X79751084Y-86215208D01*
X79752056Y-86213794D01*
X80163100Y-85630156D01*
X80163599Y-85629458D01*
X80393097Y-85313581D01*
X80394538Y-85311668D01*
X80998503Y-84537757D01*
X81060779Y-84458760D01*
X81062540Y-84456616D01*
X81127855Y-84380141D01*
X81128016Y-84379955D01*
X81131859Y-84375500D01*
X81769044Y-83636825D01*
X81770657Y-83635019D01*
X82035770Y-83348221D01*
X82036231Y-83347730D01*
X82528567Y-82830613D01*
X82529672Y-82829480D01*
X82829480Y-82529672D01*
X82830613Y-82528567D01*
X83347730Y-82036231D01*
X83348221Y-82035770D01*
X83635019Y-81770657D01*
X83636825Y-81769044D01*
X84380153Y-81127845D01*
X84456615Y-81062540D01*
X84458790Y-81060756D01*
X84537804Y-80998467D01*
X85311668Y-80394538D01*
X85313581Y-80393097D01*
X85629458Y-80163599D01*
X85630156Y-80163100D01*
X86213822Y-79752035D01*
X86215204Y-79751087D01*
X86567710Y-79515551D01*
X86569004Y-79514709D01*
X87172338Y-79132652D01*
X87172766Y-79132385D01*
X87505825Y-78928286D01*
X87507933Y-78927044D01*
X88362017Y-78443211D01*
X88449780Y-78394061D01*
X88452293Y-78392718D01*
X88541927Y-78347048D01*
X89418714Y-77905711D01*
X89420889Y-77904662D01*
X89775544Y-77741164D01*
X89776200Y-77740867D01*
X90428899Y-77451546D01*
X90430498Y-77450861D01*
X90822067Y-77288668D01*
X90823655Y-77288033D01*
X91489793Y-77031076D01*
X91490320Y-77030876D01*
X91856771Y-76895685D01*
X91859092Y-76894874D01*
X92791057Y-76586994D01*
X92886798Y-76555885D01*
X92889527Y-76555057D01*
X92986433Y-76527727D01*
X93932414Y-76265939D01*
X93934759Y-76265334D01*
X94314458Y-76174176D01*
X94315149Y-76174015D01*
X95011863Y-76017563D01*
X95013431Y-76017231D01*
X95429148Y-75934540D01*
X95430768Y-75934238D01*
X96134269Y-75812169D01*
X96135078Y-75812035D01*
X96520717Y-75750955D01*
X96523064Y-75750625D01*
X97497290Y-75630466D01*
X97597210Y-75618639D01*
X97600035Y-75618361D01*
X97700433Y-75610459D01*
X98679274Y-75538256D01*
X98681674Y-75538120D01*
X99071876Y-75522789D01*
X99072669Y-75522764D01*
X99786340Y-75505245D01*
X99788156Y-75505223D01*
X100211844Y-75505223D01*
X100213659Y-75505244D01*
G37*
%TD.AperFunction*%
%TA.AperFunction,Conductor*%
G36*
X95519222Y-105672174D02*
G01*
X95540896Y-105724500D01*
X95535263Y-105752819D01*
X95533609Y-105756810D01*
X95533608Y-105756814D01*
X95505202Y-105862830D01*
X95499500Y-105884109D01*
X95499500Y-106015894D01*
X95533606Y-106143181D01*
X95533610Y-106143190D01*
X95591340Y-106243181D01*
X95599500Y-106257314D01*
X95692686Y-106350500D01*
X95806814Y-106416392D01*
X95934105Y-106450499D01*
X95934106Y-106450500D01*
X95934108Y-106450500D01*
X96065891Y-106450500D01*
X96065892Y-106450500D01*
X96193186Y-106416392D01*
X96196478Y-106414490D01*
X96252630Y-106407093D01*
X96265656Y-106411932D01*
X96927020Y-106731210D01*
X96964720Y-106773477D01*
X96966327Y-106778697D01*
X96977200Y-106819273D01*
X96969808Y-106875426D01*
X96924876Y-106909905D01*
X96907316Y-106912410D01*
X93901159Y-106977198D01*
X93861927Y-106966928D01*
X93523116Y-106766778D01*
X93489276Y-106722219D01*
X93466392Y-106636814D01*
X93400500Y-106522686D01*
X93307314Y-106429500D01*
X93295583Y-106422727D01*
X93193190Y-106363610D01*
X93193181Y-106363606D01*
X93065894Y-106329500D01*
X93065892Y-106329500D01*
X92934108Y-106329500D01*
X92934106Y-106329500D01*
X92806818Y-106363606D01*
X92806809Y-106363610D01*
X92692685Y-106429500D01*
X92599500Y-106522685D01*
X92533610Y-106636809D01*
X92533606Y-106636818D01*
X92499500Y-106764105D01*
X92499500Y-106764108D01*
X92499500Y-106895892D01*
X92502301Y-106906348D01*
X92494909Y-106962500D01*
X92449976Y-106996979D01*
X92438859Y-106998442D01*
X92438915Y-106998867D01*
X92434105Y-106999500D01*
X92306818Y-107033606D01*
X92306809Y-107033610D01*
X92192685Y-107099500D01*
X92099500Y-107192685D01*
X92033610Y-107306809D01*
X92033606Y-107306818D01*
X91999500Y-107434105D01*
X91999500Y-107565894D01*
X92033606Y-107693181D01*
X92033610Y-107693190D01*
X92099500Y-107807314D01*
X92105251Y-107813065D01*
X92126925Y-107865391D01*
X92125731Y-107878629D01*
X92111130Y-107958933D01*
X92107003Y-107973249D01*
X92106390Y-107974775D01*
X92106390Y-107974777D01*
X92103001Y-108002896D01*
X92102340Y-108007275D01*
X92097269Y-108035170D01*
X92097404Y-108036810D01*
X92097121Y-108051695D01*
X92096924Y-108053326D01*
X92100931Y-108081376D01*
X92101425Y-108085777D01*
X92103746Y-108114024D01*
X92104298Y-108115564D01*
X92107883Y-108130039D01*
X92150291Y-108426904D01*
X92150911Y-108433091D01*
X92152286Y-108456848D01*
X92152287Y-108456851D01*
X92154235Y-108462738D01*
X92157237Y-108475516D01*
X92158115Y-108481662D01*
X92167464Y-108503547D01*
X92169666Y-108509367D01*
X92177145Y-108531968D01*
X92180553Y-108537153D01*
X92186757Y-108548713D01*
X92189197Y-108554424D01*
X92203898Y-108573153D01*
X92207520Y-108578190D01*
X92220598Y-108598091D01*
X92223302Y-108600499D01*
X92225231Y-108602217D01*
X92234220Y-108611783D01*
X92238050Y-108616662D01*
X92251252Y-108626564D01*
X92257090Y-108630942D01*
X92261906Y-108634881D01*
X98119533Y-113851830D01*
X98144193Y-113902817D01*
X98125578Y-113956307D01*
X98098635Y-113975458D01*
X98095414Y-113976791D01*
X98014477Y-114023521D01*
X97973285Y-114033316D01*
X91307762Y-113655130D01*
X91274363Y-113644990D01*
X87254587Y-111274353D01*
X85813088Y-110424238D01*
X85779027Y-110378989D01*
X85786939Y-110322907D01*
X85805640Y-110301783D01*
X85807303Y-110300505D01*
X85807314Y-110300500D01*
X85900500Y-110207314D01*
X85966392Y-110093186D01*
X86000499Y-109965894D01*
X86000500Y-109965894D01*
X86000500Y-109925833D01*
X86022174Y-109873507D01*
X87273507Y-108622174D01*
X87325833Y-108600500D01*
X87365894Y-108600500D01*
X87365894Y-108600499D01*
X87493186Y-108566392D01*
X87607314Y-108500500D01*
X87700500Y-108407314D01*
X87766392Y-108293186D01*
X87800499Y-108165894D01*
X87800500Y-108165894D01*
X87800500Y-108034106D01*
X87800499Y-108034105D01*
X87796407Y-108018835D01*
X87766392Y-107906814D01*
X87700500Y-107792686D01*
X87607314Y-107699500D01*
X87596369Y-107693181D01*
X87493190Y-107633610D01*
X87493181Y-107633606D01*
X87365894Y-107599500D01*
X87365892Y-107599500D01*
X87234108Y-107599500D01*
X87234106Y-107599500D01*
X87106818Y-107633606D01*
X87106809Y-107633610D01*
X86992685Y-107699500D01*
X86899500Y-107792685D01*
X86833610Y-107906809D01*
X86833606Y-107906818D01*
X86799500Y-108034105D01*
X86799500Y-108074166D01*
X86777826Y-108126492D01*
X85526492Y-109377826D01*
X85474166Y-109399500D01*
X85434106Y-109399500D01*
X85306818Y-109433606D01*
X85306809Y-109433610D01*
X85192685Y-109499500D01*
X85099500Y-109592685D01*
X85033610Y-109706809D01*
X85033606Y-109706818D01*
X84999172Y-109835326D01*
X84964693Y-109880259D01*
X84908541Y-109887651D01*
X84890103Y-109879914D01*
X84814497Y-109835326D01*
X84573484Y-109693190D01*
X83955752Y-109328886D01*
X83921690Y-109283636D01*
X83929602Y-109227554D01*
X83953668Y-109203714D01*
X83953467Y-109203452D01*
X83955534Y-109201865D01*
X83956353Y-109201054D01*
X83957314Y-109200500D01*
X84050500Y-109107314D01*
X84116392Y-108993186D01*
X84150499Y-108865894D01*
X84150500Y-108865894D01*
X84150500Y-108830198D01*
X84172174Y-108777872D01*
X84179343Y-108771573D01*
X84202044Y-108754087D01*
X87187288Y-106454640D01*
X87241967Y-106439881D01*
X87251584Y-106441785D01*
X87284108Y-106450500D01*
X87415894Y-106450500D01*
X87415894Y-106450499D01*
X87543186Y-106416392D01*
X87657314Y-106350500D01*
X87750500Y-106257314D01*
X87816392Y-106143186D01*
X87850499Y-106015894D01*
X87850500Y-106015894D01*
X87850500Y-105884109D01*
X87846395Y-105868788D01*
X87816392Y-105756814D01*
X87816390Y-105756810D01*
X87814737Y-105752819D01*
X87814737Y-105696182D01*
X87854785Y-105656133D01*
X87883104Y-105650500D01*
X95466896Y-105650500D01*
X95519222Y-105672174D01*
G37*
%TD.AperFunction*%
%TA.AperFunction,Conductor*%
G36*
X118172547Y-109842429D02*
G01*
X118224678Y-109873507D01*
X118435898Y-109999427D01*
X118437596Y-110000471D01*
X118478117Y-110026132D01*
X118479543Y-110026682D01*
X118479992Y-110026900D01*
X118480550Y-110027099D01*
X118482421Y-110027792D01*
X118482996Y-110028014D01*
X118483490Y-110028143D01*
X118484915Y-110028648D01*
X118484921Y-110028652D01*
X118532384Y-110035576D01*
X118534343Y-110035890D01*
X121517930Y-110553702D01*
X121533595Y-110558245D01*
X121547487Y-110564000D01*
X121570889Y-110564000D01*
X121583542Y-110565090D01*
X121585369Y-110565407D01*
X121606596Y-110569091D01*
X121615208Y-110567157D01*
X121621269Y-110565797D01*
X121637478Y-110564000D01*
X121841531Y-110564000D01*
X121856043Y-110565437D01*
X121858399Y-110565908D01*
X121874718Y-110569172D01*
X121893750Y-110565406D01*
X121908111Y-110564000D01*
X121927514Y-110564000D01*
X121936968Y-110560083D01*
X121945106Y-110556711D01*
X121959056Y-110552486D01*
X121976803Y-110548976D01*
X122032339Y-110560083D01*
X122063755Y-110607208D01*
X122057261Y-110654840D01*
X121652879Y-111458210D01*
X121652715Y-111458534D01*
X121607289Y-111547690D01*
X121605919Y-111550253D01*
X121556946Y-111637700D01*
X121556767Y-111638017D01*
X121072958Y-112492058D01*
X121071667Y-112494248D01*
X120912595Y-112753831D01*
X120866775Y-112787121D01*
X120810835Y-112778261D01*
X120777545Y-112732441D01*
X120775500Y-112715166D01*
X120775500Y-112693980D01*
X120775499Y-112693979D01*
X120773540Y-112686669D01*
X120746503Y-112585763D01*
X120690485Y-112488737D01*
X120611263Y-112409515D01*
X120578654Y-112390688D01*
X120514241Y-112353499D01*
X120514232Y-112353495D01*
X120406020Y-112324500D01*
X120406018Y-112324500D01*
X120293982Y-112324500D01*
X120293980Y-112324500D01*
X120185767Y-112353495D01*
X120185760Y-112353498D01*
X120153081Y-112372365D01*
X120096929Y-112379756D01*
X120053549Y-112346469D01*
X120053458Y-112346540D01*
X120053194Y-112346197D01*
X120051997Y-112345278D01*
X120050502Y-112342689D01*
X120050501Y-112342688D01*
X120050500Y-112342686D01*
X119957314Y-112249500D01*
X119957311Y-112249498D01*
X119957310Y-112249497D01*
X119950995Y-112245851D01*
X119916520Y-112200915D01*
X119914000Y-112181768D01*
X119914000Y-111618231D01*
X119935674Y-111565905D01*
X119950996Y-111554147D01*
X119957314Y-111550500D01*
X120050500Y-111457314D01*
X120116392Y-111343186D01*
X120150499Y-111215894D01*
X120150500Y-111215894D01*
X120150500Y-111084106D01*
X120150499Y-111084105D01*
X120136515Y-111031917D01*
X120116392Y-110956814D01*
X120050500Y-110842686D01*
X119957314Y-110749500D01*
X119940311Y-110739683D01*
X119843190Y-110683610D01*
X119843181Y-110683606D01*
X119715894Y-110649500D01*
X119715892Y-110649500D01*
X119584108Y-110649500D01*
X119584106Y-110649500D01*
X119456818Y-110683606D01*
X119456809Y-110683610D01*
X119342685Y-110749500D01*
X119249500Y-110842685D01*
X119183608Y-110956812D01*
X119183607Y-110956816D01*
X119177504Y-110979592D01*
X119143025Y-111024525D01*
X119086874Y-111031916D01*
X118965892Y-110999500D01*
X118965891Y-110999500D01*
X118927606Y-110999500D01*
X118875280Y-110977826D01*
X118869194Y-110970932D01*
X118858216Y-110956818D01*
X118135102Y-110027099D01*
X118076244Y-109951424D01*
X118061227Y-109896813D01*
X118089224Y-109847580D01*
X118143835Y-109832563D01*
X118172547Y-109842429D01*
G37*
%TD.AperFunction*%
%TA.AperFunction,Conductor*%
G36*
X83998542Y-111200109D02*
G01*
X84046693Y-111221664D01*
X84496889Y-111671860D01*
X84518563Y-111724186D01*
X84512554Y-111753395D01*
X84238772Y-112390688D01*
X84198204Y-112430210D01*
X84141572Y-112429470D01*
X84106509Y-112398154D01*
X84077016Y-112346469D01*
X83860137Y-111966393D01*
X83471175Y-111284746D01*
X83464066Y-111228557D01*
X83498772Y-111183799D01*
X83539616Y-111174189D01*
X83998542Y-111200109D01*
G37*
%TD.AperFunction*%
%TA.AperFunction,Conductor*%
G36*
X108830440Y-77154604D02*
G01*
X109176357Y-77288039D01*
X109177948Y-77288674D01*
X109569465Y-77450846D01*
X109571089Y-77451541D01*
X110223730Y-77740838D01*
X110224609Y-77741235D01*
X110570079Y-77900499D01*
X110579040Y-77904630D01*
X110581321Y-77905729D01*
X111458201Y-78347113D01*
X111547681Y-78392706D01*
X111550240Y-78394073D01*
X111637857Y-78443141D01*
X112492035Y-78927027D01*
X112494214Y-78928311D01*
X112827051Y-79132273D01*
X112827748Y-79132708D01*
X113430939Y-79514674D01*
X113432382Y-79515612D01*
X113634501Y-79650664D01*
X113784715Y-79751034D01*
X113786213Y-79752062D01*
X113789805Y-79754592D01*
X114369858Y-80163111D01*
X114370595Y-80163638D01*
X114686378Y-80393068D01*
X114688341Y-80394546D01*
X115462195Y-80998467D01*
X115462411Y-80998637D01*
X115541188Y-81060740D01*
X115543429Y-81062579D01*
X115619745Y-81127759D01*
X116059170Y-81506809D01*
X116363142Y-81769018D01*
X116365038Y-81770711D01*
X116651584Y-82035591D01*
X116652379Y-82036337D01*
X117169321Y-82528506D01*
X117170621Y-82529774D01*
X117470223Y-82829376D01*
X117471491Y-82830676D01*
X117963662Y-83347620D01*
X117964408Y-83348415D01*
X118229285Y-83634958D01*
X118230978Y-83636854D01*
X118495128Y-83943076D01*
X118872179Y-84380182D01*
X118937429Y-84456580D01*
X118939268Y-84458821D01*
X119001397Y-84537631D01*
X119605445Y-85311648D01*
X119606945Y-85313641D01*
X119724264Y-85475116D01*
X119836295Y-85629314D01*
X119836929Y-85630200D01*
X120247941Y-86213794D01*
X120248969Y-86215292D01*
X120484353Y-86567567D01*
X120485343Y-86569089D01*
X120612234Y-86769472D01*
X120854929Y-87152729D01*
X120867231Y-87172155D01*
X120867782Y-87173040D01*
X120910461Y-87242686D01*
X121071667Y-87505751D01*
X121072958Y-87507941D01*
X121342702Y-87984105D01*
X121556906Y-88362228D01*
X121600217Y-88439564D01*
X121605919Y-88449746D01*
X121607285Y-88452301D01*
X121614327Y-88466123D01*
X121652757Y-88541547D01*
X121652921Y-88541871D01*
X122094270Y-89418680D01*
X122095374Y-89420970D01*
X122258749Y-89775359D01*
X122259197Y-89776352D01*
X122548443Y-90428878D01*
X122549155Y-90430539D01*
X122708773Y-90815891D01*
X122711291Y-90821968D01*
X122711965Y-90823655D01*
X122968847Y-91489597D01*
X122969232Y-91490616D01*
X123104289Y-91856704D01*
X123105128Y-91859105D01*
X123413032Y-92791145D01*
X123413145Y-92791489D01*
X123444107Y-92886779D01*
X123444951Y-92889560D01*
X123472186Y-92986128D01*
X123493994Y-93064929D01*
X123734049Y-93932383D01*
X123734685Y-93934845D01*
X123825761Y-94314201D01*
X123826008Y-94315263D01*
X123982418Y-95011791D01*
X123982794Y-95013567D01*
X124065435Y-95429023D01*
X124065768Y-95430809D01*
X124187819Y-96134209D01*
X124187997Y-96135284D01*
X124249025Y-96520603D01*
X124249379Y-96523121D01*
X124369530Y-97497273D01*
X124369574Y-97497633D01*
X124381356Y-97597181D01*
X124381641Y-97600073D01*
X124389508Y-97700030D01*
X124389535Y-97700392D01*
X124461738Y-98679233D01*
X124461882Y-98681772D01*
X124477200Y-99071666D01*
X124477235Y-99072755D01*
X124494755Y-99786346D01*
X124494777Y-99788162D01*
X124494777Y-100211836D01*
X124494755Y-100213652D01*
X124477235Y-100927244D01*
X124477200Y-100928333D01*
X124461882Y-101318224D01*
X124461738Y-101320763D01*
X124389534Y-102299622D01*
X124389507Y-102299984D01*
X124381641Y-102399926D01*
X124381356Y-102402817D01*
X124369596Y-102502181D01*
X124369552Y-102502542D01*
X124249378Y-103476881D01*
X124249024Y-103479399D01*
X124187999Y-103864703D01*
X124187821Y-103865778D01*
X124065766Y-104569196D01*
X124065433Y-104570982D01*
X123982796Y-104986423D01*
X123982420Y-104988199D01*
X123826005Y-105684750D01*
X123825758Y-105685812D01*
X123734687Y-106065145D01*
X123734051Y-106067607D01*
X123472269Y-107013573D01*
X123472172Y-107013922D01*
X123444954Y-107110431D01*
X123444110Y-107113212D01*
X123413179Y-107208407D01*
X123413066Y-107208752D01*
X123105125Y-108140901D01*
X123104286Y-108143302D01*
X122969240Y-108509360D01*
X122968855Y-108510379D01*
X122848710Y-108821840D01*
X122809657Y-108862860D01*
X122753037Y-108864249D01*
X122715583Y-108832208D01*
X122709597Y-108821840D01*
X122670480Y-108754087D01*
X122595913Y-108679520D01*
X122515009Y-108632810D01*
X122504591Y-108626795D01*
X122504582Y-108626791D01*
X122402729Y-108599500D01*
X122402727Y-108599500D01*
X122297273Y-108599500D01*
X122297271Y-108599500D01*
X122195417Y-108626791D01*
X122195408Y-108626795D01*
X122104086Y-108679520D01*
X122029520Y-108754086D01*
X121976795Y-108845408D01*
X121976791Y-108845417D01*
X121949500Y-108947270D01*
X121949500Y-109052729D01*
X121976791Y-109154582D01*
X121976795Y-109154591D01*
X122027720Y-109242796D01*
X122036728Y-109291340D01*
X122035420Y-109299622D01*
X122005848Y-109347926D01*
X121950782Y-109361172D01*
X121925326Y-109352164D01*
X121893190Y-109333610D01*
X121893181Y-109333606D01*
X121765894Y-109299500D01*
X121765892Y-109299500D01*
X121634108Y-109299500D01*
X121634106Y-109299500D01*
X121506818Y-109333606D01*
X121506809Y-109333610D01*
X121392685Y-109399500D01*
X121321836Y-109470349D01*
X121269510Y-109492023D01*
X121262266Y-109491668D01*
X119344807Y-109303066D01*
X119294854Y-109276374D01*
X119278406Y-109222177D01*
X119287965Y-109192422D01*
X119316392Y-109143186D01*
X119350499Y-109015894D01*
X119350500Y-109015894D01*
X119350500Y-108884106D01*
X119350499Y-108884105D01*
X119345619Y-108865894D01*
X119335151Y-108826826D01*
X119326263Y-108793653D01*
X119333655Y-108737500D01*
X119378588Y-108703022D01*
X119397741Y-108700500D01*
X119427729Y-108700500D01*
X119427729Y-108700499D01*
X119529587Y-108673207D01*
X119620913Y-108620480D01*
X119695480Y-108545913D01*
X119748207Y-108454587D01*
X119775499Y-108352729D01*
X119775500Y-108352729D01*
X119775500Y-108247271D01*
X119775499Y-108247270D01*
X119763624Y-108202953D01*
X119748207Y-108145413D01*
X119734544Y-108121749D01*
X119727152Y-108065598D01*
X119728134Y-108062251D01*
X120299917Y-106273126D01*
X120333406Y-106231568D01*
X120395913Y-106195480D01*
X120470480Y-106120913D01*
X120523207Y-106029587D01*
X120550499Y-105927729D01*
X120550500Y-105927729D01*
X120550500Y-105822271D01*
X120550499Y-105822270D01*
X120542669Y-105793049D01*
X120523207Y-105720413D01*
X120470480Y-105629087D01*
X120395913Y-105554520D01*
X120395912Y-105554519D01*
X120343803Y-105524433D01*
X120309325Y-105479500D01*
X120316719Y-105423347D01*
X120329890Y-105406647D01*
X120348930Y-105388598D01*
X120348933Y-105388592D01*
X120351637Y-105385258D01*
X120354263Y-105381834D01*
X120354263Y-105381833D01*
X120354267Y-105381830D01*
X120372782Y-105349758D01*
X120373688Y-105348237D01*
X120393058Y-105316665D01*
X120393059Y-105316662D01*
X120394798Y-105312760D01*
X120396457Y-105308755D01*
X120396462Y-105308747D01*
X120406023Y-105273058D01*
X120406539Y-105271229D01*
X120417064Y-105235763D01*
X120417064Y-105235756D01*
X120417742Y-105231487D01*
X120418303Y-105227232D01*
X120418303Y-105190297D01*
X120418329Y-105188324D01*
X120422309Y-105039093D01*
X120441895Y-104304587D01*
X120444340Y-104212917D01*
X120444818Y-104195000D01*
X121316150Y-104195000D01*
X121730758Y-104195000D01*
X121725444Y-104204204D01*
X121705000Y-104280504D01*
X121705000Y-104359496D01*
X121725444Y-104435796D01*
X121730758Y-104445000D01*
X121316150Y-104445000D01*
X121331899Y-104524177D01*
X121331901Y-104524184D01*
X121384667Y-104651573D01*
X121461273Y-104766223D01*
X121558776Y-104863726D01*
X121673426Y-104940332D01*
X121800813Y-104993097D01*
X121800823Y-104993100D01*
X121936058Y-105020000D01*
X122280000Y-105020000D01*
X122280000Y-104620000D01*
X122530000Y-104620000D01*
X122530000Y-105020000D01*
X122873942Y-105020000D01*
X123009176Y-104993100D01*
X123009186Y-104993097D01*
X123136573Y-104940332D01*
X123251223Y-104863726D01*
X123251225Y-104863725D01*
X123348725Y-104766225D01*
X123348726Y-104766223D01*
X123425332Y-104651573D01*
X123478098Y-104524184D01*
X123478100Y-104524177D01*
X123493850Y-104445000D01*
X123079242Y-104445000D01*
X123084556Y-104435796D01*
X123105000Y-104359496D01*
X123105000Y-104280504D01*
X123084556Y-104204204D01*
X123079242Y-104195000D01*
X123493849Y-104195000D01*
X123478100Y-104115822D01*
X123478098Y-104115815D01*
X123425332Y-103988426D01*
X123348726Y-103873776D01*
X123251223Y-103776273D01*
X123136573Y-103699667D01*
X123009186Y-103646902D01*
X123009176Y-103646899D01*
X122873942Y-103620000D01*
X122530000Y-103620000D01*
X122530000Y-104020000D01*
X122280000Y-104020000D01*
X122280000Y-103620000D01*
X121936058Y-103620000D01*
X121800823Y-103646899D01*
X121800813Y-103646902D01*
X121673426Y-103699667D01*
X121558776Y-103776273D01*
X121558775Y-103776275D01*
X121461275Y-103873775D01*
X121461273Y-103873776D01*
X121384667Y-103988426D01*
X121331901Y-104115815D01*
X121331899Y-104115822D01*
X121316150Y-104195000D01*
X120444818Y-104195000D01*
X120489950Y-102502542D01*
X120675217Y-95555000D01*
X121316150Y-95555000D01*
X121730758Y-95555000D01*
X121725444Y-95564204D01*
X121705000Y-95640504D01*
X121705000Y-95719496D01*
X121725444Y-95795796D01*
X121730758Y-95805000D01*
X121316150Y-95805000D01*
X121331899Y-95884177D01*
X121331901Y-95884184D01*
X121384667Y-96011573D01*
X121461273Y-96126223D01*
X121558776Y-96223726D01*
X121673426Y-96300332D01*
X121800813Y-96353097D01*
X121800823Y-96353100D01*
X121936058Y-96380000D01*
X122280000Y-96380000D01*
X122280000Y-95980000D01*
X122530000Y-95980000D01*
X122530000Y-96380000D01*
X122873942Y-96380000D01*
X123009176Y-96353100D01*
X123009186Y-96353097D01*
X123136573Y-96300332D01*
X123251223Y-96223726D01*
X123251225Y-96223725D01*
X123348725Y-96126225D01*
X123348726Y-96126223D01*
X123425332Y-96011573D01*
X123478098Y-95884184D01*
X123478100Y-95884177D01*
X123493850Y-95805000D01*
X123079242Y-95805000D01*
X123084556Y-95795796D01*
X123105000Y-95719496D01*
X123105000Y-95640504D01*
X123084556Y-95564204D01*
X123079242Y-95555000D01*
X123493849Y-95555000D01*
X123478100Y-95475822D01*
X123478098Y-95475815D01*
X123425332Y-95348426D01*
X123348726Y-95233776D01*
X123251223Y-95136273D01*
X123136573Y-95059667D01*
X123009186Y-95006902D01*
X123009176Y-95006899D01*
X122873942Y-94980000D01*
X122530000Y-94980000D01*
X122530000Y-95380000D01*
X122280000Y-95380000D01*
X122280000Y-94980000D01*
X121936058Y-94980000D01*
X121800823Y-95006899D01*
X121800813Y-95006902D01*
X121673426Y-95059667D01*
X121558776Y-95136273D01*
X121558775Y-95136275D01*
X121461275Y-95233775D01*
X121461273Y-95233776D01*
X121384667Y-95348426D01*
X121331901Y-95475815D01*
X121331899Y-95475822D01*
X121316150Y-95555000D01*
X120675217Y-95555000D01*
X120744245Y-92966437D01*
X120767307Y-92914710D01*
X120820192Y-92894438D01*
X120837370Y-92896933D01*
X120943979Y-92925499D01*
X120943980Y-92925500D01*
X120943982Y-92925500D01*
X121056020Y-92925500D01*
X121056020Y-92925499D01*
X121164237Y-92896503D01*
X121261263Y-92840485D01*
X121340485Y-92761263D01*
X121396503Y-92664237D01*
X121425499Y-92556020D01*
X121425500Y-92556020D01*
X121425500Y-92443981D01*
X121425499Y-92443979D01*
X121420827Y-92426541D01*
X121428219Y-92370388D01*
X121428821Y-92369363D01*
X121550158Y-92167135D01*
X121553303Y-92162330D01*
X121567763Y-92142015D01*
X121569533Y-92137263D01*
X121575419Y-92125034D01*
X121578031Y-92120682D01*
X121584890Y-92096703D01*
X121586686Y-92091240D01*
X121595396Y-92067874D01*
X121595876Y-92062823D01*
X121598397Y-92049483D01*
X121599792Y-92044610D01*
X121600210Y-92019682D01*
X121600533Y-92013921D01*
X121601314Y-92005721D01*
X121798294Y-89937425D01*
X121798712Y-89933931D01*
X121803070Y-89903695D01*
X121803069Y-89903692D01*
X121803070Y-89903690D01*
X121803103Y-89901023D01*
X121802994Y-89891793D01*
X121802897Y-89889111D01*
X121802896Y-89889109D01*
X121802897Y-89889107D01*
X121797817Y-89858951D01*
X121797322Y-89855507D01*
X121793700Y-89825129D01*
X121793699Y-89825126D01*
X121793041Y-89822546D01*
X121790546Y-89813656D01*
X121789756Y-89811082D01*
X121787786Y-89806772D01*
X121777053Y-89783286D01*
X121775673Y-89780062D01*
X121741062Y-89693534D01*
X121741752Y-89636903D01*
X121745677Y-89629064D01*
X121766392Y-89593186D01*
X121800500Y-89465892D01*
X121800500Y-89334108D01*
X121800500Y-89334106D01*
X121800499Y-89334105D01*
X121791226Y-89299499D01*
X121766392Y-89206814D01*
X121700500Y-89092686D01*
X121607314Y-88999500D01*
X121581576Y-88984640D01*
X121493190Y-88933610D01*
X121493181Y-88933606D01*
X121365894Y-88899500D01*
X121365892Y-88899500D01*
X121234108Y-88899500D01*
X121234106Y-88899500D01*
X121106818Y-88933606D01*
X121106809Y-88933610D01*
X120992685Y-88999500D01*
X120899500Y-89092685D01*
X120833610Y-89206809D01*
X120833606Y-89206818D01*
X120799500Y-89334105D01*
X120799500Y-89465891D01*
X120810340Y-89506348D01*
X120802947Y-89562500D01*
X120758013Y-89596979D01*
X120738861Y-89599500D01*
X120734106Y-89599500D01*
X120606818Y-89633606D01*
X120606809Y-89633610D01*
X120492685Y-89699500D01*
X120399500Y-89792685D01*
X120364086Y-89854024D01*
X120319152Y-89888503D01*
X120263000Y-89881110D01*
X120235914Y-89854024D01*
X120212607Y-89813656D01*
X120200500Y-89792686D01*
X120107314Y-89699500D01*
X120083225Y-89685592D01*
X119993190Y-89633610D01*
X119993181Y-89633606D01*
X119865894Y-89599500D01*
X119865892Y-89599500D01*
X119734108Y-89599500D01*
X119734106Y-89599500D01*
X119606818Y-89633606D01*
X119606809Y-89633610D01*
X119492685Y-89699500D01*
X119399500Y-89792685D01*
X119333610Y-89906809D01*
X119333606Y-89906818D01*
X119299500Y-90034105D01*
X119299500Y-90165894D01*
X119333606Y-90293181D01*
X119333610Y-90293190D01*
X119350344Y-90322174D01*
X119399500Y-90407314D01*
X119492686Y-90500500D01*
X119606814Y-90566392D01*
X119611957Y-90567770D01*
X119656889Y-90602247D01*
X119661390Y-90611464D01*
X119753434Y-90838681D01*
X119758822Y-90868438D01*
X119545681Y-98861214D01*
X119522619Y-98912943D01*
X119469734Y-98933215D01*
X119419381Y-98911567D01*
X119407314Y-98899500D01*
X119293190Y-98833610D01*
X119293181Y-98833606D01*
X119248757Y-98821703D01*
X119203824Y-98787225D01*
X119196432Y-98731072D01*
X119196433Y-98731068D01*
X119200500Y-98715893D01*
X119200500Y-98584106D01*
X119200499Y-98584105D01*
X119191494Y-98550499D01*
X119166392Y-98456814D01*
X119100500Y-98342686D01*
X119007314Y-98249500D01*
X118996369Y-98243181D01*
X118893190Y-98183610D01*
X118893181Y-98183606D01*
X118765894Y-98149500D01*
X118765892Y-98149500D01*
X118634108Y-98149500D01*
X118634106Y-98149500D01*
X118506818Y-98183606D01*
X118506809Y-98183610D01*
X118392685Y-98249500D01*
X118299500Y-98342685D01*
X118233610Y-98456809D01*
X118233606Y-98456818D01*
X118205430Y-98561972D01*
X118170951Y-98606905D01*
X118165461Y-98609776D01*
X116074840Y-99593597D01*
X116057847Y-99599202D01*
X116046733Y-99601425D01*
X116024240Y-99616488D01*
X116014577Y-99621956D01*
X115990076Y-99633487D01*
X115990073Y-99633488D01*
X115982439Y-99641878D01*
X115968892Y-99653553D01*
X115959470Y-99659863D01*
X115959467Y-99659866D01*
X115944450Y-99682392D01*
X115937614Y-99691144D01*
X115919392Y-99711170D01*
X115919124Y-99711917D01*
X115918590Y-99712503D01*
X115915636Y-99717411D01*
X115914659Y-99716823D01*
X115881004Y-99753806D01*
X115824430Y-99756471D01*
X115782541Y-99718351D01*
X115775500Y-99686847D01*
X115775500Y-97754097D01*
X115775855Y-97748353D01*
X115775814Y-97742686D01*
X115775502Y-97698985D01*
X115775500Y-97698455D01*
X115775500Y-97650504D01*
X115775371Y-97649574D01*
X115775305Y-97649087D01*
X115775153Y-97647938D01*
X115762398Y-97601663D01*
X115762330Y-97601416D01*
X115749910Y-97555062D01*
X115749497Y-97553520D01*
X115747626Y-97548073D01*
X115610453Y-97050424D01*
X118272500Y-97050424D01*
X118272500Y-97169575D01*
X118303335Y-97284655D01*
X118303337Y-97284660D01*
X118342706Y-97352848D01*
X118362910Y-97387842D01*
X118447158Y-97472090D01*
X118447160Y-97472091D01*
X118545877Y-97529086D01*
X118550341Y-97531663D01*
X118550342Y-97531663D01*
X118550344Y-97531664D01*
X118593342Y-97543185D01*
X118665424Y-97562499D01*
X118665425Y-97562500D01*
X118665427Y-97562500D01*
X118784575Y-97562500D01*
X118784575Y-97562499D01*
X118899659Y-97531663D01*
X119002842Y-97472090D01*
X119087090Y-97387842D01*
X119146663Y-97284659D01*
X119177499Y-97169575D01*
X119177500Y-97169575D01*
X119177500Y-97050425D01*
X119177499Y-97050424D01*
X119175997Y-97044820D01*
X119157392Y-96975384D01*
X119146664Y-96935344D01*
X119146662Y-96935339D01*
X119096066Y-96847705D01*
X119087090Y-96832158D01*
X119002842Y-96747910D01*
X118915137Y-96697273D01*
X118899660Y-96688337D01*
X118899655Y-96688335D01*
X118784575Y-96657500D01*
X118784573Y-96657500D01*
X118665427Y-96657500D01*
X118665425Y-96657500D01*
X118550344Y-96688335D01*
X118550339Y-96688337D01*
X118447160Y-96747908D01*
X118362908Y-96832160D01*
X118303337Y-96935339D01*
X118303335Y-96935344D01*
X118272500Y-97050424D01*
X115610453Y-97050424D01*
X115198253Y-95555000D01*
X116986150Y-95555000D01*
X117400758Y-95555000D01*
X117395444Y-95564204D01*
X117375000Y-95640504D01*
X117375000Y-95719496D01*
X117395444Y-95795796D01*
X117400758Y-95805000D01*
X116986150Y-95805000D01*
X117001899Y-95884177D01*
X117001901Y-95884184D01*
X117054667Y-96011573D01*
X117131273Y-96126223D01*
X117228776Y-96223726D01*
X117343426Y-96300332D01*
X117470813Y-96353097D01*
X117470823Y-96353100D01*
X117606058Y-96380000D01*
X118100000Y-96380000D01*
X118100000Y-95980000D01*
X118350000Y-95980000D01*
X118350000Y-96380000D01*
X118843942Y-96380000D01*
X118979176Y-96353100D01*
X118979186Y-96353097D01*
X119106573Y-96300332D01*
X119221223Y-96223726D01*
X119221225Y-96223725D01*
X119318725Y-96126225D01*
X119318726Y-96126223D01*
X119395332Y-96011573D01*
X119448098Y-95884184D01*
X119448100Y-95884177D01*
X119463850Y-95805000D01*
X119049242Y-95805000D01*
X119054556Y-95795796D01*
X119075000Y-95719496D01*
X119075000Y-95640504D01*
X119054556Y-95564204D01*
X119049242Y-95555000D01*
X119463849Y-95555000D01*
X119448100Y-95475822D01*
X119448098Y-95475815D01*
X119395332Y-95348426D01*
X119318726Y-95233776D01*
X119221223Y-95136273D01*
X119106573Y-95059667D01*
X118979186Y-95006902D01*
X118979176Y-95006899D01*
X118843942Y-94980000D01*
X118350000Y-94980000D01*
X118350000Y-95380000D01*
X118100000Y-95380000D01*
X118100000Y-94980000D01*
X117606058Y-94980000D01*
X117470823Y-95006899D01*
X117470813Y-95006902D01*
X117343426Y-95059667D01*
X117228776Y-95136273D01*
X117228775Y-95136275D01*
X117131275Y-95233775D01*
X117131273Y-95233776D01*
X117054667Y-95348426D01*
X117001901Y-95475815D01*
X117001899Y-95475822D01*
X116986150Y-95555000D01*
X115198253Y-95555000D01*
X113009222Y-87613397D01*
X112035535Y-84080951D01*
X112030916Y-84064193D01*
X114611700Y-84064193D01*
X114611700Y-84257406D01*
X114641924Y-84448237D01*
X114641927Y-84448250D01*
X114701629Y-84631993D01*
X114701630Y-84631996D01*
X114701631Y-84631997D01*
X114789348Y-84804150D01*
X114902915Y-84960463D01*
X115039537Y-85097085D01*
X115195850Y-85210652D01*
X115368003Y-85298369D01*
X115368006Y-85298370D01*
X115368005Y-85298370D01*
X115551749Y-85358072D01*
X115551755Y-85358073D01*
X115551760Y-85358075D01*
X115649611Y-85373573D01*
X115742593Y-85388300D01*
X115742594Y-85388300D01*
X115935807Y-85388300D01*
X116019198Y-85375092D01*
X116126640Y-85358075D01*
X116126647Y-85358072D01*
X116126650Y-85358072D01*
X116263394Y-85313641D01*
X116310397Y-85298369D01*
X116482550Y-85210652D01*
X116638863Y-85097085D01*
X116775485Y-84960463D01*
X116889052Y-84804150D01*
X116976769Y-84631997D01*
X117015032Y-84514235D01*
X117036472Y-84448250D01*
X117036472Y-84448247D01*
X117036475Y-84448240D01*
X117066700Y-84257406D01*
X117066700Y-84064194D01*
X117058994Y-84015543D01*
X117041774Y-83906818D01*
X117036475Y-83873360D01*
X117036473Y-83873355D01*
X117036472Y-83873349D01*
X116976770Y-83689606D01*
X116976769Y-83689605D01*
X116976769Y-83689603D01*
X116889052Y-83517450D01*
X116775485Y-83361137D01*
X116638863Y-83224515D01*
X116482550Y-83110948D01*
X116310397Y-83023231D01*
X116310396Y-83023230D01*
X116310393Y-83023229D01*
X116310394Y-83023229D01*
X116126650Y-82963527D01*
X116126637Y-82963524D01*
X115935807Y-82933300D01*
X115935806Y-82933300D01*
X115742594Y-82933300D01*
X115742593Y-82933300D01*
X115551762Y-82963524D01*
X115551749Y-82963527D01*
X115368006Y-83023229D01*
X115195848Y-83110949D01*
X115195846Y-83110950D01*
X115063895Y-83206818D01*
X115039537Y-83224515D01*
X114902915Y-83361137D01*
X114902912Y-83361140D01*
X114902912Y-83361141D01*
X114789350Y-83517446D01*
X114789349Y-83517448D01*
X114701629Y-83689606D01*
X114641927Y-83873349D01*
X114641924Y-83873362D01*
X114611700Y-84064193D01*
X112030916Y-84064193D01*
X111558620Y-82350748D01*
X111565187Y-82297939D01*
X111564535Y-82297669D01*
X111565515Y-82295300D01*
X111565610Y-82294544D01*
X111565877Y-82294078D01*
X111565883Y-82294066D01*
X111566392Y-82293186D01*
X111600500Y-82165892D01*
X111600500Y-82034108D01*
X111600500Y-82034106D01*
X111600499Y-82034105D01*
X111596690Y-82019891D01*
X111566392Y-81906814D01*
X111500500Y-81792686D01*
X111407314Y-81699500D01*
X111372708Y-81679520D01*
X111293190Y-81633610D01*
X111293181Y-81633606D01*
X111165894Y-81599500D01*
X111165892Y-81599500D01*
X111034108Y-81599500D01*
X111034106Y-81599500D01*
X110906818Y-81633606D01*
X110906809Y-81633610D01*
X110792685Y-81699500D01*
X110699500Y-81792685D01*
X110633610Y-81906809D01*
X110633606Y-81906818D01*
X110599500Y-82034105D01*
X110599500Y-82165894D01*
X110633606Y-82293181D01*
X110633610Y-82293190D01*
X110679808Y-82373207D01*
X110699500Y-82407314D01*
X110792686Y-82500500D01*
X110799951Y-82504694D01*
X110834290Y-82549116D01*
X111587265Y-85280836D01*
X111580275Y-85337040D01*
X111535590Y-85371839D01*
X111515926Y-85374500D01*
X111447272Y-85374500D01*
X111417463Y-85382486D01*
X111361311Y-85375092D01*
X111358798Y-85373573D01*
X111207903Y-85278271D01*
X111191595Y-85264283D01*
X111189680Y-85262082D01*
X111158017Y-85246316D01*
X111151485Y-85242640D01*
X111121576Y-85223749D01*
X111121573Y-85223748D01*
X111118688Y-85223251D01*
X111098277Y-85216569D01*
X105680741Y-82519041D01*
X105643561Y-82476316D01*
X105647483Y-82419815D01*
X105666652Y-82399426D01*
X105667349Y-82394127D01*
X106332648Y-82394127D01*
X106376301Y-82419331D01*
X106376309Y-82419334D01*
X106490753Y-82449999D01*
X106490754Y-82450000D01*
X106609246Y-82450000D01*
X106609246Y-82449999D01*
X106723690Y-82419334D01*
X106723694Y-82419332D01*
X106767349Y-82394127D01*
X106767349Y-82394126D01*
X106550000Y-82176776D01*
X106332648Y-82394127D01*
X105667349Y-82394127D01*
X105667349Y-82394126D01*
X105361612Y-82088388D01*
X105294898Y-82021674D01*
X105253333Y-81980109D01*
X105350000Y-81980109D01*
X105350000Y-82019891D01*
X105365224Y-82056645D01*
X105393355Y-82084776D01*
X105430109Y-82100000D01*
X105469891Y-82100000D01*
X105506645Y-82084776D01*
X105534776Y-82056645D01*
X105550000Y-82019891D01*
X105550000Y-81999999D01*
X105626776Y-81999999D01*
X105844126Y-82217349D01*
X105844127Y-82217349D01*
X105869332Y-82173694D01*
X105869334Y-82173690D01*
X105899999Y-82059246D01*
X105900000Y-82059246D01*
X105900000Y-81940754D01*
X105899999Y-81940753D01*
X106100000Y-81940753D01*
X106100000Y-82059246D01*
X106130665Y-82173690D01*
X106130667Y-82173695D01*
X106155872Y-82217349D01*
X106373222Y-81999999D01*
X106353332Y-81980109D01*
X106450000Y-81980109D01*
X106450000Y-82019891D01*
X106465224Y-82056645D01*
X106493355Y-82084776D01*
X106530109Y-82100000D01*
X106569891Y-82100000D01*
X106606645Y-82084776D01*
X106634776Y-82056645D01*
X106650000Y-82019891D01*
X106650000Y-81999999D01*
X106726776Y-81999999D01*
X106944126Y-82217349D01*
X106944127Y-82217349D01*
X106969332Y-82173694D01*
X106969334Y-82173690D01*
X106999999Y-82059246D01*
X107000000Y-82059246D01*
X107000000Y-81940754D01*
X106999999Y-81940753D01*
X106969334Y-81826309D01*
X106969331Y-81826301D01*
X106944127Y-81782648D01*
X106726776Y-81999999D01*
X106650000Y-81999999D01*
X106650000Y-81980109D01*
X106634776Y-81943355D01*
X106606645Y-81915224D01*
X106569891Y-81900000D01*
X106530109Y-81900000D01*
X106493355Y-81915224D01*
X106465224Y-81943355D01*
X106450000Y-81980109D01*
X106353332Y-81980109D01*
X106155872Y-81782649D01*
X106155871Y-81782649D01*
X106130666Y-81826306D01*
X106100000Y-81940753D01*
X105899999Y-81940753D01*
X105869334Y-81826309D01*
X105869331Y-81826301D01*
X105844127Y-81782648D01*
X105626776Y-81999999D01*
X105550000Y-81999999D01*
X105550000Y-81980109D01*
X105534776Y-81943355D01*
X105506645Y-81915224D01*
X105469891Y-81900000D01*
X105430109Y-81900000D01*
X105393355Y-81915224D01*
X105365224Y-81943355D01*
X105350000Y-81980109D01*
X105253333Y-81980109D01*
X105055871Y-81782649D01*
X105030666Y-81826307D01*
X105028810Y-81830788D01*
X105026547Y-81829850D01*
X104996929Y-81868433D01*
X104940775Y-81875815D01*
X104895856Y-81841340D01*
X104854100Y-81769018D01*
X104845480Y-81754087D01*
X104770913Y-81679520D01*
X104692252Y-81634105D01*
X104679591Y-81626795D01*
X104679582Y-81626791D01*
X104601506Y-81605871D01*
X105232649Y-81605871D01*
X105232649Y-81605872D01*
X105449999Y-81823222D01*
X105667350Y-81605872D01*
X105667348Y-81605871D01*
X106332649Y-81605871D01*
X106332649Y-81605872D01*
X106549999Y-81823222D01*
X106767350Y-81605872D01*
X106723695Y-81580667D01*
X106723690Y-81580665D01*
X106609246Y-81550000D01*
X106490754Y-81550000D01*
X106376306Y-81580666D01*
X106332649Y-81605871D01*
X105667348Y-81605871D01*
X105623695Y-81580667D01*
X105623690Y-81580665D01*
X105509246Y-81550000D01*
X105390754Y-81550000D01*
X105276306Y-81580666D01*
X105232649Y-81605871D01*
X104601506Y-81605871D01*
X104577729Y-81599500D01*
X104577727Y-81599500D01*
X104472273Y-81599500D01*
X104472271Y-81599500D01*
X104370417Y-81626791D01*
X104370408Y-81626795D01*
X104279086Y-81679520D01*
X104204520Y-81754086D01*
X104151795Y-81845408D01*
X104151791Y-81845417D01*
X104124500Y-81947270D01*
X104124500Y-82052729D01*
X104151791Y-82154582D01*
X104151795Y-82154591D01*
X104197703Y-82234105D01*
X104204520Y-82245913D01*
X104279087Y-82320480D01*
X104370413Y-82373207D01*
X104472270Y-82400499D01*
X104472271Y-82400500D01*
X104472273Y-82400500D01*
X104521496Y-82400500D01*
X104573822Y-82422174D01*
X104805046Y-82653398D01*
X104808543Y-82657147D01*
X104835320Y-82687918D01*
X104835325Y-82687920D01*
X104841086Y-82692377D01*
X104840981Y-82692512D01*
X104844298Y-82694898D01*
X104844393Y-82694757D01*
X104850455Y-82698807D01*
X104850456Y-82698808D01*
X104864643Y-82704684D01*
X104888150Y-82714421D01*
X104892815Y-82716546D01*
X110624967Y-85570730D01*
X110662147Y-85613455D01*
X110658225Y-85669956D01*
X110644309Y-85689298D01*
X110579520Y-85754086D01*
X110526795Y-85845408D01*
X110526791Y-85845417D01*
X110499500Y-85947270D01*
X110499500Y-86052729D01*
X110526791Y-86154582D01*
X110526795Y-86154591D01*
X110579521Y-86245915D01*
X110582473Y-86249762D01*
X110580688Y-86251130D01*
X110599500Y-86296545D01*
X110599500Y-87866896D01*
X110577826Y-87919222D01*
X110525500Y-87940896D01*
X110497183Y-87935264D01*
X110493181Y-87933606D01*
X110365894Y-87899500D01*
X110365892Y-87899500D01*
X110345269Y-87899500D01*
X110309416Y-87890235D01*
X106910725Y-86007883D01*
X104213860Y-84514234D01*
X104178588Y-84469922D01*
X104184979Y-84413647D01*
X104229292Y-84378374D01*
X104249714Y-84375500D01*
X105038595Y-84375500D01*
X105090921Y-84397174D01*
X105097298Y-84404445D01*
X105099496Y-84407309D01*
X105099498Y-84407311D01*
X105099500Y-84407314D01*
X105192686Y-84500500D01*
X105306814Y-84566392D01*
X105434105Y-84600499D01*
X105434106Y-84600500D01*
X105434108Y-84600500D01*
X105565894Y-84600500D01*
X105565894Y-84600499D01*
X105693186Y-84566392D01*
X105807314Y-84500500D01*
X105900500Y-84407314D01*
X105966392Y-84293186D01*
X106000499Y-84165894D01*
X106000500Y-84165894D01*
X106000500Y-84034106D01*
X106000499Y-84034105D01*
X105996920Y-84020749D01*
X105966392Y-83906814D01*
X105900500Y-83792686D01*
X105807314Y-83699500D01*
X105713706Y-83645455D01*
X105693190Y-83633610D01*
X105693181Y-83633606D01*
X105565894Y-83599500D01*
X105565892Y-83599500D01*
X105434108Y-83599500D01*
X105434106Y-83599500D01*
X105306818Y-83633606D01*
X105306809Y-83633610D01*
X105192685Y-83699500D01*
X105099496Y-83792690D01*
X105097298Y-83795555D01*
X105048245Y-83823868D01*
X105038595Y-83824500D01*
X104144768Y-83824500D01*
X104092442Y-83802826D01*
X102797174Y-82507558D01*
X102775500Y-82455232D01*
X102775500Y-78644767D01*
X102797174Y-78592441D01*
X103592442Y-77797174D01*
X103644768Y-77775500D01*
X107838595Y-77775500D01*
X107890921Y-77797174D01*
X107897298Y-77804445D01*
X107899496Y-77807309D01*
X107899498Y-77807311D01*
X107899500Y-77807314D01*
X107992686Y-77900500D01*
X108106814Y-77966392D01*
X108234105Y-78000499D01*
X108234106Y-78000500D01*
X108234108Y-78000500D01*
X108365894Y-78000500D01*
X108365894Y-78000499D01*
X108493186Y-77966392D01*
X108607314Y-77900500D01*
X108700500Y-77807314D01*
X108766392Y-77693186D01*
X108800499Y-77565894D01*
X108800500Y-77565894D01*
X108800500Y-77434106D01*
X108800499Y-77434105D01*
X108766393Y-77306818D01*
X108766392Y-77306814D01*
X108739740Y-77260651D01*
X108732348Y-77204498D01*
X108766826Y-77159565D01*
X108822979Y-77152173D01*
X108830440Y-77154604D01*
G37*
%TD.AperFunction*%
%TA.AperFunction,Conductor*%
G36*
X89711789Y-93334445D02*
G01*
X91894587Y-94766906D01*
X91925464Y-94809621D01*
X91953495Y-94914232D01*
X91953499Y-94914241D01*
X92003301Y-95000500D01*
X92009515Y-95011263D01*
X92088737Y-95090485D01*
X92185763Y-95146503D01*
X92293979Y-95175499D01*
X92293980Y-95175500D01*
X92293982Y-95175500D01*
X92406020Y-95175500D01*
X92406020Y-95175499D01*
X92514237Y-95146503D01*
X92611263Y-95090485D01*
X92690485Y-95011263D01*
X92746503Y-94914237D01*
X92775499Y-94806020D01*
X92775500Y-94806020D01*
X92775500Y-94689132D01*
X92777725Y-94689132D01*
X92790451Y-94641596D01*
X92839494Y-94613265D01*
X92891819Y-94626156D01*
X96640692Y-97270098D01*
X96647156Y-97275220D01*
X96648822Y-97276699D01*
X96648826Y-97276703D01*
X96678602Y-97296852D01*
X96679751Y-97297645D01*
X96709139Y-97318372D01*
X96709142Y-97318373D01*
X96709145Y-97318375D01*
X96711099Y-97319401D01*
X96711267Y-97319501D01*
X96712191Y-97319975D01*
X96712371Y-97320053D01*
X96714355Y-97321046D01*
X96748337Y-97332804D01*
X96749686Y-97333285D01*
X96783400Y-97345686D01*
X96785580Y-97346177D01*
X96785770Y-97346231D01*
X96786740Y-97346440D01*
X96786950Y-97346471D01*
X96789123Y-97346915D01*
X96789129Y-97346918D01*
X96818612Y-97349023D01*
X96824975Y-97349478D01*
X96826396Y-97349593D01*
X96862196Y-97352848D01*
X96862204Y-97352846D01*
X96864414Y-97352758D01*
X96872678Y-97352884D01*
X99536893Y-97543185D01*
X99570469Y-97554015D01*
X106763863Y-101991499D01*
X106817559Y-102024623D01*
X106850186Y-102068452D01*
X106871937Y-102149629D01*
X106864544Y-102205781D01*
X106819610Y-102240260D01*
X106796938Y-102242697D01*
X105671399Y-102189100D01*
X105659841Y-102186515D01*
X105659661Y-102187422D01*
X105652514Y-102186000D01*
X105652513Y-102186000D01*
X105652511Y-102186000D01*
X105608039Y-102186000D01*
X105604519Y-102185916D01*
X105560104Y-102183800D01*
X105553786Y-102184747D01*
X105547489Y-102186000D01*
X105547488Y-102186000D01*
X105547487Y-102186000D01*
X105547484Y-102186001D01*
X105506380Y-102203025D01*
X105503101Y-102204293D01*
X105461273Y-102219331D01*
X105455746Y-102222655D01*
X105450457Y-102226189D01*
X105419004Y-102257642D01*
X105416458Y-102260070D01*
X105383555Y-102289981D01*
X105379226Y-102295838D01*
X105378485Y-102295290D01*
X105371670Y-102304975D01*
X105100456Y-102576192D01*
X105026193Y-102650455D01*
X105026191Y-102650456D01*
X104986000Y-102747487D01*
X104986000Y-103104737D01*
X104983392Y-103124206D01*
X104981486Y-103131199D01*
X104983940Y-103150500D01*
X104985409Y-103162059D01*
X104986000Y-103171391D01*
X104986000Y-103202512D01*
X104985999Y-103202512D01*
X104988774Y-103209210D01*
X104993815Y-103228192D01*
X104994729Y-103235385D01*
X104994730Y-103235388D01*
X105010169Y-103262406D01*
X105014286Y-103270801D01*
X105026191Y-103299542D01*
X105026193Y-103299545D01*
X105031316Y-103304668D01*
X105043240Y-103320280D01*
X105807448Y-104657643D01*
X105812439Y-104668250D01*
X105816049Y-104677826D01*
X105821486Y-104692251D01*
X105830231Y-104701578D01*
X105840496Y-104715477D01*
X105846836Y-104726573D01*
X105846840Y-104726577D01*
X105867106Y-104742273D01*
X105875781Y-104750166D01*
X106578819Y-105500072D01*
X106589520Y-105514746D01*
X106594722Y-105524111D01*
X106594725Y-105524114D01*
X106616409Y-105541329D01*
X106624382Y-105548673D01*
X106643318Y-105568871D01*
X106653086Y-105573291D01*
X106668585Y-105582750D01*
X106676981Y-105589416D01*
X106703610Y-105597023D01*
X106713774Y-105600753D01*
X106739003Y-105612170D01*
X106749716Y-105612515D01*
X106767660Y-105615323D01*
X109826401Y-106489250D01*
X109870759Y-106524464D01*
X109877224Y-106580731D01*
X109842009Y-106625090D01*
X109807665Y-106634385D01*
X104097199Y-106757455D01*
X104044419Y-106736913D01*
X104021622Y-106685066D01*
X104024127Y-106664319D01*
X104034638Y-106625090D01*
X104050499Y-106565894D01*
X104050500Y-106565894D01*
X104050500Y-106434106D01*
X104050499Y-106434105D01*
X104050479Y-106434032D01*
X104016392Y-106306814D01*
X103950500Y-106192686D01*
X103857314Y-106099500D01*
X103743190Y-106033610D01*
X103743181Y-106033606D01*
X103615894Y-105999500D01*
X103615892Y-105999500D01*
X103505123Y-105999500D01*
X103452797Y-105977826D01*
X102618716Y-105143745D01*
X102597042Y-105091419D01*
X102618716Y-105039093D01*
X102634041Y-105027334D01*
X102645913Y-105020480D01*
X102720480Y-104945913D01*
X102773207Y-104854587D01*
X102800499Y-104752729D01*
X102800500Y-104752729D01*
X102800500Y-104647271D01*
X102800499Y-104647270D01*
X102779579Y-104569196D01*
X102773207Y-104545413D01*
X102720480Y-104454087D01*
X102685674Y-104419281D01*
X102664000Y-104366955D01*
X102664000Y-104083045D01*
X102685674Y-104030719D01*
X102699377Y-104017016D01*
X102720480Y-103995913D01*
X102773207Y-103904587D01*
X102800499Y-103802729D01*
X102800500Y-103802729D01*
X102800500Y-103697271D01*
X102800499Y-103697270D01*
X102793229Y-103670139D01*
X102773207Y-103595413D01*
X102720480Y-103504087D01*
X102645913Y-103429520D01*
X102595571Y-103400455D01*
X102554591Y-103376795D01*
X102554582Y-103376791D01*
X102452729Y-103349500D01*
X102452727Y-103349500D01*
X102347273Y-103349500D01*
X102347271Y-103349500D01*
X102245417Y-103376791D01*
X102245408Y-103376795D01*
X102154086Y-103429520D01*
X102079520Y-103504086D01*
X102026795Y-103595408D01*
X102026791Y-103595417D01*
X101999500Y-103697270D01*
X101999500Y-103802729D01*
X102026791Y-103904582D01*
X102026795Y-103904591D01*
X102079520Y-103995913D01*
X102114326Y-104030719D01*
X102136000Y-104083045D01*
X102136000Y-104366955D01*
X102114326Y-104419281D01*
X102079520Y-104454086D01*
X102026795Y-104545408D01*
X102026791Y-104545417D01*
X101999500Y-104647270D01*
X101999500Y-104752729D01*
X102026791Y-104854582D01*
X102026795Y-104854591D01*
X102075240Y-104938500D01*
X102082633Y-104994653D01*
X102048154Y-105039586D01*
X102011154Y-105049500D01*
X94033104Y-105049500D01*
X93980778Y-105027826D01*
X93959104Y-104975500D01*
X93964737Y-104947181D01*
X93966390Y-104943189D01*
X93966389Y-104943189D01*
X93966392Y-104943186D01*
X94000500Y-104815892D01*
X94000500Y-104684108D01*
X94000500Y-104684106D01*
X94000499Y-104684105D01*
X93995619Y-104665894D01*
X93966392Y-104556814D01*
X93900500Y-104442686D01*
X93807314Y-104349500D01*
X93800000Y-104345277D01*
X93693190Y-104283610D01*
X93693181Y-104283606D01*
X93565894Y-104249500D01*
X93565892Y-104249500D01*
X93434108Y-104249500D01*
X93434106Y-104249500D01*
X93306818Y-104283606D01*
X93306809Y-104283610D01*
X93237000Y-104323915D01*
X93223320Y-104325715D01*
X93211556Y-104332921D01*
X93193722Y-104329612D01*
X93180847Y-104331308D01*
X93173828Y-104325922D01*
X93162997Y-104323913D01*
X93154646Y-104319091D01*
X93139930Y-104299910D01*
X93135914Y-104296829D01*
X93135571Y-104294230D01*
X93120170Y-104274156D01*
X93127565Y-104218004D01*
X93134796Y-104207639D01*
X93227736Y-104096111D01*
X93228922Y-104094725D01*
X93251836Y-104068653D01*
X93251838Y-104068649D01*
X93254046Y-104065352D01*
X93256176Y-104061984D01*
X93256175Y-104061984D01*
X93256177Y-104061983D01*
X93270718Y-104030519D01*
X93271537Y-104028808D01*
X93275726Y-104020336D01*
X93286906Y-103997727D01*
X93286907Y-103997717D01*
X93288181Y-103993980D01*
X93289371Y-103990162D01*
X93289370Y-103990162D01*
X93289372Y-103990160D01*
X93295274Y-103956005D01*
X93295611Y-103954198D01*
X93342300Y-103720750D01*
X93343382Y-103716123D01*
X93350500Y-103689564D01*
X93350500Y-103687081D01*
X93351937Y-103672568D01*
X93352423Y-103670139D01*
X93350653Y-103642692D01*
X93350500Y-103637930D01*
X93350500Y-103587966D01*
X93372174Y-103535640D01*
X93411311Y-103496503D01*
X93450500Y-103457314D01*
X93516392Y-103343186D01*
X93550499Y-103215894D01*
X93550500Y-103215894D01*
X93550500Y-103084106D01*
X93550499Y-103084105D01*
X93550497Y-103084099D01*
X93516392Y-102956814D01*
X93450500Y-102842686D01*
X93357314Y-102749500D01*
X93341003Y-102740083D01*
X93243190Y-102683610D01*
X93243181Y-102683606D01*
X93115894Y-102649500D01*
X93115892Y-102649500D01*
X92984108Y-102649500D01*
X92983104Y-102649500D01*
X92930778Y-102627826D01*
X92909104Y-102575500D01*
X92914736Y-102547183D01*
X92916388Y-102543192D01*
X92916392Y-102543186D01*
X92950499Y-102415894D01*
X92950500Y-102415894D01*
X92950500Y-102284106D01*
X92950499Y-102284105D01*
X92943408Y-102257642D01*
X92916392Y-102156814D01*
X92850500Y-102042686D01*
X92757314Y-101949500D01*
X92730649Y-101934105D01*
X92643190Y-101883610D01*
X92643181Y-101883606D01*
X92515894Y-101849500D01*
X92515892Y-101849500D01*
X92384108Y-101849500D01*
X92384106Y-101849500D01*
X92256818Y-101883606D01*
X92256809Y-101883610D01*
X92142685Y-101949500D01*
X92064360Y-102027826D01*
X92012034Y-102049500D01*
X91831367Y-102049500D01*
X91785140Y-102033284D01*
X90246341Y-100802245D01*
X90219021Y-100752633D01*
X90234784Y-100698234D01*
X90255565Y-100680376D01*
X90307314Y-100650500D01*
X90400500Y-100557314D01*
X90466392Y-100443186D01*
X90500499Y-100315894D01*
X90500500Y-100315894D01*
X90500500Y-100186771D01*
X90520672Y-100135992D01*
X92419043Y-98123719D01*
X92470716Y-98100531D01*
X92472870Y-98100500D01*
X92565894Y-98100500D01*
X92565894Y-98100499D01*
X92693186Y-98066392D01*
X92807314Y-98000500D01*
X92900500Y-97907314D01*
X92957210Y-97809089D01*
X93002141Y-97774613D01*
X93058294Y-97782005D01*
X93073889Y-97794036D01*
X93182423Y-97903701D01*
X93228096Y-97949849D01*
X93249500Y-98001903D01*
X93249500Y-98115894D01*
X93283606Y-98243181D01*
X93283607Y-98243184D01*
X93283608Y-98243186D01*
X93349500Y-98357314D01*
X93442686Y-98450500D01*
X93556814Y-98516392D01*
X93684105Y-98550499D01*
X93684106Y-98550500D01*
X93684108Y-98550500D01*
X93815894Y-98550500D01*
X93815894Y-98550499D01*
X93943186Y-98516392D01*
X94057314Y-98450500D01*
X94150500Y-98357314D01*
X94216392Y-98243186D01*
X94250499Y-98115894D01*
X94250500Y-98115894D01*
X94250500Y-97984106D01*
X94250499Y-97984105D01*
X94218102Y-97863198D01*
X94216392Y-97856814D01*
X94150500Y-97742686D01*
X94057314Y-97649500D01*
X94006934Y-97620413D01*
X93943190Y-97583610D01*
X93943181Y-97583606D01*
X93815894Y-97549500D01*
X93815892Y-97549500D01*
X93708323Y-97549500D01*
X93655997Y-97527826D01*
X93655727Y-97527554D01*
X91950707Y-95804774D01*
X89618591Y-93448366D01*
X89597189Y-93395930D01*
X89619134Y-93343717D01*
X89671571Y-93322314D01*
X89711789Y-93334445D01*
G37*
%TD.AperFunction*%
%TA.AperFunction,Conductor*%
G36*
X118350000Y-105020000D02*
G01*
X118843942Y-105020000D01*
X118979176Y-104993100D01*
X118979182Y-104993098D01*
X119004523Y-104982602D01*
X119061160Y-104982602D01*
X119101209Y-105022650D01*
X119101209Y-105079287D01*
X119071625Y-105113992D01*
X117363283Y-106165279D01*
X117307360Y-106174244D01*
X117261477Y-106141039D01*
X117250500Y-106102256D01*
X117250500Y-105984106D01*
X117250499Y-105984105D01*
X117243024Y-105956209D01*
X117216392Y-105856814D01*
X117150500Y-105742686D01*
X117150499Y-105742685D01*
X117150498Y-105742683D01*
X117110140Y-105702326D01*
X117088465Y-105650001D01*
X117110139Y-105597675D01*
X117200500Y-105507314D01*
X117266392Y-105393186D01*
X117300499Y-105265894D01*
X117300500Y-105265894D01*
X117300500Y-105134106D01*
X117300499Y-105134105D01*
X117275574Y-105041082D01*
X117282966Y-104984932D01*
X117327899Y-104950453D01*
X117375370Y-104953564D01*
X117470813Y-104993097D01*
X117470823Y-104993100D01*
X117606058Y-105020000D01*
X118100000Y-105020000D01*
X118100000Y-104620000D01*
X118350000Y-104620000D01*
X118350000Y-105020000D01*
G37*
%TD.AperFunction*%
%TA.AperFunction,Conductor*%
G36*
X119511702Y-99725679D02*
G01*
X119521590Y-99764652D01*
X119414178Y-103792575D01*
X119391116Y-103844304D01*
X119338231Y-103864576D01*
X119287878Y-103842928D01*
X119221223Y-103776273D01*
X119106573Y-103699667D01*
X118979186Y-103646902D01*
X118979176Y-103646899D01*
X118843942Y-103620000D01*
X118350000Y-103620000D01*
X118350000Y-104020000D01*
X118100000Y-104020000D01*
X118100000Y-103620000D01*
X117606058Y-103620000D01*
X117470823Y-103646899D01*
X117470813Y-103646902D01*
X117343426Y-103699667D01*
X117228776Y-103776273D01*
X117228775Y-103776275D01*
X117131275Y-103873775D01*
X117131273Y-103873776D01*
X117054667Y-103988426D01*
X117001901Y-104115815D01*
X117001899Y-104115822D01*
X116986150Y-104195000D01*
X117400758Y-104195000D01*
X117395444Y-104204204D01*
X117375000Y-104280504D01*
X117375000Y-104359496D01*
X117395444Y-104435796D01*
X117400758Y-104445000D01*
X116986150Y-104445000D01*
X117001899Y-104524177D01*
X117001901Y-104524184D01*
X117043141Y-104623746D01*
X117043141Y-104680383D01*
X117003092Y-104720431D01*
X116955622Y-104723542D01*
X116865892Y-104699500D01*
X116825834Y-104699500D01*
X116773508Y-104677826D01*
X115922174Y-103826492D01*
X115900500Y-103774166D01*
X115900500Y-103734106D01*
X115900499Y-103734105D01*
X115899556Y-103730587D01*
X115866392Y-103606814D01*
X115848023Y-103574999D01*
X115840631Y-103518848D01*
X115875110Y-103473914D01*
X115912110Y-103464000D01*
X116745439Y-103464000D01*
X116747438Y-103464027D01*
X116795360Y-103465322D01*
X116795360Y-103465321D01*
X116795361Y-103465322D01*
X116795361Y-103465321D01*
X116796906Y-103465058D01*
X116797400Y-103465016D01*
X116797953Y-103464906D01*
X116799965Y-103464534D01*
X116800503Y-103464442D01*
X116800977Y-103464305D01*
X116802507Y-103464000D01*
X116802513Y-103464000D01*
X116846798Y-103445656D01*
X116848629Y-103444925D01*
X116893443Y-103427767D01*
X116893444Y-103427765D01*
X116894756Y-103426940D01*
X116895190Y-103426715D01*
X116895646Y-103426411D01*
X116897339Y-103425312D01*
X116897871Y-103424976D01*
X116898270Y-103424658D01*
X116899538Y-103423810D01*
X116899544Y-103423808D01*
X116933485Y-103389865D01*
X116934842Y-103388545D01*
X117523970Y-102830424D01*
X118272500Y-102830424D01*
X118272500Y-102949575D01*
X118303335Y-103064655D01*
X118303337Y-103064660D01*
X118359571Y-103162059D01*
X118362910Y-103167842D01*
X118447158Y-103252090D01*
X118550341Y-103311663D01*
X118550342Y-103311663D01*
X118550344Y-103311664D01*
X118575965Y-103318529D01*
X118665424Y-103342499D01*
X118665425Y-103342500D01*
X118665427Y-103342500D01*
X118784575Y-103342500D01*
X118784575Y-103342499D01*
X118899659Y-103311663D01*
X119002842Y-103252090D01*
X119087090Y-103167842D01*
X119146663Y-103064659D01*
X119177499Y-102949575D01*
X119177500Y-102949575D01*
X119177500Y-102830425D01*
X119177499Y-102830424D01*
X119175837Y-102824223D01*
X119156084Y-102750500D01*
X119146664Y-102715344D01*
X119146662Y-102715339D01*
X119109201Y-102650455D01*
X119087090Y-102612158D01*
X119002842Y-102527910D01*
X118958599Y-102502366D01*
X118899660Y-102468337D01*
X118899655Y-102468335D01*
X118784575Y-102437500D01*
X118784573Y-102437500D01*
X118665427Y-102437500D01*
X118665425Y-102437500D01*
X118550344Y-102468335D01*
X118550339Y-102468337D01*
X118447160Y-102527908D01*
X118362908Y-102612160D01*
X118303337Y-102715339D01*
X118303335Y-102715344D01*
X118272500Y-102830424D01*
X117523970Y-102830424D01*
X117881158Y-102492036D01*
X117918950Y-102456570D01*
X117918951Y-102456567D01*
X117918960Y-102456559D01*
X117919242Y-102456162D01*
X117919441Y-102455882D01*
X117919679Y-102455547D01*
X117919682Y-102455539D01*
X117919686Y-102455536D01*
X117940838Y-102408133D01*
X117962200Y-102360863D01*
X117962200Y-102360861D01*
X117962202Y-102360857D01*
X117962305Y-102360407D01*
X117962373Y-102360112D01*
X117962484Y-102359632D01*
X117963022Y-102339711D01*
X117963885Y-102307767D01*
X117965533Y-102255890D01*
X117965531Y-102255886D01*
X117965532Y-102255878D01*
X117965464Y-102255475D01*
X117965410Y-102255155D01*
X117965326Y-102254650D01*
X117954428Y-102226189D01*
X117946790Y-102206240D01*
X117944623Y-102200499D01*
X117928437Y-102157622D01*
X117928323Y-102157441D01*
X117928157Y-102157176D01*
X117927781Y-102156572D01*
X117892316Y-102119138D01*
X117892076Y-102118884D01*
X117882156Y-102108314D01*
X117404654Y-101599500D01*
X116680980Y-100828371D01*
X116660977Y-100775384D01*
X116684301Y-100723772D01*
X116697932Y-100713651D01*
X116807314Y-100650500D01*
X116900500Y-100557314D01*
X116966392Y-100443186D01*
X116977313Y-100402425D01*
X117011790Y-100357493D01*
X117023387Y-100352075D01*
X118765636Y-99715485D01*
X118822220Y-99717885D01*
X118828031Y-99720906D01*
X118906810Y-99766390D01*
X118906811Y-99766390D01*
X118906814Y-99766392D01*
X119034108Y-99800500D01*
X119034109Y-99800500D01*
X119165894Y-99800500D01*
X119165894Y-99800499D01*
X119293186Y-99766392D01*
X119407314Y-99700500D01*
X119407315Y-99700498D01*
X119410616Y-99698593D01*
X119466768Y-99691200D01*
X119511702Y-99725679D01*
G37*
%TD.AperFunction*%
%TA.AperFunction,Conductor*%
G36*
X85301779Y-98003925D02*
G01*
X85308875Y-98010125D01*
X88958662Y-101633842D01*
X88964552Y-101641156D01*
X88964662Y-101641064D01*
X88967780Y-101644781D01*
X88991449Y-101666478D01*
X88993583Y-101668514D01*
X89016348Y-101691117D01*
X89020210Y-101694058D01*
X89020122Y-101694173D01*
X89027701Y-101699709D01*
X91885209Y-104319091D01*
X91887239Y-104320951D01*
X91911165Y-104372286D01*
X91891784Y-104425504D01*
X91840449Y-104449430D01*
X91837235Y-104449500D01*
X83138128Y-104449500D01*
X83085802Y-104427826D01*
X83064128Y-104375500D01*
X83085190Y-104323793D01*
X83086772Y-104322174D01*
X83964247Y-103423806D01*
X84209422Y-103172793D01*
X84261489Y-103150505D01*
X84262360Y-103150500D01*
X84365894Y-103150500D01*
X84365894Y-103150499D01*
X84493186Y-103116392D01*
X84607314Y-103050500D01*
X84700500Y-102957314D01*
X84766392Y-102843186D01*
X84800499Y-102715894D01*
X84800500Y-102715894D01*
X84800500Y-102584106D01*
X84800499Y-102584105D01*
X84799119Y-102578956D01*
X84766392Y-102456814D01*
X84700500Y-102342686D01*
X84607314Y-102249500D01*
X84582809Y-102235352D01*
X84494345Y-102184277D01*
X84459866Y-102139343D01*
X84467259Y-102083191D01*
X84486710Y-102049500D01*
X84498207Y-102029587D01*
X84525499Y-101927729D01*
X84525500Y-101927729D01*
X84525500Y-101822271D01*
X84525499Y-101822270D01*
X84518365Y-101795645D01*
X84508791Y-101759913D01*
X84516183Y-101703763D01*
X84561116Y-101669284D01*
X84582319Y-101666791D01*
X84783962Y-101672392D01*
X84822952Y-101684791D01*
X84864803Y-101712691D01*
X84895234Y-101755110D01*
X84901791Y-101779583D01*
X84901793Y-101779588D01*
X84931563Y-101831150D01*
X84954520Y-101870913D01*
X85029087Y-101945480D01*
X85120413Y-101998207D01*
X85222270Y-102025499D01*
X85222271Y-102025500D01*
X85222273Y-102025500D01*
X85327729Y-102025500D01*
X85327729Y-102025499D01*
X85429587Y-101998207D01*
X85520913Y-101945480D01*
X85595480Y-101870913D01*
X85638936Y-101795643D01*
X85683867Y-101761166D01*
X85740020Y-101768558D01*
X85755347Y-101780318D01*
X87627826Y-103652797D01*
X87649500Y-103705123D01*
X87649500Y-103815894D01*
X87683606Y-103943181D01*
X87683610Y-103943190D01*
X87714050Y-103995913D01*
X87749500Y-104057314D01*
X87842686Y-104150500D01*
X87956814Y-104216392D01*
X88084105Y-104250499D01*
X88084106Y-104250500D01*
X88084108Y-104250500D01*
X88215894Y-104250500D01*
X88215894Y-104250499D01*
X88343186Y-104216392D01*
X88457314Y-104150500D01*
X88550500Y-104057314D01*
X88616392Y-103943186D01*
X88650499Y-103815894D01*
X88650500Y-103815894D01*
X88650500Y-103684106D01*
X88650499Y-103684105D01*
X88643186Y-103656814D01*
X88616392Y-103556814D01*
X88550500Y-103442686D01*
X88457314Y-103349500D01*
X88420335Y-103328150D01*
X88343190Y-103283610D01*
X88343181Y-103283606D01*
X88215894Y-103249500D01*
X88215892Y-103249500D01*
X88105123Y-103249500D01*
X88052797Y-103227826D01*
X85893113Y-101068142D01*
X85882551Y-101054817D01*
X85882392Y-101054561D01*
X85079760Y-99760317D01*
X85070603Y-99704426D01*
X85103648Y-99658429D01*
X85123492Y-99649840D01*
X85129587Y-99648207D01*
X85220913Y-99595480D01*
X85295480Y-99520913D01*
X85348207Y-99429587D01*
X85375499Y-99327729D01*
X85375500Y-99327729D01*
X85375500Y-99222271D01*
X85375499Y-99222270D01*
X85348208Y-99120417D01*
X85348207Y-99120413D01*
X85295480Y-99029087D01*
X85237687Y-98971294D01*
X85216177Y-98923892D01*
X85160681Y-98091446D01*
X85178826Y-98037797D01*
X85182170Y-98034222D01*
X85195480Y-98020913D01*
X85195486Y-98020902D01*
X85198024Y-98017596D01*
X85247070Y-97989272D01*
X85301779Y-98003925D01*
G37*
%TD.AperFunction*%
%TA.AperFunction,Conductor*%
G36*
X111820951Y-86137605D02*
G01*
X111828204Y-86154941D01*
X114806744Y-96960807D01*
X114799754Y-97017011D01*
X114755069Y-97051810D01*
X114698865Y-97044820D01*
X114672382Y-97019254D01*
X114645385Y-96975384D01*
X114484713Y-96714293D01*
X114475749Y-96658371D01*
X114476249Y-96656395D01*
X114492691Y-96595031D01*
X114500500Y-96565893D01*
X114500500Y-96434106D01*
X114500499Y-96434105D01*
X114499270Y-96429520D01*
X114466392Y-96306814D01*
X114400500Y-96192686D01*
X114307314Y-96099500D01*
X114268693Y-96077202D01*
X114193190Y-96033610D01*
X114193181Y-96033606D01*
X114065894Y-95999500D01*
X114065892Y-95999500D01*
X113934108Y-95999500D01*
X113934106Y-95999500D01*
X113806818Y-96033606D01*
X113806809Y-96033610D01*
X113692685Y-96099500D01*
X113599500Y-96192685D01*
X113533610Y-96306809D01*
X113533606Y-96306818D01*
X113499500Y-96434105D01*
X113499500Y-96565894D01*
X113533606Y-96693181D01*
X113533610Y-96693190D01*
X113565202Y-96747908D01*
X113599500Y-96807314D01*
X113692686Y-96900500D01*
X113806814Y-96966392D01*
X113930876Y-96999634D01*
X113974746Y-97032329D01*
X114486049Y-97863198D01*
X114497006Y-97903701D01*
X114403068Y-101943007D01*
X114381414Y-101993613D01*
X113597202Y-102777826D01*
X113544876Y-102799500D01*
X113434106Y-102799500D01*
X113306818Y-102833606D01*
X113306809Y-102833610D01*
X113192685Y-102899500D01*
X113099499Y-102992686D01*
X113092199Y-103005331D01*
X113047264Y-103039807D01*
X112998528Y-103033387D01*
X112997668Y-103035465D01*
X112993181Y-103033606D01*
X112865894Y-102999500D01*
X112865892Y-102999500D01*
X112734108Y-102999500D01*
X112734106Y-102999500D01*
X112606818Y-103033606D01*
X112606809Y-103033610D01*
X112492685Y-103099500D01*
X112451826Y-103140360D01*
X112399500Y-103162034D01*
X112347174Y-103140360D01*
X112325500Y-103088034D01*
X112325500Y-103078503D01*
X112347173Y-103026178D01*
X112482435Y-102890915D01*
X112484279Y-102889136D01*
X112518328Y-102857437D01*
X112518332Y-102857426D01*
X112521068Y-102853634D01*
X112521144Y-102853544D01*
X112521197Y-102853450D01*
X112523803Y-102849548D01*
X112523808Y-102849544D01*
X112541607Y-102806569D01*
X112542608Y-102804269D01*
X112561958Y-102761902D01*
X112561958Y-102761893D01*
X112563037Y-102757330D01*
X112563070Y-102757227D01*
X112563083Y-102757117D01*
X112563999Y-102752513D01*
X112563999Y-102706077D01*
X112564046Y-102703436D01*
X112565138Y-102672847D01*
X112611706Y-101368919D01*
X112613082Y-101357123D01*
X112614000Y-101352511D01*
X112614000Y-101306035D01*
X112614047Y-101303394D01*
X112615706Y-101256943D01*
X112615704Y-101256938D01*
X112614953Y-101252298D01*
X112614945Y-101252202D01*
X112614917Y-101252103D01*
X112614000Y-101247495D01*
X112614000Y-101247488D01*
X112596192Y-101204496D01*
X112595263Y-101202136D01*
X112579003Y-101158539D01*
X112579000Y-101158535D01*
X112576534Y-101154543D01*
X112576484Y-101154447D01*
X112576420Y-101154365D01*
X112573810Y-101150458D01*
X112573809Y-101150456D01*
X112540930Y-101117577D01*
X112539096Y-101115676D01*
X112507438Y-101081673D01*
X112503620Y-101078920D01*
X112494577Y-101071224D01*
X112149545Y-100726193D01*
X112149543Y-100726191D01*
X112082048Y-100698234D01*
X112052513Y-100686000D01*
X112052512Y-100686000D01*
X111702031Y-100686000D01*
X111701128Y-100685994D01*
X111650612Y-100685377D01*
X111649576Y-100685584D01*
X111648694Y-100685754D01*
X111647580Y-100685961D01*
X111600910Y-100705291D01*
X111600077Y-100705630D01*
X107945822Y-102167333D01*
X107889189Y-102166643D01*
X107849632Y-102126109D01*
X107846861Y-102079472D01*
X107850500Y-102065892D01*
X107850500Y-101934108D01*
X107850500Y-101934106D01*
X107850499Y-101934105D01*
X107848275Y-101925806D01*
X107816392Y-101806814D01*
X107750500Y-101692686D01*
X107657314Y-101599500D01*
X107599107Y-101565894D01*
X107543190Y-101533610D01*
X107543181Y-101533606D01*
X107415894Y-101499500D01*
X107415892Y-101499500D01*
X107284108Y-101499500D01*
X107194268Y-101523571D01*
X107138116Y-101516177D01*
X107136265Y-101515073D01*
X107114301Y-101501524D01*
X105857449Y-100726193D01*
X99814482Y-96998388D01*
X99811865Y-96996696D01*
X99785642Y-96978953D01*
X99781310Y-96976785D01*
X99781348Y-96976708D01*
X99778558Y-96975384D01*
X99778523Y-96975463D01*
X99774096Y-96973476D01*
X99743769Y-96964395D01*
X99740800Y-96963437D01*
X99710875Y-96953082D01*
X99706121Y-96952108D01*
X99706138Y-96952024D01*
X99703100Y-96951468D01*
X99703087Y-96951554D01*
X99698301Y-96950781D01*
X99666655Y-96949858D01*
X99663542Y-96949701D01*
X96975383Y-96757689D01*
X96938005Y-96744350D01*
X92822547Y-93841869D01*
X92792278Y-93793999D01*
X92804724Y-93738746D01*
X92828198Y-93717310D01*
X92857314Y-93700500D01*
X92950500Y-93607314D01*
X93016392Y-93493186D01*
X93050499Y-93365894D01*
X93050500Y-93365894D01*
X93050500Y-93234108D01*
X93023127Y-93131950D01*
X93030520Y-93075798D01*
X93030823Y-93075279D01*
X93094847Y-92966439D01*
X94086676Y-91280328D01*
X94131305Y-91246369D01*
X94243186Y-91216392D01*
X94357314Y-91150500D01*
X94409674Y-91098140D01*
X94462000Y-91076466D01*
X94514326Y-91098140D01*
X94536000Y-91150466D01*
X94536000Y-91666955D01*
X94514326Y-91719281D01*
X94479520Y-91754086D01*
X94426795Y-91845408D01*
X94426791Y-91845417D01*
X94399500Y-91947270D01*
X94399500Y-92052729D01*
X94426791Y-92154582D01*
X94426795Y-92154591D01*
X94437543Y-92173207D01*
X94479520Y-92245913D01*
X94554087Y-92320480D01*
X94645413Y-92373207D01*
X94747270Y-92400499D01*
X94747271Y-92400500D01*
X94747273Y-92400500D01*
X94852729Y-92400500D01*
X94852729Y-92400499D01*
X94954587Y-92373207D01*
X95045913Y-92320480D01*
X95120480Y-92245913D01*
X95173207Y-92154587D01*
X95200499Y-92052729D01*
X95200500Y-92052729D01*
X95200500Y-91947271D01*
X95200499Y-91947270D01*
X95192225Y-91916392D01*
X95173207Y-91845413D01*
X95120480Y-91754087D01*
X95085674Y-91719281D01*
X95064000Y-91666955D01*
X95064000Y-90163566D01*
X95073915Y-90126564D01*
X95080021Y-90115989D01*
X95100499Y-90039564D01*
X95100500Y-90039564D01*
X95100500Y-86787966D01*
X95122174Y-86735640D01*
X95150500Y-86707314D01*
X95200500Y-86657314D01*
X95266392Y-86543186D01*
X95300499Y-86415894D01*
X95300500Y-86415894D01*
X95300500Y-86339491D01*
X95322174Y-86287165D01*
X95374500Y-86265491D01*
X95422601Y-86283257D01*
X95839647Y-86640007D01*
X95888784Y-86682040D01*
X95914457Y-86732524D01*
X95896914Y-86786376D01*
X95893007Y-86790599D01*
X95829520Y-86854086D01*
X95776795Y-86945408D01*
X95776791Y-86945417D01*
X95749500Y-87047270D01*
X95749500Y-87152729D01*
X95776791Y-87254582D01*
X95776795Y-87254591D01*
X95810258Y-87312551D01*
X95829520Y-87345913D01*
X95904087Y-87420480D01*
X95995413Y-87473207D01*
X96097270Y-87500499D01*
X96097271Y-87500500D01*
X96097273Y-87500500D01*
X96148995Y-87500500D01*
X96201042Y-87521897D01*
X100416711Y-91693190D01*
X100477548Y-91753387D01*
X100499499Y-91805597D01*
X100499500Y-91805989D01*
X100499500Y-91852729D01*
X100526791Y-91954582D01*
X100526795Y-91954591D01*
X100568827Y-92027393D01*
X100579520Y-92045913D01*
X100654087Y-92120480D01*
X100745413Y-92173207D01*
X100847270Y-92200499D01*
X100847271Y-92200500D01*
X100847273Y-92200500D01*
X100952729Y-92200500D01*
X100952729Y-92200499D01*
X101054587Y-92173207D01*
X101145913Y-92120480D01*
X101220480Y-92045913D01*
X101273207Y-91954587D01*
X101300499Y-91852729D01*
X101300500Y-91852729D01*
X101300500Y-91747271D01*
X101300499Y-91747270D01*
X101292999Y-91719281D01*
X101273207Y-91645413D01*
X101220480Y-91554087D01*
X101145913Y-91479520D01*
X101067252Y-91434105D01*
X101054591Y-91426795D01*
X101054582Y-91426791D01*
X100952729Y-91399500D01*
X100952727Y-91399500D01*
X100901005Y-91399500D01*
X100848957Y-91378102D01*
X100839856Y-91369097D01*
X100198113Y-90734108D01*
X98920486Y-89469929D01*
X98898535Y-89417718D01*
X98919932Y-89365279D01*
X98972143Y-89343328D01*
X99020635Y-89361093D01*
X108271485Y-97274471D01*
X111324756Y-99886306D01*
X111340739Y-99905539D01*
X111399497Y-100007310D01*
X111399498Y-100007311D01*
X111399500Y-100007314D01*
X111492686Y-100100500D01*
X111606814Y-100166392D01*
X111734105Y-100200499D01*
X111734106Y-100200500D01*
X111734108Y-100200500D01*
X111865894Y-100200500D01*
X111865894Y-100200499D01*
X111993186Y-100166392D01*
X112107314Y-100100500D01*
X112200500Y-100007314D01*
X112266392Y-99893186D01*
X112300499Y-99765894D01*
X112300500Y-99765894D01*
X112300500Y-99634106D01*
X112300499Y-99634105D01*
X112300333Y-99633487D01*
X112266392Y-99506814D01*
X112200500Y-99392686D01*
X112107314Y-99299500D01*
X112107311Y-99299498D01*
X112107310Y-99299497D01*
X112027970Y-99253690D01*
X112006940Y-99235523D01*
X111964972Y-99182486D01*
X109741952Y-96373177D01*
X109726480Y-96318696D01*
X109754064Y-96269229D01*
X109808546Y-96253756D01*
X109841669Y-96266117D01*
X110474027Y-96697271D01*
X110604943Y-96786532D01*
X110614648Y-96795808D01*
X110614884Y-96795546D01*
X110620305Y-96800407D01*
X110620308Y-96800410D01*
X110656200Y-96821662D01*
X110660183Y-96824196D01*
X110671861Y-96832158D01*
X110694667Y-96847707D01*
X110694670Y-96847707D01*
X110701377Y-96850560D01*
X110701238Y-96850885D01*
X110703689Y-96851836D01*
X110703807Y-96851502D01*
X110710678Y-96853919D01*
X110710680Y-96853920D01*
X110752025Y-96859825D01*
X110756593Y-96860628D01*
X110797478Y-96869160D01*
X110804768Y-96869228D01*
X110804764Y-96869582D01*
X110818190Y-96869278D01*
X111478153Y-96963558D01*
X111526448Y-96992154D01*
X111526567Y-96992064D01*
X111526792Y-96992358D01*
X111526887Y-96992414D01*
X111527202Y-96992892D01*
X111529518Y-96995910D01*
X111529520Y-96995913D01*
X111604087Y-97070480D01*
X111695413Y-97123207D01*
X111797270Y-97150499D01*
X111797271Y-97150500D01*
X111797273Y-97150500D01*
X111902729Y-97150500D01*
X111902729Y-97150499D01*
X112004587Y-97123207D01*
X112095913Y-97070480D01*
X112170480Y-96995913D01*
X112223207Y-96904587D01*
X112250499Y-96802729D01*
X112250500Y-96802729D01*
X112250500Y-96697271D01*
X112250499Y-96697270D01*
X112249403Y-96693181D01*
X112223207Y-96595413D01*
X112170480Y-96504087D01*
X112095913Y-96429520D01*
X112010142Y-96380000D01*
X112004591Y-96376795D01*
X112004582Y-96376791D01*
X111902729Y-96349500D01*
X111902727Y-96349500D01*
X111797273Y-96349500D01*
X111797271Y-96349500D01*
X111695417Y-96376791D01*
X111695408Y-96376795D01*
X111600313Y-96431698D01*
X111552848Y-96440868D01*
X110915067Y-96349757D01*
X110883845Y-96337642D01*
X110501866Y-96077202D01*
X110375772Y-95991229D01*
X110344750Y-95943845D01*
X110356319Y-95888402D01*
X110380459Y-95866004D01*
X110407314Y-95850500D01*
X110500500Y-95757314D01*
X110566392Y-95643186D01*
X110600499Y-95515894D01*
X110600500Y-95515894D01*
X110600500Y-95384106D01*
X110599867Y-95379297D01*
X110601176Y-95379124D01*
X110607906Y-95328006D01*
X110616298Y-95316280D01*
X110662040Y-95264003D01*
X110667963Y-95257969D01*
X110670725Y-95255459D01*
X110681381Y-95245776D01*
X110687810Y-95235774D01*
X110694365Y-95227061D01*
X110702201Y-95218107D01*
X110710208Y-95201823D01*
X110714350Y-95194489D01*
X111135427Y-94539482D01*
X111143140Y-94529478D01*
X111148191Y-94523972D01*
X111158610Y-94503980D01*
X111161967Y-94498196D01*
X111174168Y-94479219D01*
X111176447Y-94472091D01*
X111181306Y-94460437D01*
X111184762Y-94453808D01*
X111189650Y-94431812D01*
X111191405Y-94425320D01*
X111195847Y-94411431D01*
X111198270Y-94403856D01*
X111198626Y-94396381D01*
X111200304Y-94383865D01*
X111288972Y-93984854D01*
X111291108Y-93977211D01*
X111297331Y-93958820D01*
X111298014Y-93948221D01*
X111299624Y-93936924D01*
X111299796Y-93936153D01*
X111301926Y-93926568D01*
X111301088Y-93907167D01*
X111301172Y-93899239D01*
X111302423Y-93879861D01*
X111302337Y-93879430D01*
X111300339Y-93869438D01*
X111298971Y-93858115D01*
X111298833Y-93854927D01*
X111298514Y-93847518D01*
X111292682Y-93828990D01*
X111290712Y-93821313D01*
X111202497Y-93380234D01*
X111201261Y-93366688D01*
X111201064Y-93364997D01*
X111201063Y-93364996D01*
X111201064Y-93364995D01*
X111193654Y-93335567D01*
X111192865Y-93332072D01*
X111186906Y-93302273D01*
X111186902Y-93302266D01*
X111186373Y-93300711D01*
X111182380Y-93289866D01*
X111181747Y-93288271D01*
X111181746Y-93288267D01*
X111166977Y-93261766D01*
X111165292Y-93258560D01*
X111151836Y-93231347D01*
X111151834Y-93231345D01*
X111151833Y-93231342D01*
X111150874Y-93229910D01*
X111144237Y-93220510D01*
X111143231Y-93219156D01*
X111142267Y-93218162D01*
X111122064Y-93197338D01*
X111119650Y-93194723D01*
X111109004Y-93182610D01*
X111099607Y-93171915D01*
X111098358Y-93170822D01*
X111087864Y-93162085D01*
X110823466Y-92889552D01*
X108324242Y-90313429D01*
X108303364Y-90260783D01*
X108325829Y-90208791D01*
X108378477Y-90187912D01*
X108396509Y-90190426D01*
X108423890Y-90197762D01*
X108434105Y-90200499D01*
X108434106Y-90200500D01*
X108434108Y-90200500D01*
X108565894Y-90200500D01*
X108565894Y-90200499D01*
X108693186Y-90166392D01*
X108807314Y-90100500D01*
X108900500Y-90007314D01*
X108966392Y-89893186D01*
X108970228Y-89878868D01*
X109004703Y-89833935D01*
X109015892Y-89828667D01*
X110713406Y-89197034D01*
X110721516Y-89194536D01*
X110722499Y-89194293D01*
X110722505Y-89194293D01*
X110756593Y-89180973D01*
X110757490Y-89180631D01*
X110791873Y-89167839D01*
X110791881Y-89167832D01*
X110792767Y-89167365D01*
X110793035Y-89167242D01*
X110793433Y-89167023D01*
X110794565Y-89166412D01*
X110795056Y-89166152D01*
X110795334Y-89165977D01*
X110796195Y-89165502D01*
X110796202Y-89165500D01*
X110825706Y-89143794D01*
X110826556Y-89143180D01*
X110856360Y-89121993D01*
X110856365Y-89121986D01*
X110857094Y-89121310D01*
X110857334Y-89121111D01*
X110857716Y-89120745D01*
X110858596Y-89119914D01*
X110859003Y-89119535D01*
X110859224Y-89119297D01*
X110859927Y-89118620D01*
X110859937Y-89118614D01*
X110882873Y-89089942D01*
X110883452Y-89089231D01*
X110906784Y-89061019D01*
X110906790Y-89061005D01*
X110907313Y-89060172D01*
X110912219Y-89053259D01*
X111079272Y-88844443D01*
X111081404Y-88841900D01*
X111101836Y-88818653D01*
X111101838Y-88818649D01*
X111104352Y-88814895D01*
X111107018Y-88810708D01*
X111109358Y-88806836D01*
X111109365Y-88806828D01*
X111121785Y-88778477D01*
X111123189Y-88775467D01*
X111136906Y-88747727D01*
X111136907Y-88747719D01*
X111138354Y-88743472D01*
X111139859Y-88738699D01*
X111141115Y-88734360D01*
X111141114Y-88734360D01*
X111141117Y-88734356D01*
X111145774Y-88703774D01*
X111146353Y-88700487D01*
X111192301Y-88470743D01*
X111193382Y-88466123D01*
X111200500Y-88439564D01*
X111200500Y-88437081D01*
X111201937Y-88422568D01*
X111202423Y-88420139D01*
X111200653Y-88392692D01*
X111200500Y-88387930D01*
X111200500Y-86296545D01*
X111219311Y-86251130D01*
X111217527Y-86249762D01*
X111220478Y-86245915D01*
X111220480Y-86245913D01*
X111257680Y-86181479D01*
X111302612Y-86147003D01*
X111340918Y-86147002D01*
X111345411Y-86148205D01*
X111345413Y-86148207D01*
X111447273Y-86175500D01*
X111447274Y-86175500D01*
X111552729Y-86175500D01*
X111552729Y-86175499D01*
X111654587Y-86148207D01*
X111719865Y-86110519D01*
X111776018Y-86103127D01*
X111820951Y-86137605D01*
G37*
%TD.AperFunction*%
%TA.AperFunction,Conductor*%
G36*
X103889571Y-87694048D02*
G01*
X106474467Y-89929297D01*
X106499870Y-89979916D01*
X106482038Y-90033673D01*
X106445218Y-90056748D01*
X106370415Y-90076792D01*
X106370408Y-90076795D01*
X106279086Y-90129520D01*
X106204520Y-90204086D01*
X106151795Y-90295408D01*
X106151791Y-90295417D01*
X106124500Y-90397270D01*
X106124500Y-90502729D01*
X106151791Y-90604582D01*
X106151795Y-90604591D01*
X106170803Y-90637514D01*
X106204520Y-90695913D01*
X106279087Y-90770480D01*
X106370413Y-90823207D01*
X106472270Y-90850499D01*
X106472271Y-90850500D01*
X106472273Y-90850500D01*
X106528740Y-90850500D01*
X106580261Y-90871381D01*
X108802778Y-93027054D01*
X109396582Y-93602999D01*
X109427021Y-93632522D01*
X109449491Y-93684511D01*
X109449500Y-93685641D01*
X109449500Y-93727729D01*
X109476791Y-93829582D01*
X109476795Y-93829591D01*
X109526134Y-93915049D01*
X109529520Y-93920913D01*
X109604087Y-93995480D01*
X109695413Y-94048207D01*
X109695417Y-94048208D01*
X109759118Y-94065277D01*
X109804051Y-94099755D01*
X109811443Y-94155908D01*
X109776965Y-94200841D01*
X109692685Y-94249500D01*
X109599500Y-94342685D01*
X109533610Y-94456809D01*
X109533606Y-94456818D01*
X109499500Y-94584105D01*
X109499500Y-94715894D01*
X109533606Y-94843181D01*
X109533610Y-94843190D01*
X109599500Y-94957314D01*
X109690677Y-95048491D01*
X109712351Y-95100817D01*
X109699972Y-95137358D01*
X109701925Y-95138486D01*
X109650028Y-95228373D01*
X109605094Y-95262852D01*
X109548942Y-95255459D01*
X109529421Y-95239137D01*
X107117979Y-92385597D01*
X107100500Y-92337833D01*
X107100500Y-92247271D01*
X107100499Y-92247270D01*
X107100135Y-92245913D01*
X107073207Y-92145413D01*
X107020480Y-92054087D01*
X106945913Y-91979520D01*
X106923175Y-91966392D01*
X106854591Y-91926795D01*
X106854582Y-91926791D01*
X106752729Y-91899500D01*
X106752727Y-91899500D01*
X106647273Y-91899500D01*
X106647271Y-91899500D01*
X106545417Y-91926791D01*
X106545408Y-91926795D01*
X106454086Y-91979520D01*
X106407435Y-92026172D01*
X106355109Y-92047846D01*
X106302783Y-92026172D01*
X106297079Y-92019765D01*
X106285966Y-92005721D01*
X103251073Y-88170418D01*
X103235601Y-88115937D01*
X103263185Y-88066470D01*
X103309104Y-88050500D01*
X103365894Y-88050500D01*
X103365894Y-88050499D01*
X103493186Y-88016392D01*
X103607314Y-87950500D01*
X103700500Y-87857314D01*
X103766392Y-87743186D01*
X103769691Y-87730871D01*
X103804165Y-87685939D01*
X103860317Y-87678543D01*
X103889571Y-87694048D01*
G37*
%TD.AperFunction*%
%TA.AperFunction,Conductor*%
G36*
X91891715Y-80325809D02*
G01*
X91990134Y-80391571D01*
X92104952Y-80439130D01*
X92145000Y-80479177D01*
X92145000Y-80535814D01*
X92140721Y-80544492D01*
X92133610Y-80556809D01*
X92133606Y-80556818D01*
X92099500Y-80684105D01*
X92099500Y-80815894D01*
X92133606Y-80943181D01*
X92133610Y-80943190D01*
X92165598Y-80998595D01*
X92199500Y-81057314D01*
X92292686Y-81150500D01*
X92406814Y-81216392D01*
X92534105Y-81250499D01*
X92534106Y-81250500D01*
X92534108Y-81250500D01*
X92665894Y-81250500D01*
X92665894Y-81250499D01*
X92793186Y-81216392D01*
X92907314Y-81150500D01*
X93000500Y-81057314D01*
X93008995Y-81042598D01*
X93053927Y-81008119D01*
X93065805Y-81005955D01*
X95990640Y-80717083D01*
X96044841Y-80733509D01*
X96071553Y-80783452D01*
X96069390Y-80809877D01*
X96049500Y-80884108D01*
X96049500Y-81015894D01*
X96083606Y-81143181D01*
X96083610Y-81143190D01*
X96125872Y-81216389D01*
X96149500Y-81257314D01*
X96242686Y-81350500D01*
X96356814Y-81416392D01*
X96484105Y-81450499D01*
X96484106Y-81450500D01*
X96484108Y-81450500D01*
X96615889Y-81450500D01*
X96615892Y-81450500D01*
X96618831Y-81449712D01*
X96620355Y-81449912D01*
X96620704Y-81449867D01*
X96620716Y-81449960D01*
X96674982Y-81457096D01*
X96686390Y-81465210D01*
X97766739Y-82399426D01*
X98274696Y-82838674D01*
X98300099Y-82889294D01*
X98282267Y-82943051D01*
X98263294Y-82958733D01*
X98192686Y-82999499D01*
X98099500Y-83092685D01*
X98033610Y-83206809D01*
X98033606Y-83206818D01*
X97999500Y-83334105D01*
X97999500Y-83465894D01*
X98033606Y-83593181D01*
X98033610Y-83593190D01*
X98089276Y-83689606D01*
X98099500Y-83707314D01*
X98192686Y-83800500D01*
X98306814Y-83866392D01*
X98345338Y-83876714D01*
X98390270Y-83911191D01*
X98390283Y-83911213D01*
X98751530Y-84537375D01*
X99486997Y-85812186D01*
X99502532Y-85839112D01*
X99509913Y-85895242D01*
X99499500Y-85934107D01*
X99499500Y-86065894D01*
X99533606Y-86193181D01*
X99533610Y-86193190D01*
X99585611Y-86283258D01*
X99599500Y-86307314D01*
X99692686Y-86400500D01*
X99806814Y-86466392D01*
X99934105Y-86500499D01*
X99934106Y-86500500D01*
X99934108Y-86500500D01*
X100065894Y-86500500D01*
X100065894Y-86500499D01*
X100193186Y-86466392D01*
X100307314Y-86400500D01*
X100400500Y-86307314D01*
X100466392Y-86193186D01*
X100500499Y-86065894D01*
X100500500Y-86065894D01*
X100500500Y-85934106D01*
X100500499Y-85934105D01*
X100498161Y-85925381D01*
X100466392Y-85806814D01*
X100400500Y-85692686D01*
X100307314Y-85599500D01*
X100296854Y-85593461D01*
X100193187Y-85533608D01*
X100193183Y-85533607D01*
X100154660Y-85523284D01*
X100109728Y-85488806D01*
X99104569Y-83746531D01*
X99097196Y-83690377D01*
X99131689Y-83645455D01*
X99187844Y-83638081D01*
X99217070Y-83653577D01*
X103023831Y-86945413D01*
X103074194Y-86988963D01*
X103099597Y-87039584D01*
X103081766Y-87093341D01*
X103062792Y-87109024D01*
X102992684Y-87149501D01*
X102899499Y-87242686D01*
X102896547Y-87246534D01*
X102895500Y-87245731D01*
X102854585Y-87277119D01*
X102840363Y-87279474D01*
X102539315Y-87299544D01*
X102535641Y-87299697D01*
X102505393Y-87300207D01*
X102504220Y-87300381D01*
X102491684Y-87302567D01*
X102490537Y-87302796D01*
X102461906Y-87312551D01*
X102458397Y-87313650D01*
X102429316Y-87321969D01*
X102428275Y-87322421D01*
X102416704Y-87327789D01*
X102415639Y-87328316D01*
X102390503Y-87345150D01*
X102387400Y-87347118D01*
X102167379Y-87479131D01*
X102158379Y-87483727D01*
X102145578Y-87489195D01*
X102145568Y-87489201D01*
X102132898Y-87499146D01*
X102125287Y-87504387D01*
X102111469Y-87512678D01*
X102101792Y-87522686D01*
X102094290Y-87529452D01*
X102083337Y-87538050D01*
X102077060Y-87546419D01*
X102073662Y-87550949D01*
X102067666Y-87557980D01*
X102056470Y-87569559D01*
X102049712Y-87581732D01*
X102044216Y-87590210D01*
X101931500Y-87740498D01*
X101921823Y-87751084D01*
X101919544Y-87753135D01*
X101919538Y-87753143D01*
X101904872Y-87775722D01*
X101902018Y-87779809D01*
X101885862Y-87801352D01*
X101885859Y-87801356D01*
X101884720Y-87804195D01*
X101878114Y-87816919D01*
X101876443Y-87819491D01*
X101876441Y-87819495D01*
X101868117Y-87845106D01*
X101866418Y-87849792D01*
X101856389Y-87874780D01*
X101856388Y-87874783D01*
X101856022Y-87877820D01*
X101852932Y-87891827D01*
X101350626Y-89437385D01*
X101313840Y-89480450D01*
X101308580Y-89482875D01*
X101306820Y-89483604D01*
X101192685Y-89549500D01*
X101099500Y-89642685D01*
X101033608Y-89756812D01*
X101033607Y-89756816D01*
X101033353Y-89757765D01*
X101033051Y-89758157D01*
X101031753Y-89761293D01*
X101030912Y-89760945D01*
X100998874Y-89802698D01*
X100942721Y-89810089D01*
X100913772Y-89794844D01*
X98439785Y-87678543D01*
X95499988Y-85163777D01*
X95498024Y-85162034D01*
X95475737Y-85141530D01*
X95461367Y-85128309D01*
X95460701Y-85127841D01*
X95448418Y-85119530D01*
X95447773Y-85119110D01*
X95402797Y-85097615D01*
X95400408Y-85096420D01*
X95356257Y-85073325D01*
X95355552Y-85073067D01*
X95341465Y-85068194D01*
X95340743Y-85067959D01*
X95291761Y-85058842D01*
X95289143Y-85058306D01*
X95240508Y-85047422D01*
X95239749Y-85047355D01*
X95224878Y-85046294D01*
X95224129Y-85046254D01*
X95174476Y-85050123D01*
X95171809Y-85050283D01*
X92792140Y-85149437D01*
X92789059Y-85149501D01*
X92766253Y-85149501D01*
X92713927Y-85127827D01*
X92692253Y-85075501D01*
X92713927Y-85023175D01*
X93830293Y-83906809D01*
X94948464Y-82788637D01*
X94981638Y-82769485D01*
X94993186Y-82766392D01*
X95107314Y-82700500D01*
X95200500Y-82607314D01*
X95266392Y-82493186D01*
X95300499Y-82365894D01*
X95300500Y-82365894D01*
X95300500Y-82234106D01*
X95300499Y-82234105D01*
X95284312Y-82173695D01*
X95266392Y-82106814D01*
X95200500Y-81992686D01*
X95107314Y-81899500D01*
X95096378Y-81893186D01*
X94993190Y-81833610D01*
X94993181Y-81833606D01*
X94865894Y-81799500D01*
X94865892Y-81799500D01*
X94734108Y-81799500D01*
X94734106Y-81799500D01*
X94606818Y-81833606D01*
X94606809Y-81833610D01*
X94492685Y-81899500D01*
X94399500Y-81992685D01*
X94333606Y-82106816D01*
X94330511Y-82118366D01*
X94311360Y-82151535D01*
X91326826Y-85136070D01*
X91274500Y-85157744D01*
X91222174Y-85136070D01*
X91200500Y-85083744D01*
X91200500Y-81940539D01*
X91210416Y-81903536D01*
X91216392Y-81893186D01*
X91250500Y-81765892D01*
X91250500Y-81634108D01*
X91250500Y-81634106D01*
X91250499Y-81634105D01*
X91250366Y-81633610D01*
X91216392Y-81506814D01*
X91150500Y-81392686D01*
X91057314Y-81299500D01*
X90943190Y-81233610D01*
X90943181Y-81233606D01*
X90815894Y-81199500D01*
X90815892Y-81199500D01*
X90684108Y-81199500D01*
X90684106Y-81199500D01*
X90556818Y-81233606D01*
X90556809Y-81233610D01*
X90442685Y-81299500D01*
X90349500Y-81392685D01*
X90283610Y-81506809D01*
X90283606Y-81506818D01*
X90249500Y-81634105D01*
X90249500Y-81634108D01*
X90249500Y-81765892D01*
X90283608Y-81893186D01*
X90287253Y-81899500D01*
X90289584Y-81903536D01*
X90299500Y-81940539D01*
X90299500Y-87582744D01*
X90277826Y-87635070D01*
X89858349Y-88054546D01*
X89806023Y-88076220D01*
X89753697Y-88054546D01*
X89732023Y-88002220D01*
X89732097Y-87998920D01*
X89732759Y-87984108D01*
X89948349Y-83154864D01*
X89949819Y-83145453D01*
X89949706Y-83145438D01*
X89950356Y-83140631D01*
X89950355Y-83140631D01*
X89950357Y-83140628D01*
X89950470Y-83108699D01*
X89950543Y-83105729D01*
X89951965Y-83073879D01*
X89951547Y-83069048D01*
X89951662Y-83069037D01*
X89951369Y-83066302D01*
X89951255Y-83066317D01*
X89950639Y-83061507D01*
X89950638Y-83061506D01*
X89950639Y-83061505D01*
X89942497Y-83030682D01*
X89941781Y-83027729D01*
X89940788Y-83023229D01*
X89934915Y-82996614D01*
X89934911Y-82996607D01*
X89933261Y-82992056D01*
X89933368Y-82992016D01*
X89929938Y-82983138D01*
X89469592Y-81240401D01*
X89477184Y-81184278D01*
X89522239Y-81149959D01*
X89569456Y-81153138D01*
X89662542Y-81191695D01*
X89694106Y-81204769D01*
X89829441Y-81231689D01*
X89829443Y-81231689D01*
X89967425Y-81231689D01*
X89967427Y-81231689D01*
X90102762Y-81204769D01*
X90230245Y-81151964D01*
X90344976Y-81075303D01*
X90442548Y-80977731D01*
X90519209Y-80863000D01*
X90570481Y-80739216D01*
X90610529Y-80699168D01*
X90667166Y-80699168D01*
X90679957Y-80706004D01*
X90778379Y-80771768D01*
X90778380Y-80771768D01*
X90778381Y-80771769D01*
X90884904Y-80815892D01*
X90905862Y-80824573D01*
X91041197Y-80851493D01*
X91041199Y-80851493D01*
X91179181Y-80851493D01*
X91179183Y-80851493D01*
X91314518Y-80824573D01*
X91442001Y-80771768D01*
X91556732Y-80695107D01*
X91654304Y-80597535D01*
X91730965Y-80482804D01*
X91782237Y-80359020D01*
X91822285Y-80318972D01*
X91878922Y-80318972D01*
X91891715Y-80325809D01*
G37*
%TD.AperFunction*%
%TA.AperFunction,Conductor*%
G36*
X94352805Y-86007883D02*
G01*
X94376639Y-86059261D01*
X94366789Y-86099342D01*
X94333610Y-86156809D01*
X94333606Y-86156818D01*
X94299500Y-86284105D01*
X94299500Y-86415894D01*
X94333606Y-86543181D01*
X94333610Y-86543190D01*
X94399500Y-86657314D01*
X94477826Y-86735640D01*
X94499500Y-86787966D01*
X94499500Y-89625500D01*
X94477826Y-89677826D01*
X94425500Y-89699500D01*
X91233104Y-89699500D01*
X91180778Y-89677826D01*
X91159104Y-89625500D01*
X91164737Y-89597181D01*
X91166390Y-89593189D01*
X91166391Y-89593187D01*
X91166392Y-89593186D01*
X91200500Y-89465892D01*
X91200500Y-89334108D01*
X91200500Y-89334106D01*
X91200499Y-89334105D01*
X91191226Y-89299499D01*
X91166392Y-89206814D01*
X91100500Y-89092686D01*
X91007314Y-88999500D01*
X90981576Y-88984640D01*
X90893190Y-88933610D01*
X90893181Y-88933606D01*
X90765894Y-88899500D01*
X90765892Y-88899500D01*
X90634108Y-88899500D01*
X90634106Y-88899500D01*
X90502130Y-88934863D01*
X90501381Y-88932069D01*
X90453856Y-88932001D01*
X90413866Y-88891895D01*
X90413948Y-88835257D01*
X90418175Y-88826698D01*
X90466392Y-88743186D01*
X90469485Y-88731638D01*
X90488637Y-88698464D01*
X91110489Y-88076614D01*
X91169799Y-87973887D01*
X91176066Y-87950499D01*
X91179274Y-87938529D01*
X91200500Y-87859308D01*
X91200500Y-86548008D01*
X91222174Y-86495682D01*
X91255345Y-86476530D01*
X91293186Y-86466392D01*
X91389077Y-86411028D01*
X91445227Y-86403636D01*
X91490161Y-86438115D01*
X91498021Y-86461266D01*
X91498244Y-86461207D01*
X91499154Y-86464605D01*
X91499441Y-86465449D01*
X91499499Y-86465892D01*
X91533606Y-86593181D01*
X91533607Y-86593184D01*
X91533608Y-86593186D01*
X91599500Y-86707314D01*
X91692686Y-86800500D01*
X91806814Y-86866392D01*
X91934105Y-86900499D01*
X91934106Y-86900500D01*
X91934108Y-86900500D01*
X92065894Y-86900500D01*
X92065894Y-86900499D01*
X92193186Y-86866392D01*
X92307314Y-86800500D01*
X92400500Y-86707314D01*
X92466392Y-86593186D01*
X92469485Y-86581638D01*
X92488637Y-86548464D01*
X92973900Y-86063202D01*
X93023142Y-86041593D01*
X94299623Y-85988406D01*
X94352805Y-86007883D01*
G37*
%TD.AperFunction*%
%TA.AperFunction,Conductor*%
G36*
X103851484Y-85343494D02*
G01*
X107920135Y-87596901D01*
X109869526Y-88676564D01*
X109897756Y-88704293D01*
X109899501Y-88707315D01*
X109928288Y-88736102D01*
X109949962Y-88788428D01*
X109928288Y-88840754D01*
X109901768Y-88857782D01*
X108803642Y-89266386D01*
X108747043Y-89264321D01*
X108740837Y-89261118D01*
X108690864Y-89232267D01*
X108656385Y-89187335D01*
X108663777Y-89131182D01*
X108675533Y-89115859D01*
X108745480Y-89045913D01*
X108798207Y-88954587D01*
X108825499Y-88852729D01*
X108825500Y-88852729D01*
X108825500Y-88747271D01*
X108825499Y-88747270D01*
X108824481Y-88743472D01*
X108798207Y-88645413D01*
X108745480Y-88554087D01*
X108670913Y-88479520D01*
X108623782Y-88452309D01*
X108579591Y-88426795D01*
X108579582Y-88426791D01*
X108477729Y-88399500D01*
X108477727Y-88399500D01*
X108372273Y-88399500D01*
X108372271Y-88399500D01*
X108270417Y-88426791D01*
X108270408Y-88426795D01*
X108179086Y-88479520D01*
X108144281Y-88514326D01*
X108091955Y-88536000D01*
X107258045Y-88536000D01*
X107205719Y-88514326D01*
X107170913Y-88479520D01*
X107079591Y-88426795D01*
X107079582Y-88426791D01*
X106977729Y-88399500D01*
X106977727Y-88399500D01*
X106872273Y-88399500D01*
X106812813Y-88415432D01*
X106756661Y-88408039D01*
X106722182Y-88363105D01*
X106729574Y-88306955D01*
X106766392Y-88243186D01*
X106800499Y-88115894D01*
X106800500Y-88115894D01*
X106800500Y-87984106D01*
X106800499Y-87984105D01*
X106797761Y-87973888D01*
X106766392Y-87856814D01*
X106700500Y-87742686D01*
X106607314Y-87649500D01*
X106541751Y-87611647D01*
X106493190Y-87583610D01*
X106493181Y-87583606D01*
X106365894Y-87549500D01*
X106365892Y-87549500D01*
X106234108Y-87549500D01*
X106234105Y-87549500D01*
X106230978Y-87550338D01*
X106229360Y-87550124D01*
X106229299Y-87550133D01*
X106229296Y-87550116D01*
X106174826Y-87542941D01*
X106163447Y-87534849D01*
X106157201Y-87529452D01*
X105289356Y-86779520D01*
X103767250Y-85464221D01*
X103741830Y-85413609D01*
X103759643Y-85359846D01*
X103810255Y-85334426D01*
X103851484Y-85343494D01*
G37*
%TD.AperFunction*%
%TA.AperFunction,Conductor*%
G36*
X94246237Y-78901350D02*
G01*
X94247107Y-78901811D01*
X94408838Y-78989095D01*
X96201122Y-79956360D01*
X96236876Y-80000285D01*
X96231099Y-80056627D01*
X96187174Y-80092381D01*
X96173250Y-80095124D01*
X93004211Y-80408114D01*
X92950008Y-80391687D01*
X92944613Y-80386799D01*
X92907314Y-80349500D01*
X92907311Y-80349498D01*
X92907309Y-80349496D01*
X92880891Y-80334244D01*
X92846412Y-80289311D01*
X92853804Y-80233159D01*
X92863774Y-80220167D01*
X92863752Y-80220149D01*
X92864317Y-80219460D01*
X92865573Y-80217824D01*
X92865576Y-80217820D01*
X92866059Y-80217338D01*
X92920104Y-80136452D01*
X92967195Y-80104988D01*
X93022744Y-80116037D01*
X93046559Y-80142063D01*
X93049918Y-80148207D01*
X93049921Y-80148210D01*
X93111901Y-80198098D01*
X93188256Y-80220470D01*
X93247384Y-80214078D01*
X93247392Y-80214077D01*
X93623988Y-80095917D01*
X93623988Y-80095916D01*
X93504662Y-79715600D01*
X93576487Y-79715600D01*
X93659145Y-79693451D01*
X93733254Y-79650664D01*
X93743187Y-79640730D01*
X93862523Y-80021074D01*
X93862524Y-80021074D01*
X94239118Y-79902917D01*
X94291309Y-79874379D01*
X94291310Y-79874378D01*
X94341198Y-79812398D01*
X94341198Y-79812397D01*
X94363570Y-79736044D01*
X94363570Y-79736041D01*
X94357178Y-79676915D01*
X94357177Y-79676907D01*
X94239017Y-79300310D01*
X94239016Y-79300310D01*
X93858700Y-79419635D01*
X93858700Y-79347813D01*
X93836551Y-79265155D01*
X93793764Y-79191046D01*
X93783829Y-79181111D01*
X94164174Y-79061775D01*
X94141370Y-78989095D01*
X94146385Y-78932680D01*
X94189822Y-78896335D01*
X94246237Y-78901350D01*
G37*
%TD.AperFunction*%
%TD*%
M02*
